<?xml version="1.0" encoding="utf-8"?>
<!-- Generator: Adobe Illustrator 25.4.1, SVG Export Plug-In . SVG Version: 6.00 Build 0)  -->
<svg version="1.1" xmlns="http://www.w3.org/2000/svg" xmlns:xlink="http://www.w3.org/1999/xlink" x="0px" y="0px"
	 viewBox="0 0 1436.6 2015" style="enable-background:new 0 0 1436.6 2015;" xml:space="preserve">
<style type="text/css">
	.st0{fill:#EC775F;}
	.st1{font-family:'Roboto-Medium', sans-serif;}
	.st2{font-size:55px;}
	.st3{enable-background:new    ;}
	.st4{fill:#FFFFFF;}
	.st5{font-family:'Roboto-Regular', sans-serif;}
	.st6{font-size:40px;}
	.st7{font-family:'RobotoSlab-Regular', sans-serif;}
	.st8{font-size:21px;}
	.st9{fill:#CCB9B2;}
	.st10{font-size:30px;}
	.st11{font-size:12px;}
	.st12{fill:#CCBBB4;enable-background:new    ;}
	.st13{fill:#CEC2BF;}
	.st14{fill:#CCBBB4;}
	.st15{fill:none;}
</style>
<g id="Layer_1">
	<g id="Layer_1_00000129165220688483141060000000414697146503583388_" xmlns:vectornator="http://vectornator.io">
		<polygon points="-425.9,0 1541.6,0 1541.6,2015 -405.7,2037.6 		"/>
		<g id="Layer_1_00000129168019772101833100000012334849450145467034_" vectornator:layerName="Layer 1">
			
				<image style="display:none;overflow:visible;enable-background:new    ;" width="2387" height="1667" id="Image" xlink:href="3AD473D45D823BE9.png"  transform="matrix(0.6478 0 0 0.6478 -275.0673 250.0214)">
			</image>
			<polygon points="1285.2,404 1151.3,422.4 1039.3,422.4 848.4,426.8 699.3,432.1 556.5,432.1 478.2,455.7 467.3,470.7 
				581.6,551.7 1028.4,571.5 1291.1,549.7 			"/>
		</g>
		<text transform="matrix(1 0 0 1 791.8901 1563.0593)" class="st0 st1 st2">Hipocentro</text>
		<text transform="matrix(1 0 0 1 793.7458 1610.1246)" class="st3"><tspan x="0" y="0" class="st4 st5 st6">Punto de origen del sismo al</tspan><tspan x="504" y="0" class="st4 st7 st8"> </tspan></text>
		<text transform="matrix(1 0 0 1 797.0488 1653.0752)" class="st4 st5 st6">interior de la Tierra.</text>
		<text transform="matrix(1 0 0 1 780.6611 495.0718)" class="st0 st1 st2">Epicentro</text>
		<text transform="matrix(1 0 0 1 780.661 546.0047)" class="st3"><tspan x="0" y="0" class="st4 st5 st6">Punto en la superficie de la Tierra</tspan><tspan x="593.5" y="0" class="st4 st7 st8"> </tspan></text>
		<text transform="matrix(1 0 0 1 781.6554 586.2331)" class="st4 st5 st6">directamente arriba del hipocentro.</text>
		<text transform="matrix(1 0 0 1 796.9389 1020.1245)" class="st0 st5 st6">5 km de profundidad</text>
		<text transform="matrix(1 0 0 1 148.8546 298.7514)" class="st0 st1 st2">Ruptura</text>
		<text transform="matrix(1 0 0 1 154.2355 349.8667)" class="st4 st5 st6">Levantamiento del</text>
		<text transform="matrix(1 0 0 1 152.8275 387.5518)" class="st4 st5 st6">suelo de 3 metros.</text>
		<path class="st9" d="M1140.5,249.9c0,0,11.6-27.5,25.3-33.4s26.5-3.9,47.1-11.8c20.6-7.9,39.2-7.9,39.2-7.9h18.9v53H1140.5z"/>
		<text transform="matrix(1 0 0 1 253.2499 1793.0587)" class="st4 st5 st10">* La representación no cumple</text>
		<text transform="matrix(1 0 0 1 273.2737 1821.6724)" class="st3"><tspan x="0" y="0" class="st4 st5 st10">con las proporciones reales. Su fin</tspan><tspan x="459.2" y="0" class="st4 st7 st11"> </tspan></text>
		<text transform="matrix(1 0 0 1 274.6141 1850.6331)" class="st3"><tspan x="0" y="0" class="st4 st5 st10">es solamente ilustrativo</tspan><tspan x="318.4" y="0" class="st4 st5 st11">.</tspan></text>
	</g>
	<g id="Layer_3">
		<g id="Layer_2">
			<path class="st12" d="M442.5,462.8c-3.9,1.2-8.5-2.2-8.4-6.4c-1.3,1-2.5,1.9-3.8,2.9c-1.3-1.7-1.9-3.8-1.9-5.9
				c-2,1.5-4,3.1-6,4.6c0-2.6-3.1-4.3-5.7-3.9c-2.6,0.5-4.6,2.4-6.5,4.2c-2.3-6.2-12.3-7.5-16-2c-0.7-1.8-1.4-3.6-2.1-5.4
				c-1.9,1.8-3.9,3.6-5.8,5.5c0.1-2-1.3-4-3.2-4.6c-1.6,1.8-3.2,3.5-4.7,5.3c-2-4.5-8.4-3.9-13.3-4.5c-4.8-0.6-9.3-3.2-12.1-7
				c-0.4,1.3-0.9,2.7-1.3,4c-2.3-1.3-4.6-2.6-6.9-3.9c0.2,2.3,0.4,4.5,0.6,6.8c-1.5-0.5-2.9-0.9-4.4-1.4c-0.5,1.3-1,2.6-1.6,4
				c-4.7,4.9-12.5,4.9-18.9,2.9c-6.4-2-12.3-5.6-18.9-7.1c-12.9-2.9-28.9,2.1-37.9-7.6c-3.5,4.7-10.9,1.1-15.3-2.8
				c2.4,2.1,4.7,4.2,7.1,6.4c-3.5,1-6.7,2.7-9.4,5.1c-1.3-1.6-2.5-3.2-3.8-4.8c-1,1.4-2,2.8-3.1,4.1c-1-1.1-2.1-2.3-3.1-3.4
				c-1.2,1-2.4,2.1-3.6,3.1c-0.9-1.7-1.7-3.4-2.6-5.1c-0.4,3.5-4.5,6.1-7.8,4.9c-0.5-1.2-1-2.4-1.6-3.5c-1.1,0.9-2.3,1.9-3.4,2.8
				c-2.7-2.5-6.3-4.1-9.9-4.4c-12.2,5.5-25.9,7.9-39.2,6.8c-2.3-0.2-4.7-0.5-6.6-1.8c-3.9-2.6-7.9-9.1-11.8-6.5
				c0.7,1.2-0.5,2.9-1.9,2.7c-4.9-2.9,0.1-12.6-4.8-15.5c-1.7-1-4.1-0.7-5.4-2.3c-0.7-0.8-0.9-2-1-3c-1-7.8-1.9-15.6-2.9-23.3
				c-6.5-2.6-14.8,3-14.9,10c-3.9-2.6-9.5-0.3-12.1,3.6c-2.6,3.9-2.9,8.8-3.2,13.5c-3.3-43.6-5-87.4-5-131.1
				c-3.2,0.1-6.5,0.8-9.4,2.1c3,38.5,4.3,77.2,3.8,115.8c0,2.9-0.1,6-1.8,8.3c-1.7,2.3-5.5,3.3-7.4,1.2c-2.8-1.5-0.8-5.7,1.2-8.2
				c2-2.5,2.6-7.6-0.6-7.6c-1.9-8.1-1.2-16.8,1.8-24.6c-1-0.6-1.9-1.1-2.9-1.7c-1.6-6-0.4-12.8,3.1-17.9c-2.6-2.3-2.7-6.2-2.7-9.6
				c0-13.9,0.1-27.8,0.1-41.7c-2.2-1.2-3.8,2.4-3.8,4.9c-0.1,14.7-0.1,29.5-0.2,44.2c-2.5-0.6-5.2,0.6-6.5,2.8
				c3.7,5.8,4.2,13.6,1.2,19.9c-0.6,1.1-1.2,2.3-1.4,3.5c-0.2,1.4,0.2,2.9,0.6,4.3c1.3,5.2,1.6,10.6,0.9,15.8
				c-1.1,0.9-2.2,1.8-3.4,2.6c3.6,9.3,1.5,19.7-0.7,29.4c-1,4.5-3.6,10.4-7.6,8c-0.7,2.3-4.6,1.4-5.2-0.9c-0.7-2.3,0.7-4.6,2.2-6.5
				c1.4-1.9,3-3.9,2.8-6.3c-0.1-1.8-1.3-3.4-1.7-5.1c-0.4-1.8,0-3.7,0-5.5c0.1-5.3-2.8-10.1-4.9-15c-8.4-19.3-5.2-41.4-1.9-62.2
				c-17.1-0.1-34.2,1-51.1,3.4c3,15.9,3.9,32.1,2.4,48.2c-0.8,9.5-4.5,21.1-13.9,22.5c-2.4,0.4-5,0-7.2,0.9
				c-5.6,2.2-5.6,10-4.7,15.9c0.9,5.9,0.8,13.8-4.8,15.9c-1.7,0.6-3.5,0.5-5.3,0.5c-10-0.5-20.2,3.9-29.4,0
				c-5.4-2.3-11.5-2.6-17.1-0.9c-0.9,0.3-2,0.6-2.8,0c-0.5-0.4-0.7-1-0.9-1.5c-0.9-1.8-3-3-5-2.6c-0.4-1.5-0.7-3.1-1.1-4.6
				c-4.1,0.2-8.2,0.3-12.2,0.5c-1,0-2,0.1-2.9-0.3c-1.1-0.4-1.9-1.2-2.8-1.8c-4-2.6-10.1-0.9-12.1,3.4c-1,2.1-1.1,4.6-2.2,6.7
				c-1.1,2.1-4.1,3.5-5.8,1.9c-0.6-0.5-0.8-1.3-1.1-2c-1.9-5.4-5-9.8-6.9-15.2c-2.6,4.9-5.1,9.8-7.7,14.7c1-8.2-3.1-17.2,1.1-24.2
				c1-1.6,2.4-3,3.2-4.7c1.9-4.1,0-8.8-2-12.8c-1-1.9-3.5-4-4.8-2.3c1-7.5-0.4-15.2-4-21.9c-0.2,8.1-7.6,14-10.3,21.6
				c-0.3,0.8-0.5,1.6-0.3,2.4c0.4,1.2,1.6,1.8,2.7,2.5c7.2,4.5,7.9,14.6,7.8,23.2c-0.1,4.5-0.1,9-0.2,13.6c0,0.7,0,1.4-0.4,1.9
				c-0.6,0.9-1.9,1.1-3,1.2c-9.8,0.9-19.6,1.8-29.4,2.7c-2.2,0.2-4.7,0.2-6-1.4c-2.2-2.7,0.7-6.5,3.7-8.2c3-1.7,6.8-3.4,7.1-6.8
				c0.1-1.2-0.3-2.5,0.1-3.6c0.6-2,3.3-3.9,2.1-5.6c-0.6-0.8-1.7-0.8-2.6-1.3c-3.6-2.1,0.6-8.3-1.8-11.7c-1-1.5-3.1-2-4.5-3.2
				c-1.4-1.3-2.1-3.2-2.6-5c-2.7-9.2-4.8-18.5-6.3-28c-4.8,4.6,0.8,12.9-1.6,19.1c-0.6,1.6-1.8,3.1-2,4.8c-0.1,1,0.1,2,0,3
				c-0.2,1.6-1.2,3-1.7,4.6c-0.5,1.6-0.1,3.7,1.5,4.2c-5.8,1-11.3,4.1-15.1,8.6c-1.2,1.5-2.3,3.6-1.3,5.2c0.6,1,1.9,1.4,3,1.8
				c3.7,1.1,7.4,2.3,11,3.4c-2.3,1.6-4.7,3.1-7,4.7c3.2,1.6,6.6,3.3,9,6c2.4,2.7,3.8,6.6,2.5,10c-4.6-0.7-9.8-2-14.3-2.6
				c-1.6-0.2-3.4-0.6-4.4-1.8c-0.9-1-1.1-2.5-1.2-3.9c-2-20.3-2.7-40.7-2-61.1c0.1-3.1,0.5-6.7,3-8.5c1.5-1.1,3.5-1.3,5-2.2
				c1.6-0.9,2.7-3.3,1.4-4.6c-2.7,0.7-5.5,1.4-8.2,2c1.4-5.7,0.2-11.9-3.1-16.7c-1.2,6.3-1.5,12.8-0.7,19.1
				c-2.3,0.4-4.6,0.7-6.9,1.1c0.3,1.7,0.5,3.5,0.8,5.2c1.9-0.5,3.8-0.9,5.7-1.4c0.1,23.5,0.1,47,0.2,70.6c-3.2,1.8-7.7,1.1-10.1-1.7
				c-2.5,1.2-5.8,0.6-7.7-1.4c-1.1-1.2-1.8-2.8-3.1-3.8c-1.3-1-3.8-0.8-4,0.9c-0.4-4-2.8-9.5-6.6-8.1c-4.6-5.7-10.7-10.1-17.5-12.8
				c-3.3,2.2-6.7,4.5-10,6.7c0.1,2.2,0.3,4.4,0.4,6.6c-4.2,1.8-7.9,4.5-11,7.9c5.6,4.2,8.5,11.7,7.3,18.6c5.1-2.7,12.2-0.7,15.2,4.2
				c3,4.9,1.5,12.1-3.2,15.4c1.2,5.1,5.9,9.1,11.1,9.5c2.2,0.2,4.5-0.2,6.3,0.9c4.3,2.7,2.3,11.1,7.1,12.8c3.4,1.2,7.1-2.5,10.5-1.4
				c3.5,1.1,3.7,5.8,4.6,9.4c2.1,8.1,12.3,13.1,20,9.7c22.3-9.7,47.4-2.6,71.6-0.3c19.7,1.9,39.1,6,58.9,6.2c18,0.1,35.8-3,53.7-4
				c45.4-2.5,91.7,9,136.1-1.1c7.8-1.8,15.6-4.2,23.5-3.6c10.6,0.8,20.1,6.7,30.6,8.2c21.6,3,43.6-13.2,64.2-6.1
				c3.3,1.1,6.6,2.8,10,1.9c4.3-1.1,7.5-6.4,11.8-5.3c3.3,0.9,4.4,5,7,7.3c5.3,4.7,13.3-0.2,19.9-2.7c10.3-4,21.7-1.8,32.6-0.2
				c27.4,3.9,55.9,3.5,81.9-6c4.4-1.6,8.8-3.5,13.5-4c5.6-0.6,11.1,1,16.7,1.9c15.2,2.5,31.1,0.4,45.2-5.9
				C463.2,495.2,454.7,476.9,442.5,462.8z"/>
			<path class="st12" d="M467.3,508c11.8,37.8,23.2,69.4,30.7,122.5c3.4,23.7,12.5,56.8,19.8,79.6c6.9,21.5,6.1,44.7,11.3,66.6
				c5.8,24.2,18.7,46.2,26.2,69.9c14.8,46.9,7.7,98.6,22.7,145.4c6.5,20.4,17.1,39.2,24.5,59.3c26,70.5,11.5,148.4,9.6,223.6
				c-0.4,14.9-0.1,30.4,6.7,43.6c5.5,10.6,14.7,18.7,21.5,28.5c17.3,25.1,16.5,57.8,18.2,88.2c3.5,62,20.2,123.2,48.5,178.4
				c9.6,18.7,20.5,36.7,32.6,53.9c5.8,8.3,12,16.4,20,22.7c14.9,11.7,35.5,16.2,47,31.3c12.4,16.2,10.2,39.2,17.9,58.1
				c6.7,16.6,20.6,29.1,32.2,42.6c23.6,27.4,39.4,61.3,45.4,96.9c-15.2-24.1-30.3-48.2-45.5-72.3c-21.4-34.1-43.1-68.6-54.8-107.1
				c-3.8-12.4-18-17.4-29.9-22.3c-4.8-2-10.2-3.6-12.9-8c-1.3-2.2-1.7-4.8-3.2-6.9c-4-5.5-12.7-3.9-18.4-7.5
				c-11-6.9-6.2-28.5-18.5-32.3c-43.9-13.5-49.6-75.8-60.3-120.5c-7.4-31.3-11.7-63.2-15.9-95.1c-6.5-48.9-15.1-102.1-51.5-135.3
				c2.4-21.6,4.9-43.1,7.3-64.7c8.7-76.3,15.2-160.9-30.9-222.3c-5.8-7.7-12.6-15.5-13.6-25.1c-0.7-6.9,1.7-13.6,3-20.4
				c7.4-39.4-24.2-74.4-36.5-112.6c-1.8-5.5-3.1-11.5-1.1-16.9c1.9-5.2,6.7-8.9,9.1-13.9c9.6-19.3-19.1-39.4-15.1-60.6
				c1.1-5.7,4.5-10.8,5.3-16.5c0.9-6.9-2-13.7-5.1-19.9c-10.5-21.3-28.3-39.5-34.3-62.5c-10.2-38.9,3.4-84.4-31.5-126.1
				c-6.3-7.6-17.4-27.8-14.4-37.2C437.4,500.6,456.5,515.6,467.3,508z"/>
		</g>
		<path class="st12" d="M571.9,434.5c-16.3,0.1-32.6,3.4-47.8,9.5c-1.7,0.7-3.5,1.4-5.2,0.9c-1.1-0.4-2-1.2-3-1.9
			c-7.1-5.1-16.8-0.7-25.1,1.9c-1.6,0.5-3.3,0.9-5,0.7c-3.8-0.6-6.2-4.2-8.9-7c-2.7-2.8-9.6-6-10.6-2.2c-1.2,4.5-2.8,8.9-4.7,13.1
			c-3.7-1-7.7-0.5-11.2,1.1c-1.5,0.7-2.9,1.7-4.4,2.3c-4.6,1.9-10.4,0.4-13.5-3.5s-3.2-9.9-0.3-14c-1.1-1.7-2.6-3.3-4.3-4.5
			c1-1.2,2-2.5,3-3.7c-2.3-2.9-4.6-5.8-7-8.8c-1.3-1.7-2.7-3.5-3.2-5.6c-0.5-2.1,0.3-4.7,2.3-5.5c2.6-1.1,6.9,0.5,7.7-2.2
			c0.3-0.9-0.1-1.9,0.1-2.8c0.5-2.3,3.7-2.5,6-2c10.9,1.9,21.7,3.8,32.6,5.7c15.6,2.7,30.8,1.5,46.7,0.4c0.4,0,0.9-0.1,1.2-0.4
			c0.4-0.4,0.4-1,0.5-1.5c0.3-17.9,0.7-35.8,1-53.7c-1.8,0.7-3.7,1.3-5.5,2c1.6-2.9,5.2-4.4,8.4-3.6c0.1-4.1,0.2-8.1,0.3-12.2
			c1.2-0.5,2.4-1.1,3.6-1.6c-0.3,4.8,0,9.7,0.8,14.5c2.6-1.6,5.4-2.9,8.4-3.7c1.4,2.1-1.2,4.7-3.7,5.2c-2.4,0.5-5.3,0.2-7.1,1.9
			c1.1,17.6,2.2,35.2,3.3,52.9c1-0.5,2-1,3-1.4c0.1-1.1,2.1-1.5,3-1c1,0.5,1.9,1.3,3,1.1c0.9-0.1,1.7-1,2.6-0.9c1.1,0.1,2,1.4,3,0.8
			c0.5-0.3,0.6-1,0.6-1.5c0.3-5.3,0.5-10.5,0.8-15.8c0.1-1.3,0.1-2.6-0.5-3.7c-0.6-1.1-2.2-1.7-3.2-1c5.3-6.9,10.9-13.5,16.7-19.9
			c5.7,5.8,10.9,12,15.7,18.5c-2,0-3.5,1.8-3.9,3.7c-0.4,1.9,0.1,3.9,0.5,5.8c1,4.7,1,9.4,1.7,14.1c1.9-0.1,6.1,0.5,7.6-1
			c0.8-0.8,0.8-2.1,0.8-3.3c-0.9-18.2-2.3-36.4-4.2-54.6c6.3,4.2,12.7,8.3,19,12.5c0.8,0.5,1.6,1.1,2.2,1.8c0.8,1.1,0.9,2.5,1,3.9
			c1.1,12.3,2.1,24.6,3.2,37c2.3-2,6-2.3,8.6-0.6c-1.5-12.2-2.1-24.5-1.7-36.7c7.4-1.3,14.9-1.9,22.4-1.7c-0.1-2.3,2.3-4.4,4.6-3.9
			c0.6,6.6,2.3,13,4,19.4c0.3,1.1,0.6,2.2,0.9,3.2c1.4,5.5,2.9,11.1,2.3,16.7c-0.1,0.6-0.2,1.3-0.8,1.7c-0.5,0.3-1.5-0.2-1.2-0.8
			c0.3,2.5,4.4,3.5,6.9,3.2s5.3-1.1,7.4,0.3c0.8,0.5,1.3,1.2,2,1.8c3.2,2.7,8,2.3,12.2,1.6c0.7-6.6,0.8-13.3,0.3-20
			c-3.2-1.2-6.2-3.1-8.6-5.5c0.8-0.8,1.1-1.9,0.9-2.9c-1.3,0.9-3.2-0.3-3.6-1.8c-0.4-1.5,0.3-3.1,1-4.6c3.5-0.1,6.1-3.3,7.1-6.7
			c1-3.3,0.9-6.9,1.7-10.2c0.8-3.4,3-6.8,6.3-7.5c0.1,0.6,0.2,1.3,0.4,1.9c1.9,3,3.9,6.1,5.8,9.1c0.9,1.5,1.9,3.1,1.7,4.9
			c-0.2,1.7-1.5,3.3-1.1,4.9c0.3,1,1.2,1.7,1.9,2.6c1.6,1.9,2,4.7,0.9,6.9c2.1-0.3,3.4,2.6,2.4,4.4s-3.4,2.5-5.4,2.4
			c1.1,0.5,2.2,0.9,3.3,1.4c-1.9,2.9-6,4.3-9.3,3.1c-0.8,4-1.2,8-1.2,12.1c0,2,0.2,4.1,1.3,5.8s3.5,2.6,5.2,1.6
			c2.5-1.5,5.7-0.4,8.3,0.9s6.2,2.3,8.1,0c-0.5-2.3,0.5-4.9,2.3-6.3c-3.6-1.4-4.5-6.1-4.2-10s1.4-7.9-0.2-11.5
			c-0.6-1.4-1.7-2.7-1.9-4.3c-0.2-2.1,1.2-4,1.9-6c1.2-3.4,0.3-7.1-0.1-10.7c-0.5-4.9,0-9.9,1.5-14.6c0.5,0.8,1.1,1.7,1.6,2.5
			c0.3-1.5,1.1-3,2.2-4.1c1,14.5,2.1,29,3.2,43.4c0.3,4.1,0.6,8.2,0.9,12.3c0.3,3.5,0.5,7.1,0.8,10.6c3.8-0.8,8.7-3,8.1-6.8
			c-0.1-0.8-0.5-1.5-0.7-2.3c-0.4-1.1-0.4-2.3-0.5-3.5c-0.6-8.8-1.2-17.6-1.8-26.4c-0.5-7.1-0.6-15,4.3-20.1
			c1.2,11.4,2.4,22.7,3.6,34.1c0.5,5.1,1.1,10.2,2.7,15c0.8,0.5,1.6,1.1,2.4,1.6c-2.4,2.1-0.4,6.5,2.6,7.5s6.3-0.2,9.3-1.5
			c0.8-0.3,1.7-0.7,2.2-1.5c0.4-0.6,0.4-1.3,0.4-2.1c0.1-4,0.3-8,0.4-12c-2.4-0.2-4.8-0.4-7.3-0.5c6.6-7,13.2-14.1,19.7-21.1
			c6.6,7.4,13.2,14.8,19.8,22.2c-2.3,0.4-4.5,0.9-6.8,1.3c-0.1,4.1-0.2,8.2-0.3,12.3c0,1.5,0.9,3.7,2.3,3c3.1-1.7,5.1-2.9,8.4-4.2
			c-0.8-22.7-0.3-45.5,1.4-68.2c-2.5,1.3-5.9,0.8-7.9-1.3c3.3-0.1,6.5-0.2,9.8-0.3c-0.6-3,0.3-6.3,2.5-8.6c1.2,3.1,1.6,6.4,1.2,9.7
			c3.3-1.5,7.6-0.5,10,2.2c-3.6,0.5-7.2,1-10.8,1.4c-0.7,20.4-1.4,40.7-2.1,61.1c0,1.1,0.2,2.6,1.3,2.7c7,1.1,14.7-1.8,21.8-1.8
			c6.7,0,13.4,0.1,20.1,0.1c3.4-43,5.6-86.2,6.5-129.3c20.2,0.2,40.3,0.4,60.5,0.6c0.7,0,1.5,0,2.1,0.5c0.7,0.6,0.8,1.6,0.9,2.5
			c1.7,30.3,3.3,60.5,5,90.8c0.1,2,0.3,4.1,1.4,5.8c1.1,1.7,3.7,2.5,5.2,1.3c-0.3-14.3-0.8-28.7-1.6-43c-0.7-13-4.4-28.8-2.6-41.5
			c23.9-2.6,49.3-0.3,73.3-0.3c-0.1,38.6,0.2,77.4,1.3,115.9c0,0.8,0.1,1.6,0.6,2.2c0.6,0.6,1.5,0.6,2.2,0.6c2.3,0,4.6,0.1,6.9,0.1
			c0.8,0,1.8,0,2.4-0.5c0.8-0.6,0.9-1.7,0.9-2.7c2.8-46.7-0.6-93.5-2.5-140.3c-0.1-2.6,0.1-5.8,2.5-6.9c1.5-0.7,3.5-0.2,4.9-1
			c2.3-1.3,1.9-4.7,1.5-7.3s0.4-6.3,3.1-6.3c0.8,4.2,1.6,8.5,2.4,12.7c0.2,0.9,0.4,1.8,1,2.4c0.9,0.8,2.2,0.8,3.4,1
			c3,0.5,5.4,3.1,6.5,5.9c1.1,2.9,1.2,6,1.3,9.1c0,22.1,1.3,44.3,1.9,66.4c0.3,11.1,0.6,22.1,1,33.2c0.3,10.8-0.9,23.1,1.2,33.6
			c1.2-2,2.3-4.3,4.1-5.9c2.1-1.7,5.6-2.1,7.4-0.1c-2.2-4.5-3.1-9.7-1.6-14.4s5.6-8.7,10.6-9.2c-1-3.7,2.8-7.3,6.6-7.6
			s7.4,1.7,10.8,3.6c-2-2.2,0.1-6.5,3.1-6.3c-0.1-1.1,0-2.3,0.5-3.3c1.6,0.2,3.3,0.5,4.9,0.7c-2.2-3.6-3.6-8.2-2-12.1
			c1.6-3.9,7.3-6.1,10.3-3.1c-1.5-1.6-1.5-4.4,0-5.9s4.2-1.8,5.9-0.4c-0.5-1.2-1.1-2.5-0.9-3.8c0.2-1.3,1.5-2.5,2.8-2
			c0.4,0.1,0.7,0.4,1.1,0.6c1.8,0.9,3.9-0.9,4.1-2.9c0.2-1.9-0.7-3.8-1.7-5.5c-1-1.7-1.9-3.6-1.7-5.5c0.2-1.9,2.4-3.7,4.1-2.9
			c1.8,0.9,0.5,4.4-1.2,3.5c2,1.5,5-0.5,5.5-3c0.4-2.5-0.8-4.9-2-7c1.5-2.2,2.7-4.5,3.7-6.9c1.5,1.7,4.2-0.4,4.9-2.5
			c0.7-2.1,1.3-4.8,3.5-5.3c1.2-0.2,2.4,0.4,3.6-0.1c0.7-0.3,1.2-0.9,1.6-1.5c2.4-3.1,4.8-6.3,7.2-9.4c6.1-3.5,10.2-10,10.8-16.9
			c2,0.2,4-0.3,5.7-1.2c0-1.7,0-3.3,0-5c-0.9,0-1.9,0-2.8,0c0-3,0.9-6,2.5-8.6c3.5-0.4,7.2,1,9.6,3.5c0.3-0.9,0.6-1.8,0.9-2.8
			c0.4-1.3,0.8-2.3,1.2-3.6c0.4-1.3,0-3-1.1-3.7c0.5-0.8,1-1.6,1.5-2.4c-0.8-0.8-1.9-1.4-3-1.6c-1.1-0.3-2.8-2.9-3.9-3.2
			c2-0.2,3.9-1,5.5-2.1c-0.9,0.1-1.5-1.2-1.1-2c0.4-0.8,1.4-1.3,2.2-1.6s1.8-0.7,2.4-1.4c0.5,0.7,0.6,1.5,1.1,2.2
			c1.8-0.9,3.3-2.1,4.5-3.7c-0.1,1.9-0.1,3.8-0.1,5.7c-0.1,0.7-0.2,1.4-0.3,2.1c2.2-2.5,4.5-5,6.1-7.9c0.4-0.8,0.8-1.6,0.6-2.5
			c-0.2-0.6-0.6-1.2-0.6-1.8c0-1.7,3.2-2.7,2.4-4.2c-0.6-1.1-2.7-0.4-3.4-1.6c1.3-0.8,2-2.6,1.6-4.1c1-0.2,2-0.5,3-0.7
			c0,2.3,1.9,1.9,4.1,1.1s3.7-2.6,5.6-3.7c1-0.6,2.3-1,3-2c0.5-0.6,0.7-1.4,1.2-2c1.8-2,5.3,0.1,7.9-0.8c0.7,1.1,3,0,3.2-1.3
			c0.1-1.3-0.7-2.6-0.9-3.9c-0.3-1.6,0.2-3.3,1.3-4.5c-1.2-0.6-2.4-1.1-3.7-1.7c0.5-0.7,1.3-1.3,2.1-1.6c-2.2-0.2-5.5,0.3-7.6-0.5
			c2.1-1.2,4.5-2.1,6.9-2.7c-1.3-0.4-2.6-0.8-4-1.2c1.5-1.1,3.1-2.3,4.6-3.4c-1.3-0.5-2.3-1.4-3.6-1.9c1.8-0.9,3.3-2.2,4.7-3.7
			c0.8-1,1.5-2.6,0.5-3.3c-0.4-0.3-0.8-0.3-1.2-0.6c-0.6-0.6-0.3-1.5,0-2.2c0.5-1.2,1-2.4,1.5-3.6c0.2,2.4,0.7,5.2,0.9,7.6
			c0.1,1.5,0.2,3,1,4.2s2.6,1.9,3.8,1c0.1,1.5,0.2,3.1,0.3,4.6c1.2,0,2.4,1.1,2.5,2.3s-0.9,2.5-2.1,2.7c-1-0.2-1.8,1.2-2.2,2.2
			s-0.2,2.1-0.1,3.1c0.3,2.3,0.6,4.7,1.5,6.8c-0.4-0.2,0.3,0.6,0.8,0.5c2-0.6,3.9-1.3,5.7-2.2c-0.1-0.7-0.5-1.4-1-1.9
			c1.1-1,2.2-2.1,3.3-3.1c0.5-0.4,1-1,0.8-1.6c-0.1-0.5-0.7-0.8-1.1-1.1c-2.6-1.8-2.3-6.3,0.4-7.8c-1.3-0.8-2.6-1.7-3.9-2.5
			c1.4-1.9,2.8-4.7,1-6.3c-0.3-0.3-0.7-0.5-0.8-0.8c-0.2-0.5,0-1.1,0.2-1.6c1.2-2.4,2.3-4.9,3.5-7.3c-0.8,1.6,0.7,3.4,2.5,3.8
			c0.6,0.1,1.2,0.1,1.6,0.5c0.8,0.8,0,2-0.6,3c-0.5,1-0.2,2.8,0.9,2.4c1-0.4,0.6-1.3,1.6-0.9c-0.6,2.1-1.5,4.1-2.6,5.9
			c1.5,0.6,3,0.8,4.6,0.7c-0.2,1-0.3,2-0.5,3c1.6,0.3,3.2,0.5,4.7,0.8c-0.9,1.9-2.1,3.7-3.6,5.2c1.6-0.6,3.1-1.1,4.7-1.7
			c-2.9,2.2-5.8,4.4-8.8,6.6c-0.4,0.3-0.3,1.4,0.1,0.9c-0.9,0.5-0.6,2.3,0.4,2.5c1,0.2,1.9-0.5,2.7-1c-0.1,0.6-0.2,1.2-0.2,1.8
			c3.2-0.9,6.3-2.3,9-4.3c-0.4-0.3-0.9-0.7-1.3-1c1.6-1.2,3.1-2.6,4.5-4c-1.2-0.2-2.3-0.5-3.5-0.7c0.3-0.8-0.3-1.9-1.2-1.9
			c1-1,1.8-2.2,2.2-3.5c-1.2-0.5-2.5-1-3.7-1.5c-1.8-0.7-2.6-2.4-4.1-3.6c2.9-0.7,5.7-1.8,8.3-3.3c-2.3-0.8-4.6-1.5-6.9-2.3
			c3.3-1,6.4-2.3,9.5-3.8c-0.9-0.6-2-0.8-3-0.5c0.6,0.2,1.3,0.3,1.9,0.5c0.7,1.8,1.1,3.8,1.5,5.7c0.4,1.9,2.3,3.8,4.1,3.1
			c-0.8,1.7-1.7,3.4-2.5,5.1c1.2-0.7,2.7,0.6,2.8,1.9c0.1,1.3-0.7,2.6-1.5,3.7c0.4,0.4,0.8,0.8,1.3,1.2c-1.7,1-3.1,2.5-3.7,4.4
			c-0.4,0.3,0.3,1.1,0.7,0.9c5.5-3.8,11.2-7.1,17.2-10c-0.3-0.7-0.5-1.4-0.8-2.1c-0.3-0.6,0.7-1,1.2-0.7c0.6,0.3,1,0.9,1.7,0.8
			c1-0.1,1.5-1.9,2.5-1.5c0.3,0.1,0.5,0.4,0.6,0.6c1.1,1.5,3.4,1.9,5,0.8c0.1,0.9,0.2,1.7,0.3,2.6c1.3-0.2,2.7-0.3,4-0.5
			c0,0.9,0,1.7,0,2.6c0.5-0.2,0.9-0.6,1-1.2c2.7-0.1,4.1-0.6,6.2-2.4c2.4-1,4.7-2.1,7-3.3c-0.3,1-0.5,2.1-0.8,3.1
			c1.9-0.2,3.7-0.4,5.6-0.6c1-0.1,1-0.3,2.1-0.5c0,1.5-0.5,2.9-1.5,4c0.7,0.3,1.6,0.1,2.1-0.4c0.3,0.8,1.4,0.9,2.3,0.9
			c3.6-0.1,257.5,0.3,261.1,0.1c-1,70.3-28.6,143.1-29.6,213.3c-43.3,6.7-313.4,5.7-357.1,7.2c-16.3,0.6-32.6,0.8-48.9,1
			c-17,0.2-33.9,0.4-50.9,0.7c-35.9,0.5-71.8,0.9-107.7,1.4c-14.9,0.2-29.9,0.4-44.8,1.5c-16.9,1.2-33.7,3.6-50.5,6
			c-10.1,1.4-20.3,2.9-30.4,4.3c-5.4,0.8-11,1.5-16.3,0.3c-2.9-0.7-5.6-1.9-8.6-2.6c-3.3-0.8-6.7-0.7-10.1-0.7
			c-46.2,0.3-92.5,0.6-138.7,0.9C615.6,430.3,594.5,434.4,571.9,434.5z"/>
		<path class="st12" d="M434.8,448.2c36.4,28.1,53.8,74.1,63.5,119c9.7,44.9,13.6,91.5,30.7,134.1c7.8,19.4,18.4,38.3,20.1,59.2
			c0.9,11.2-0.8,22.6,2.1,33.4c2.8,10.6,9.7,19.5,14.8,29.2c27.3,51,4.8,116.9,28.3,169.9c11.2,25.2,32.1,45.7,39.4,72.3
			c3.2,11.6,3.6,23.7,3.9,35.7c0.2,7.6,0.5,15.1,0.7,22.7c1.6,51.3-6,101-9.3,152.1c-0.4,6.2-0.6,13.2,3.5,17.9
			c3.7,4.3,10.3,5.8,12.6,11c1.4,3.1,0.7,6.8,1.1,10.2c0.6,6.5,4.8,12.1,8.5,17.5c13.3,20,20.9,43.9,21.5,67.9
			c0.8,31.5-8.9,67,10.6,91.8c19.3,24.5,13.1,58.6,28,86c8.6,15.8,20,30.1,27.4,46.5c5.2,11.4,8.3,23.8,14.9,34.5
			c13.9,22.5,40.1,33.5,62.4,47.7c7.5,4.8,15.1,10.6,17.6,19.1c2.5,8.3-0.4,17.2-0.2,25.8c0.4,13.2,8.1,24.9,15.5,35.8
			c2.3,3.4,4.6,6.7,6.8,10.1c-4,3.8,1.9,9.4,7.1,11.3s11.8,3.1,13.8,8.2c0.8,1.9,0.7,4.1,1.2,6.1c2.1,7.5,12,9.4,16.8,15.5
			c6.4,8,2.4,19.9,4.5,29.9c3.2,14.9,20.4,26.1,17.9,41.2c-5-26.9-8-50.7-13.1-77.6c-1.8-9.3-7.4-21.3-16.6-19
			c3.5-5.5-2.2-12-6.9-16.6c-17.8-17.3-26.6-42.1-29.8-66.7c-0.9-7.1-1.5-14.3-4.5-20.8c-7.6-16.2-27.5-21.5-42.8-30.6
			c-25.3-15.1-40-42.6-53.5-68.7c-26.6-51.6-53.7-104.7-59.8-162.4c-1.8-17.1-1.7-34.5-4.3-51.5c-8.1-53.2-41.9-100.9-44.1-154.6
			c-0.8-18.4,2.3-36.8,4.4-55.1c3.7-31,4.9-62.2,3.7-93.4c-0.5-14.5-1.7-29.2-6.7-42.8c-6-16.4-17.4-30.3-26.3-45.3
			c-18.8-31.6-26.9-69.4-22.9-105.9c2.6-23.7-10.3-46.5-15.2-69.8c-2.9-13.8-5.9-27.9-12.9-40.2c-3.1-5.6-7.1-10.8-8.6-17
			c-1.9-7.9,0.4-16.2,0.4-24.4c0-11.4-4.4-22.3-8.5-32.9c-13.1-33.9-23.5-69-29.7-104.8c-2.5-14.4-4.3-29-7.6-43.3
			c-7.1-31.4-21-60.9-36.5-89.1C469.5,460.1,454.3,444.9,434.8,448.2z"/>
		<g class="st3">
			<g>
				<path class="st13" d="M528.3,348.3c14.9,6.3,31.1,8.7,47.1,10c17.2,1.4,34.5,1.9,51.7,2c17.4,0,34.8-0.6,52.2-1.8
					c17.3-1.2,34.5-3.1,51.7-5.5c15.6-2.2,31.6-4.7,46-11.5c1.7-0.8,3.5-1.7,5.1-2.7c1.1-0.6,0.1-2.4-1-1.7
					c-13.6,7.8-29.2,10.8-44.5,13.1c-17.1,2.6-34.3,4.6-51.6,5.9c-17.2,1.4-34.4,2.1-51.7,2.2c-17.2,0.1-34.3-0.3-51.5-1.5
					c-16-1-32.2-2.9-47.4-8.3c-1.9-0.7-3.8-1.4-5.6-2.2C527.6,345.9,527.1,347.9,528.3,348.3L528.3,348.3z"/>
			</g>
		</g>
		<g class="st3">
			<g>
				<path class="st13" d="M524.7,349.6c16.1,7.2,33,12.5,50.3,15.7c18.1,3.3,36.4,4.1,54.8,3.5c18-0.6,36-2.3,53.9-4.4
					c16.1-1.9,32.2-4.7,47.5-10.2c7.5-2.7,14.8-6,21.6-10.2c3.5-2.1,6.9-4.6,10.4-6.7c3.5-2.1,7.3-4.1,11.4-4.5
					c2-0.2,3.9,0.1,5.8,0.7c1.2,0.4,1.7-1.5,0.5-1.9c-7.8-2.6-15.5,1.7-21.8,5.9c-3.4,2.2-6.8,4.5-10.3,6.5c-3.4,1.9-7,3.7-10.6,5.3
					c-14.9,6.5-31,9.9-47,12.1c-17.5,2.5-35.2,4-52.8,5c-18.5,1-37.2,1-55.6-1.8c-17.4-2.6-34.5-7.3-50.8-14
					c-2.1-0.9-4.2-1.8-6.3-2.7C524.6,347.3,523.6,349.1,524.7,349.6L524.7,349.6z"/>
			</g>
		</g>
		<g class="st3">
			<g>
				<path class="st13" d="M348,504.5c1.1-17.5,1.5-35,1-52.6c-0.1-5-0.3-9.9-0.6-14.9c-0.1-1.3-1.9-1.3-2,0
					c-2.1,17.5-2.7,35.1-1.9,52.6c0.2,5,0.6,10,1,14.9c0.1,1.3,1.8,1.3,2,0c2.3-18.6,1.9-37.4,1.5-56.1c0-1.3-1.9-1.3-2,0
					c-1.4,15.2-2.7,30.3-4.1,45.5c-0.1,1.1,1.7,1.4,2,0.3c2.2-10.3,2.9-20.9,2.1-31.5c-0.1-1.3-1.9-1.3-2,0
					c-0.8,8.1-1.1,16.2-1.1,24.3c0,2,0.1,4.1,0.1,6.1c0,1.2-0.2,3.1,0.8,3.9c2.5,2,3.1-3.3,0.8-2.3c-1.2,0.5-0.7,2.4,0.5,1.9
					c0,0,0.1,0,0.1-0.1c-0.3,0-0.5-0.1-0.8-0.1c-0.1-0.3-0.2-0.5-0.2-0.8c0.2-0.1,0.5-0.2,0.7-0.3c0.3,0,0-3,0-3.5
					c0-1.4-0.1-2.8-0.1-4.2c0-2.8,0-5.6,0-8.3c0.1-5.6,0.5-11.1,1-16.7c-0.7,0-1.3,0-2,0c0.8,10.4,0.2,20.8-2,30.9
					c0.7,0.1,1.3,0.2,2,0.3c1.4-15.2,2.7-30.3,4.1-45.5c-0.7,0-1.3,0-2,0c0.4,18.7,0.8,37.5-1.5,56.1c0.7,0,1.3,0,2,0
					c-1.6-17.5-1.8-35.1-0.5-52.7c0.4-5,0.8-9.9,1.4-14.9c-0.7,0-1.3,0-2,0c0.9,17.5,1,35.1,0.3,52.6c-0.2,5-0.5,9.9-0.8,14.9
					C346,505.8,348,505.7,348,504.5L348,504.5z"/>
			</g>
		</g>
		<g class="st3">
			<g>
				<path class="st13" d="M358.7,449.3c-7.6-1.4-15.3-2.2-23-2.5c0,0.7,0,1.3,0,2c7.2,0.1,14.3,0.2,21.5,0.3c-0.1-0.7-0.2-1.3-0.3-2
					c-4.3,1.8-9,2.4-13.6,1.6c-1.3-0.2-1.8,1.7-0.5,1.9c4.9,0.8,10,0.3,14.6-1.6c1-0.4,0.9-1.9-0.3-2c-7.2-0.1-14.3-0.2-21.5-0.3
					c-1.3,0-1.3,2,0,2c7.5,0.3,15,1.1,22.4,2.4C359.4,451.5,359.9,449.6,358.7,449.3L358.7,449.3z"/>
			</g>
		</g>
		<g class="st3">
			<g>
				<path class="st13" d="M236.1,426.5c12.8,8.2,26.8,14.4,41.5,18.3c14.7,3.9,30,5.5,45.1,4.8c8.6-0.4,17.1-1.6,25.4-3.5
					c1.3-0.3,0.7-2.2-0.5-1.9c-14.6,3.4-29.6,4.4-44.5,3.1c-15-1.3-29.7-4.9-43.6-10.6c-7.8-3.2-15.3-7.2-22.5-11.8
					C236.1,424.1,235.1,425.8,236.1,426.5L236.1,426.5z"/>
			</g>
		</g>
		<g class="st3">
			<g>
				<path class="st13" d="M238.3,428.6c13.1,9.9,26.4,19.9,42,25.5c14.5,5.2,30.3,6.3,45.4,3.4c8.6-1.6,16.8-4.5,24.5-8.5
					c1.1-0.6,0.1-2.3-1-1.7c-13.4,7.1-28.7,10.4-43.9,9.7c-7.6-0.3-15.1-1.7-22.4-4.1c-7.5-2.5-14.6-6.1-21.4-10.2
					c-7.8-4.8-15.1-10.3-22.3-15.8C238.2,426.1,237.2,427.8,238.3,428.6L238.3,428.6z"/>
			</g>
		</g>
		<g class="st3">
			<g>
				<path class="st14" d="M174.8,452.3c0.4-20.2,0.7-40.3,1.1-60.5c-0.7,0-1.3,0-2,0c0,18.2,0.1,36.4,0.1,54.6c0,1.3,2,1.3,2,0
					c0.1-8.8,0.1-17.7,0-26.5c0-4.3-0.1-8.7-0.1-13c0-2.2-0.1-4.3-0.1-6.5c0-1.2,0-2.3-0.1-3.5c0-0.4,0-0.8,0-1.2
					c0-0.5,0.3-0.8,0.4-1.1c-0.4,1.2,1.5,1.8,1.9,0.5c0.4-1.1-0.5-2.1-1.6-2.4c-1.3-0.2-2.2,0.7-2.5,1.8c-0.5,1.6-0.1,3.6-0.1,5.3
					c0,2.2,0.1,4.3,0.1,6.5c0.1,8.5,0.2,17,0.2,25.5c0,4.8,0,9.7-0.1,14.5c0.7,0,1.3,0,2,0c0-18.2-0.1-36.4-0.1-54.6
					c0-1.3-2-1.3-2,0c-0.4,20.2-0.7,40.3-1.1,60.5C172.8,453.6,174.8,453.6,174.8,452.3L174.8,452.3z"/>
			</g>
		</g>
		<g class="st3">
			<g>
				<path class="st14" d="M183.9,401.2c-7.1-1.5-14.1-2.9-21.2-4.4c-0.2,0.6-0.4,1.3-0.5,1.9c7.5,1.3,14.9,3.3,22.1,5.8
					c1.2,0.4,1.7-1.5,0.5-1.9c-6.4-2.4-13-4.5-19.6-6.2c-1.2-0.3-1.8,1.6-0.5,1.9c6.7,1.7,13.2,3.8,19.6,6.2
					c0.2-0.6,0.4-1.3,0.5-1.9c-7.2-2.6-14.6-4.5-22.1-5.8c-1.2-0.2-1.8,1.7-0.5,1.9c7.1,1.5,14.1,2.9,21.2,4.4
					C184.6,403.4,185.2,401.5,183.9,401.2L183.9,401.2z"/>
			</g>
		</g>
		<g class="st3">
			<g>
				<path class="st14" d="M-104.7,392.7c18.5,6.9,37.4,12.7,56.5,17.4c19.1,4.7,38.4,8.2,57.9,10.6c19.5,2.4,39.1,3.7,58.8,3.8
					c18,0.1,36.3-0.3,54.1-3.3c16.1-2.7,32.2-7.9,45.3-18.1c1.6-1.2,3.1-2.6,4.6-3.9c0.9-0.9-0.5-2.3-1.4-1.4
					c-12.2,11.3-27.9,17.3-44,20.6c-17.2,3.5-35,4-52.6,4.1c-19.5,0.1-38.9-0.9-58.3-3c-19.3-2.1-38.6-5.4-57.5-9.8
					c-19-4.4-37.7-9.9-56-16.4c-2.3-0.8-4.5-1.6-6.8-2.5C-105.4,390.3-105.9,392.2-104.7,392.7L-104.7,392.7z"/>
			</g>
		</g>
		<g class="st3">
			<g>
				<path class="st14" d="M-100.9,394c15.5,9.2,32.1,16.6,49.2,22c17.2,5.5,35,9,53,10.9c18.5,1.9,37.2,2,55.8,0.4
					c19.1-1.6,38.1-4.9,56.7-9.6c18.7-4.7,37.1-10.8,55.1-18c2.2-0.9,4.5-1.8,6.7-2.7c1.2-0.5,0.7-2.4-0.5-1.9
					c-17.7,7.4-35.8,13.7-54.3,18.7c-18.5,5-37.4,8.8-56.5,10.8c-18.4,2-37,2.4-55.5,0.9c-17.9-1.4-35.7-4.5-53-9.4
					c-17.3-4.9-34.1-11.8-49.8-20.5c-2-1.1-3.9-2.2-5.9-3.4C-101,391.6-102,393.3-100.9,394L-100.9,394z"/>
			</g>
		</g>
	</g>
</g>
<g id="Layer_4">
	<g class="st3">
		<g>
			<path class="st14" d="M521.3,1067.1c-7.2-28.7-14.4-57.3-21.6-86c-3.6-14.2-7.1-28.4-10.7-42.5c-1.8-7.1-3.6-14.2-5.3-21.3
				c-0.9-3.5-1.8-7.1-2.7-10.6c-0.6-2.5-3-7.8-2.2-10.2c-0.9,0.9-1.9,1.9-2.8,2.8c0.3-0.1,0.6-0.2,0.8-0.3c-1-0.1-2.1-0.3-3.1-0.4
				c0.3,0.1,0.5,0.2,0.8,0.4c-0.6-0.8-1.2-1.6-1.8-2.4c0,0.2,0.1,0.5,0.1,0.7c0.8,5.1,8.5,2.9,7.7-2.1c-0.8-5-7.7-5.1-9.5-0.8
				c-1.4,3.3,0.4,7.4,1.2,10.6c1,3.9,1.9,7.7,2.9,11.6c4.3,17.1,8.6,34.2,12.8,51.2c8.5,33.8,17,67.7,25.5,101.5
				C514.8,1074.2,522.6,1072.1,521.3,1067.1L521.3,1067.1z"/>
		</g>
	</g>
	<g class="st3">
		<g>
			<path class="st14" d="M515.8,923.1c-13.1-12.6-26.1-25.3-39.2-37.9c-2.3-2.3-5.6-1-6.7,1.8c-5.8,14.7-11,29.7-15.2,44.9
				c-1.2,4.2-4.8,12.2,0.4,15.2c4.2,2.4,7.7-2.1,7.1-6c-0.2-1.3-1.6-2.5-2.8-2.8c-0.2,0-0.3-0.1-0.5-0.1c-5-1-7.2,6.7-2.1,7.7
				c0.2,0,0.3,0.1,0.5,0.1c-0.9-0.9-1.9-1.9-2.8-2.8c0.1-0.8,0.3-1.6,0.4-2.4c0.9-0.4,1.9-0.8,2.8-1.2c-0.2,0-0.4,0-0.6,0
				c0.9,0.4,1.9,0.8,2.8,1.2c-0.2-0.3-0.5-0.6-0.7-0.9c0.4,0.9,0.8,1.9,1.2,2.8c-0.4-4.3,2.3-10.1,3.5-14.2
				c1.3-4.2,2.6-8.5,3.9-12.7c3-9,6.2-17.9,9.7-26.7c-2.2,0.6-4.5,1.2-6.7,1.8c13.1,12.6,26.1,25.3,39.2,37.9
				C513.9,932.4,519.5,926.7,515.8,923.1L515.8,923.1z"/>
		</g>
	</g>
	<g class="st3">
		<g>
			<path class="st14" d="M643.3,865.7c16.8,62.6,30.6,126,41.3,189.9c0.9,5.1,8.6,2.9,7.7-2.1c-10.7-63.9-24.5-127.3-41.3-189.9
				C649.7,858.6,642,860.7,643.3,865.7L643.3,865.7z"/>
		</g>
	</g>
	<g class="st3">
		<g>
			<path class="st14" d="M706,994.1c-8.2,20.7-15.5,41.7-21.8,63c2.4-0.3,4.9-0.6,7.3-1c-12.6-21.4-25.2-42.8-37.8-64.2
				c-2.6-4.4-9.5-0.4-6.9,4c12.6,21.4,25.2,42.8,37.8,64.2c1.8,3,6.3,2.3,7.3-1c6.3-21.3,13.6-42.3,21.8-63
				C715.6,991.5,707.9,989.4,706,994.1L706,994.1z"/>
		</g>
	</g>
</g>
<g id="Layer_5">
	<circle class="st0" cx="754.9" cy="1647.2" r="10.8"/>
	<rect x="752.9" y="415.6" class="st0" width="4" height="1220.7"/>
	<circle class="st0" cx="754.9" cy="413.5" r="10.8"/>
</g>
<g id="Layer_6">
	<rect x="397.8" y="446.7" class="st0" width="18.2" height="2"/>
	<rect x="405.9" y="415.6" class="st0" width="2" height="32.2"/>
	<rect x="397.8" y="414.6" class="st0" width="18.2" height="2"/>
</g>
</svg>
