<?xml version="1.0" encoding="utf-8"?>
<!-- Generator: Adobe Illustrator 25.4.1, SVG Export Plug-In . SVG Version: 6.00 Build 0)  -->
<svg version="1.1" xmlns="http://www.w3.org/2000/svg" xmlns:xlink="http://www.w3.org/1999/xlink" x="0px" y="0px"
	 viewBox="0 0 892.3 410" style="enable-background:new 0 0 892.3 410;" xml:space="preserve">
<style type="text/css">
	.st0{display:none;}
	.st1{stroke:#000000;stroke-miterlimit:10;}
	.st2{fill:none;}
	.st3{fill:#FFFFFF;}
	.st4{display:none;fill:#020202;}
	.st5{font-family:'Roboto-Regular';}
	.st6{font-size:25px;}
	.st7{fill:#EC775F;}
	.st8{font-size:20px;}
	.st9{enable-background:new    ;}
	.st10{fill:#C83A02;}
	.st11{font-size:15.4356px;}
	.st12{font-size:19.2946px;}
	.st13{fill-rule:evenodd;clip-rule:evenodd;fill:#BF8266;}
	.st14{fill:none;stroke:#FFFFFF;stroke-width:3;stroke-miterlimit:10;}
	.st15{fill:none;stroke:#EC775F;stroke-miterlimit:10;}
</style>
<g id="grupo">
	<g id="Layer_2_xA0_Image_00000037654257152618241980000007088080592892120465_" class="st0">
		
			<image style="display:inline;overflow:visible;enable-background:new    ;" width="686" height="689" id="Layer_2_xA0_Image" xlink:href="A743016A7C9BE854.png"  transform="matrix(0.719 0 0 0.719 229.2635 -18.1371)">
		</image>
	</g>
	<g id="Layer_23">
		<polygon class="st1" points="-11.6,-60.5 903.8,-60.5 898.6,587.5 -17.7,587.5 		"/>
	</g>
	<g id="Layer_19">
		<g>
			<line class="st2" x1="190.9" y1="155.6" x2="567.3" y2="157.6"/>
			<line class="st2" x1="191.7" y1="231.8" x2="568" y2="233.8"/>
			
				<rect x="380.6" y="121" transform="matrix(5.211857e-03 -1 1 5.211857e-03 70.1308 688.9496)" class="st3" width="1.5" height="376.4"/>
			<polygon class="st3" points="461.7,310 462.9,78.7 464.4,79.7 463.2,310 			"/>
			<polygon class="st3" points="302.2,80.1 301,309.2 299.5,310.4 300.7,80.1 			"/>
			<polygon class="st3" points="247.9,79.9 246.7,309.2 245.1,309.2 246.3,80.4 			"/>
			<polygon class="st3" points="677.3,233 679.4,234.5 193.5,232.6 192.6,231 			"/>
			<polygon class="st3" points="453.8,157.3 573.1,158.3 192.8,156.4 192.8,154.8 			"/>
		</g>
		<polyline class="st4" points="192.7,93.8 186.9,79.5 192.7,93.8 192.7,93.8 192.7,93.8 192.7,93.8 192.7,93.8 466.3,95.2 
			466.4,79.5 186.9,79.5 		"/>
		<polygon class="st4" points="191.1,104.9 466.2,106.4 466.4,71.1 187,69.6 		"/>
	</g>
	<g id="Intensidad_macrosísmica">
		<text transform="matrix(0 -1 1 0 116.3815 381.1535)" class="st3 st5 st6">Profundidad del hipocentro (km)</text>
	</g>
	<g id="Distancia_hipocentral__x28_KM_x29_">
		<text transform="matrix(1 0 0 1 293.1199 382.441)" class="st3 st5 st6">Intensidad macrosísmica</text>
	</g>
	<g id="Hipocentro_San_Ramón__x28_5KM_x29_">
		<text transform="matrix(1 0 0 1 690.0842 99.3095)" class="st7 st5 st8">Posible intensidad</text>
		<text transform="matrix(1 0 0 1 690.0842 118.8095)" class="st9"><tspan x="0" y="0" class="st7 st5 st8">de San Ramón</tspan><tspan x="128.7" y="0" class="st10 st5 st11"> </tspan></text>
		<text transform="matrix(1 0 0 1 690.0842 138.3095)" class="st7 st5 st8">(5 km de profundidad)</text>
	</g>
	<g id="_x39__xA0_Image_00000057123193409576788950000003016012307312303531_">
		<text transform="matrix(1 0 0 1 157.0596 87.112)" class="st3 st5 st12">0</text>
		<text transform="matrix(1 0 0 1 144.8279 161.2622)" class="st3 st5 st12">100</text>
		<text transform="matrix(1 0 0 1 146.4292 235.712)" class="st3 st5 st12">200</text>
		<text transform="matrix(1 0 0 1 147.3053 311.8787)" class="st3 st5 st12">300</text>
		<text transform="matrix(1 0 0 1 293.3673 336.8982)" class="st3 st5 st12">2</text>
		<text transform="matrix(1 0 0 1 348.7592 336.8983)" class="st3 st5 st12">3</text>
		<text transform="matrix(1 0 0 1 401.9752 336.8978)" class="st3 st5 st12">4</text>
		<text transform="matrix(1 0 0 1 455.9745 337.0958)" class="st3 st5 st12">5</text>
		<text transform="matrix(1 0 0 1 511.9005 336.898)" class="st3 st5 st12">6</text>
		<text transform="matrix(1 0 0 1 566.0262 337.2928)" class="st3 st5 st12">7</text>
		<text transform="matrix(1 0 0 1 618.9552 336.898)" class="st3 st5 st12">8</text>
		<text transform="matrix(1 0 0 1 673.483 337.2932)" class="st3 st5 st12">9</text>
	</g>
	<g id="Layer_19_00000038396602104950186800000010674703986177119157_">
		<g>
			<line class="st2" x1="299" y1="156.5" x2="675.4" y2="158.5"/>
			<line class="st2" x1="299.8" y1="232.7" x2="676.1" y2="234.7"/>
			
				<rect x="488.7" y="121.9" transform="matrix(5.211857e-03 -1 1 5.211857e-03 176.7405 797.9595)" class="st3" width="1.5" height="376.4"/>
			
				<rect x="508.8" y="193.8" transform="matrix(5.212038e-03 -1 1 5.212038e-03 426.1748 817.4537)" class="st3" width="230.3" height="1.5"/>
			
				<rect x="455.9" y="193.8" transform="matrix(5.212038e-03 -1 1 5.212038e-03 373.5991 764.6033)" class="st3" width="230.3" height="1.5"/>
			<polygon class="st3" points="514.9,310.7 516.1,78.7 517.6,78.7 516.4,310.7 			"/>
			<polygon class="st3" points="410.3,79.8 409.1,310.1 407.6,311.3 408.8,79.8 			"/>
			<polygon class="st3" points="356,78.7 354.6,309.8 353.2,309.8 354.4,79.2 			"/>
			<polygon class="st3" points="678.6,157.4 679.3,159.2 300,157.3 300,155.7 			"/>
		</g>
		<polyline class="st4" points="300.8,94.7 295,80.4 300.8,94.7 300.8,94.7 300.8,94.7 300.8,94.7 300.8,94.7 574.4,96.1 
			574.5,80.4 295,80.4 		"/>
		<polygon class="st4" points="299.2,105.8 574.3,107.3 574.5,72 295.1,70.5 		"/>
	</g>
	<g id="Ellipse_4_copy_00000017482599905094187250000017256526317136413595_">
		<g>
			<path class="st13" d="M477.7,230.8c0-7.1-5.5-12.8-12.3-12.8s-12.4,5.7-12.5,12.7c0,7.1,5.5,12.8,12.3,12.8
				S477.7,237.9,477.7,230.8z"/>
		</g>
	</g>
	<g id="Ellipse_4_copy_00000139994531642089260870000015325412503247188362_">
		<g>
			<path class="st13" d="M605.6,134.9c0-7.1-5.5-12.8-12.3-12.8s-12.4,5.7-12.5,12.7c0,7.1,5.5,12.8,12.3,12.8
				C600,147.6,605.6,141.9,605.6,134.9z"/>
		</g>
	</g>
	<g id="Ellipse_4_copy_00000109723412170874510920000002082392608864829327_">
		<g>
			<path class="st13" d="M635.2,118.8c0-7.1-5.5-12.8-12.3-12.8s-12.4,5.7-12.5,12.7s5.5,12.8,12.3,12.8
				C629.6,131.6,635.2,125.9,635.2,118.8z"/>
		</g>
	</g>
	<g id="Ellipse_4_copy_00000063621551632687848970000007370558732931525274_" class="st9">
		<g id="Ellipse_4_copy_00000000204826328553431890000017995142725332356262_">
			<g>
				<path class="st13" d="M522.2,186c0-7.1-5.5-12.8-12.3-12.8c-6.8,0-12.4,5.7-12.5,12.7c0,7.1,5.5,12.8,12.3,12.8
					C516.5,198.7,522.1,193.1,522.2,186z"/>
			</g>
		</g>
		<g id="Ellipse_4_copy_00000112597452017549015360000004812133592395440319_">
			<g>
				<path class="st13" d="M495.1,203.1c0-7.1-5.5-12.8-12.3-12.8c-6.9,0-12.4,5.7-12.5,12.7s5.5,12.8,12.3,12.8
					S495.1,210.2,495.1,203.1z"/>
			</g>
		</g>
		<g id="Ellipse_4_copy_00000018955619829962719600000005333004631398420615_">
			<g>
				<path class="st13" d="M552.6,186.1c0-7.1-5.5-12.8-12.3-12.8c-6.9,0-12.4,5.7-12.5,12.7c0,7.1,5.5,12.8,12.3,12.8
					C547,198.9,552.6,193.2,552.6,186.1z"/>
			</g>
		</g>
		<g id="Ellipse_4_copy_00000161618634673708738230000009235615977739114630_">
			<g>
				<path class="st13" d="M581.8,141.6c0-7.1-5.5-12.8-12.3-12.8s-12.4,5.7-12.5,12.7c0,7.1,5.5,12.8,12.3,12.8
					S581.8,148.7,581.8,141.6z"/>
			</g>
		</g>
		<g id="Ellipse_4_copy_00000038410221028271347100000010417946382977712272_">
			<g>
				<path class="st13" d="M413.9,267.2c0-7.1-5.5-12.8-12.3-12.8s-12.4,5.7-12.5,12.7c0,7.1,5.5,12.8,12.3,12.8
					S413.8,274.2,413.9,267.2z"/>
			</g>
		</g>
	</g>
	<text transform="matrix(1 0 0 1 239.8003 337.2929)" class="st3 st5 st12">1</text>
	<text transform="matrix(1 0 0 1 184.8233 337.2931)" class="st3 st5 st12">0</text>
	<rect x="193.6" y="78.7" class="st14" width="485.1" height="231.6"/>
	<polygon class="st15" points="677.3,114.9 665.8,114.9 626.2,114.9 626.2,80.6 677.3,80.6 677.3,103.1 	"/>
	<line class="st15" x1="677.3" y1="103.1" x2="665.6" y2="114.8"/>
	<line class="st15" x1="677.3" y1="91.9" x2="653.9" y2="115.3"/>
	<line class="st15" x1="677.3" y1="80.6" x2="643.2" y2="114.8"/>
	<line class="st15" x1="664.8" y1="80.6" x2="630.6" y2="114.8"/>
	<line class="st15" x1="651.7" y1="80.6" x2="626.6" y2="105.8"/>
	<line class="st15" x1="639.2" y1="80.6" x2="626.1" y2="93.7"/>
</g>
<g id="Layer_2">
</g>
</svg>
