<?xml version="1.0" encoding="utf-8"?>
<!-- Generator: Adobe Illustrator 25.4.1, SVG Export Plug-In . SVG Version: 6.00 Build 0)  -->
<svg version="1.1" xmlns="http://www.w3.org/2000/svg" xmlns:xlink="http://www.w3.org/1999/xlink" x="0px" y="0px"
	 viewBox="0 0 892.3 441.8" style="enable-background:new 0 0 892.3 441.8;" xml:space="preserve">
<style type="text/css">
	.st0{display:none;}
	.st1{stroke:#000000;stroke-miterlimit:10;}
	.st2{fill:#FFFFFF;}
	.st3{font-family:'Roboto-Bold';}
	.st4{font-size:25px;}
	.st5{fill:none;}
	.st6{display:none;fill:#020202;}
	.st7{font-family:'Roboto-Regular';}
	.st8{fill:#EC775F;}
	.st9{font-size:20px;}
	.st10{enable-background:new    ;}
	.st11{fill:#C83A02;}
	.st12{font-size:15.4356px;}
	.st13{font-size:19.2946px;}
	.st14{fill-rule:evenodd;clip-rule:evenodd;fill:#BF8266;}
	.st15{fill:none;stroke:#FFFFFF;stroke-width:3;stroke-miterlimit:10;}
	.st16{fill:none;stroke:#EC775F;stroke-miterlimit:10;}
</style>
<g id="grupo">
	<g id="Layer_2_xA0_Image_00000037654257152618241980000007088080592892120465_" class="st0">
		
			<image style="display:inline;overflow:visible;enable-background:new    ;" width="686" height="689" id="Layer_2_xA0_Image" xlink:href="A743016A7C9BE854.png"  transform="matrix(0.719 0 0 0.719 229.2635 13.6822)">
		</image>
	</g>
	<g id="Layer_23">
		<polygon class="st1" points="-11.6,-28.7 903.8,-28.7 898.6,619.3 -17.7,619.3 		"/>
		<text transform="matrix(1 0 0 1 228.1789 32.4362)" class="st2 st3 st4">Promedio de la intensidad sísmica según</text>
		<text transform="matrix(1 0 0 1 286.3589 57.8962)" class="st2 st3 st4"> su profundidad hipocentral</text>
	</g>
	<g id="Layer_19">
		<g>
			<line class="st5" x1="190.9" y1="187.4" x2="567.3" y2="189.4"/>
			<line class="st5" x1="191.7" y1="263.6" x2="568" y2="265.6"/>
			
				<rect x="380.6" y="152.8" transform="matrix(5.211857e-03 -1 1 5.211857e-03 38.3119 720.603)" class="st2" width="1.5" height="376.4"/>
			<polygon class="st2" points="461.7,341.8 462.9,110.5 464.4,111.5 463.2,341.8 			"/>
			<polygon class="st2" points="302.2,111.9 301,341 299.5,342.2 300.7,111.9 			"/>
			<polygon class="st2" points="247.9,111.7 246.7,341 245.1,341 246.3,112.2 			"/>
			<polygon class="st2" points="677.3,264.8 679.4,266.3 193.5,264.4 192.6,262.8 			"/>
			<polygon class="st2" points="453.8,189.1 573.1,190.1 192.8,188.2 192.8,186.6 			"/>
		</g>
		<polyline class="st6" points="192.7,125.6 186.9,111.3 192.7,125.6 192.7,125.6 192.7,125.6 192.7,125.6 192.7,125.6 466.3,127 
			466.4,111.3 186.9,111.3 		"/>
		<polygon class="st6" points="191.1,136.7 466.2,138.2 466.4,102.9 187,101.4 		"/>
	</g>
	<g id="Intensidad_macrosísmica">
		<text transform="matrix(0 -1 1 0 116.3815 412.9728)" class="st2 st7 st4">Profundidad del hipocentro (km)</text>
	</g>
	<g id="Distancia_hipocentral__x28_KM_x29_">
		<text transform="matrix(1 0 0 1 293.1199 414.2603)" class="st2 st7 st4">Intensidad macrosísmica</text>
	</g>
	<g id="Hipocentro_San_Ramón__x28_5KM_x29_">
		<text transform="matrix(1 0 0 1 690.0842 131.1288)" class="st8 st7 st9">Posible intensidad</text>
		<text transform="matrix(1 0 0 1 690.0842 150.6288)" class="st10"><tspan x="0" y="0" class="st8 st7 st9">de San Ramón</tspan><tspan x="128.7" y="0" class="st11 st7 st12"> </tspan></text>
		<text transform="matrix(1 0 0 1 690.0842 170.1288)" class="st8 st7 st9">(5 km de profundidad)</text>
	</g>
	<g id="_x39__xA0_Image_00000057123193409576788950000003016012307312303531_">
		<text transform="matrix(1 0 0 1 157.0596 118.9313)" class="st2 st7 st13">0</text>
		<text transform="matrix(1 0 0 1 144.8279 193.0815)" class="st2 st7 st13">100</text>
		<text transform="matrix(1 0 0 1 146.4292 267.5313)" class="st2 st7 st13">200</text>
		<text transform="matrix(1 0 0 1 147.3053 343.698)" class="st2 st7 st13">300</text>
		<text transform="matrix(1 0 0 1 293.3673 368.7175)" class="st2 st7 st13">2</text>
		<text transform="matrix(1 0 0 1 348.7592 368.7176)" class="st2 st7 st13">3</text>
		<text transform="matrix(1 0 0 1 401.9752 368.7171)" class="st2 st7 st13">4</text>
		<text transform="matrix(1 0 0 1 455.9745 368.9151)" class="st2 st7 st13">5</text>
		<text transform="matrix(1 0 0 1 511.9005 368.7173)" class="st2 st7 st13">6</text>
		<text transform="matrix(1 0 0 1 566.0262 369.1121)" class="st2 st7 st13">7</text>
		<text transform="matrix(1 0 0 1 618.9552 368.7173)" class="st2 st7 st13">8</text>
		<text transform="matrix(1 0 0 1 673.483 369.1125)" class="st2 st7 st13">9</text>
	</g>
	<g id="Layer_19_00000038396602104950186800000010674703986177119157_">
		<g>
			<line class="st5" x1="299" y1="188.3" x2="675.4" y2="190.3"/>
			<line class="st5" x1="299.8" y1="264.5" x2="676.1" y2="266.5"/>
			
				<rect x="488.7" y="153.8" transform="matrix(5.211857e-03 -1 1 5.211857e-03 144.9217 829.6129)" class="st2" width="1.5" height="376.4"/>
			
				<rect x="508.8" y="225.6" transform="matrix(5.212038e-03 -1 1 5.212038e-03 394.356 849.1072)" class="st2" width="230.3" height="1.5"/>
			
				<rect x="455.9" y="225.6" transform="matrix(5.212038e-03 -1 1 5.212038e-03 341.7802 796.2567)" class="st2" width="230.3" height="1.5"/>
			<polygon class="st2" points="514.9,342.5 516.1,110.5 517.6,110.5 516.4,342.5 			"/>
			<polygon class="st2" points="410.3,111.7 409.1,341.9 407.6,343.1 408.8,111.7 			"/>
			<polygon class="st2" points="356,110.5 354.6,341.6 353.2,341.6 354.4,111 			"/>
			<polygon class="st2" points="678.6,189.3 679.3,191 300,189.1 300,187.5 			"/>
		</g>
		<polyline class="st6" points="300.8,126.5 295,112.2 300.8,126.5 300.8,126.5 300.8,126.5 300.8,126.5 300.8,126.5 574.4,127.9 
			574.5,112.2 295,112.2 		"/>
		<polygon class="st6" points="299.2,137.6 574.3,139.1 574.5,103.8 295.1,102.3 		"/>
	</g>
	<g id="Ellipse_4_copy_00000017482599905094187250000017256526317136413595_">
		<g>
			<path class="st14" d="M477.7,262.6c0-7.1-5.5-12.8-12.3-12.8s-12.4,5.7-12.5,12.7c0,7.1,5.5,12.8,12.3,12.8
				S477.7,269.7,477.7,262.6z"/>
		</g>
	</g>
	<g id="Ellipse_4_copy_00000139994531642089260870000015325412503247188362_">
		<g>
			<path class="st14" d="M605.6,166.7c0-7.1-5.5-12.8-12.3-12.8s-12.4,5.7-12.5,12.7c0,7.1,5.5,12.8,12.3,12.8
				C600,179.4,605.6,173.7,605.6,166.7z"/>
		</g>
	</g>
	<g id="Ellipse_4_copy_00000109723412170874510920000002082392608864829327_">
		<g>
			<path class="st14" d="M635.2,150.6c0-7.1-5.5-12.8-12.3-12.8s-12.4,5.7-12.5,12.7s5.5,12.8,12.3,12.8
				C629.6,163.4,635.2,157.7,635.2,150.6z"/>
		</g>
	</g>
	<g id="Ellipse_4_copy_00000063621551632687848970000007370558732931525274_" class="st10">
		<g id="Ellipse_4_copy_00000000204826328553431890000017995142725332356262_">
			<g>
				<path class="st14" d="M522.2,217.8c0-7.1-5.5-12.8-12.3-12.8c-6.8,0-12.4,5.7-12.5,12.7c0,7.1,5.5,12.8,12.3,12.8
					C516.5,230.5,522.1,224.9,522.2,217.8z"/>
			</g>
		</g>
		<g id="Ellipse_4_copy_00000112597452017549015360000004812133592395440319_">
			<g>
				<path class="st14" d="M495.1,234.9c0-7.1-5.5-12.8-12.3-12.8c-6.9,0-12.4,5.7-12.5,12.7s5.5,12.8,12.3,12.8
					S495.1,242,495.1,234.9z"/>
			</g>
		</g>
		<g id="Ellipse_4_copy_00000018955619829962719600000005333004631398420615_">
			<g>
				<path class="st14" d="M552.6,217.9c0-7.1-5.5-12.8-12.3-12.8c-6.9,0-12.4,5.7-12.5,12.7c0,7.1,5.5,12.8,12.3,12.8
					C547,230.7,552.6,225,552.6,217.9z"/>
			</g>
		</g>
		<g id="Ellipse_4_copy_00000161618634673708738230000009235615977739114630_">
			<g>
				<path class="st14" d="M581.8,173.4c0-7.1-5.5-12.8-12.3-12.8s-12.4,5.7-12.5,12.7c0,7.1,5.5,12.8,12.3,12.8
					S581.8,180.5,581.8,173.4z"/>
			</g>
		</g>
		<g id="Ellipse_4_copy_00000038410221028271347100000010417946382977712272_">
			<g>
				<path class="st14" d="M413.9,299c0-7.1-5.5-12.8-12.3-12.8s-12.4,5.7-12.5,12.7c0,7.1,5.5,12.8,12.3,12.8S413.8,306,413.9,299z"
					/>
			</g>
		</g>
	</g>
	<text transform="matrix(1 0 0 1 239.8003 369.1122)" class="st2 st7 st13">1</text>
	<text transform="matrix(1 0 0 1 184.8233 369.1124)" class="st2 st7 st13">0</text>
	<rect x="193.6" y="110.5" class="st15" width="485.1" height="231.6"/>
	<polygon class="st16" points="677.3,146.7 665.8,146.7 626.2,146.7 626.2,112.4 677.3,112.4 677.3,134.9 	"/>
	<line class="st16" x1="677.3" y1="134.9" x2="665.6" y2="146.6"/>
	<line class="st16" x1="677.3" y1="123.7" x2="653.9" y2="147.1"/>
	<line class="st16" x1="677.3" y1="112.4" x2="643.2" y2="146.6"/>
	<line class="st16" x1="664.8" y1="112.4" x2="630.6" y2="146.6"/>
	<line class="st16" x1="651.7" y1="112.4" x2="626.6" y2="137.6"/>
	<line class="st16" x1="639.2" y1="112.4" x2="626.1" y2="125.5"/>
</g>
<g id="Layer_2">
</g>
</svg>
