<?xml version="1.0" encoding="utf-8"?>
<!-- Generator: Adobe Illustrator 25.4.1, SVG Export Plug-In . SVG Version: 6.00 Build 0)  -->
<svg version="1.1" id="Layer_1" xmlns="http://www.w3.org/2000/svg" xmlns:xlink="http://www.w3.org/1999/xlink" x="0px" y="0px"
	 viewBox="120 10 630 515.2" style="enable-background:new 0 0 785 515.2;" xml:space="preserve">
<style type="text/css">

    @font-face{
    font-family: Roboto;
    src: url(fonts/Roboto-Thin.ttf);
    }
	.st0{display:none;}
	.st1{stroke:#000000;stroke-miterlimit:10;}
	.st2{fill:#FFFFFF;}
	.st3{font-family:'RobotoSlab-Bold';}
	.st4{font-size:20px;}
	.st5{fill:none;}
	.st6{display:none;fill:#020202;}
	.st7{font-family:'RobotoSlab-Regular';}
	.st8{font-size:18px;}
	.st9{enable-background:new    ;}
	.st10{fill-rule:evenodd;clip-rule:evenodd;fill:#BF8266;}
	.st11{fill:#C83A02;}
	.st12{font-size:15.4356px;}
	.st13{font-size:19.2946px;}
	.st14{fill-rule:evenodd;clip-rule:evenodd;fill:none;stroke:#C83A02;stroke-width:2;stroke-miterlimit:10;}
	.st15{fill:none;stroke:#C83A02;stroke-width:2;stroke-miterlimit:10;}
	.st16{font-size:13px;}
</style>
<g id="Layer_2_xA0_Image_00000037654257152618241980000007088080592892120465_" class="st0">
	
		<image style="display:inline;overflow:visible;enable-background:new    ;" width="686" height="689" id="Layer_2_xA0_Image" xlink:href="C95ECCB89C4FCEBE.png"  transform="matrix(0.719 0 0 0.719 185.4883 43.2016)">
	</image>
</g>
<g id="Layer_23">
	<rect x="0" y="0.8" class="st1" width="795.3" height="648"/>
	<text transform="matrix(1 0 0 1 212.4037 61.9556)" class="st2 st3 st4">Promedio de la intensidad sísmica según</text>
	<text transform="matrix(1 0 0 1 271.5837 81.4156)" class="st2 st3 st4"> su profundidad hipocentral</text>
</g>
<g id="Layer_19">
	<g>
		<line class="st5" x1="208.2" y1="216.6" x2="584.6" y2="218.6"/>
		<line class="st5" x1="209" y1="292.8" x2="585.3" y2="294.8"/>
		
			<rect x="397.8" y="182" transform="matrix(5.211928e-03 -1 1 5.211928e-03 26.3262 766.8811)" class="st2" width="1.5" height="376.4"/>
		
			<rect x="418" y="255.5" transform="matrix(5.212109e-03 -1 1 5.212109e-03 274.0899 788.1074)" class="st2" width="230.3" height="1.5"/>
		
			<rect x="365.1" y="255.1" transform="matrix(5.212109e-03 -1 1 5.212109e-03 221.9144 734.8044)" class="st2" width="230.3" height="1.5"/>
		
			<rect x="310.2" y="254.9" transform="matrix(5.212109e-03 -1 1 5.212109e-03 167.5188 679.6492)" class="st2" width="230.3" height="1.5"/>
		
			<rect x="255.8" y="254.1" transform="matrix(5.212109e-03 -1 1 5.212109e-03 114.2022 624.5402)" class="st2" width="230.3" height="1.5"/>
		<polygon class="st2" points="319.5,141.1 318.3,370.2 316.8,371.4 318,141.1 		"/>
		<polygon class="st2" points="265.2,140.9 264,370.2 262.4,370.2 263.6,141.4 		"/>
		<polygon class="st2" points="585.3,294 589.3,295.5 210.8,293.6 209,292 		"/>
		<polygon class="st2" points="584.5,217.8 589.5,219.3 209.2,217.4 209.2,215.8 		"/>
	</g>
	<polyline class="st6" points="210,154.8 204.2,140.5 210,154.8 210,154.8 210,154.8 210,154.8 210,154.8 483.6,156.2 483.7,140.5 
		204.2,140.5 	"/>
	<polygon class="st6" points="208.4,165.9 483.5,167.4 483.7,132.1 204.3,130.6 	"/>
</g>
<g id="Intensidad_macrosísmica">
	<text transform="matrix(0 -1 1 0 134.7299 394.4648)" class="st2 st7 st8">Profundidad del hipocentro (km)</text>
</g>
<g id="Ellipse_4_copy_00000063621551632687848970000007370558732931525274_" class="st9">
	<g id="Ellipse_4_copy_00000000204826328553431890000017995142725332356262_">
		<g>
			<path class="st10" d="M432.5,247.3c0-7.1-5.5-12.8-12.3-12.8c-6.8,0-12.4,5.7-12.5,12.7c0,7.1,5.5,12.8,12.3,12.8
				S432.4,254.4,432.5,247.3z"/>
		</g>
	</g>
	<g id="Ellipse_4_copy_00000112597452017549015360000004812133592395440319_">
		<g>
			<path class="st10" d="M405.4,264.4c0-7.1-5.5-12.8-12.3-12.8c-6.9,0-12.4,5.7-12.5,12.7s5.5,12.8,12.3,12.8
				S405.4,271.5,405.4,264.4z"/>
		</g>
	</g>
	<g id="Ellipse_4_copy_00000018955619829962719600000005333004631398420615_">
		<g>
			<path class="st10" d="M462.9,247.4c0-7.1-5.5-12.8-12.3-12.8c-6.9,0-12.4,5.7-12.5,12.7c0,7.1,5.5,12.8,12.3,12.8
				C457.3,260.2,462.9,254.5,462.9,247.4z"/>
		</g>
	</g>
	<g id="Ellipse_4_copy_00000161618634673708738230000009235615977739114630_">
		<g>
			<path class="st10" d="M492.1,202.9c0-7.1-5.5-12.8-12.3-12.8s-12.4,5.7-12.5,12.7c0,7.1,5.5,12.8,12.3,12.8
				S492.1,210,492.1,202.9z"/>
		</g>
	</g>
	<g id="Ellipse_4_copy_00000038410221028271347100000010417946382977712272_">
		<g>
			<path class="st10" d="M324.2,328.5c0-7.1-5.5-12.8-12.3-12.8s-12.4,5.7-12.5,12.7c0,7.1,5.5,12.8,12.3,12.8
				S324.1,335.5,324.2,328.5z"/>
		</g>
	</g>
</g>
<g id="Layer_16">
	<path class="st2" d="M588.6,369.1V140.8l0,0v-1.9H208.8v0.3h-0.8v229.9v2v0.8h381.3v-2.8L588.6,369.1L588.6,369.1z M211.2,140.8
		h374.4v228.3H211.2V140.8z"/>
</g>
<g id="Distancia_hipocentral__x28_KM_x29_">
	<text transform="matrix(1 0 0 1 295.2986 430.5998)" class="st2 st7 st8">Intensidad macrosísmica</text>
</g>
<g id="Hipocentro_San_Ramón__x28_5KM_x29_">
	<text transform="matrix(1 0 0 1 597.3512 151.6475)" class="st9"><tspan x="0" y="0" class="st11 st3 st12">Posible intensidad</tspan><tspan x="0" y="18.5" class="st11 st3 st12">de San Ramón </tspan><tspan x="0" y="37" class="st11 st3 st12">(5 km de profundidad)</tspan></text>
</g>
<g id="_x39__xA0_Image_00000057123193409576788950000003016012307312303531_">
	<text transform="matrix(1 0 0 1 188.1158 147.4414)" class="st2 st7 st13">0</text>
	<text transform="matrix(1 0 0 1 174.5539 222.3462)" class="st2 st7 st13">100</text>
	<text transform="matrix(1 0 0 1 173.3412 297.6831)" class="st2 st7 st13">200</text>
	<text transform="matrix(1 0 0 1 167.8488 374.8804)" class="st2 st7 st13">300</text>
	<text transform="matrix(1 0 0 1 200.1559 398.0391)" class="st2 st7 st13">2</text>
	<text transform="matrix(1 0 0 1 255.5478 398.0392)" class="st2 st7 st13">3</text>
	<text transform="matrix(1 0 0 1 308.7637 398.0387)" class="st2 st7 st13">4</text>
	<text transform="matrix(1 0 0 1 362.763 398.2367)" class="st2 st7 st13">5</text>
	<text transform="matrix(1 0 0 1 418.6891 398.0389)" class="st2 st7 st13">6</text>
	<text transform="matrix(1 0 0 1 472.8147 398.4337)" class="st2 st7 st13">7</text>
	<text transform="matrix(1 0 0 1 525.7437 398.0389)" class="st2 st7 st13">8</text>
	<text transform="matrix(1 0 0 1 580.2716 398.4341)" class="st2 st7 st13">9</text>
</g>
<g id="Ellipse_4_copy_00000017482599905094187250000017256526317136413595_">
	<g>
		<path class="st10" d="M383,290.1c0-7.1-5.5-12.8-12.3-12.8s-12.4,5.7-12.5,12.7c0,7.1,5.5,12.8,12.3,12.8S383,297.2,383,290.1z"/>
	</g>
</g>
<g id="Ellipse_4_copy_00000139994531642089260870000015325412503247188362_">
	<g>
		<path class="st10" d="M515.9,194.2c0-7.1-5.5-12.8-12.3-12.8c-6.8,0-12.4,5.7-12.5,12.7c0,7.1,5.5,12.8,12.3,12.8
			C510.3,206.9,515.9,201.2,515.9,194.2z"/>
	</g>
</g>
<g id="Ellipse_4_copy_00000109723412170874510920000002082392608864829327_">
	<g>
		<path class="st10" d="M545.5,180.1c0-7.1-5.5-12.8-12.3-12.8c-6.8,0-12.4,5.7-12.5,12.7s5.5,12.8,12.3,12.8
			C539.9,192.9,545.5,187.2,545.5,180.1z"/>
	</g>
</g>
<polygon class="st14" points="584.6,176.2 573.1,176.2 533.5,176.2 533.5,141.9 584.6,141.9 584.6,164.4 "/>
<line class="st15" x1="584.6" y1="164.4" x2="572.9" y2="176.1"/>
<line class="st15" x1="584.6" y1="153.2" x2="561.2" y2="176.6"/>
<line class="st15" x1="584.6" y1="141.9" x2="550.5" y2="176.1"/>
<line class="st15" x1="572.9" y1="141.1" x2="537.9" y2="176.1"/>
<line class="st15" x1="559" y1="141.9" x2="533.9" y2="167.1"/>
<line class="st15" x1="546.5" y1="141.9" x2="533.4" y2="155"/>
<g id="Distancia_hipocentral__x28_KM_x29__00000080191966105855116500000002242137506805947011_">
	<text transform="matrix(1 0 0 1 271.9974 452.7963)" class="st9"><tspan x="0" y="0" class="st2 st7 st16">(Escala de evaluación sísmica a base de los</tspan><tspan x="0" y="15.6" class="st2 st7 st16"> efectos y daños producidos por un sismo)</tspan></text>
</g>
</svg>
