<?xml version="1.0" encoding="utf-8"?>
<!-- Generator: Adobe Illustrator 25.4.1, SVG Export Plug-In . SVG Version: 6.00 Build 0)  -->
<svg version="1.1" id="Layer_1" xmlns="http://www.w3.org/2000/svg" xmlns:xlink="http://www.w3.org/1999/xlink" x="0px" y="0px"
	 viewBox="0 0 838.5 397.8" style="enable-background:new 0 0 838.5 397.8;" xml:space="preserve">
<style type="text/css">
	.st0{display:none;}
	.st1{stroke:#000000;stroke-miterlimit:10;}
	.st2{fill:none;}
	.st3{fill:#FFFFFF;}
	.st4{display:none;fill:#020202;}
	.st5{font-family:'Roboto-Regular';}
	.st6{font-size:18px;}
	.st7{fill:#EC775F;}
	.st8{font-size:15.4356px;}
	.st9{fill:#C83A02;}
	.st10{font-size:19.2946px;}
	.st11{fill-rule:evenodd;clip-rule:evenodd;fill:#BF8266;}
	.st12{enable-background:new    ;}
	.st13{fill:none;stroke:#FFFFFF;stroke-width:3;stroke-miterlimit:10;}
	.st14{fill:none;stroke:#EC775F;stroke-miterlimit:10;}
</style>
<g id="grupo">
	<g id="Layer_2_xA0_Image_00000037654257152618241980000007088080592892120465_" class="st0">
		
			<image style="display:inline;overflow:visible;enable-background:new    ;" width="686" height="689" id="Layer_2_xA0_Image" xlink:href="A743016A7C9BE854.png"  transform="matrix(0.719 0 0 0.719 204.7881 -30.3178)">
		</image>
	</g>
	<g id="Layer_23">
		<polygon class="st1" points="-36.1,-72.7 879.4,-72.7 874.2,575.3 -42.2,575.3 		"/>
	</g>
	<g id="Layer_19">
		<g>
			<line class="st2" x1="166.5" y1="143.4" x2="542.9" y2="145.4"/>
			<line class="st2" x1="167.3" y1="219.6" x2="543.6" y2="221.6"/>
			
				<rect x="356.1" y="108.9" transform="matrix(5.211786e-03 -1 1 5.211786e-03 57.9131 652.3262)" class="st3" width="1.5" height="376.4"/>
			<polygon class="st3" points="437.2,297.8 438.4,66.5 439.9,67.5 438.7,297.8 			"/>
			<polygon class="st3" points="277.8,67.9 276.6,297 275.1,298.2 276.3,67.9 			"/>
			<polygon class="st3" points="223.5,67.7 222.3,297 220.7,297 221.9,68.2 			"/>
			<polygon class="st3" points="652.9,220.8 654.9,222.3 169.1,220.4 168.1,218.8 			"/>
			<polygon class="st3" points="429.3,145.1 548.6,146.1 168.3,144.2 168.3,142.6 			"/>
		</g>
		<polyline class="st4" points="168.3,81.6 162.5,67.3 168.3,81.6 168.3,81.6 168.3,81.6 168.3,81.6 168.3,81.6 441.9,83 442,67.3 
			162.5,67.3 		"/>
		<polygon class="st4" points="166.7,92.7 441.8,94.2 442,58.9 162.6,57.4 		"/>
	</g>
	<g id="Intensidad_macrosísmica">
		<text transform="matrix(0 -1 1 0 92.9062 317.9727)" class="st3 st5 st6">Profundidad del hipocentro (km)</text>
	</g>
	<g id="Distancia_hipocentral__x28_KM_x29_">
		<text transform="matrix(1 0 0 1 311.6446 359.2603)" class="st3 st5 st6">Intensidad macrosísmica</text>
	</g>
	<g id="Hipocentro_San_Ramón__x28_5KM_x29_">
		<text transform="matrix(1 0 0 1 665.6088 85.1288)" class="st7 st5 st8">Posible intensidad</text>
		<text transform="matrix(1 0 0 1 665.6088 103.6288)" class="st7 st5 st8">de San Ramón</text>
		<text transform="matrix(1 0 0 1 764.9088 103.6288)" class="st9 st5 st8"> </text>
		<text transform="matrix(1 0 0 1 665.6088 122.1288)" class="st7 st5 st8">(5 km de profundidad)</text>
	</g>
	<g id="_x39__xA0_Image_00000057123193409576788950000003016012307312303531_">
		<text transform="matrix(1 0 0 1 132.5842 74.9313)" class="st3 st5 st10">0</text>
		<text transform="matrix(1 0 0 1 120.3525 149.0815)" class="st3 st5 st10">100</text>
		<text transform="matrix(1 0 0 1 121.9538 223.5313)" class="st3 st5 st10">200</text>
		<text transform="matrix(1 0 0 1 122.8299 299.698)" class="st3 st5 st10">300</text>
		<text transform="matrix(1 0 0 1 268.892 324.7175)" class="st3 st5 st10">2</text>
		<text transform="matrix(1 0 0 1 324.2839 324.7176)" class="st3 st5 st10">3</text>
		<text transform="matrix(1 0 0 1 377.4998 324.7171)" class="st3 st5 st10">4</text>
		<text transform="matrix(1 0 0 1 431.4991 324.9151)" class="st3 st5 st10">5</text>
		<text transform="matrix(1 0 0 1 487.4252 324.7173)" class="st3 st5 st10">6</text>
		<text transform="matrix(1 0 0 1 541.5508 325.1121)" class="st3 st5 st10">7</text>
		<text transform="matrix(1 0 0 1 594.4798 324.7173)" class="st3 st5 st10">8</text>
		<text transform="matrix(1 0 0 1 649.0077 325.1125)" class="st3 st5 st10">9</text>
	</g>
	<g id="Layer_19_00000038396602104950186800000010674703986177119157_">
		<g>
			<line class="st2" x1="274.6" y1="144.3" x2="651" y2="146.3"/>
			<line class="st2" x1="275.4" y1="220.5" x2="651.7" y2="222.5"/>
			
				<rect x="464.2" y="109.8" transform="matrix(5.211786e-03 -1 1 5.211786e-03 164.6074 761.4082)" class="st3" width="1.5" height="376.4"/>
			
				<rect x="484.3" y="181.6" transform="matrix(5.211967e-03 -1 1 5.211967e-03 413.9987 780.8858)" class="st3" width="230.3" height="1.5"/>
			
				<rect x="431.5" y="181.6" transform="matrix(5.211967e-03 -1 1 5.211967e-03 361.4736 727.9854)" class="st3" width="230.3" height="1.5"/>
			<polygon class="st3" points="490.4,298.5 491.6,66.5 493.1,66.5 491.9,298.5 			"/>
			<polygon class="st3" points="385.9,67.7 384.7,297.9 383.2,299.1 384.4,67.7 			"/>
			<polygon class="st3" points="331.6,66.5 330.2,297.6 328.7,297.6 330,67 			"/>
			<polygon class="st3" points="654.2,145.3 654.9,147 275.6,145.1 275.6,143.5 			"/>
		</g>
		<polyline class="st4" points="276.4,82.5 270.6,68.2 276.4,82.5 276.4,82.5 276.4,82.5 276.4,82.5 276.4,82.5 550,83.9 
			550.1,68.2 270.6,68.2 		"/>
		<polygon class="st4" points="274.8,93.6 549.9,95.1 550.1,59.8 270.7,58.3 		"/>
	</g>
	<g id="Ellipse_4_copy_00000017482599905094187250000017256526317136413595_">
		<g>
			<path class="st11" d="M453.3,218.6c0-7.1-5.5-12.8-12.3-12.8s-12.4,5.7-12.5,12.7c0,7.1,5.5,12.8,12.3,12.8
				S453.3,225.7,453.3,218.6z"/>
		</g>
	</g>
	<g id="Ellipse_4_copy_00000139994531642089260870000015325412503247188362_">
		<g>
			<path class="st11" d="M581.2,122.7c0-7.1-5.5-12.8-12.3-12.8s-12.4,5.7-12.5,12.7c0,7.1,5.5,12.8,12.3,12.8
				C575.6,135.4,581.2,129.7,581.2,122.7z"/>
		</g>
	</g>
	<g id="Ellipse_4_copy_00000109723412170874510920000002082392608864829327_">
		<g>
			<path class="st11" d="M610.8,106.6c0-7.1-5.5-12.8-12.3-12.8s-12.4,5.7-12.5,12.7s5.5,12.8,12.3,12.8
				C605.2,119.4,610.8,113.7,610.8,106.6z"/>
		</g>
	</g>
	<g id="Ellipse_4_copy_00000063621551632687848970000007370558732931525274_" class="st12">
		<g id="Ellipse_4_copy_00000000204826328553431890000017995142725332356262_">
			<g>
				<path class="st11" d="M497.8,173.8c0-7.1-5.5-12.8-12.3-12.8s-12.4,5.7-12.5,12.7c0,7.1,5.5,12.8,12.3,12.8
					S497.7,180.9,497.8,173.8z"/>
			</g>
		</g>
		<g id="Ellipse_4_copy_00000112597452017549015360000004812133592395440319_">
			<g>
				<path class="st11" d="M470.7,190.9c0-7.1-5.5-12.8-12.3-12.8c-6.9,0-12.4,5.7-12.5,12.7s5.5,12.8,12.3,12.8
					S470.7,198,470.7,190.9z"/>
			</g>
		</g>
		<g id="Ellipse_4_copy_00000018955619829962719600000005333004631398420615_">
			<g>
				<path class="st11" d="M528.2,173.9c0-7.1-5.5-12.8-12.3-12.8c-6.9,0-12.4,5.7-12.5,12.7c0,7.1,5.5,12.8,12.3,12.8
					C522.6,186.7,528.2,181,528.2,173.9z"/>
			</g>
		</g>
		<g id="Ellipse_4_copy_00000161618634673708738230000009235615977739114630_">
			<g>
				<path class="st11" d="M557.4,129.4c0-7.1-5.5-12.8-12.3-12.8s-12.4,5.7-12.5,12.7c0,7.1,5.5,12.8,12.3,12.8
					S557.4,136.5,557.4,129.4z"/>
			</g>
		</g>
		<g id="Ellipse_4_copy_00000038410221028271347100000010417946382977712272_">
			<g>
				<path class="st11" d="M389.5,255c0-7.1-5.5-12.8-12.3-12.8s-12.4,5.7-12.5,12.7c0,7.1,5.5,12.8,12.3,12.8S389.4,262,389.5,255z"
					/>
			</g>
		</g>
	</g>
	<text transform="matrix(1 0 0 1 215.3249 325.1122)" class="st3 st5 st10">1</text>
	<text transform="matrix(1 0 0 1 160.3479 325.1124)" class="st3 st5 st10">0</text>
	<rect x="169.1" y="66.5" class="st13" width="485.1" height="231.6"/>
	<polygon class="st14" points="652.9,102.7 641.4,102.7 601.8,102.7 601.8,68.4 652.9,68.4 652.9,90.9 	"/>
	<line class="st14" x1="652.9" y1="90.9" x2="641.2" y2="102.6"/>
	<line class="st14" x1="652.9" y1="79.7" x2="629.5" y2="103.1"/>
	<line class="st14" x1="652.9" y1="68.4" x2="618.8" y2="102.6"/>
	<line class="st14" x1="640.4" y1="68.4" x2="606.2" y2="102.6"/>
	<line class="st14" x1="627.3" y1="68.4" x2="602.2" y2="93.6"/>
	<line class="st14" x1="614.8" y1="68.4" x2="601.7" y2="81.5"/>
</g>
<g id="Layer_2_00000125586467210456324390000000063721045252462764_">
</g>
</svg>
