<?xml version="1.0" encoding="utf-8"?>
<!-- Generator: Adobe Illustrator 25.4.1, SVG Export Plug-In . SVG Version: 6.00 Build 0)  -->
<svg version="1.1" xmlns="http://www.w3.org/2000/svg" xmlns:xlink="http://www.w3.org/1999/xlink" x="0px" y="0px"
	 viewBox="0 0 838.5 441.8" style="enable-background:new 0 0 838.5 441.8;" xml:space="preserve">
<style type="text/css">
	.st0{display:none;}
	.st1{stroke:#000000;stroke-miterlimit:10;}
	.st2{fill:#FFFFFF;}
	.st3{font-family:'Roboto-Bold';}
	.st4{font-size:20px;}
	.st5{fill:none;}
	.st6{display:none;fill:#020202;}
	.st7{font-family:'Roboto-Regular';}
	.st8{font-size:18px;}
	.st9{fill:#EC775F;}
	.st10{font-size:15.4356px;}
	.st11{enable-background:new    ;}
	.st12{fill:#C83A02;}
	.st13{font-size:19.2946px;}
	.st14{fill-rule:evenodd;clip-rule:evenodd;fill:#BF8266;}
	.st15{fill:none;stroke:#FFFFFF;stroke-width:3;stroke-miterlimit:10;}
	.st16{fill:none;stroke:#EC775F;stroke-miterlimit:10;}
</style>
<g id="grupo">
	<g id="Layer_2_xA0_Image_00000037654257152618241980000007088080592892120465_" class="st0">
		
			<image style="display:inline;overflow:visible;enable-background:new    ;" width="686" height="689" id="Layer_2_xA0_Image" xlink:href="A743016A7C9BE854.png"  transform="matrix(0.719 0 0 0.719 204.7881 13.6822)">
		</image>
	</g>
	<g id="Layer_23">
		<polygon class="st1" points="-36.1,-28.7 879.4,-28.7 874.2,619.3 -42.2,619.3 		"/>
		<text transform="matrix(1 0 0 1 228.7035 32.4362)" class="st2 st3 st4">Promedio de la intensidad sísmica según</text>
		<text transform="matrix(1 0 0 1 287.8835 51.8962)" class="st2 st3 st4"> su profundidad hipocentral</text>
	</g>
	<g id="Layer_19">
		<g>
			<line class="st5" x1="166.5" y1="187.4" x2="542.9" y2="189.4"/>
			<line class="st5" x1="167.3" y1="263.6" x2="543.6" y2="265.6"/>
			
				<rect x="356.1" y="152.8" transform="matrix(5.211857e-03 -1 1 5.211857e-03 13.9641 696.128)" class="st2" width="1.5" height="376.4"/>
			<polygon class="st2" points="437.2,341.8 438.4,110.5 439.9,111.5 438.7,341.8 			"/>
			<polygon class="st2" points="277.8,111.9 276.6,341 275.1,342.2 276.3,111.9 			"/>
			<polygon class="st2" points="223.5,111.7 222.3,341 220.7,341 221.9,112.2 			"/>
			<polygon class="st2" points="652.9,264.8 654.9,266.3 169.1,264.4 168.1,262.8 			"/>
			<polygon class="st2" points="429.3,189.1 548.6,190.1 168.3,188.2 168.3,186.6 			"/>
		</g>
		<polyline class="st6" points="168.3,125.6 162.5,111.3 168.3,125.6 168.3,125.6 168.3,125.6 168.3,125.6 168.3,125.6 441.9,127 
			442,111.3 162.5,111.3 		"/>
		<polygon class="st6" points="166.7,136.7 441.8,138.2 442,102.9 162.6,101.4 		"/>
	</g>
	<g id="Intensidad_macrosísmica">
		<text transform="matrix(0 -1 1 0 92.9062 361.9728)" class="st2 st7 st8">Profundidad del hipocentro (km)</text>
	</g>
	<g id="Distancia_hipocentral__x28_KM_x29_">
		<text transform="matrix(1 0 0 1 311.6446 403.2603)" class="st2 st7 st8">Intensidad macrosísmica</text>
	</g>
	<g id="Hipocentro_San_Ramón__x28_5KM_x29_">
		<text transform="matrix(1 0 0 1 665.6088 129.1288)" class="st9 st7 st10">Posible intensidad</text>
		<text transform="matrix(1 0 0 1 665.6088 147.6288)" class="st11"><tspan x="0" y="0" class="st9 st7 st10">de San Ramón</tspan><tspan x="99.3" y="0" class="st12 st7 st10"> </tspan></text>
		<text transform="matrix(1 0 0 1 665.6088 166.1288)" class="st9 st7 st10">(5 km de profundidad)</text>
	</g>
	<g id="_x39__xA0_Image_00000057123193409576788950000003016012307312303531_">
		<text transform="matrix(1 0 0 1 132.5842 118.9313)" class="st2 st7 st13">0</text>
		<text transform="matrix(1 0 0 1 120.3525 193.0815)" class="st2 st7 st13">100</text>
		<text transform="matrix(1 0 0 1 121.9538 267.5313)" class="st2 st7 st13">200</text>
		<text transform="matrix(1 0 0 1 122.8299 343.698)" class="st2 st7 st13">300</text>
		<text transform="matrix(1 0 0 1 268.892 368.7175)" class="st2 st7 st13">2</text>
		<text transform="matrix(1 0 0 1 324.2839 368.7176)" class="st2 st7 st13">3</text>
		<text transform="matrix(1 0 0 1 377.4998 368.7171)" class="st2 st7 st13">4</text>
		<text transform="matrix(1 0 0 1 431.4991 368.9151)" class="st2 st7 st13">5</text>
		<text transform="matrix(1 0 0 1 487.4252 368.7173)" class="st2 st7 st13">6</text>
		<text transform="matrix(1 0 0 1 541.5508 369.1121)" class="st2 st7 st13">7</text>
		<text transform="matrix(1 0 0 1 594.4798 368.7173)" class="st2 st7 st13">8</text>
		<text transform="matrix(1 0 0 1 649.0077 369.1125)" class="st2 st7 st13">9</text>
	</g>
	<g id="Layer_19_00000038396602104950186800000010674703986177119157_">
		<g>
			<line class="st5" x1="274.6" y1="188.3" x2="651" y2="190.3"/>
			<line class="st5" x1="275.4" y1="264.5" x2="651.7" y2="266.5"/>
			
				<rect x="464.2" y="153.8" transform="matrix(5.211857e-03 -1 1 5.211857e-03 120.5739 805.1379)" class="st2" width="1.5" height="376.4"/>
			
				<rect x="484.3" y="225.6" transform="matrix(5.212038e-03 -1 1 5.212038e-03 370.0082 824.6321)" class="st2" width="230.3" height="1.5"/>
			
				<rect x="431.5" y="225.6" transform="matrix(5.212038e-03 -1 1 5.212038e-03 317.4324 771.7817)" class="st2" width="230.3" height="1.5"/>
			<polygon class="st2" points="490.4,342.5 491.6,110.5 493.1,110.5 491.9,342.5 			"/>
			<polygon class="st2" points="385.9,111.7 384.7,341.9 383.2,343.1 384.4,111.7 			"/>
			<polygon class="st2" points="331.6,110.5 330.2,341.6 328.7,341.6 330,111 			"/>
			<polygon class="st2" points="654.2,189.3 654.9,191 275.6,189.1 275.6,187.5 			"/>
		</g>
		<polyline class="st6" points="276.4,126.5 270.6,112.2 276.4,126.5 276.4,126.5 276.4,126.5 276.4,126.5 276.4,126.5 550,127.9 
			550.1,112.2 270.6,112.2 		"/>
		<polygon class="st6" points="274.8,137.6 549.9,139.1 550.1,103.8 270.7,102.3 		"/>
	</g>
	<g id="Ellipse_4_copy_00000017482599905094187250000017256526317136413595_">
		<g>
			<path class="st14" d="M453.3,262.6c0-7.1-5.5-12.8-12.3-12.8s-12.4,5.7-12.5,12.7c0,7.1,5.5,12.8,12.3,12.8
				S453.3,269.7,453.3,262.6z"/>
		</g>
	</g>
	<g id="Ellipse_4_copy_00000139994531642089260870000015325412503247188362_">
		<g>
			<path class="st14" d="M581.2,166.7c0-7.1-5.5-12.8-12.3-12.8s-12.4,5.7-12.5,12.7c0,7.1,5.5,12.8,12.3,12.8
				C575.6,179.4,581.2,173.7,581.2,166.7z"/>
		</g>
	</g>
	<g id="Ellipse_4_copy_00000109723412170874510920000002082392608864829327_">
		<g>
			<path class="st14" d="M610.8,150.6c0-7.1-5.5-12.8-12.3-12.8s-12.4,5.7-12.5,12.7s5.5,12.8,12.3,12.8
				C605.2,163.4,610.8,157.7,610.8,150.6z"/>
		</g>
	</g>
	<g id="Ellipse_4_copy_00000063621551632687848970000007370558732931525274_" class="st11">
		<g id="Ellipse_4_copy_00000000204826328553431890000017995142725332356262_">
			<g>
				<path class="st14" d="M497.8,217.8c0-7.1-5.5-12.8-12.3-12.8s-12.4,5.7-12.5,12.7c0,7.1,5.5,12.8,12.3,12.8
					S497.7,224.9,497.8,217.8z"/>
			</g>
		</g>
		<g id="Ellipse_4_copy_00000112597452017549015360000004812133592395440319_">
			<g>
				<path class="st14" d="M470.7,234.9c0-7.1-5.5-12.8-12.3-12.8c-6.9,0-12.4,5.7-12.5,12.7s5.5,12.8,12.3,12.8
					S470.7,242,470.7,234.9z"/>
			</g>
		</g>
		<g id="Ellipse_4_copy_00000018955619829962719600000005333004631398420615_">
			<g>
				<path class="st14" d="M528.2,217.9c0-7.1-5.5-12.8-12.3-12.8c-6.9,0-12.4,5.7-12.5,12.7c0,7.1,5.5,12.8,12.3,12.8
					C522.6,230.7,528.2,225,528.2,217.9z"/>
			</g>
		</g>
		<g id="Ellipse_4_copy_00000161618634673708738230000009235615977739114630_">
			<g>
				<path class="st14" d="M557.4,173.4c0-7.1-5.5-12.8-12.3-12.8s-12.4,5.7-12.5,12.7c0,7.1,5.5,12.8,12.3,12.8
					S557.4,180.5,557.4,173.4z"/>
			</g>
		</g>
		<g id="Ellipse_4_copy_00000038410221028271347100000010417946382977712272_">
			<g>
				<path class="st14" d="M389.5,299c0-7.1-5.5-12.8-12.3-12.8s-12.4,5.7-12.5,12.7c0,7.1,5.5,12.8,12.3,12.8S389.4,306,389.5,299z"
					/>
			</g>
		</g>
	</g>
	<text transform="matrix(1 0 0 1 215.3249 369.1122)" class="st2 st7 st13">1</text>
	<text transform="matrix(1 0 0 1 160.3479 369.1124)" class="st2 st7 st13">0</text>
	<rect x="169.1" y="110.5" class="st15" width="485.1" height="231.6"/>
	<polygon class="st16" points="652.9,146.7 641.4,146.7 601.8,146.7 601.8,112.4 652.9,112.4 652.9,134.9 	"/>
	<line class="st16" x1="652.9" y1="134.9" x2="641.2" y2="146.6"/>
	<line class="st16" x1="652.9" y1="123.7" x2="629.5" y2="147.1"/>
	<line class="st16" x1="652.9" y1="112.4" x2="618.8" y2="146.6"/>
	<line class="st16" x1="640.4" y1="112.4" x2="606.2" y2="146.6"/>
	<line class="st16" x1="627.3" y1="112.4" x2="602.2" y2="137.6"/>
	<line class="st16" x1="614.8" y1="112.4" x2="601.7" y2="125.5"/>
</g>
<g id="Layer_2">
</g>
</svg>
