<?xml version="1.0" encoding="UTF-8" standalone="no"?> <!-- Created with Vectornator for iOS (http://vectornator.io/) --><!DOCTYPE svg PUBLIC "-//W3C//DTD SVG 1.1//EN" "http://www.w3.org/Graphics/SVG/1.1/DTD/svg11.dtd">
<svg height="100%" style="fill-rule:nonzero;clip-rule:evenodd;stroke-linecap:round;stroke-linejoin:round;" xmlns:xlink="http://www.w3.org/1999/xlink" xmlns="http://www.w3.org/2000/svg" xml:space="preserve" width="100%" xmlns:vectornator="http://vectornator.io" version="1.1" viewBox="0 0 1000 200">
<metadata>
<vectornator:setting key="DimensionsVisible" value="1"/>
<vectornator:setting key="PencilOnly" value="0"/>
<vectornator:setting key="SnapToPoints" value="0"/>
<vectornator:setting key="OutlineMode" value="0"/>
<vectornator:setting key="CMYKEnabledKey" value="0"/>
<vectornator:setting key="GuidesVisible" value="1"/>
<vectornator:setting key="SnapToEdges" value="0"/>
<vectornator:setting key="RulersVisible" value="1"/>
<vectornator:setting key="DisplayWhiteBackground" value="0"/>
<vectornator:setting key="doHistoryDisabled" value="0"/>
<vectornator:setting key="TimeLapseWatermarkDisabled" value="0"/>
<vectornator:setting key="SnapToGuides" value="1"/>
<vectornator:setting key="Units" value="Points"/>
<vectornator:setting key="SnapToGrid" value="0"/>
<vectornator:setting key="IsolateActiveLayer" value="0"/>
<vectornator:setting key="DynamicGuides" value="0"/>
</metadata>
<defs/>
<g id="Layer 1" vectornator:layerName="Layer 1">
<path d="M53.2488+106.885L945.773+106.885C948.839+106.885+951.325+104.4+951.325+101.334L951.325+101.334C951.325+98.2679+948.839+95.7825+945.773+95.7825L53.2488+95.7825C50.1829+95.7825+47.6975+98.2679+47.6975+101.334L47.6975+101.334C47.6975+104.4+50.1829+106.885+53.2488+106.885Z" opacity="1" fill="#ccb9b2"/>
<path d="M290.215+134.645L290.215+134.645C308.562+134.645+323.436+119.771+323.436+101.424L323.436+101.424C323.436+83.076+308.562+68.2023+290.215+68.2023L290.215+68.2023C271.867+68.2023+256.994+83.076+256.994+101.424L256.994+101.424C256.994+119.771+271.867+134.645+290.215+134.645Z" opacity="1" fill="#ccb9b2"/>
<path d="M499.511+134.645L499.511+134.645C517.859+134.645+532.732+119.771+532.732+101.424L532.732+101.424C532.732+83.076+517.859+68.2023+499.511+68.2023L499.511+68.2023C481.164+68.2023+466.29+83.076+466.29+101.424L466.29+101.424C466.29+119.771+481.164+134.645+499.511+134.645Z" opacity="1" fill="#ccb9b2"/>
<path d="M80.9187+134.645L80.9187+134.645C99.2663+134.645+114.14+119.771+114.14+101.424L114.14+101.424C114.14+83.076+99.2663+68.2023+80.9187+68.2023L80.9187+68.2023C62.5712+68.2023+47.6975+83.076+47.6975+101.424L47.6975+101.424C47.6975+119.771+62.5712+134.645+80.9187+134.645Z" opacity="1" fill="#ccb9b2"/>
<path d="M708.807+134.645L708.807+134.645C727.155+134.645+742.029+119.771+742.029+101.424L742.029+101.424C742.029+83.076+727.155+68.2023+708.807+68.2023L708.807+68.2023C690.46+68.2023+675.586+83.076+675.586+101.424L675.586+101.424C675.586+119.771+690.46+134.645+708.807+134.645Z" opacity="1" fill="#ccb9b2"/>
<path d="M918.104+134.645L918.104+134.645C936.451+134.645+951.325+119.771+951.325+101.424L951.325+101.424C951.325+83.076+936.451+68.2023+918.104+68.2023L918.104+68.2023C899.756+68.2023+884.882+83.076+884.882+101.424L884.882+101.424C884.882+119.771+899.756+134.645+918.104+134.645Z" opacity="1" fill="#ccb9b2"/>
</g>
</svg>
