<?xml version="1.0" encoding="utf-8"?>
<!-- Generator: Adobe Illustrator 25.2.1, SVG Export Plug-In . SVG Version: 6.00 Build 0)  -->
<svg version="1.1" id="Layer_1" xmlns="http://www.w3.org/2000/svg" xmlns:xlink="http://www.w3.org/1999/xlink" x="0px" y="0px"
	 viewBox="0 0 486.8 784.1" style="enable-background:new 0 0 486.8 784.1;" xml:space="preserve">
<style type="text/css">
	.st0{opacity:0.702;}
	.st1{opacity:0.9882;}
	.st2{fill:none;}
	.st3{opacity:0.35;}
	.st4{fill:none;stroke:#CECCCC;stroke-miterlimit:10;}
	.st5{opacity:0.43;fill:none;stroke:#CECCCC;stroke-miterlimit:10;enable-background:new    ;}
	.st6{fill:none;stroke:#C83A02;stroke-width:3;stroke-linecap:round;stroke-linejoin:round;stroke-miterlimit:10;}
	.st7{fill:none;stroke:#FFFFFF;stroke-width:0.5;stroke-linecap:round;stroke-miterlimit:10;}
	.st8{fill:none;stroke:#FFFFFF;stroke-miterlimit:10;}
	.st9{fill:#FCFCFC;}
	.st10{font-family:'Roboto-Regular', sans-serif;}
	.st11{font-size:8.9357px;}
	.st12{fill:#FFFFFF;}
</style>
<g id="Capa_0_xA0_Imagen_1_">
	<rect x="0.5" y="0" width="486.3" height="784.1"/>
</g>
<g id="Grupo_1_1_" class="st0">
	<g id="Capa_6_xA0_Imagen_1_" class="st1">
		
			<image style="overflow:visible;enable-background:new    ;" width="2017" height="3239" id="Capa_6_xA0_Imagen" xlink:href="9A7369D60B5068AC.jpg"  transform="matrix(0.2432 0 0 0.2424 -2.3024 0)">
		</image>
	</g>
</g>
<g>
	<polyline class="st2" points="272.1,668.1 272.1,676.3 163.7,676.3 163.7,668.1 	"/>
</g>
<g>
	<rect x="249.3" y="345.5" class="st2" width="32.9" height="29.2"/>
</g>
<g>
	<rect x="221.2" y="257" class="st2" width="32.9" height="29.2"/>
</g>
<g>
	<rect x="152.1" y="639.6" class="st2" width="108.4" height="35.9"/>
</g>
<g id="Capa_6">
	<g class="st3">
		<path class="st4" d="M351.4,638.1l-7.7,2.6c0,0-4.1,0.5-3.1,4.9s3.4,7,3.4,7s-2.7,7.7-5.8,8.5c-3.1,0.7-8.2-2-11.6,1
			c-3.4,3.1,0.3,8.2-2,10.2c-2.4,2-6.5,3.4-6.5,3.4l-1.3,1.6c0,0-2.6,0-2.8-0.8s-0.6,1.6-1.9,1.1s-1.3-3.1-3.1-2.8
			c-1.8,0.3-3.6-0.6-4.3,0.3c-0.8,0.9-0.6,6.1-0.6,6.1s-4.9,1.9-7.9,2c-3.1,0.2-4.3-0.1-4.3-0.1s-0.7,0.9-2.5,1.2
			c0,0-2.8,0.9-5.1-0.4c-2.3-1.3-3.2-3.3-3.2-3.3L277,681c0,0-12.8,12.3-19,12.4c-6.1,0.1-4.5-4.5-7.8-4.8s-13.5,2.5-13.5,2.5
			s-8.3,3.7-11.8,5.3c-3.7,1.7-17.5-1.3-20.1,0s-2.6,2.3-2.6,2.3l0.2,6.9c0,0-0.3,5.1-3.9,4.4c-3.6-0.7-3.8-1.6-3.8-1.6
			s-11,1.4-14.5,7.2c-3.4,5.9-8.5,17.4-8.5,17.4s0.5,2.3-2.7,1.9c-3.2-0.4-3.5-2.2-9.3-1c-6,1.2-7,5.5-7,5.5v3.6c0,0-3,3.4-7.7,1.3
			c-4.8-2-4.4-2.8-4.4-2.8l-7.5,4.5l0.1,4.1c0,0-0.2,4-4.9,4.9c-4.8,0.9-5.3,0.7-5.3,0.7s0.4,1-1.9,1c-2.2,0-4.5-0.9-4.9-1.5
			s-1.9,1.3-1.9,1.3l-4.2,0.3l-4.9,1.9c0,0-2.7,2.6-6.6,2s-7.2-3.1-7.2-3.1l-8.9,3.3c0,0-2,1.3-4.7-1.4s-4.5-3.6-4.5-3.6l-4.1,0.4
			l-2,2.3l-4.5,6l-7.7,0.5l-3.8,4.4l-4.2,2.3l-3.1,1.8l-6.9,0.2l-3,3.2l-10.7,3L13,788.9"/>
		<path class="st4" d="M55.7,788.9l3.4-2.4l7-23.7l7.7-72.2l-2.7-29.9l45.1-7.7l-5.1-28.2c0,0-9.4-22.4-8.9-25.8
			c0.7-3.4-3.7-26.8-3.7-26.8l23-7.7l5.3-1.7l14.5,7.5l17.6-3.7v-8.9l55.6-15.2l-24.7-32.1h34.5l11.8,6.1l-1.7,5.8l4.4-5.3l3.4-1
			l6.1-5.3l5.3,2.7l5.1-5.3l3.7-1.4l0.9-1.5"/>
		<polyline class="st4" points="70.1,719.5 35.5,720.1 37.2,705.5 31.4,705.5 35.8,676.2 -9.5,673.1 		"/>
		<polyline class="st4" points="99.8,570.7 97.4,550.9 100.6,550.9 90.6,511 99.2,511 99.6,466.5 94.7,427.7 84.6,427.7 61.5,440.3 
			40.9,443.9 42.8,452.9 47,477.9 48.2,490.4 48.7,499.2 49.4,501.7 58.7,545.8 97.5,533.6 		"/>
		<path class="st4" d="M56.9,542.4L6,536.3l18.2-95.1l16.8,2.7c0,0-16.2-105.8-15.9-107.9c0.3-2,5.8-1.9,5.8-1.9L58,320.4l2.7-4.4
			l2.4,2.8l2.4,9.6c0,0,4.8,23.9,5.3,25.1c0.7,1.2,5.6,6.8,5.6,6.8L87.8,412c0,0,6.1,8.2,6.6,9.2s0.3,6.2,0.3,6.2"/>
		<path class="st4" d="M464.3,358.8c-4.3-20.7-6-17.4-6-17.4s-3.7-4.9-11.4-9.5c-7.7-4.7-19.8-15-19.8-15h-26.5L390,312l-13.9-19
			l-6.1-4.9l-7.4-3.3l-1.8-6.9l-3.2-4.5l-2.4-5l-2.7-2.8l-2.3-3.4c0,0-9.7-3-10.1-5.7c-0.3-2.7-3.7-4.4-3.7-4.4l-1.9-5.6
			c0,0-8.9-9.3-12.7-10.9c-3.9-1.5-7.7-10.9-7.7-10.9s-13.1-3.6-20.3-4.9c-7.3-1.4-18.5-6.6-19.5-6.9c-1-0.4-31.9,5.3-31.9,5.3
			l-3.7-11.4l-36.2,6.1l-59.5,4.9c0,0-36.6-36.2-40.3-36.2l-5,0.8l-2.6-2.4l-3.2-0.6v-1.7l3.4-16.1H87h-4.8h-4.9
			c0,0-1.8,3.1-4.5,5.3c-2.8,2.3-6.9,2-9.2,4.3S58,183.5,55.4,186c-2.6,2.6-13.7,6.9-14.5,8.2s-3.1,14.5-3.1,14.5l-4.5,11.2
			l24.2,92.5l3.1,3.7l2.4,2.8l2.4,9.7c0,0,61.1-5.6,65.8-5.1c4.9,0.5,7.4,1,7.4,1l5.9-1.8l3.8-0.5l15.6-10.4
			c0,0,10.7-32.2,10.4-41.2c-0.3-8.9-6.1-37.7-6.1-37.7l-9.3-3.8l-10.4-5.6l-9.3,14l-11,21.9l-12.5-6.6L83,259.2v1.8l-9.3,2.8
			l-2.3-3.3l-26.5,8.4"/>
		<path class="st4" d="M77.2,161.4c0,0,2.3-3.3,3.6-4.5c1.3-1.3,3.8-3.3,3.8-3.3l-6.6-7c0,0-4.3-5.9-7-8.4c-2.8-2.6-6.6-5.1-6.6-5.1
			l-8.2-2.6v-4.9c0,0-6.9-3.3-9.7-4.5S12.3,94.4,12.3,94.4l-8.2-7.1"/>
		<path class="st4" d="M95.7,161.4l6.9-3.6h7.4l19.9-10h4.5l5.1-2.3l2.6-3.3l103.7-51.4l10-12.7l3.1-5.9l20.7-12.5l-6.4-7.8
			l-2.4-3.1l-7.7-1.4l-12.3,5.1l-6.9-0.3l0,0l-3.9,0.7l0,0h-5.3l-6.9,1.1c0,0-4.1-1-6.4-3.6c-2.3-2.6-13.7-16.6-13.7-16.6
			s-4.5-4.5-8.6-6.6s-6.4-1.8-6.4-1.8l-1.5-1c0,0-1.8-1-5.9-3.3C181,19,174.7,19,174.7,19l-6.9-5.6c0,0,0,4.1-3.8,4.3
			c-3.8,0.3-7.7,1.3-7.7,1.3l-4.1-5.1c0,0-3.3-0.8-6.4-1.5s-7.4-2.3-7.4-2.3l-3.7,3.3l-4.9,2.8l-2,2.8c0,0-2.6-0.3-6.4,1.8
			s-7.4,7-7.4,7l-4.1,4.3l-4.5,5.3l-4.9,3.3l7.4,6.4l1,18.3l-1.5,0.5l-4.3,9.2l2,6.1l-1.8,2.8l-6.1,5c0,0-1.8,3.3,0.8,9.3
			s4.1,10.2,2,12.9c-2,2.8-10.4,14-10.4,14s-2.6,3.8-3.3,7.7c-0.8,3.8-1.8,16.6-1.8,16.6v3.8"/>
		<path class="st4" d="M90.2,415.4l45,1.2l5.1,2.6l3.1-1.9l37.1,1.9h1.3h20.7h30.8l1.5,1.8l2.6-1.5h5.6l29.8-12c0,0,6.8-0.5,9.1-1.8
			c2.3-1.3,15.8-15,15.8-15l4.3-1.1l2-1.3h5.1v-0.9h3.2l1.4-1c0,0,1.9-2.4,9.8-2.8c7.8-0.5,6.8-1,6.8-1l0.1-2.2c0,0-0.3-2,2.8-2.2
			c3.2-0.1,9.3,4.2,9.3,4.2l5-0.3c0,0,0.3,2.2,1.4,2.8c1.1,0.8,3.6,0,3.6,0l2.7,0.1l1.3,2.6l1.3-1.1c0,0,5.2,1.9,6.5-0.8
			c1.3-2.7,2.3-3.3,2.3-3.3l2.3-2.8l1.7-0.6l1.7-2l1.7-2.8c0,0,3.3,1.7,5,0s1.1-3.8,1.1-3.8s4.1,0,6-0.8s2.8,0,2.8,0l2-1.3l3.7,1.1
			l5-5.1l0.6-2.4l2-0.6h1.9l2.8,1l1.5-1c0,0-0.3-0.9,3.4,1.5c3.7,2.4,4.2,3.4,4.2,3.4l2.3-0.3l4.5,2c0,0,8.5,1.5,9.7,1
			c1.1-0.5,3.4,0.1,3.4,0.1l2.2-2.3l2-0.1l1-1.8l1.1-0.4l1.8-0.5l2.4-1.3l1.9-1.7h2.2v-1h3.1c0,0-0.6-0.8,1.7-1.4
			c2.3-0.6,6.9,0,6.9,0l1,0.9l0.8-1.2"/>
		<path class="st4" d="M163.7,311.8c0,0-6.4,42.5-5.9,46.2c0.5,3.8,0,6.1,0,6.1l-13.4,28c0,0-5.9,15.2-5.1,21.1
			c0.8,5.9,0.8,5.9,0.8,5.9"/>
		<line class="st4" x1="143.3" y1="217.9" x2="148.2" y2="223.5"/>
		<line class="st4" x1="36.8" y1="233.4" x2="0.5" y2="223.5"/>
		<path class="st4" d="M171.9,283.9l20.5,8.1h25.2l13.4,2.6l6.6-3.3l20.8,5.3c0,0,1.5-0.3,2.6-1.3c1-1,0-7.7,0-7.7l2-5.7l96.7-3.7"
			/>
		<path class="st4" d="M351.4,638.1c0,0,3.1-1.7,7.9-6.6c4.9-4.9,7-7,7-7l7.8-2.3c0,0,3.3,3.1,5.6,2.3c2.3-0.8,4.5-3.6,4.5-3.6v-4.3
			c0,0,0.3-5.9,2.3-5.9s8.4,6.1,11.1,6.1c2.8,0,7-2,7-2s16.2-0.8,19.1-2.8c2.8-2,2.6-6.1,2.6-6.1s-8.4-16-6.9-16.8s8.2,1.5,8.2,1.5
			s10.2,1.3,11.7-0.5s3.3-6.4,5.6-7.8c0,0,6.9-5.1,14-3.6s8.9,2.2,8.9,2.2l4.2-3.4c0,0,5.3,2.2,9.2,1.4c3.9-0.8,3.9-1.4,3.9-1.4"/>
		<line class="st4" x1="138.5" y1="10.2" x2="128.2" y2="0"/>
		<path class="st4" d="M279.5,60.1l13.4-6.1H304l14.2-9.3h6.6l5.6-6.9l8.6-1l1.3,1.8l9.3-1.8l1.3,1.4l6-3.4l7.4,1.5v14.5
			c0,0-4.3,0.5-5.9,4.3c-1.5,3.8-3.3,11.5-3.3,11.5s-1.3,9.3,2.3,13.4c3.7,4.1,5.6,5.7,5.6,5.7s0.5,5.7,1.3,8.5s3.6,7.7,3.6,7.7
			s3.4,5.5,5.1,6c1.8,0.5,7.6,2.4,8.9,1.4s5.8-0.3,5.8-0.3s12.7-0.7,18.3,0.3c5.6,1.1,18.6,3.7,18.6,3.7s4.9,10.8,6.1,12.6
			c1.3,1.8,0,7.5,0,7.5s0.6,6.2-0.7,7.7c-1.3,1.5,2,7.5,2,7.5l-1,4.4l2,7l3.1,7.7c0,0,4.4,7,6.5,8.2c2,1,8.1,8.5,10.9,8.5
			s12.6,4.8,12.6,4.8l0.1,11v7l7.7,14.2v4.1v4.3l-3.1,2.8c0,0-1.5,4.5,0,6.1s8.4,9.3,8.4,9.3s-1.5,6.1-1.3,7.7
			c0.3,1.5,3.1,15,3.1,15s-2.8,12.5-3.8,13.3s-5.9,0-5.9,0s-5.9,9.3-4.9,12.5c1,3.1,6.1,14.2,6.1,14.2l-2.6,10.2c0,0-1.8,7,0.3,7.8
			c2,0.8,6.4,1.8,6.4,1.8l4.3,0.8v2.6c0,0-0.8,2.3,0,2.6c0.8,0.3,5.1-3.3,6.4-4.3c0,0,4.1,1.5,5.9,0.3c1.8-1.3,5.3-2.6,7.4-2.6
			c2,0,7.8,1.3,7.8,1.3"/>
		<path class="st4" d="M470.3,328.8l-5.3,2c0,0-0.3,3.1-1.5,5.6c-1.3,2.6-5,5-5,5"/>
		<line class="st4" x1="5.9" y1="536.3" x2="4.6" y2="545.5"/>
		<line class="st4" x1="24.1" y1="441.2" x2="4.2" y2="437.2"/>
		<path class="st4" d="M25,336.1c0,0-2.4-0.9-8.5,0s-12.4,0-12.4,0"/>
		<path class="st4" d="M269.2,408.6l-8.5,10.6l4.3,25.4h22.2v16.8l-38-2v18.3h-15.3l10.1,7.7c0,0,2.4-4.1,5.3,2
			c3,6.1,3.5,11.8,3.5,11.8l-3.5,8.5l-5.3,3.6l-8.7,10.9"/>
		<path class="st4" d="M263.2,506.1l4.5,8.2v35.1h-16.8v25.4h-5.1v26.5l8.6,8.6l2.3,15.2l16.6,8.2c0,0,1-4.5,9.7-7
			c8.6-2.6,15.8-5.6,15.8-5.6l24.4,0.5l6.6-2.6l15.8-0.5v5.6l5-0.5l6.2-4.2l6.2-6.9c0,0-2.6-11.8,1.4-16.1
			c3.9-4.3,26.8-2.6,26.8-2.6l12.7-5.3l6.5-5.1l8.6-20.2l13.1-1.4l9.9-0.5l4-10.9l4.4-1.5l3.6,8.5l5.3,6.8l8.9-3.4l8.5,4.3
			c0,0,2.7,2.7,7.9,2.6"/>
		<path class="st4" d="M485.4,569.7l-14.5,3.1c0,0-6.2-3.4-11.7-5.3s-10.2,0.9-10.2,0.9s-4.8-2-7.7-1.6c-3.1,0.6-7.3,6.1-7.3,6.1
			l-10,3.9l-5.8,7c0,0-0.2,6.9-4.3,9.7c-4.1,2.7-8.9,6.6-11.7,7.5c-2.8,0.9-17.6-3.7-17.6-3.7l-6.6,0.2c0,0,1.4,9.9-1.5,10.3
			c-2.8,0.5-1.2,1.7-1.2,1.7l-6.9-1.4l-5.5,1.4"/>
	</g>
	<polyline class="st5" points="345.6,623.5 340.5,627.5 340.5,640.9 340.5,645.4 	"/>
</g>
<g id="Capa_8">
	<polyline class="st6" points="298.9,780.1 279.2,703.1 279.2,689.6 	"/>
	<path class="st6" d="M280.3,683.5l0.2-48.6c0,0-9.7-22.6-10.8-28.4s-5.7-0.9,0-19.4s10.8-30.1,10.8-30.1l-0.2-10.6
		c0,0,6.1-28,4.4-31.5"/>
	<path class="st6" d="M315.9,448.1c0,0-10.2,37.5-14,43.1c-3.7,5.7-12.6,14.5-12.6,14.5l-4.5,7.3l-4.7,1.8c0,0-5.1,9.4-5,10.9
		c0.1,1.4,0,8.2,0,8.2l3.4,10.9l1.6,1.7"/>
	<path class="st6" d="M264.7,425.4l2.3,15.3l5.2,12c0,0,2,16.7,3.2,19.1c1.1,2.6,0,15.3,0,15.3v5l3.4,4.9l-2.3,6.1l0.7,6.5
		l-1.8,15.9"/>
	<path class="st6" d="M312.4,427.5c0,0-5.3,18.3-6.8,19.1c-1.4,0.7-13.7,12.6-13.7,12.6l-9.4,7.2l-6.2,11.6"/>
	<polyline class="st6" points="301.6,389.5 303.3,394.5 312.4,409.9 323.9,423.7 	"/>
	<polyline class="st6" points="301.6,363.4 304.3,366 305.3,375.5 309.6,384.7 	"/>
	<polyline class="st6" points="291.7,327.8 295.6,336.2 295.6,341.3 297.1,346.4 294.3,350.1 294.4,359 295.6,368.4 297.1,370.5 	
		"/>
	<polyline class="st6" points="297.1,281.6 298.2,287.2 294.4,292.1 294.4,298.3 297.1,305.6 298.2,311.1 300.2,319.6 303.3,327.8 
		303.3,331.9 305.6,344 307.3,349.1 	"/>
	<path class="st6" d="M221.2,92.8c0,0,7.7,20.3,10.9,23.7c3.1,3.4,5.8,17.9,5.8,17.9l2.7,16.9l5.3,13.6l7.5,14.5l11,9.5l10.4,5.6
		l6.8,6.1c0,0,6.1,18,6.5,22.2s0,17.5,0,17.5l-2.7,11.6l0.7,11.1l4.1,5.7l1.7,4.8v9.4"/>
	<line class="st6" x1="248" y1="148.7" x2="248.9" y2="171.1"/>
	<polyline class="st6" points="264.3,174.3 267.3,181.3 267.3,190.7 	"/>
	<g>
		<g>
			<path class="st7" d="M228.9,670.4"/>
		</g>
	</g>
</g>
<image style="overflow:visible;enable-background:new    ;" width="245" height="241" xlink:href="9A7369D60B5068B3.png"  transform="matrix(0.2164 0 0 0.2164 24.9155 646.2928)">
</image>
<rect x="55.7" y="643.4" class="st8" width="25.3" height="53.8"/>
<rect x="165.2" y="665.8" class="st2" width="107.9" height="8.1"/>
<g>
	<text transform="matrix(1 0 0 1 136.7129 670.3644)" class="st9 st10 st11">Planta Aguas Andinas</text>
</g>
<rect x="250.4" y="344.5" class="st2" width="32.8" height="29"/>
<g>
	<text transform="matrix(1 0 0 1 221.7178 354.6628)" class="st9 st10 st11">Universidad </text>
</g>
<g>
	<text transform="matrix(1 0 0 1 221.7178 364.6452)" class="st9 st10 st11">Adolfo </text>
</g>
<g>
	<text transform="matrix(1 0 0 1 248.7842 364.6452)" class="st9 st10 st11">Ibáñez</text>
</g>
<rect x="222.5" y="256.3" class="st2" width="32.8" height="29"/>
<g>
	<text transform="matrix(1 0 0 1 206.0967 261.2048)" class="st9 st10 st11">Hospital </text>
</g>
<g>
	<text transform="matrix(1 0 0 1 206.0967 271.0192)" class="st9 st10 st11">Militar</text>
</g>
<polyline class="st6" points="299.8,777.3 280.2,700.7 280.2,687.2 "/>
<polyline class="st6" points="298.1,280.9 299.1,286.4 295.4,291.4 295.4,297.5 298.1,304.8 299.1,310.2 301.2,318.7 304.2,326.8 
	304.2,331 306.5,343 308.2,348.1 "/>
<g>
	<g>
		<line class="st7" x1="250.3" y1="668.1" x2="230.1" y2="668.1"/>
		<g>
			<path class="st12" d="M250.2,666.5c0.9,0,1.7,0.7,1.7,1.7c0,0.9-0.7,1.7-1.7,1.7c-0.9,0-1.7-0.7-1.7-1.7
				C248.6,667.2,249.4,666.5,250.2,666.5z"/>
		</g>
	</g>
</g>
<g>
	<g>
		<polyline class="st7" points="272.2,193 272.2,201.2 255.8,201.2 		"/>
		<g>
			<circle class="st12" cx="272.2" cy="193.2" r="1.5"/>
		</g>
	</g>
</g>
<g>
	<g>
		<line class="st7" x1="260.1" y1="262.2" x2="246.2" y2="262.2"/>
		<g>
			<circle class="st12" cx="260" cy="262.2" r="1.5"/>
		</g>
	</g>
</g>
<g>
	<g>
		<line class="st7" x1="292.8" y1="356.2" x2="280.3" y2="356.2"/>
		<g>
			<circle class="st12" cx="292.7" cy="356.2" r="1.3"/>
		</g>
	</g>
</g>
<text transform="matrix(1 0 0 1 281.4727 166.1351)" class="st9 st10 st11">Hospital DIPRECA</text>
<g>
	<text transform="matrix(1 0 0 1 251.3238 110.452)" class="st9 st10 st11">Hospital FACH</text>
</g>
<g>
	<g>
		<polyline class="st7" points="260.3,172.8 260.3,164.6 276.8,164.6 		"/>
		<g>
			<path class="st12" d="M261.8,172.8c0,0.8-0.7,1.5-1.5,1.5s-1.5-0.7-1.5-1.5s0.7-1.5,1.5-1.5C261.1,171.3,261.8,172,261.8,172.8z"
				/>
		</g>
	</g>
</g>
<g>
	<g>
		<polyline class="st7" points="231.4,116.5 231.4,108.3 247.9,108.3 		"/>
		<g>
			<circle class="st12" cx="231.4" cy="116.4" r="1.5"/>
		</g>
	</g>
</g>
<g>
	<text transform="matrix(1 0 0 1 315.8695 296.0887)" class="st9 st10 st11">Templo </text>
	<text transform="matrix(1 0 0 1 315.8695 306.7887)" class="st9 st10 st11"> Bahá’i</text>
</g>
<g>
	<g>
		<line class="st7" x1="300" y1="292.7" x2="314.1" y2="292.8"/>
		<g>
			<circle class="st12" cx="300.1" cy="292.7" r="1.5"/>
		</g>
	</g>
</g>
<g>
	<text transform="matrix(1 0 0 1 156.7234 196.003)" class="st9 st10 st11">Reactores Nucleares de</text>
	<text transform="matrix(1 0 0 1 156.7234 206.703)" class="st9 st10 st11">la Comisión Chilena</text>
	<text transform="matrix(1 0 0 1 156.7234 217.403)" class="st9 st10 st11">de Energía Nuclear</text>
</g>
</svg>
