<?xml version="1.0" encoding="utf-8"?>
<!-- Generator: Adobe Illustrator 25.2.1, SVG Export Plug-In . SVG Version: 6.00 Build 0)  -->
<svg version="1.1" id="Capa_1" xmlns="http://www.w3.org/2000/svg" xmlns:xlink="http://www.w3.org/1999/xlink" x="0px" y="0px"
	 viewBox="0 0 1920 1080" style="enable-background:new 0 0 1920 1080;" xml:space="preserve">
<style type="text/css">
	.st0{stroke:#000000;stroke-miterlimit:10;}
	.st1{fill:#D0D2D7;stroke:#D0D2D7;stroke-width:0.6475;stroke-linecap:round;stroke-linejoin:round;stroke-miterlimit:2.5899;}
	.st2{fill:#C83A02;}
	.st3{fill:#C1978E;}
	.st4{font-family:'Roboto-Black';}
	.st5{font-size:20px;}
	.st6{fill:#FFFFFF;}
	.st7{font-size:16px;}
	.st8{fill:#C1978E;stroke:#FB7D50;stroke-width:0.6475;stroke-linecap:round;stroke-linejoin:round;stroke-miterlimit:2.5899;}
</style>
<rect x="-2" y="0" class="st0" width="1920" height="1080"/>
<g id="Layer_2_00000101808859702615236440000012134477461396082563_">
	<path class="st1" d="M583.3,170.3c-0.5,0-0.5,0-1.1,0c0-0.8,0-0.8,0-1.6c-8.8-2.2-1.6,5.8,7,7.6c0,11,3.8,16.1,3.8,24.3
		c0,0.4-0.3,0.8-0.5,1.1c-2.6,3.1-4.8,1.6-8.1,3.2c-4.3,2.2-12.7,20.5-13,23.2c1.9,0.3,1.9,0.3,3.8,0.5c3.1-6.1,6.6-6.3,12.4-9.2
		c-1.9-0.9-1.1-0.1-1.1-3.2c0.8-0.3,0.8-0.3,1.6-0.5c0-0.5,0-0.5,0-1.1c6.9-0.9,10.9-1.9,11.9-9.7c2,0,25-5.7,20,4.3
		c8.6,4.3,4.7,14.4,1.1,21.6c8.4,0,13.5,1.3,13.5,9.7c20.4,0,11.8,6.8,8.6,19.4c13.3,2.2,3.2,3.6,3.2,10.8c3.7,0,7.2,3,10.8,3.8
		c0.9-1.7,2.7-4.2,2.7-5.9c14.8-1.1,10.6-19.7,30.2-16.7c11.2,1.7,0.4,24.5,2.7,29.2c1.5,3.1,16.5,7.2,20,8.1
		c0-6.4,17.6-10.4,23.2-9.2c3.8,0.8-9.2,8.2-9.2,13.5c4.7,0,9.4,0.1,14,1.1c0,9.2,2.9,7.2-9.7,8.6c4.6,2.3,9.5,3.5,14,6.5
		c-0.8-5,1.2-7.8,5.9-8.6c0-12.6,13.5-30.1-0.5-39.4c6.2-12.4,17.3-18.4,30.2-18.9c3.8-0.1,6.2-10.4,8.6-9.7
		c4,1.1,10.1,9.2,12.4,9.2c0-4.8,5.1-14,10.8-14c-1.3-2.6-2.5-4.9-3.8-7.6c6-6,22.2-9.1,10.3-21.1c1-1.9,0.5-0.7,1.1-3.8
		c6.6,0,13.8-9.8,20.5-7.6c0,17.8,10,3.8,13-2.2c-6.3-3.1-15.5-9.1-17.8-16.2c-1.5,0-0.8,0.2-2.2-0.5c2-3.9,2.9-20.8,14-9.7
		c2.8-1.4,16.3-8.1,8.1,2.2c1.3,0.7,4.3,2.9,4.3,4.3c1.5,0,0.8-0.2,2.2,0.5c1.9-1.9,9.5-13.6,10.3-14c4-2.4,23.4-1.4,26.5-1.6
		c24.6-1.4,43.2,24.3,68,24.3c12.5,0,28.8-9.1,42.1-11.3c2.6,5.2,9.5,7.9,11.3,13.5c4.7,0,5.6-6.7,9.7-8.1c5.9-2,16.2,7,20.5,10.3
		c6.5,4.9,52.9,32.4,52.9,36.2c0,14.6-19.7,23.2-30.2,24.8c-1.7,0.3-15.7,0.8-16.2,2.7c-0.8,3.3,0.7,7.3-1.1,10.3
		c-1.5,2.5-8.3,3.3-9.2,5.9c-3.7,10.9-19.2,26.1-24.3,10.8c-6.8,0-9.8-5.7-16.7-2.7c-3.2,1.4-0.5,6.9-1.1,10.3
		c-0.7,4.2-11.3,7.6-12.4,14.6c-1.3,8.5,9.3,22.3,10.8,31.9c0.6,3.8,47.4,16.3,51.3,22.1c5.5,8.3,1.4,27.8,0,37.8c4,0,2,5.5,2.7,8.1
		c0.7,2.7,10.7,8.3,13,10.3c6.5,5.4,17,1.6,22.7,6.5c8.3,7.1,6.1,29.8,4.9,38.3c-0.5,3.8,7,9.9,7.6,14c1.2,9.1,1.6,19.2,1.6,28.1
		c0,13.1-18.9,3.9-11.3,26.5c0.5,0,0.5,0,1.1,0c0,6.7,0.4,14.9-1.1,21.6c-0.3,1.6-9.5,5.3-10.3,10.8c-0.5,3.8,2.5,14.7,2.7,17.8
		c-12.6,0-15.9,6.7-23.8,7c-14.1,0.5-21.5-7-34.6-7c-3.8,0-5.1,5.7-8.6,5.9c-4.8,0.3-9.8-0.9-14.6,0c-5.7,1-10.6,12.4-16.7,14
		c-8.4,2.2-15.2-4.4-22.7-5.9c0-0.5,0-0.5,0-1.1c-2.6,0-5.5-2.2-8.1-2.7c-1.2,10-26.1,9.3-34,10.3c-1.1,0.1-32.8,27-32.9,28.6
		c-0.8,7.3,0,14.8,0,22.1c19.4,0,21.4-3.2,22.1,18.9c-8.1,0.6-4.7,0.9-10.3,0c0.3-0.5,0.3-0.5,0.5-1.1c-9.2,0-19,0.2-28.1-1.6
		c-1.3,5.1-0.2,10.4,0,15.7c-4.3,0-9.1-1.4-13,0.5c2,8.1,13.7,13,15.7,26.5c-21.7,10.9,4.3,16.2,8.1,8.6c2.2,0.3,2.2,0.3,4.3,0.5
		c0.5,19.7,0.5,19.7,1.1,39.4c-3.8,0.6-2.2,0.9-4.9,0c0-2.1-1.9-1.8-3.8-2.2c0-0.5,0-0.5,0-1.1c-1.1,0-1.1,0-2.2,0
		c0-0.5,0-0.5,0-1.1c-1.6,0-3.3-0.8-4.9-1.1c-2.2,8.7-2.2,17.8-4.3,26.5c-3.1,0-1.9,0.4-3.8-0.5c-0.8,8.4-1.6,17-1.1,25.4
		c0.4,6.5,9.2,8.7,9.2,22.7c4.6,1.5,9.5,6.7,14,7.6c4.4,0.9,6.1-9.1,8.6-9.2c19.6-0.7,42.7-2.2,61.6-2.2c0,2.7,0,2.7,0,5.4
		c2.9,0,1.1,0.1,5.4-0.5c-0.5-0.3-0.5-0.3-1.1-0.5c7.3-7.3,3.7-13.4,8.1-22.1c2.8-5.6,19.1-9.4,23.2-7.6c1.6,0.7,2.1,4.2,4.3,3.8
		c2.7-0.5,2.1-5.4,5.4-5.4c0,12,9.2-2.7,10.3-3.8c4.6,9.3,15.1-19.9,16.7-21.6c2.1-2.1,17.6,11.7,22.7,1.6c-1.1-1.1-1.6-2.2-2.7-3.2
		c1.1-2.2,3.2-3.6,4.3-5.9c-0.5-0.3-0.5-0.3-1.1-0.5c11-3.7,3.7,14.4,16.7,13.5c8.3-0.6,7,2.3,17.3,5.4c6,1.8,22.2-7.7,18.9,7
		c-0.3,1.3-12.6-2.2-13.5-2.2c-9.3,0-18,4.2-27.5,4.9c0-0.5,0-0.5,0-1.1c-13,0-18.8,8.7-31.3,10.3c1.3-0.3,1.3-0.3,2.7-0.5
		c-2.8-0.6-4.2-2.5-6.5-3.2c-11.8-3.5,3.8,13.6-0.5,19.4c-3.8,5.1-20.7,6.5-28.1,6.5c0-0.5,0-0.5,0-1.1c-3.2,0-4.6-1.7-5.4-4.9
		c-6.7,20.1-13.8,4-21.1,11.3c-6.8,6.8-15.9,11.1-22.7,17.8c-3,3-0.9,10.8-2.7,13c-3.6,4.2-8.3-0.4-11.9,2.7
		c-3.5,3-3.3,6.7-5.9,10.3c-3.8,5.2-9.5,4.4-15.1,1.6c0.3-1.1,0.3-1.1,0.5-2.2c0.3,0.5,0.3,0.5,0.5,1.1c0-1.3,0-1.3,0-2.7
		c-0.8,0-0.8,0-1.6,0c0-1.6,0-1.6,0-3.2c-7.8,0-4,13.1-2.7,18.4c-12.2,0-19,3.3-30.2,4.9c-0.7,6.4-2.2,14.4,4.9,16.7
		c0,1.1,0,1.1,0,2.2c-5.1,0-15.5,0.1-20,2.7c-0.5,0.3-6.7,8.7-7.6,5.9c-0.6-2.1-0.4-4.3-0.5-6.5c-4.2,2.1-15.4,1.4-18.9,1.6
		c0-3,0-3,0-5.9c-1.7,0.6-13.9,5.1-14,6.5c-1.5,19.9,0.8,24.7-17.8,27c0-4.5,0.3-7.5,0-12.4c-3.4,1.7-7.2,2.8-10.3,4.9
		c1.7,1.7,4.1,5.2,4.9,7.6c-13.7,6.8-37.7,9.1-49.7,16.7c-7.5,4.8-10.4,11.4-18.9,13.5c-7.4,1.8-12.9-1.9-20-0.5
		c-9.1,1.7-27,6.4-13.5-8.1c1.6-1.7,1-3,2.7-3.8c-0.6-1.7-1.6-1.7-1.6-3.2c-9.3,0-10.3-2.4-17.8-4.9c0-2.1-1.6-4.4-2.2-6.5
		c-0.5,0-0.5,0-1.1,0c1.3-8.1,7.6-12,10.8-18.4c1.8-3.6,1-17.6,1.1-19.4c-5.2,0-10.4,0.3-15.7,0.5c0-0.5,0-0.5,0-1.1
		c-8.6,0-8.6,0-17.3,0c0-4.7,0.6-8.8,1.1-13.5c-6.4-1.1-1.4-21-1.1-27c-1.1,0-1.1,0-2.2,0c0.8-1.6,0.1-1.1,2.2-1.1
		c-8.1-0.7-16.2-1.2-24.3-2.2c0-0.5,0-0.5,0-1.1c-8.3-0.7-16.5-1.2-24.8-1.6c-2.9,11.4-13.7,32.7-11.3,44.3c1,4.7,7.7,12.8,9.7,16.7
		c-2.7,0.9-5.4,1.6-8.1,2.7c6.4,12.8,23.5,35.7,16.2,50.2c-2.5-0.4-5-0.7-7.6-1.1c0.5-4.7,0.4-7.9-1.1-12.4c-7.4,0-7.6,1.8-7.6-4.9
		c-12.7,0-25.7,1.3-38.3,2.7c1.3-0.3,1.3-0.3,2.7-0.5c-2.2-0.3-2.2-0.3-4.3-0.5c0-0.5,0-0.5,0-1.1c-0.5,0-0.5,0-1.1,0
		c0.3-0.8,0.3-0.8,0.5-1.6c-0.5,0-0.5,0-1.1,0c0.3-1.1,0.3-1.1,0.5-2.2c-0.5,0-0.5,0-1.1,0c0-0.5,0-0.5,0-1.1c-0.5,0-0.5,0-1.1,0
		c-5.4,16.2,12,9.5,14,17.8c30.2,0-24.9,11.2-28.1,11.3c0.8-0.3,0.8-0.3,1.6-0.5c-1.9-0.3-1.9-0.3-3.8-0.5c0-6-18.9-6.8-18.9-14.6
		c0-4.1,5.5-9.1,5.9-13.5c1-11.1-5.1-22.2-3.8-32.9c-0.5,0-0.5,0-1.1,0c1-4.8-2.4-5.5-6.5-6.5c0-2.1-1-3.9-1.6-5.9
		c-0.5,0-0.5,0-1.1,0c0.8-2.4-0.3-4.7-1.1-7c-0.5,0-0.5,0-1.1,0c0-0.5,0-0.5,0-1.1c-0.5,0-0.5,0-1.1,0c1.7-1.7,1.2-0.6,0.5-3.8
		c-0.8,0-0.8,0-1.6,0c0-0.8,0-0.8,0-1.6c0.3,0.5,0.3,0.5,0.5,1.1c0.8-3.1,1.9-4.8,3.2-7.6c-0.5,0-0.5,0-1.1,0
		c0.8-0.3,0.8-0.3,1.6-0.5c-6-3.6-12.5,0.5-20.5-2.2c0-11.2,17.7-34.5,1.1-36.2c3.9-7.9-4.5-12.8-7.6-17.3
		c-2.2-3.4,3.2-8.3,3.2-11.9c0-3.6-8.1-4.8-8.1-9.2c0-6.8,6.5-11.5,6.5-16.2c-0.8,0-0.8,0-1.6,0c0-2.4,0.1-4.1,0.5-6.5
		c-0.5,0-0.5,0-1.1,0c16.1-8,13.5-36.1,13.5-51.3c0-5.3,11-17.5,14.6-21.1c2.3,1.5,7.7,7,9.7,7c0-3.8,7.5-33.5,10.3-33.5
		c0-5.9,5.2-9.3-2.2-10.8c0-0.5,0-0.5,0-1.1c-9,0-16.2-8.3-24.8-9.7c0.5-0.3,0.5-0.3,1.1-0.5c-2.7-1.3-8.1-1.6-8.1-4.9
		c-9.5,0-20.9,24.1-26.5,31.9c-14.2,19.9-27.9,40.1-42.1,59.9c-3.2,4.5-9.1,17.9-14,20c-6.6,2.8-19.7-1.9-26.5-3.2
		c0-0.5,0-0.5,0-1.1c-9.9,0-10.9,1.5-18.4,6.5c-1.3-2.6-5.5-3.5-7-6.5c-3.7,2.3-13.8,14.6-17.8,6.5c-19.3,17.1-6.5,5.9-2.7,17.3
		c-2,1-4,3.4-5.9,4.9c2,1,3.2,2.5,5.4,3.2c0,2.6-10.3,25.2-11.9,25.4c-2.4,0.2-26.6-4.9-24.3-13c1.6-5.5,9.9-7.2,13.5-10.8
		c-3.2-6.5-1.2-6.3,1.6-11.9c-0.7-0.4-1.4-0.7-2.2-1.1c0.3-0.5,0.3-0.5,0.5-1.1c-4.5-2.2-6.1-9-13.5-6.5
		c-1.6,0.5-20.5,26.6-20.5,17.3c-0.8,0-0.8,0-1.6,0c0.3-0.5,0.3-0.5,0.5-1.1c-0.8,0-0.8,0-1.6,0c8.7-9.5,19.2-17.4,28.1-27.5
		c0.8-0.9-0.8-1.8-1.1-2.2c-9.2-11.5-23.5-28.5,0-31.9c0,3.4,5.7,10.4,8.6,11.9c0.9-1.7,0.1-1.1,2.7-1.1c0-0.5,0-0.5,0-1.1
		c6.3-1.1,7,2.7,11.9,5.9c-0.5,0.3-0.5,0.3-1.1,0.5c5.1,0,13.3-11.6,17.8-15.1c-2.7-2.7-6.5-8.7-9.7-10.3c3-8.8,16.6-9.9,18.9-18.9
		c-4.9-2.4-17.4-9.5-20-14.6c-1.9-3.7,3.9-11.7,4.9-15.7c3-12.2,2.7-15.1,2.7-32.9c0-12.6-8.5-34.9,3.2-43.7
		c14.3-10.8,44.4-3.3,56.2-15.1c-2.6-5.2-20.8-5.1-25.9-10.3c2.3-2.3,64.2-30.8,49.1-34.6c0.3-0.5,0.3-0.5,0.5-1.1
		c-0.8,0-0.8,0-1.6,0c0-1.5,0-2.2-1.6-2.2c0.3-0.5,0.3-0.5,0.5-1.1c-1.5-1.5-0.9-0.6-1.6-2.7c-0.5,0-0.5,0-1.1,0
		c0-4-3.7-6.7-4.9-10.3c-0.8,0-0.8,0-1.6,0c0-2.4,0-2.4,0-4.9c0.3,2.2,0.3,2.2,0.5,4.3c0-4,0-4,0-8.1c-1.1-0.3-1.1-0.3-2.2-0.5
		c0-16.7-1.7-16.1-18.9-16.7c-1.9,7.8-5.7,15.7-15.7,15.7c0-2.7-2.6-3.8-4.9-4.3c0-0.5,0-0.5,0-1.1c-2.2,0-4.9-0.8-7-1.1
		c0-0.5,0-0.5,0-1.1c-5,0-10.1-0.7-15.1-1.1c-0.8,2.3-1.1,4.6-1.6,7c-1.4,0.1-10.3,2.1-10.3-1.6c-1.5,0-2.8-0.7-4.3-1.1
		c0-0.5,0-0.5,0-1.1c-1.9,0-1.9,0-3.8,0c0-0.5,0-0.5,0-1.1c-5.8,0-3.3-0.3-7.6,0.5c0-2.9-2.6-3.8-3.2-6.5c-12.7,0-13.5,1.1-8.6,10.8
		c-20.7,20.7-17.3-5.4-23.8-5.4c1-2-1.5-6.5-3.8-6.5c0.7-1.4,0.1-1.1,1.6-1.1c0-5.1,14.7-20,7.6-20c0-14,4.2-11.9,4.9-20
		c0.2-3-2.6-8.2-2.2-10.8c0.8-4.6,8.1-4.3,8.1-9.7c-0.5,0-0.5,0-1.1,0c0-9.6,7.9-8.2,15.7-10.8c0-0.5,0-0.5,0-1.1
		c6.5-0.6,10.3-0.6,10.3-7.6c2.6-0.6,6.8,3,8.6,2.2c8.5-3.7,3.8-15.6,3.2-21.6c2.4-0.5,2.4-0.5,4.9-1.1c-0.3-1.9-0.3-1.9-0.5-3.8
		c0.3,1.6,0.3,1.6,0.5,3.2c0.6-24.8-1.4-48.8-3.8-73.4c-0.6-6.3-3.2-22,2.7-26.5c6.8-5.1,16.9-1.4,25.4-1.6c0-1.1,0-1.1,0-2.2
		c-0.5,0-0.5,0-1.1,0c0-11.6,0-11.6,0-23.2c0.3,4.3,0.3,4.3,0.5,8.6c0.2-3.2,0-6.5,0.5-9.7c0.1-0.8,1.3-0.9,1.6-1.6
		c14.1,7.1,20.5,27,34.6,27c0-7.7,8.1-10.3,13-15.1c3.1-3.1,0.5-12.5,0.5-17.8c20-1.3,5.8-22.1,30.8-22.1c0-0.5,0-0.5,0-1.1
		c-3,0-2.7-2.2-4.9-3.2c6.6-13.2,19.6,10.9,25.9,13c0-12.9-4.5-13.3,10.3-14c0,3.2,0,3.2,0,6.5c10.8,0,5.4-0.2,16.2,0.5
		c0-3.1-0.5-4.3,2.7-4.3c0-3-8.7-14.6-11.9-15.7c0.5-0.5,0.5-0.5,1.1-1.1c-4.3-1.4-4.3-8-9.2-9.2c0-4.8-7.9-10.1-9.7-15.7
		c-0.5,0-0.5,0-1.1,0c-0.5-1.4-1-2.5-1.6-3.8c3.3-0.6,6.1-3.2,9.2-2.2c0.3-0.5,0.3-0.5,0.5-1.1c9.1,3,23.5-8.1,31.9-8.1
		c0-3,1.3-15.2,4.3-16.7c4.3-2.2,9.7-0.9,14.6-0.5c1.4,0.1,4.2,5.3,5.9,5.9c6.4,2.4,11.5-0.5,17.8-0.5c3.3,0,4,6.2,6.5,7
		C579.3,163.2,582.3,160.1,583.3,170.3z"/>
</g>
<path class="st2" d="M1030.4-115.9"/>
<text transform="matrix(1 0 0 1 1263.3691 430.6909)" class="st3 st4 st5">Zona media-alta</text>
<text transform="matrix(1 0 0 1 1264.9502 456.3526)" class="st6 st4 st7">Distancia de la falla:</text>
<text transform="matrix(1 0 0 1 1418.7402 456.3526)" class="st6 st4 st7"> 11,5 kilómetros </text>
<text transform="matrix(1 0 0 1 1264.9502 475.5526)" class="st6 st4 st7">Superficie:</text>
<text transform="matrix(1 0 0 1 1345.7202 475.5526)" class="st6 st4 st7"> 33.000 hectáreas </text>
<text transform="matrix(1 0 0 1 1264.9502 494.7526)" class="st6 st4 st7">Habitantes:</text>
<text transform="matrix(1 0 0 1 1351.6202 494.7526)" class="st6 st4 st7"> 863.696</text>
<text transform="matrix(1 0 0 1 1264.9502 513.9526)" class="st6 st4 st7">Viviendas:</text>
<text transform="matrix(1 0 0 1 1345.7603 513.9526)" class="st6 st4 st7"> 293.625</text>
<g id="Layer_4_00000078006791214926789130000017378922343911705781_">
	<g>
		<path class="st2" d="M928.3,416.5c-0.4-1.9-0.7-3.8-1.4-5.6c-1.3-3-3.2-5.9-5.5-8.3c-2.5-2.7-6.1-4.4-8.6-7.2
			c-1.8-2-1.2-4.5-1.4-6.9c-0.2-1.6-0.8-3-1.6-4.3c-0.2-0.4-1.5-2.8-2.3-2.3c-0.3,0.1-0.3,1.7-0.4,1.9c-0.1,1-0.2,6.3-0.9,6.6
			c-0.6,0.3-2.3-1.6-2.7-2c-1-1-1.8-2.2-3-3c-2-1.3-4.4-2.3-6.1-3.9c-1.6-1.5-1.3-4.9-1.1-6.9c0.4-4.6,1-9.2,0-13.8
			c-0.4-1.7-0.9-3.6-2.1-5c-0.4-0.4-0.6-1.4-1.2-1.2c-0.4,0.1-0.3,3.5-0.4,4c-0.2,2.4-1.1,4.9-1.1,7.4c0,1.5,0.1,3,0.1,4.5
			c0,0.6,0.2,2.6-1,1.5c-0.5-0.5-0.9-2-1.1-2.6c-1-2.5-1.5-5.1-2.1-7.7c-0.7-3.4-2.6-6.7-2.8-10.2c-0.2-4.3,1-8.5,0.4-12.8
			c-1-7.7-5.9-14.2-10-20.6c-1-1.6-1.9-3.2-2.5-5c-0.7-2.1-0.8-4.4-2-6.4c-0.2-0.4-1.7-3-2.1-2.8c-0.1,0.1-0.2,1.6-0.2,1.7
			c-0.3,2-0.7,4-0.7,6.1c0.1,5.3,4.1,8.4,6.5,12.7c1.5,2.7,2,5.8,3.1,8.7c0.3,0.9,0.4,2,0.8,2.8c0.6,1.2,1.3,1.7,1.4,3.1
			c0.3,3.8-1,7.5-0.4,11.3c0.4,2.8,1.2,5.4,2,8.2c1.9,7.4,4.5,14.4,8.8,20.8c2.1,3.1,5.1,5.3,7.7,7.9c0.9,0.9,1.3,2.2,2.2,3.1
			c0.6,0.6,1.5,1.3,2.2,1.8c3.3,2.3,8.7,2.5,11.4,5.5c1,1.1,1.7,2.4,2.8,3.4c1.1,1.1,2.4,1.9,3.6,2.9c2,1.7,4.2,3.9,5.9,5.9
			c0.6,0.8,1,1.6,1.6,2.4c0.9,1.3,2.1,2.3,2.7,3.7c0,0,0.6,1.6,0.8,1.5C928.1,417.3,928.4,416.8,928.3,416.5z"/>
		<path class="st2" d="M866.1,303.6c-0.1-0.1-0.4-0.2-0.5,0c-0.2,0.5-0.2,1.2-0.2,1.7c-0.1,0.7-0.2,1.4-0.3,2
			c-0.3,1.8-0.5,3.6-0.3,5.4c0.7,4.8,4.7,8,6.8,12.1c0.8,1.6,1.3,3.4,1.8,5.1c0.3,1.1,0.8,2.3,1.1,3.4c0.2,0.6,0.3,1.3,0.5,1.9
			c0.3,0.9,1,1.6,1.3,2.4s0.3,1.7,0.3,2.5c0,1.4-0.2,2.8-0.4,4.2c-0.1,1.2-0.3,2.5-0.2,3.8c0,1.3,0.3,2.7,0.5,4c0.4,2,1,4.1,1.5,6.1
			c1.1,4,2.3,7.9,3.9,11.6c1.5,3.5,3.2,6.9,5.4,9.9c2,2.7,4.8,4.8,7.2,7.1c0.8,0.8,1.1,1.8,1.7,2.6c0.8,1,2,1.8,3.1,2.5
			c0.4,0.2,0.8,0.4,1.2,0.5c-1.3-0.6-2.4-1.4-3.5-2.3c-1.1-1-1.5-2.4-2.5-3.4c-2.4-2.4-5.1-4.4-7.1-7.1c-1.5-2-2.7-4.2-3.8-6.5
			c-2.2-4.5-3.8-9.3-5.2-14.1c-0.8-2.8-1.6-5.5-2.1-8.4c-0.4-2.1-0.2-4.2,0-6.4c0.2-1.9,0.5-3.8,0.3-5.7c0-0.5-0.1-0.7-0.3-1.2
			c-0.3-0.7-0.8-1.3-1.1-2c-0.4-0.9-0.5-1.9-0.8-2.8c-0.4-1.2-0.8-2.4-1.1-3.7c-0.5-1.7-1-3.5-1.9-5.1c-1.9-3.2-4.8-6-6-9.6
			c-0.8-2.3-0.5-4.7-0.1-7.1c0.1-0.8,0.3-1.7,0.4-2.5c0-0.3,0-0.5,0.1-0.8c0-0.1,0-0.2,0.1-0.3h0.1c0,0,0.1,0.1,0.1,0
			c0.1,0.1,0.2,0.3,0.3,0.4c0.2,0.2,0.3,0.4,0.4,0.6c0.5,0.8,1.1,1.7,1.5,2.6c0.7,1.5,0.9,3.2,1.3,4.8c0.4,1.4,1,2.7,1.7,4
			c0.9,1.6,2,3.2,3,4.8c2.6,4,5.2,8.1,6.8,12.7c0.7,2.2,1.2,4.5,1.2,6.8c0.1,3.6-0.7,7.1-0.5,10.6c0.1,1.5,0.4,3,0.9,4.4
			c0.5,1.7,1.2,3.3,1.7,5.1c0.7,2.7,1.1,5.4,2,8c0.1,0.3,0.3,0.6,0.4,1c0.3,0.8,0.6,2.5,1.6,2.8c0.4,0.1,0.6-0.2,0.7-0.6
			c0.2-0.7,0-1.5,0-2.2c0-0.2,0-0.5,0-0.8c0-1.4-0.1-2.8,0-4.2c0.2-2.1,0.8-4,1-6.1c0-0.4,0-0.9,0-1.3c0-0.3,0-0.6,0-0.9
			c0-0.4,0-0.8,0.1-1.2c0-0.1,0-0.2,0-0.3v-0.1c0,0,0,0,0.1,0c0.2,0,0.3,0.3,0.3,0.4c0.2,0.4,0.5,0.7,0.7,1c1.2,1.6,1.7,3.8,2,5.7
			c0.7,4.2,0.1,8.4-0.3,12.6c-0.2,2-0.5,4.9,0.8,6.7c0.6,0.8,1.5,1.4,2.3,2c1.2,0.8,2.5,1.4,3.7,2.1c1.4,0.9,2.3,2.1,3.4,3.3
			c0.6,0.6,1.2,1.3,1.9,1.7c0.3,0.2,0.7,0.4,1,0.4c0.7-0.1,0.8-1.4,0.8-1.9c0.2-1.6,0.2-3.2,0.3-4.9c0-0.5,0.1-1,0.2-1.5
			c0-0.2,0-0.4,0.3-0.3s0.6,0.5,0.8,0.8c0.5,0.6,0.9,1.4,1.3,2.1c0.6,1.1,1.1,2.3,1.2,3.5c0.2,2-0.2,4.1,0.8,5.9
			c0.6,1.2,1.8,2.2,2.8,3c2.2,1.8,4.6,3.2,6.5,5.3c2.2,2.4,4.2,5.2,5.4,8.2c0.2,0.6,0.5,1.2,0.6,1.8c0.3,0.9,0,0,0.8,3.7
			c0,0.1,0.1,0.1,0.2,0.1l0.1-0.1c0,0,0,0.1,0,0.2v0.1c0,0,0,0,0.1,0c0.2,0,0.3-0.2,0.2-0.3c-1.1-4.7-0.6-3.2-1.1-4.7
			c-1.4-4.1-4.2-8.2-7.6-11c-1.8-1.5-3.8-2.7-5.5-4.3c-1-0.9-1.9-1.8-2.3-3c-0.5-1.7-0.2-3.6-0.4-5.4c-0.2-1.5-0.9-2.9-1.7-4.2
			c-0.4-0.7-0.8-1.4-1.4-1.9c-0.2-0.2-0.5-0.4-0.9-0.4c-0.8,0-0.8,1.4-0.8,2c-0.1,1.7-0.1,3.4-0.4,5.1c0,0.2-0.1,0.4-0.1,0.6
			s-0.1,0.8-0.3,0.9c-0.1,0.1-0.6-0.3-0.6-0.3c-0.1-0.1-0.2-0.1-0.2-0.2c-0.7-0.6-1.4-1.3-2-2c-0.8-0.9-1.5-1.8-2.5-2.5
			c-1.3-0.9-2.8-1.6-4.2-2.5c-0.7-0.4-1.3-0.9-1.9-1.4c-0.7-0.6-0.9-1.6-1-2.5c-0.2-1.8,0-3.6,0.2-5.4c0.4-4.5,0.8-9.1-0.3-13.6
			c-0.3-1.2-0.7-2.4-1.4-3.5c-0.2-0.3-0.4-0.6-0.6-0.9c-0.3-0.4-0.4-1-0.9-1.2c-0.9-0.3-0.8,1.6-0.9,2.1c0,0.3,0,0.6,0,0.9
			s0,0.5,0,0.8c0,1.8-0.6,3.6-0.9,5.3c-0.2,1.3-0.2,2.6-0.2,4c0,0.5,0,1,0,1.5c0,0.2,0,0.5,0,0.8c0,0.2,0,0.5,0,0.8
			c0,0.5,0.3,2.2-0.6,1.3c-0.6-0.6-0.8-1.8-1.1-2.6c-0.8-2.3-1.4-4.7-1.9-7.1c-0.2-1.1-0.5-2.1-0.9-3.2c-0.8-2.5-1.9-5-2-7.6
			c-0.1-2.1,0.2-4.2,0.3-6.4c0.2-2.1,0.3-4.3,0-6.4c-0.2-1.9-0.8-3.8-1.4-5.6c-1.8-4.9-4.8-9.1-7.5-13.5c-1.3-2.1-2.7-4.2-3.5-6.5
			c-0.5-1.4-0.7-2.9-1.1-4.3c-0.5-1.5-1.4-3.1-2.3-4.4C866.4,304,866.3,303.7,866.1,303.6z M928.3,416.8l-0.1-0.1
			c-0.2,0.2-0.5,0.5-0.6,0.3c0,0.1,0.1,0.2,0.1,0.3C927.9,417.5,928.3,417,928.3,416.8z M927.5,417c-0.3-0.6-0.6-1.3-1-1.9
			c0.2,0.4,0.4,0.7,0.5,1.1C927.2,416.5,927.4,416.7,927.5,417L927.5,417z M926.6,415.1c-0.3-0.5-0.7-1-1.2-1.5
			c-0.5-0.6-1-1.2-1.5-1.9c0.2,0.2,0.3,0.5,0.5,0.7C925.2,413.3,926,414.1,926.6,415.1z M924,411.7c-0.3-0.5-0.6-1.1-1-1.6
			c-0.2-0.2-0.4-0.4-0.5-0.6C923,410.2,923.5,410.9,924,411.7z M922.4,409.5c-0.1-0.1-0.1-0.2-0.2-0.3c-0.8-1-1.7-1.9-2.6-2.8
			C920.6,407.3,921.5,408.4,922.4,409.5z M900.6,392.8c0.1,0,0.1,0.1,0.2,0.1c0.1,0,0.2,0,0.2,0.1
			C900.9,392.9,900.8,392.8,900.6,392.8z M901,392.9c1.5,0.7,3.2,1.2,4.7,1.8C904.2,394.2,902.6,393.6,901,392.9z M906.6,395.1
			c1.1,0.4,2.1,1,3,1.7c-0.4-0.3-0.8-0.7-1.2-1C907.8,395.5,907.2,395.3,906.6,395.1z M909.6,396.8c0.2,0.1,0.3,0.2,0.5,0.4
			c0,0,0-0.1-0.1-0.1C909.9,397,909.7,396.9,909.6,396.8z M910.1,397.2c1.1,1.1,1.9,2.6,3,3.7s2.4,1.9,3.6,2.9
			c-0.2-0.2-0.4-0.4-0.6-0.5c-1-0.8-2.1-1.5-3-2.4c-1-1.1-1.8-2.3-2.8-3.4C910.3,397.3,910.2,397.3,910.1,397.2z"/>
	</g>
	<g>
		<path class="st2" d="M896.1,389.3c1.3,1.4,2.8,2.6,4.3,3.9c0.5,0.4,1.1,1.1,1.7,1.4c0.7,0.3,1.4,0.4,2.1,0.8
			c1.4,0.9,2.5,2.3,3.9,3.2c1.5,0.9,2.2,1.8,4.1,1.7c0.2,0,0.3,0.1,0.5,0c0.4-0.2,0-0.9,0-1.1c-0.4-1.2-1.6-2.1-2.4-3.1
			c-0.8-0.9-1.7-1.8-2.7-2.6c-1.4-1.1-3.1-1.6-4.7-2.5c-1.7-1-2.9-2.3-4.8-3"/>
		<path class="st2" d="M898.1,387.9c0,0-1.3,0.8-0.9,0.6c0.5-0.4,1.2-0.2,1.8-0.2c0.3,0,0.5,0.3,0.8,0.5s0.5,0.4,0.8,0.5
			c1,0.7,2,1.3,3.1,1.9c-1.4-0.7-2.5-1.6-3.8-2.5c-0.3-0.2-0.5-0.5-0.8-0.5C898.3,388.3,898.1,387.9,898.1,387.9z M897,388.7
			c0.3-0.2-0.3,0.2-0.6,0.5c0.1,0.1,0.2,0.2,0.3,0.2C896.7,389.1,896.8,388.9,897,388.7z M896.6,389.4c-0.1,0.3-0.1,0.6-0.1,0.9
			s0.5,0.5,0.7,0.7c0.7,0.6,1.5,1.3,2.2,1.9s1.4,1.4,2.2,1.8c0.9,0.5,1.9,0.6,2.8,1.2c0.8,0.6,1.5,1.3,2.2,1.9s1.5,1.2,2.4,1.7
			c0.5,0.3,1,0.6,1.6,0.8c0.4,0.1,0.8,0.2,1.2,0.2c0.2,0,0.3,0,0.4,0c0.2,0,0.4,0.1,0.5,0c0.5-0.3,0.2-0.9,0-1.3
			c-0.4-1.1-1.2-1.8-2-2.6c-0.7-0.8-1.4-1.5-2.2-2.3c-0.5-0.5-1.1-1-1.7-1.3c-1-0.6-2.1-1-3.2-1.6c0.3,0.1,0.5,0.3,0.8,0.5
			c0.9,0.4,1.9,0.9,2.7,1.5s1.5,1.3,2.1,2c0.3,0.3,0.6,0.6,0.8,0.9c0.9,1,1.9,1.8,2.4,3.1c0.1,0.2,0.4,0.8,0.1,1c-0.1,0-0.3,0-0.4,0
			c-0.1,0-0.3,0-0.4,0c-0.1,0-0.2,0-0.4,0c-0.3,0-0.7-0.1-1-0.3c-0.4-0.2-0.8-0.5-1.2-0.7c-0.6-0.4-1.2-0.8-1.7-1.2
			c-1-0.8-1.8-1.8-2.9-2.5c-0.3-0.2-0.7-0.5-1.1-0.6c-0.5-0.2-1.2-0.3-1.7-0.6s-0.9-0.8-1.4-1.2c-0.4-0.4-1.1-0.9-1.5-1.2
			c-0.5-0.4-1-0.9-1.5-1.2c-0.2-0.2-0.6-0.4-0.7-0.7C896.9,389.5,896.8,389.5,896.6,389.4z M896.3,389.2
			C896.3,389.1,896.3,389.2,896.3,389.2c-0.2-0.2-0.4-0.2-0.5-0.1s-0.1,0.3,0,0.4C896.3,389.2,896.1,389.3,896.3,389.2z"/>
	</g>
	<g>
		<path class="st2" d="M910.4,399.6c2.1,1.7,4.4,2.6,6.5,4.5c0.9,0.8,1.8,1.5,2.7,2.4c0.2,0.2,0.7,0.7,1,0.4
			c0.3-0.3-0.2-0.7-0.3-0.8c-0.7-0.8-1.3-1.7-1.9-2.5c-1.2-1.7-2.3-3-4-4.3c-2.1-1.7-3.5-2.4-4.8-3.8"/>
		<path class="st2" d="M909.6,395.5c0,0,0.8,2.8,0.5,1.9c-0.2-0.5-0.2-1-0.2-1.6C909.8,396.4,909.6,395.5,909.6,395.5z M910,395.9
			c0-0.1,0.2,0.2,0.3,0.3c0.2,0.2,0.5,0.4,0.7,0.6c0.6,0.5,1.3,1,2,1.5c2.1,1.5,3.9,3.3,5.3,5.4c0.4,0.6,0.8,1.2,1.2,1.7
			c0.2,0.3,0.4,0.5,0.6,0.8c0.1,0.1,0.6,0.5,0.2,0.6c-0.1,0-0.2-0.1-0.2-0.1c-0.5-0.3-0.9-0.9-1.3-1.2c-0.2-0.1-0.3-0.3-0.5-0.4
			s-0.3-0.3-0.5-0.4s-0.3-0.3-0.4-0.4c-0.8-0.7-1.6-1.5-2.6-2.1c-0.9-0.6-1.8-1.1-2.7-1.7c-0.2-0.1-0.4-0.2-0.5-0.4
			c-0.2-0.1-0.4-0.2-0.5-0.4c-0.4-0.7,0,0-0.5-0.4h-0.1c0.1,0.3,0.2,0.6,0.3,0.9c0.1,0.2,0.4,0.3,0.5,0.4c0.3,0.2,0.7,0.5,1.1,0.7
			c1.5,0.9,3,1.8,4.3,2.9c0.8,0.6,1.5,1.3,2.3,2c0.3,0.2,0.6,0.6,0.9,0.8c0.4,0.2,1,0,0.9-0.5c-0.1-0.2-0.3-0.4-0.4-0.6
			c-0.2-0.3-0.4-0.5-0.7-0.8c-0.2-0.3-0.4-0.6-0.7-0.9c-0.6-0.8-1.2-1.6-1.8-2.4c-1-1.2-2.1-2.2-3.3-3.1c-1-0.7-2-1.4-3-2.1
			c-0.2-0.2-0.5-0.4-0.7-0.6C910.2,396.1,910,395.7,910,395.9L910,395.9z M910.5,399.4c-0.2-0.6-0.5-1.1-0.6-1.7
			c-0.1-0.5,0.1,0.5,0.3,1.8C910.3,399.4,910.4,399.4,910.5,399.4z"/>
	</g>
	<g>
		<path class="st2" d="M930.6,484.4c0.1,0.6,0.8,3.3,1.9,3c0.9-0.3,0.6-1.9,0.6-2.6c0-1.7,0.7-3.3,0.8-4.9c0.1-0.9,0-1.9-0.1-2.8
			c-0.2-4.5-3.8-6.9-5.5-10.7c-0.5-1.2-0.5-2.9-0.6-4.1c-0.3-4.8,2-9.3,3.9-13.5c1.6-3.7,2.5-9.2,2.1-13.2
			c-0.4-3.9-0.7-7.9-2.5-11.5c-0.2-0.5-1.7-3-2.4-2.5c-0.2,0.2-0.1,3-0.1,3.5c-0.2,4.3,1.4,8.4,1.2,12.7c-0.1,1.5-0.6,3-0.9,4.5
			c-0.5,3-1.3,6.2-2.4,9c-0.4,1-1.1,1.6-1.6,2.5c-1.1,1.9-1.8,4.2-1.8,6.4c0,2.4,0.2,5.6,1.2,7.8c0.4,1,2,3.2,2.7,4
			c0.6,0.6,1.3,1,1.8,1.7c0.6,0.8,1,2,1.4,2.9C931.2,479.1,930.2,481.9,930.6,484.4z"/>
		<path class="st2" d="M929,421.3c-0.6,0.1-0.5,1.5-0.5,1.9c0,0.3,0,0.5,0,0.8c0,0.2,0,0.5,0,0.7c0,0.1,0,0.3,0,0.4
			c0,1.4,0.1,2.8,0.3,4.2c0.3,2.1,0.8,4.2,1,6.3c0,0.7,0,1.4,0,2.1c0,1.5-0.6,3-0.9,4.5c-0.5,2.3-0.9,4.6-1.6,6.8
			c-0.3,0.8-0.5,1.7-0.8,2.5c-0.4,0.8-1.1,1.5-1.5,2.2c-1,1.8-1.5,3.8-1.7,5.8c0.1-2,0.8-4,1.8-5.7c0.5-0.8,1.2-1.4,1.5-2.2
			c0.4-0.8,0.6-1.6,0.9-2.5c0.7-2.2,1.2-4.5,1.7-6.8c0.3-1.5,0.8-3,0.9-4.5c0-0.7,0-1.4,0-2.1c-0.2-2.5-0.8-4.9-1-7.4
			c-0.2-1.7-0.1-3.4-0.1-5.1c0-0.4,0-0.7,0-1.1s0.1-0.8,0.5-0.4c0.1,0.1,0.2,0.1,0.2,0.2c0.8,0.8,1.4,2,1.9,3
			c0.9,2.1,1.3,4.3,1.6,6.6c0.3,2,0.5,4,0.5,6c0,3.1-0.6,6.1-1.5,9c-0.6,1.8-1.4,3.5-2.1,5.2c-1.3,3.1-2.5,6.4-2.5,9.8
			c0,1.5,0,3.1,0.5,4.5c0.3,0.8,0.7,1.5,1.2,2.2c1,1.5,2.2,2.9,3.1,4.5c0.9,1.5,1.3,3,1.4,4.7c0.1,1.4,0.1,2.5-0.2,3.9
			c-0.2,1-0.5,1.9-0.5,2.9c0,0.5,0,1.1,0,1.6c0,0.4,0,1.1-0.5,1.1c-0.2,0-0.5-0.2-0.6-0.4c-0.4-0.5,0,0-0.9-2.3
			c0-0.1-0.2-0.2-0.3-0.2v0.2c0,0,0-0.2,0-0.3l0,0c-0.2,0-0.3,0.2-0.2,0.3c0,0.1,0,0,0,0.1c0,0,0.1,0.6,0.2,0.7
			c0,0.1,0.1,0.2,0.1,0.4c0.3,0.8,0.9,2.3,2,2c1.3-0.3,0.8-2.3,0.8-3.3c0.1-1.5,0.6-3,0.8-4.5c0.1-0.8,0-1.6-0.1-2.4
			c0-0.5-0.1-1.1-0.2-1.6c-0.5-2.8-2.3-4.8-3.9-7.1c-0.6-0.9-1.3-1.9-1.7-2.9c-0.3-0.8-0.4-1.6-0.4-2.4c-0.1-2-0.1-4,0.4-6
			c0.8-3.4,2.5-6.5,3.7-9.8c1.1-2.9,1.7-6,1.8-9.1c0.1-2.1-0.2-4.1-0.4-6.2c-0.3-2.6-0.7-5.2-1.8-7.6c-0.4-1-1-2-1.7-2.9
			C929.8,421.7,929.5,421.3,929,421.3z M930.6,484.1C930.6,484.1,930.6,484.2,930.6,484.1s0-1.5,0-2.8c-0.1,0.6-0.1,1.2-0.1,1.8
			C930.5,483.5,930.5,483.9,930.6,484.1z M923.3,459.8c0,0.4-0.1,0.7-0.1,1.1c0.1,2.4,0.3,4.9,1.2,7.2c0.3,0.7,0.8,1.4,1.3,2.1
			s1,1.3,1.5,1.9c0.4,0.4,0.8,0.7,1.2,1.1c-0.3-0.3-0.6-0.6-0.9-0.9c-0.5-0.4-0.8-0.9-1.2-1.4c-0.6-0.9-1.4-1.8-1.8-2.8
			c-0.7-1.9-1-3.9-1.1-5.9C923.3,461.4,923.3,460.5,923.3,459.8z M928.7,473.5c0.5,0.5,0.8,1.1,1,1.7c0.3,0.8,0.7,1.6,0.8,2.5
			c-0.2-0.9-0.4-1.7-0.8-2.5c-0.2-0.5-0.5-1-0.8-1.4C928.9,473.6,928.8,473.6,928.7,473.5z M930.5,477.7c0,0.1,0.1,0.3,0.1,0.5
			c0,0,0-0.1,0-0.2S930.5,477.8,930.5,477.7z M930.6,478.1c0.1,0.7,0,1.7,0,3c0.1-0.9,0.1-1.7,0.1-2.6
			C930.7,478.4,930.6,478.3,930.6,478.1z"/>
	</g>
	<g>
		<path class="st2" d="M932.8,499.6c0.1,2.1,0.2,5.8,0.9,7.8c0.4,1.1,1.1,2.1,1.3,3.3c0.2,0.9-0.1,1.9,0,2.8s0.8,3.7,2,3.5
			c0.7-0.1,0.8-1.2,1-1.7c0.6-1.5,0.8-3,0.8-4.6c0.1-1.3,0.1-2.5-0.2-3.8c-0.2-0.9-0.8-1.5-1.1-2.4c-0.4-1.1-0.4-2.4-0.4-3.6
			c0-0.7,0.3-1.2,0.5-1.9c0.4-1.1,0.5-2.4,0.8-3.5c0.5-1.8,1.2-4.1,0.5-6c-0.2-0.4-1.5-3.6-2.3-2.9c-0.2,0.2-0.2,1.5-0.2,1.6
			c-0.1,1.4-0.2,2.7-0.8,3.9C934.4,494.6,932.6,496.6,932.8,499.6z"/>
		<path class="st2" d="M936.7,486.6c-0.4,0.2-0.3,0.9-0.4,1.3c-0.1,1-0.1,2.1-0.3,3.1c-0.5,1.9-1.8,3.5-2.5,5.4v0.2
			c0-0.1,0-0.1,0.1-0.2c0.8-1.8,2.1-3.4,2.6-5.3c0.2-0.9,0.3-1.8,0.4-2.6c0-0.5,0-1.1,0.2-1.5s0.7,0.2,0.9,0.3
			c0.9,1.1,1.7,3,1.7,4.5c0,1.6-0.6,3-0.9,4.5c-0.2,0.8-0.3,1.6-0.5,2.4c-0.2,0.7-0.5,1.4-0.7,2.1c-0.2,1-0.1,2.1,0.1,3.1
			c0.2,1.1,1,2,1.3,3c0.4,1.2,0.4,2.6,0.3,4c-0.1,1-0.2,2.1-0.4,3.1c-0.2,0.8-0.5,1.7-0.8,2.5c-0.1,0.3-0.4,0.7-0.8,0.5
			c-0.6-0.3-0.8-1-1-1.6c-0.2-0.7-0.5-1.4-0.5-2.2c0-0.6,0.1-1.3,0.1-1.9c-0.1-1.2-0.7-2.2-1.1-3.3c-0.2-0.5-0.4-1.1-0.5-1.6
			c-0.4-1.6,0,0-0.6-6.7c0-0.1-0.1-0.2-0.2-0.2v0.2c0,0,0-0.2,0-0.3c-0.2,0-0.3,0.1-0.3,0.3c0.1,1.2,0,0.7,0.1,1.1
			c0,0.7,0.1,1.4,0.1,2.1c0.1,1.6,0.3,3.2,0.7,4.7c0.3,0.9,0.9,1.8,1.2,2.7c0.3,1,0.1,1.9,0.1,2.9c0,0.5,0.1,1,0.2,1.5
			c0.2,0.8,0.6,1.8,1.2,2.4c0.6,0.5,1.3,0.3,1.7-0.4c0.2-0.4,0.3-0.8,0.4-1.2c0.5-1.5,0.7-3,0.8-4.7c0-1.3,0-2.6-0.3-3.8
			c-0.2-0.9-0.8-1.6-1.1-2.4c-0.3-0.7-0.4-1.5-0.4-2.3c0-0.6,0-1.2,0.1-1.8c0.2-0.6,0.4-1.2,0.6-1.8c0.2-1,0.4-2,0.6-2.9
			c0.3-1.2,0.6-2.3,0.7-3.5c0.1-1.7-0.5-3.4-1.5-4.8C937.6,487,937.1,486.4,936.7,486.6z M932.8,499.3
			C932.8,499.3,932.8,499.4,932.8,499.3c0.1-0.2,0.4-2,0.6-2.8c-0.3,0.6-0.5,1.3-0.5,2C932.8,498.6,932.8,499.1,932.8,499.3
			C932.8,499.2,932.8,499.3,932.8,499.3z"/>
	</g>
	<g>
		<path class="st2" d="M946.5,543.3c-0.7-0.8-1-1.8-1.3-2.8c-0.5-1.3-1.5-2.2-1.6-3.7c-0.2-1.3,0.8-2.6,0.8-3.9
			c0-2.1-0.1-4.5-0.7-6.5c-0.2-0.7,0-1.6-0.3-2.3c-0.5-1.2-3-3.6-4.2-4.2c-0.9-0.4-2.6,0.1-2.3,1.4c0.5,1.8,2.1,3.3,2.5,5.2
			c0.2,0.7,0.1,1.4,0.1,2.2s0.5,1.5,0.6,2.3c0.2,1.8-0.1,3.8,0,5.7c0,0.9,0.4,1.7,0.5,2.5c0.1,1.2,0.1,2.7,0.5,3.8
			c0.2,0.5,0.6,0.9,0.9,1.3c0.5,0.7,0.9,1.6,1.1,2.4c0.2,0.6,0.8,1.8,0.8,2.4c0,0.5-0.4,1-0.2,1.5c0.5,1.3,2.2-0.1,2.6-0.8
			C947.5,548.2,947.7,544.8,946.5,543.3z"/>
		<path class="st2" d="M937.8,519.8c-0.5,0.2-1,0.5-1,1.1c-0.1,0.8,0.5,1.7,0.8,2.3c0.7,1.2,1.7,2.3,1.9,3.7c0.1,0.7,0,1.3,0.1,2
			c0.1,0.9,0.5,1.7,0.6,2.6c0.1,1.7-0.1,3.5,0,5.2c0,0.9,0.4,1.7,0.5,2.5c0.1,1.1,0.1,2.2,0.4,3.2c0.2,0.9,0.6,1.2,1.1,1.9
			c0.4,0.6,0.7,1.3,1,2c0.3,0.9,0.9,1.8,0.9,2.8c0,0.7-0.6,1.3,0.1,1.9c0.6,0.6,1.5-0.2,2.1-0.9c-0.5,0.5-1.6,1.5-2.1,0.8
			c-0.5-0.6,0.1-1.1,0-1.8c0-0.5-0.2-1-0.4-1.4c-0.4-1-0.7-2.1-1.2-3c-0.3-0.5-0.8-0.9-1.1-1.4c-0.1-0.2-0.2-0.6-0.3-0.8
			c-0.2-1-0.2-2.2-0.3-3.2c-0.1-0.7-0.3-1.4-0.4-2.1c-0.1-0.4-0.1-0.9-0.1-1.4c0-1.6,0.3-3.5,0-5.2c-0.1-0.6-0.4-1.1-0.5-1.7
			c-0.1-0.5,0-1.1,0-1.6c0-0.6-0.2-1.1-0.4-1.7c-0.5-1.2-1.4-2.2-1.9-3.4c-0.4-0.9-0.6-1.7,0.5-2c0.2,0,0.3-0.1,0.5-0.1
			s0.3,0,0.5,0.1c0.9,0.2,1.8,1.3,2.5,1.9c0.7,0.7,1.7,1.6,1.8,2.6c0.1,0.6,0,1.3,0.2,1.9c0.5,2,0.8,4.3,0.6,6.4
			c-0.1,1.3-0.9,2.3-0.9,3.6s0.8,2.4,1.4,3.5c0.4,0.8,0,0,1.7,3.4c0.1,0.1,0.2,0,0.2,0v-0.2c0,0,0.1,0.1,0.1,0.2l0,0l0,0
			c0.1-0.1,0.2-0.3,0.1-0.4c-0.7-1.3-0.5-0.8-0.7-1.2c-0.3-0.7-0.5-1.4-0.9-2.1c-0.5-1-1.1-1.8-1.3-3c-0.2-0.8,0.3-1.7,0.6-2.5
			c0.1-0.5,0.2-0.9,0.3-1.4c0.1-1.8-0.1-3.8-0.5-5.5c-0.1-0.4-0.2-0.8-0.3-1.2c-0.2-0.8,0-1.6-0.3-2.3c-0.5-1-1.4-1.9-2.2-2.7
			c-0.6-0.5-1.2-1.1-2-1.5C938.9,519.6,938.3,519.6,937.8,519.8z M946.6,543.5L946.6,543.5c0,0.3,0.7,4.3,0,5.9
			c0.6-1.2,0.8-2.8,0.6-4.1c0-0.2-0.1-0.4-0.1-0.6C947.1,544.5,946.9,543.8,946.6,543.5z M946.6,549.4c-0.1,0.2-0.2,0.4-0.3,0.6
			c0.1-0.1,0.2-0.2,0.3-0.3C946.6,549.6,946.6,549.5,946.6,549.4z M946.3,550c0,0.1-0.1,0.1-0.2,0.2
			C946.1,550.1,946.2,550.1,946.3,550L946.3,550z"/>
	</g>
	<g>
		<path class="st2" d="M935.4,571.7c-0.1-1-0.4-2.3-1-3.2c-0.5-0.8-0.9-1.3-1.2-2.3c-0.2-1,0-1.8,0-2.7c0-1-0.1-2.1-0.1-3.1
			c0-2.3-0.6-4.5-0.2-6.8c0.1-0.8,0.6-2.4,1.1-3c0.8-0.8,1.7-1.6,2.1-2.6c1-2.7,1-6,0.6-8.8c-0.1-0.7-0.3-2.8-0.7-3.4
			c-1.2-1.9-2.8-3.8-4.8-5c-0.7-0.5-1.8-1.4-2.7-1.3c-0.6,0.1-0.6,0.9-0.4,1.3c0.5,1.2,1.5,2.1,2,3.4c0.5,1.3,1.5,2.3,2.1,3.6
			c0.6,1.4,0.5,3.1,0.9,4.6c0.8,2.9-3.1,6.1-4.2,8.7c-1.1,2.8-0.5,5.8-0.2,8.7c0.1,0.7-0.1,1.4-0.1,2.1c0.3,3.3,1.7,6.4,3.5,9.2
			c0.4,0.5,2.1,3.6,3,2.7C935.7,573.2,935.5,572.2,935.4,571.7z"/>
		<path class="st2" d="M928.7,529.3c-0.2,0-0.3,0.1-0.5,0.2c-0.5,0.5,0,1.4,0.3,1.9c0,0.1,0.1,0.2,0.2,0.3c0.1,0.2,0.2,0.4,0.3,0.5
			c0.3,0.5,0.6,0.9,0.9,1.4c0.3,0.5,0.5,1,0.8,1.5c0.6,1,1.4,1.9,1.7,3c0.4,1.1,0.4,2.3,0.7,3.5c0.1,0.5,0.2,1,0.3,1.5
			c0,1.2-0.6,2.3-1.2,3.3c-1,1.6-2.2,3-3,4.7c-1.2,2.7-0.4,5.9-0.2,8.7c0,0.6-0.1,1.2-0.1,1.7c0,0.7,0.1,1.3,0.3,2
			c0.2,0.8,0.4,1.6,0.7,2.4c0.3,0.8,0.6,1.5,1,2.3c0.5,1,1.1,2,1.7,3c0.4,0.6,0.8,1.2,1.2,1.8c0.2,0.2,0.6,0.8,1,0.9
			c-0.4-0.2-0.7-0.6-1-0.9c-0.5-0.6-0.8-1.2-1.2-1.8c-1.8-2.8-3.2-5.8-3.5-9.2c0-0.6,0.1-1.2,0.1-1.7c0-0.3,0-0.8-0.1-1.1
			c-0.3-2.6-0.8-5.5,0.3-7.9c0.9-2,2.4-3.5,3.5-5.4c0.6-1,1-2.2,0.7-3.4c-0.3-1.4-0.3-2.9-0.8-4.2c-0.3-1-1-1.9-1.5-2.8
			c-0.4-0.6-0.6-1.2-0.9-1.8c-0.2-0.4-0.5-0.8-0.7-1.1s-0.2-0.3-0.3-0.5s-0.2-0.4-0.3-0.5c0-0.1-0.1-0.2-0.1-0.3
			c-0.1-0.3-0.5-1.3,0.1-1.3c1,0,1.7,0.6,2.4,1.1c0.4,0.3,0.8,0.5,1.1,0.8c1.2,1,2.2,2.1,3.1,3.4c0.3,0.4,0.6,0.8,0.8,1.3
			c0.2,0.7,0.3,1.5,0.4,2.2c0.1,1,0.2,2,0.3,2.9c0.1,1.7,0,3.5-0.4,5.2c-0.2,0.6-0.3,1.3-0.7,1.8c-0.5,0.8-1.3,1.4-1.9,2.1
			c-0.4,0.5-0.7,1.2-0.9,1.8c-0.7,2.3-0.2,4.7-0.1,7.1c0.1,1.4,0.1,2.8,0.1,4.2c0,0.9-0.3,1.9,0,2.8c0.3,1.2,1.2,2.1,1.7,3.3
			c0.1,0.3,0,0,0.5,2.1c0,0.2,0.1,0.3,0.3,0.3l0,0c0.2,0,0.3-0.2,0.3-0.3c-0.3-1.7-0.2-1.2-0.3-1.7c-0.2-0.6-0.4-1.1-0.7-1.6
			c-0.3-0.6-0.8-1.2-1-1.8c-0.3-0.9-0.2-1.7-0.1-2.6c0-0.5,0-1,0-1.5c0-1.1,0-2.2-0.1-3.2c-0.1-1.1-0.2-2.3-0.3-3.4
			c-0.1-1.6,0-3.4,0.9-4.8c0.3-0.4,0.7-0.8,1-1.1c0.6-0.6,1.1-1.2,1.4-1.9c1.1-2.9,1-6.1,0.6-9.2c-0.1-1-0.2-2.4-0.7-3.3
			c-0.8-1.5-2.2-3-3.4-4c-0.5-0.4-1-0.8-1.6-1.2C930.5,529.9,929.7,529.3,928.7,529.3z M935.5,572c0.1,0.2,0.1,0.8,0,1.2
			C935.6,572.7,935.5,572.3,935.5,572z M935.5,573.2c0,0.2-0.1,0.4-0.3,0.5C935.4,573.6,935.5,573.4,935.5,573.2z M935.2,573.7
			c-0.1,0.1-0.3,0.2-0.5,0.1C934.9,573.8,935.1,573.8,935.2,573.7L935.2,573.7z"/>
	</g>
	<g>
		<path class="st2" d="M948.6,583.8c-0.7-0.6-1.7-5.5-1.9-6.5c-0.3-1.3-1-2.2-1.7-3.3c-0.4-0.6-0.6-1.3-1.1-1.9
			c-0.4-0.4-1-0.9-1.3-1.4c-0.4-0.8,0.1-1.8,0.1-2.6s-0.2-1.8-0.4-2.6c-0.5-1.5-1.7-3.1-2.9-4.1c-0.2-0.2-0.6-0.8-1.1-0.4
			c-0.5,0.5-0.2,1.9-0.1,2.4c0.4,1.7,1.8,3.3,1.9,5.1c0.2,2.2-1.3,4.4-0.6,6.6c0.7,2.1,2.3,3.5,3.6,5.2c0.8,1.1,1.5,2.5,2.1,3.7
			c0.6,1.1,1.5,5.3,2.8,5.6c0.8,0.2,1-0.7,1.1-1.2C949.3,587.2,949.6,584.7,948.6,583.8z"/>
		<path class="st2" d="M938.4,560.8c-0.8,0.2-0.6,1.4-0.5,2c0.3,2.1,1.8,3.8,2.1,5.8c0.2,1.1-0.2,2.2-0.5,3.2
			c-0.3,1.3-0.4,2.5,0.1,3.8c0.8,1.8,2.2,3.1,3.4,4.7c0.9,1.2,1.6,2.5,2.2,3.8c0.6,1.3,0.9,2.8,1.6,4.1c0.1,0.1,0.2,0.2,0.2,0.3
			c-0.2-0.3-0.3-0.7-0.4-1c-0.5-1.1-0.8-2.3-1.2-3.4c-0.2-0.5-0.5-1.1-0.8-1.6c-0.6-1.2-1.3-2.3-2.1-3.3c-1.2-1.6-3-3.3-3.1-5.4
			c-0.1-1.8,1.1-3.7,0.8-5.5c-0.3-2.1-1.8-3.8-2.1-5.8C938,562.1,937.9,561.1,938.4,560.8c0.2,0,0.5,0.5,0.7,0.6
			c0.1,0.1,0.2,0.2,0.3,0.2c0.1,0.1,0.2,0.2,0.3,0.3c1,1,1.8,2.1,2.2,3.5c0.2,0.8,0.5,1.6,0.4,2.5c0,0.8-0.5,1.7-0.2,2.5
			c0.3,0.9,1.3,1.4,1.8,2.3c0.2,0.4,0.4,0.9,0.7,1.3c0.5,0.8,1,1.5,1.4,2.3c0.4,0.9,0.5,1.9,0.7,2.9c0.3,1.2,0.6,2.5,1,3.7
			c0.1,0.2,0,0,0.5,1c0.1,0.1,0.2,0,0.3,0v-0.2c0,0,0.1,0.1,0.2,0.2c0.1-0.1,0.1-0.3,0-0.4c-0.4-0.8-0.3-0.5-0.4-0.8
			c-0.3-0.7-0.5-1.5-0.7-2.2c-0.2-0.9-0.4-1.7-0.6-2.6c-0.2-0.9-0.4-1.8-0.9-2.6c-0.4-0.6-0.8-1.2-1.2-1.9c-0.2-0.4-0.4-0.9-0.7-1.3
			c-0.5-0.6-1.3-1.1-1.6-1.8c-0.2-0.7,0.2-1.6,0.2-2.3c0.1-1-0.2-2.1-0.6-3c-0.6-1.5-1.7-2.7-2.9-3.7
			C939.2,561.1,938.9,560.7,938.4,560.8z M948.8,584.1c0,0-0.1,0-0.2,0c0.1,0.3,0.5,2.6,0.5,3.9c0.1-0.8,0.2-1.6,0.2-2.4
			C949.2,585.2,949.1,584.3,948.8,584.1L948.8,584.1z M949.1,588c0,0.2,0,0.4,0,0.6c-0.1,0.6-0.5,1.6-1.3,0.9
			c-0.3-0.2-0.5-0.5-0.6-0.8c0.2,0.3,0.3,0.6,0.6,0.8c0.9,0.7,1.3-0.4,1.4-1.1C949.1,588.4,949.1,588.1,949.1,588z"/>
	</g>
	<g>
		<path class="st2" d="M936.6,585.3c-0.6,0.8-0.4,4.2,0.1,5.1c2.1,4.4,4.5,8.6,6.7,12.9c0.5,1,1.3,1.8,2,2.7
			c1.3,1.7,2.5,3.5,3.9,5.1c0.4,0.5,0.6,0.4,1,1c0.5,0.7,0.3,1.4,0.5,2.1c0.3,1.2,1,2.6,2,3.3c2.7,1.6,5.3,3.6,8.2,5.1
			c0.6,0.3,1.8,1.3,2.4,0.5c0.6-0.9-0.7-2.1-1.2-2.7c-1.8-2.2-4.1-3.7-6.1-5.7c-1-1-1.2-2.6-1.8-3.9c-0.9-1.8-2.1-3.2-3.1-4.9
			c-0.7-1.1-1.1-2.4-1.9-3.4c-0.5-0.6-1.2-0.8-1.6-1.4c-0.8-1.1-1.2-2.5-2.1-3.5c-1.4-1.6-3.2-2.3-4.2-4.3c-0.5-1-1.3-2.2-1.7-3.2
			c-0.3-0.8-0.4-1.8-0.6-2.6c-0.1-0.4-0.5-1.9-1-2C937.6,585,936.9,584.9,936.6,585.3z"/>
		<path class="st2" d="M936.8,585.1c-0.1-0.1-0.3,0-0.4,0.1c-0.1,0.1,0,0.1-0.1,0.1c-0.1,0.1-0.2,0.4-0.2,0.6
			c-0.1,0.4-0.1,0.8-0.1,1.2c0,1,0,2.2,0.3,3.2c0.3,0.8,0.8,1.7,1.2,2.5c0.2,0.4,0.4,0.7,0.5,1.1c0.4,0.7,0.8,1.5,1.1,2.2
			c0.9,1.8,1.9,3.6,2.8,5.3c0.6,1,1.1,2.1,1.8,3.1c0.6,0.9,1.4,1.7,2,2.6c0.9,1.1,1.7,2.3,2.6,3.4c0.3,0.3,0.6,0.7,0.9,1
			c0.3,0.2,0.6,0.4,0.8,0.7c0.4,0.5,0.3,1.1,0.4,1.6c0.2,0.8,0.5,1.6,0.9,2.2c0.7,1.2,1.6,1.6,2.7,2.3c0.7,0.4,1.3,0.9,2,1.3
			c1.1,0.7,2.2,1.5,3.4,2.2c0.6,0.3,1.2,0.6,1.7,1c0.5,0.3,1.5,1,2.1,0.4c1.1-0.9-0.5-2.4-1.1-3.1c-0.2-0.2-0.3-0.3-0.5-0.5
			s-0.3-0.3-0.5-0.5c-1.2-1.2-2.4-2.2-3.7-3.2c-0.6-0.5-1.3-1.1-1.8-1.7c-0.8-1-1-2.4-1.6-3.6c-0.7-1.5-1.8-2.7-2.6-4.1
			c-0.9-1.4-1.5-2.9-2.4-4.2c-0.5-0.7-1.3-1-1.8-1.7c-0.7-1-1.1-2.3-1.9-3.3c-0.8-1-2-1.7-3-2.7c0.8,0.8,1.8,1.5,2.6,2.3
			c0.9,0.9,1.3,2,1.9,3c0.2,0.4,0.5,0.8,0.8,1.2c0.4,0.4,0.9,0.6,1.3,1c0.3,0.4,0.6,0.8,0.8,1.2c0.6,1,1.1,2.1,1.7,3.1
			c0.8,1.2,1.7,2.3,2.3,3.6c0.7,1.3,0.9,3,1.8,4.1c0.4,0.5,0.8,0.9,1.3,1.2c0.8,0.8,1.7,1.5,2.6,2.3c0.4,0.3,0.7,0.6,1,0.9
			s0.7,0.6,1,1c0.6,0.6,1.4,1.4,1.7,2.2c0.1,0.3,0.1,0.7-0.2,1c-0.5,0.4-1.6-0.4-2-0.7c-1.9-1-3.6-2.2-5.4-3.4
			c-0.7-0.4-1.3-0.9-2-1.3c-0.8-0.5-1.4-1-1.9-1.8c-0.4-0.7-0.7-1.4-0.8-2.1c-0.1-0.6-0.1-1.3-0.5-1.8c-0.2-0.3-0.5-0.5-0.8-0.8
			s-0.6-0.7-0.9-1c-0.9-1.1-1.7-2.3-2.6-3.4c-0.7-0.9-1.4-1.7-2-2.6c-0.9-1.3-1.5-2.7-2.2-4.1c-1-1.8-1.9-3.6-2.8-5.4
			c-0.5-1.1-1.1-2.2-1.6-3.2c-0.4-0.8-0.6-1.2-0.8-2c-0.1-0.9,0,0,0.2-3.8C936.8,585.3,936.8,585.3,936.8,585.1h-0.2
			C936.6,585.1,936.7,585.2,936.8,585.1L936.8,585.1z M936.8,585.2c0,0.1,0.1,0.2,0.1,0.2c0.3,0.1,1.6,0.4,1.8,0.6
			c-0.1-0.2-0.2-0.5-0.4-0.7C938.1,585.1,937,584.9,936.8,585.2z M938.6,586C938.7,586,938.7,586.1,938.6,586
			c0.4,1.1,0.5,2.2,0.8,3.3c0.2,0.5,0.4,1,0.7,1.5s0.6,1.1,0.9,1.6c0.3,0.5,0.4,0.9,0.8,1.4c0.2,0.3,0.5,0.5,0.7,0.7
			c-0.9-0.9-1.5-2.1-2.1-3.2c-0.5-0.8-0.9-1.5-1.1-2.4C939.2,588,939.1,587,938.6,586C938.7,586,938.7,586,938.6,586z"/>
	</g>
	<g>
		<path class="st2" d="M908,704c-0.9-2,2.3-7.3,3.3-9.5c0.1-0.3,0.7-1.2,0.8-1.5c0.1-0.8-0.4-1.7-0.6-2.4c-0.2-0.9-0.4-1.8-0.7-2.7
			s-1-1.5-1.3-2.4c-0.5-1.2-1-2.7-1-4c0-1.1,0.5-2.3,0.3-3.4c-0.1-1.1-0.8-1.9-0.6-3.1c0.2-0.9,0.8-1.6,1-2.5
			c0.5-2.4,1.5-5.5,3.2-7.3c1-1.1,2.4-1.6,3.5-2.6c2.6-2.2,5.3-4.1,8.1-6c0.9-0.6,2.1-1.1,2.9-1.8c0.5-0.4,0.8-0.9,1.3-1.3
			c0.8-0.6,1.7-0.8,2.5-1.3c1.3-0.8,2.7-1.8,4-2.8c2.1-1.6,5.5-4.6,6.8-7c0.5-1,0.5-2.1,1.1-3.1c2-3,5.9-5.2,6.8-8.9
			c0.2-0.9,1.2-6.2,0.8-6.8c-0.6-0.9-2.4,0.6-2.8,1.1c-0.5,0.8-0.5,1.7-1,2.5c-0.8,1.4-1.8,2.6-2.7,4c-0.7,1.1-1.1,2.2-2,3.2
			c-1,1.1-2.3,1.9-3.3,3.1c-0.7,0.9-0.9,2.2-1.5,3.3c-1.4,2.4-2.9,4.5-5.1,6.3c-4.1,3.4-9.5,4.8-13.8,7.8c-0.8,0.5-1.5,0.9-2.2,1.5
			c-1.3,1.2-2.4,2.8-3.9,3.7c-0.5,0.3-1,0.4-1.5,0.6c-0.2,0.1-0.5,0.6-0.7,0.4c-0.1,0,0.2-2.2,0.2-2.4c0-2.1,0.2-5.1-0.6-7.1
			c-1.1-2.6-2.8-5.3-4.4-7.7c-0.7-1-1.7-1.5-2.4-2.4s-1.5-3.1-1.5-4.2c0-0.5,0.1-1.5-0.1-2c-0.1-0.2-0.9-1.3-1-1.5
			c-0.4-0.9-0.3-2-0.5-2.9c-0.3-1.6-0.4-3.3-0.8-4.9c-0.2-0.6-0.5-1.2-0.6-1.9c-0.1-0.6,0-1.2-0.2-1.8c-0.1-0.3-1.7-3-1.7-3
			c-0.4,0-0.6,1.6-0.6,1.6c-0.3,2,0.2,4-0.1,6c-0.3,2.3-0.7,4.9-0.4,7.2c0.1,1.1,0.8,2,1.1,3.1c0.4,1.4,0.6,2.9,1.3,4.2
			c1.3,2.4,3.3,4.5,4.8,6.7c0.6,0.9,1.4,1.8,1.7,2.8c0.4,1.3,0,2.7,0.2,4c0.4,4.3,0.6,8.5,0.3,12.8c-0.1,1.8,1.1,4.2,0.5,5.9
			c-0.3,0.8-0.9,1.4-1.2,2.2c-0.4,1.2-0.3,2.3-0.5,3.5c-0.1,0.8-0.5,1.7-0.6,2.5c-0.2,1.7,0.1,3.9,0.7,5.6c0.3,0.9,1.1,1.3,1.5,2.2
			c0.3,0.6,0.3,1.7,0.3,2.3c0,1.6,0,3.6-0.5,5.2c-0.5,1.4-1.5,2.5-1.9,4c-0.8,3.2-0.3,6.5-0.3,9.7"/>
		<path class="st2" d="M896.3,619.5c-0.5,0.3-0.6,1.7-0.6,2.2c-0.2,1.8,0.2,3.7,0,5.5c-0.2,2-0.6,4-0.5,6c0,0.5,0,1,0.1,1.5
			c0.2,1,0.8,1.9,1.1,2.8c0.3,1,0.4,1.9,0.7,2.9c0.2,0.7,0.5,1.3,0.9,2c1.3,2.2,3,4.1,4.5,6.1c0.8,1.1,1.7,2.1,1.8,3.5
			c0.1,1.1,0,2.2,0.1,3.4c0.2,2.8,0.4,5.7,0.4,8.5c0,1.5-0.1,3-0.1,4.5c0,1.6,0.8,3.2,0.7,4.8c-0.1,1.3-1,2-1.4,3.1
			s-0.3,2.4-0.5,3.5c-0.1,0.7-0.4,1.4-0.5,2.1c-0.1,0.4-0.1,0.9-0.1,1.3c0,0.8,0.2,1.5,0.3,2.3c-0.2-1.1-0.3-2.2-0.2-3.2
			c0.1-0.8,0.4-1.6,0.6-2.5c0.2-1.2,0.1-2.4,0.5-3.5c0.4-1.2,1.3-1.9,1.4-3.2c0.1-1.6-0.7-3.2-0.7-4.8c0-1.5,0.1-3,0.1-4.5
			c0-2.9-0.2-5.7-0.5-8.5c-0.1-1.2,0.2-2.5-0.1-3.7c-0.3-1.4-1.4-2.6-2.2-3.7c-1.1-1.5-2.3-2.9-3.3-4.4c-0.7-1-1.3-1.9-1.7-3.1
			c-0.3-1.1-0.5-2.3-0.9-3.4c-0.3-0.8-0.9-1.6-0.9-2.5c-0.1-1.6-0.1-3.2,0.1-4.8c0.1-1.1,0.3-2.3,0.4-3.4c0.1-1.5-0.2-3,0-4.5
			c0-0.5,0.1-1,0.3-1.5c0-0.1,0.1-0.3,0.2-0.4c0.1-0.1,0.2-0.1,0.1-0.1c-0.1,0,0.2,0.2,0.1,0.2c0.1,0.2,0.2,0.3,0.3,0.5
			c0.3,0.5,0.5,0.9,0.8,1.4c0.2,0.4,0.5,0.7,0.5,1.2c0.1,0.7,0,1.4,0.3,2.2c0.1,0.4,0.3,0.8,0.4,1.2c0.2,1.1,0.4,2.2,0.5,3.3
			c0.1,0.7,0.2,1.4,0.3,2.1c0.1,0.6,0.1,1.2,0.2,1.8c0.1,0.6,0.4,1,0.7,1.5c0.1,0.2,0.4,0.5,0.5,0.7c0.2,0.7,0,1.3,0.1,2
			c0.2,1.3,0.6,2.6,1.2,3.7c0.6,1.1,1.8,1.7,2.6,2.7s1.5,2.2,2.2,3.3c0.9,1.5,1.7,3,2.4,4.6c0.8,2,0.6,4.3,0.6,6.4
			c0,0.8-0.1,1.6-0.2,2.4c0,0.2-0.2,0.8,0.2,0.8c0.3,0,0.6-0.5,0.9-0.6c0.7-0.3,1.3-0.5,2-1c1.5-1.2,2.6-2.9,4.2-4
			c1.9-1.2,3.8-2.3,5.8-3.3c3.6-1.8,7.4-3.3,10.3-6.1c1.6-1.5,3-3.4,4.1-5.4c0.5-1,0.7-2.1,1.3-3c0.5-0.7,1.1-1.2,1.7-1.7
			c0.8-0.6,1.5-1.3,2.1-2.1s1-1.8,1.6-2.7c0.9-1.3,2-2.5,2.7-4c0.4-0.7,0.5-1.6,0.8-2.3c0.3-0.6,1-1.2,1.7-1.4c0.1,0,0.7-0.2,0.8,0
			c0.2,1,0,2.1-0.1,3.2c-0.3,2-0.6,4.2-1.8,5.9c-1.5,2.1-3.5,3.7-5.1,5.6c-0.5,0.6-0.8,1.1-1.1,1.8c-0.2,0.7-0.3,1.4-0.7,2
			c-0.9,1.7-2.3,3-3.7,4.3c-2.1,2-4.5,3.8-7,5.3c-0.7,0.5-1.6,0.7-2.3,1.2s-1.2,1.2-1.9,1.8c-0.6,0.5-1.3,0.8-2,1.2
			c-1.1,0.7-2.2,1.5-3.3,2.2c-1.4,1-2.7,2-4,3c-0.6,0.5-1.2,1.1-1.9,1.5c-0.9,0.6-1.9,1.1-2.7,1.9c-1.6,1.5-2.5,3.8-3.1,5.8
			c-0.2,0.8-0.3,1.5-0.6,2.3c-0.3,0.9-0.9,1.7-0.9,2.7c0,1.1,0.7,2,0.7,3.1c0,1-0.4,1.9-0.4,2.9c0,0.8,0.2,1.6,0.4,2.4
			c0.2,0.7,0.4,1.4,0.8,2.1c0.3,0.6,0.7,1.1,1,1.8c0.4,0.9,0.5,1.9,0.7,2.8c0.2,0.7,0.7,1.4,0.6,2.1c0,0.3-0.2,0.6-0.3,0.9
			c-0.3,0.6-0.6,1.1-0.9,1.7c-1,1.8-2,3.7-2.7,5.7c-0.3,1-0.6,2.1-0.2,3.1c0,0.2,0.2,0.2,0.4,0.2s0.2-0.2,0.2-0.4
			c-0.4-1,0-2.2,0.4-3.1c0.7-2,1.9-3.9,2.8-5.8c0.3-0.7,0.9-1.4,1-2.2c0-0.8-0.4-1.5-0.6-2.3c-0.3-1-0.4-2-0.8-2.9
			c-0.3-0.6-0.7-1.2-1-1.8s-0.5-1.3-0.7-2s-0.4-1.5-0.4-2.3c0-1,0.3-1.9,0.4-2.9c0-0.5-0.1-1-0.2-1.4c-0.2-0.5-0.5-1.1-0.5-1.7
			c0-1.1,0.7-2,1-3c0.7-2.6,1.3-5.5,3.4-7.5c1-0.9,2.2-1.5,3.3-2.3c2.6-2.1,5.3-4.1,8-6c0.8-0.5,1.7-0.9,2.5-1.5
			c0.7-0.5,1.2-1.3,1.9-1.8s1.5-0.7,2.3-1.2c2.5-1.5,4.9-3.3,7.1-5.4c1.4-1.3,2.8-2.8,3.7-4.5c0.4-0.7,0.4-1.4,0.7-2.1
			c0.2-0.6,0.6-1.2,1-1.7c1.7-2.1,3.9-3.7,5.4-6c1-1.7,1.3-3.8,1.6-5.7c0.1-1.1,0.4-2.3,0.1-3.4c-0.2-0.6-1.1-0.5-1.5-0.3
			c-1,0.4-1.7,1.2-2,2.2c-0.2,0.6-0.3,1.1-0.6,1.7c-0.7,1.4-1.8,2.6-2.7,3.9c-0.7,1-1.2,2.2-2,3.2c-1,1.2-2.3,2-3.3,3.1
			c-0.7,0.8-0.8,1.9-1.2,2.8c-0.6,1.3-1.6,2.7-2.5,3.9c-3.1,4-7.6,5.9-12,8.1c-1.4,0.7-2.7,1.4-4.1,2.3c-0.8,0.5-1.7,1-2.5,1.6
			c-0.6,0.5-1.1,1-1.6,1.6c-0.9,1-1.8,2.1-3,2.6c-0.5,0.2-1,0.3-1.3,0.7l-0.1,0.1l0,0l0,0c0,0,0-0.1,0-0.2c0-0.2,0-0.5,0.1-0.8
			c0.1-0.8,0.1-1.6,0.1-2.4c0-2.3,0-4.5-0.9-6.6c-0.8-1.8-1.8-3.5-2.9-5.2c-0.5-0.7-0.9-1.4-1.4-2.1c-0.7-0.9-1.8-1.5-2.4-2.4
			c-0.8-1.1-1.2-2.6-1.3-3.9c-0.1-0.7,0.1-1.3-0.1-2c-0.1-0.5-0.7-1-1-1.5c-0.2-0.4-0.2-0.8-0.3-1.2c-0.3-1.9-0.5-3.9-0.8-5.8
			c-0.1-0.4-0.1-0.8-0.2-1.1c-0.2-0.6-0.5-1.2-0.5-1.8c0-0.5,0-1-0.1-1.5c-0.1-0.3-0.3-0.7-0.5-0.9c-0.3-0.5-0.5-0.9-0.8-1.4
			c-0.1-0.2-0.2-0.3-0.3-0.5C896.5,619.5,896.4,619.4,896.3,619.5z M903.2,685.5c0,0.2,0,0.4,0,0.6c0,0.1,0.1,0.2,0.1,0.3
			C903.2,686.1,903.2,685.8,903.2,685.5z M903.3,686.4c0,0.2,0,0.5,0.1,0.7c0.1,0.4,0.2,0.7,0.3,1.1c0.3,0.7,1,1.2,1.3,1.9
			c-0.1-0.1-0.1-0.3-0.1-0.5c-0.3-0.5-0.9-0.9-1.2-1.5C903.5,687.6,903.4,687,903.3,686.4z M905,690.1c0,0.1,0.1,0.2,0.1,0.3
			C905.1,690.3,905.1,690.3,905,690.1C905.1,690.2,905.1,690.1,905,690.1z M905.2,690.4c0.2,0.8,0.3,1.6,0.3,2.4
			c0,0.7,0,1.5-0.1,2.2c-0.1,1-0.2,2-0.6,2.9c-0.5,1.3-1.4,2.3-1.8,3.7c-0.4,1.6-0.5,3.2-0.5,4.8c0-1.6,0.1-3.3,0.5-4.8
			c0.4-1.3,1.3-2.4,1.8-3.7c0.6-1.6,0.6-3.4,0.7-5.1C905.5,692,905.4,691.2,905.2,690.4z"/>
	</g>
	<g>
		<path class="st2" d="M909.5,746.5c0.2-1.2,0.6-2.7,0.5-4c-0.1-1.5-1-2.5-0.7-4c0.2-1,0.9-1.6,1.4-2.5c0.8-1.3,1.7-2.9,2.2-4.4
			c1.3-3.9,1.7-8.1,2.2-12.2c0.3-3.2,0.3-6.3,0.4-9.5c0-1.2-0.3-3.5,0.3-4.5c0.5-1,2.2-1.4,3.1-1.8c1.9-1,3.8-2.8,5.1-4.4
			c1.3-1.5,2.2-3.3,3.5-4.7c1.6-1.7,3.8-2.8,5.5-4.4c2.1-2.1,3.4-5.1,5.1-7.5c1-1.5,2.6-3.2,3.1-5c0.5-1.7,0.4-3.8,0.6-5.5
			c0.2-1.5,0.8-3.6,1.6-5s2-2.5,2.7-4c1.5-3.3,3.1-6.7,4.4-10.1c0.7-1.9,0.8-3.3,0.5-5.3c-0.1-0.6,0.3-1.5-0.2-1.8
			c-0.9-0.6-1.6,1.5-1.8,1.8c-1.1,2-1.7,4-2.6,6c-2.3,4.8-7,9-8.5,14.1c-0.9,3-1.8,6.5-2.3,9.6c-0.2,1.2-0.2,2.7-0.7,3.8
			c-1.1,2.4-4.1,5.5-6.3,7c-1.3,0.9-2.9,1.2-4.2,2.2c-1.5,1.2-2.4,2.8-3.5,4.4c-0.7,1-0.5,0.4-1.4,1.2c-1,0.7-1.8,1.8-2.7,2.6
			c-2.3,2-5.3,2.9-7.6,4.8c-1.1,0.9-1.8,2.5-2.6,3.7c-0.5,0.7-1,1.6-1.7,2c-0.2,0.2-0.6,0.2-0.8,0.4c-0.4,0.4-0.5,1.1-0.7,1.6
			c-1,2-1.5,3.6-1.8,5.8c-0.2,1.2-1,2.2-1.2,3.4c-0.3,1.8,0,4.4,0.9,6c0.3,0.5,0.8,0.8,1.1,1.3c0.2,0.4,0,1.3,0.1,1.7
			c0.2,1,0.9,2.5,1.6,3.2c3,2.8,4.6-0.7,4.6-3.4c0-1.2-0.7-2.2-0.8-3.3c-0.5-3.5-1.9-6.9-1.1-10.5c0.5-2.1,2.3-3.7,3.4-5.5
			c0.3-0.5,0.3-1.1,0.5-1.6c0.2-0.4,0.9-1.2,1.5-0.5c0.2,0.3,0,2.1,0.1,2.5c0.6,2.6,0.6,4.7-0.1,7.3c-0.6,2.3-0.4,4.8-1.1,7
			c-0.3,0.8-0.7,1.6-1.1,2.4c-0.2,0.5-0.2,1.2-0.5,1.6c-0.5,0.7-1.3,1.3-1.7,2.1c-0.9,1.8-1,6.1-1.2,8.2c-0.2,2.2,0.3,4.2,0.5,6.4
			c0.1,0.8,0,1.9,0.4,2.7C908,750,909.3,747.2,909.5,746.5z"/>
		<path class="st2" d="M950.1,645.7c-0.6,0.2-1.1,1.2-1.2,1.6c-0.1,0.1-0.1,0.3-0.2,0.4c-0.1,0.2-0.2,0.4-0.3,0.6
			c-0.1,0.2-0.2,0.3-0.2,0.5s-0.2,0.3-0.2,0.5c-0.2,0.3-0.3,0.7-0.4,1c-0.2,0.5-0.4,1-0.6,1.5c-0.1,0.3-0.3,0.7-0.4,1
			c-0.2,0.6-0.5,1.1-0.8,1.6c-2.3,4.5-6.3,8.1-8,12.9c-0.4,1.2-0.8,2.5-1.1,3.8c-0.5,1.9-0.9,3.8-1.2,5.7c-0.2,1.3-0.2,2.8-0.6,4
			c-0.2,0.6-0.5,1.2-0.9,1.8c-1,1.6-2.4,3.1-3.8,4.4c-0.6,0.6-1.3,1.2-2,1.6c-1.2,0.8-2.7,1.2-3.8,2c-1.7,1.3-2.5,3.2-3.9,4.8
			c-0.2,0.2-0.5,0.3-0.7,0.5c-0.3,0.2-0.6,0.4-0.9,0.7c-0.8,0.7-1.4,1.5-2.2,2.2c-2.3,2-5.2,2.9-7.6,4.8c-0.8,0.6-1.3,1.6-1.8,2.5
			c-0.4,0.7-0.8,1.3-1.3,2c-0.3,0.5-0.7,0.9-1.2,1.3c-0.3,0.2-0.7,0.2-0.9,0.5c-0.3,0.4-0.4,1-0.7,1.5c-0.5,0.9-0.9,1.8-1.2,2.8
			s-0.5,2-0.7,3s-0.8,1.8-1.1,2.8c-0.5,1.5-0.3,3.3,0.1,4.8c0.2,0.7,0.4,1.5,0.9,2.1c0.3,0.4,0.8,0.7,0.9,1.2c0.1,0.5,0,1,0.1,1.6
			c0.2,1.2,0.9,2.6,1.8,3.4c0.3,0.2,0.6,0.5,0.9,0.6c0.3,0.1,0.6,0.2,1,0.3c0.3,0,0.6-0.2,0.8-0.3c-0.1,0.7-0.2,1.4-0.2,2.1
			c-0.1,1.3-0.2,2.6-0.3,4c-0.1,1.6,0.2,3.2,0.4,4.8c-0.2-1.8-0.5-3.5-0.4-5.3c0.2-1.7,0.2-3.3,0.4-5c0-0.2,0.1-0.4,0.1-0.6
			c0.8-0.5,1.2-1.5,1.4-2.6c-0.1,0.6-0.3,1.2-0.6,1.6c-0.2,0.3-0.5,0.6-0.8,0.8c0.1-0.7,0.2-1.3,0.4-2s0.6-1.1,1-1.6
			c0,0.3,0,0.5,0,0.8c0-0.3,0.2-0.7,0.2-0.9c0,0,0,0,0-0.1c0.2-0.3,0.5-0.5,0.7-0.8c0.3-0.5,0.2-1.1,0.4-1.6
			c0.3-0.8,0.9-1.6,1.1-2.4c0.3-0.9,0.3-1.8,0.5-2.7c-0.1,0.9-0.2,1.8-0.5,2.6c-0.2,0.8-0.8,1.6-1.1,2.4c-0.2,0.5-0.2,1.1-0.5,1.6
			c-0.2,0.3-0.4,0.6-0.7,0.8c0-0.3-0.1-0.5-0.1-0.8c0,0.3,0,0.7,0,1c-0.4,0.5-0.8,1-1.1,1.6c-0.2,0.7-0.4,1.3-0.5,2
			c-0.1,0.1-0.2,0.2-0.3,0.2c-0.7,0.2-1.4-0.1-1.9-0.5c-1.1-0.8-1.9-2.2-2.1-3.6c-0.1-0.4,0-0.9,0-1.3c-0.1-0.8-0.8-1.1-1.2-1.7
			c-0.4-0.7-0.7-1.5-0.8-2.4c-0.3-1.3-0.3-2.8,0.1-4.2c0.3-0.9,0.8-1.6,1-2.5c0.3-1.2,0.4-2.5,0.9-3.7c0.3-0.9,0.8-1.7,1.2-2.6
			c0.2-0.4,0.2-0.8,0.5-1.2c0.2-0.2,0.5-0.3,0.7-0.4c0.2-0.1,0.4-0.2,0.5-0.3c0.5-0.4,0.8-1,1.1-1.5c0.4-0.5,0.7-1.1,1.1-1.6
			c0.5-0.8,1-1.8,1.8-2.4c2.4-1.8,5.3-2.8,7.6-4.8c0.9-0.8,1.6-1.7,2.5-2.4c0.4-0.4,1-0.5,1.4-1c1.3-1.5,2.2-3.5,3.8-4.7
			c1.2-0.9,2.6-1.3,3.8-2c1.9-1.2,3.6-3,5-4.7c0.7-1,1.5-2,1.9-3.2c0.4-1.3,0.4-2.7,0.6-4.1c0.4-2.2,0.9-4.3,1.5-6.5
			c0.3-1.2,0.6-2.4,1.1-3.6c1.9-4.5,5.5-7.9,7.8-12.2c0.5-0.8,0.8-1.7,1.2-2.6c0.7-1.7,1.4-3.4,2.2-5c0.1-0.3,0.8-1.3,1.1-0.6
			c0.2,0.3-0.1,1.1,0,1.5c0.1,1,0.2,2,0.1,3c-0.1,1-0.5,2-0.9,3c-0.9,2.3-1.9,4.5-2.9,6.7c-0.5,1.1-0.9,2.2-1.5,3.2
			s-1.5,1.9-2.1,2.9c-1,1.6-1.6,3.5-1.8,5.4c-0.2,1.7,0,3.8-0.6,5.5c-0.6,1.9-2,3.3-3,4.9c-1.4,2.1-2.5,4.4-4.1,6.4
			c-0.8,1-1.7,1.8-2.8,2.6c-1.3,0.9-2.7,1.8-3.7,3c-1.1,1.2-1.9,2.7-2.9,4c-0.9,1.2-1.9,2.2-3,3.2c-1,0.8-2,1.6-3.2,2.1
			c-0.9,0.4-2.3,0.7-2.8,1.7s-0.4,2.1-0.4,3.2c0,1,0,2,0,3.1c0,1.8,0,3.7-0.2,5.5c-0.1,2.2-0.4,4.3-0.7,6.5c-0.4,3.2-1,6.5-2.3,9.5
			c-0.5,1.1-1.1,2.3-1.8,3.3c-0.5,0.7-1,1.3-1.2,2.2c-0.1,0.5-0.1,1,0,1.5c0.2,0.9,0,0,0.2,6.5c0,0.1,0.1,0.1,0.1,0.1l0.2-0.1
			c0,0-0.1,0.2-0.1,0.3l0,0c0.2,0,0.3-0.1,0.4-0.2c0.4-4.4,0.7-3.1,0.4-4.4c-0.2-1.3-0.8-2.2-0.7-3.5c0.1-0.9,0.9-1.6,1.4-2.3
			c0.9-1.4,1.7-2.9,2.2-4.5c1.4-4.2,1.8-8.7,2.2-13c0.3-2.9,0.3-5.8,0.3-8.7c0-1.5-0.3-3.1,0.3-4.4c0.2-0.4,0.6-0.7,1-0.8
			c0.8-0.4,1.7-0.7,2.5-1.1c1.7-1,3.1-2.3,4.4-3.8c1.5-1.6,2.4-3.6,3.9-5.2c1.6-1.8,3.8-2.8,5.5-4.4c2-2,3.2-4.6,4.7-7
			c1-1.6,2.4-3,3.2-4.8c1-2.3,0.6-4.9,1-7.3c0.3-1.5,0.8-3.1,1.6-4.4c0.6-1,1.5-1.9,2.1-2.9c0.8-1.3,1.3-2.7,1.9-4
			c1-2.2,2-4.5,2.8-6.8c0.4-1.1,0.7-2.3,0.7-3.5c0-0.7-0.2-1.3-0.2-2c0-0.6,0.3-1.3-0.2-1.8C950.5,645.7,950.3,645.6,950.1,645.7z
			 M909.3,746.7c-0.1,0-0.1-0.1-0.1-0.2c-0.3,0.2-2.2,1.1-2.4,0.7c0.1,0.4,0.1,0.9,0.4,1.2c0.8,0.9,1.6-0.6,1.9-1.2
			C909.2,747.1,909.3,746.9,909.3,746.7z M906.8,747.2c0-0.1-0.1-0.1-0.1-0.2C906.8,747.1,906.8,747.2,906.8,747.2L906.8,747.2z
			 M906.7,747c0-0.2,0-0.3,0-0.5C906.7,746.7,906.7,746.9,906.7,747z M906.7,746.5c0-0.4,0-0.8-0.1-1.1c0-0.4-0.1-0.7-0.1-1.1
			C906.6,745.1,906.6,745.8,906.7,746.5z M908.2,728.7c-0.2-0.9-0.5-1.8-0.7-2.8c-0.2-1.2-0.5-2.3-0.7-3.5c-0.5-2.4-1.1-5.1-0.3-7.5
			c-0.9,2.6-0.2,5.8,0.3,8.4c0.2,1,0.3,2.1,0.6,3.2C907.7,727.2,908.1,727.9,908.2,728.7z M906.5,715c0.3-0.8,0.8-1.6,1.3-2.3
			c0.4-0.6,0.9-1.2,1.3-1.8c0.2-0.3,0.4-0.6,0.6-0.9c0.1-0.2,0.2-0.3,0.2-0.5c0.1-0.5,0.6-2.2,1.4-1.8c0.1,0.1,0.2,0.2,0.3,0.3
			c0-0.1,0-0.2-0.1-0.3c-0.7-0.6-1.5,0.7-1.6,1.2c0,0.2-0.1,0.4-0.1,0.5s-0.1,0.4-0.2,0.5c-0.2,0.3-0.4,0.6-0.6,0.9
			c-0.2,0.3-0.5,0.6-0.7,0.9c-0.2,0.3-0.5,0.6-0.7,0.9c-0.4,0.5-0.7,1-1,1.6C906.7,714.4,906.6,714.7,906.5,715z M911,722
			c0.2-1.5,0.3-2.9,0.7-4.4c0.4-1.6,0.6-3.2,0.5-4.8c0-0.6-0.1-1.2-0.2-1.8c-0.1-0.4-0.2-0.6-0.2-1c0-0.3,0-0.9,0-1.5
			c0,0.4-0.1,0.8-0.1,1s0,0.3,0,0.5c0,0.4,0.1,0.5,0.1,1c0.1,0.6,0.2,1.2,0.3,1.8c0.1,1.4,0,2.8-0.4,4.1c-0.2,0.8-0.4,1.6-0.5,2.4
			C911.2,720.3,911.2,721.2,911,722z M908.1,730.6c0,0.1-0.1,0.2-0.1,0.3C908.1,730.8,908.1,730.7,908.1,730.6z"/>
	</g>
	<g>
		<path class="st2" d="M903.5,709c-1.2,2.1-1.5,3.3-1.2,5.7c0,0.4-0.2,1,0.5,1.1c1.6,0.2,2.6-2.4,3-3.4c0.8-2,1.7-4.2,2-6.3
			c0.1-0.7,0.7-1.4,0.5-2.1c-0.3-0.9-1.1-1.5-1.7-2.2"/>
		<path class="st2" d="M906.6,701.8c0.5,0.7,1.4,1.4,1.6,2.3c0.2,0.7-0.3,1.2-0.5,1.9c-0.2,0.8-0.3,1.5-0.5,2.3
			c-0.3,1.1-0.8,2.1-1.2,3.2c-0.1,0.3-0.3,0.7-0.4,1c-0.4,1-1,2.7-2.1,3.1c-0.1,0-0.2,0.1-0.3,0.1c-0.8,0.1-0.6-0.3-0.7-0.8
			c0-0.2,0-0.5-0.1-0.7c-0.2-1.9,0.3-3.3,1.2-4.9c0.1-0.1,0-0.3-0.1-0.4c-0.1-0.1-0.3,0-0.4,0.1c-0.6,1.2-1.2,2.4-1.3,3.8
			c0,0.7,0,1.4,0.1,2.1c0.1,0.6-0.1,1.2,0.7,1.3c0.2,0,0.3,0,0.5,0c0.1,0,0.3-0.1,0.4-0.1c1.5-0.7,2.1-3.1,2.6-4.5
			c0.4-1.1,0.8-2.1,1.1-3.2c0.2-0.8,0.3-1.5,0.5-2.3c0.2-0.7,0.6-1.2,0.4-1.9C908,703.2,907.2,702.4,906.6,701.8z"/>
	</g>
	<g>
		<path class="st2" d="M911.5,705.6c-0.5,1.7-0.3,3.5-0.5,5.3c-0.1,1-0.7,2-0.7,3.1c0.1,1.1,0.6,2.2,0.7,3.2c0,0.9-0.3,1.8-0.3,2.7
			c0,1.8,0.4,3.2-0.2,5c-0.9,2.7-2.5,6-2.5,8.9c0,0.3,0.5,3.1,1.3,2.6c0.2-0.2,0.7-1.8,0.8-2.1c0.7-1.6,0.8-3.2,1.2-4.9
			c1-4.2,2.2-8.2,2.4-12.5c0-1.9-0.6-3.3-0.9-5.1c-0.2-1.5-0.1-3.2-0.1-4.8"/>
		<path class="st2" d="M911.6,705.3c-0.2,0-0.3,0-0.4,0.2c0.5,0.5,0.4,0.4,0.5,0.5c0,0,0,0,0.1-0.3
			C911.9,705.5,911.8,705.3,911.6,705.3z M911.8,706C911.7,706,911.8,706,911.8,706C911.8,706.1,911.8,706.1,911.8,706
			c0.1,0.1,0.2,0.1,0.3,0.2C912.1,706.3,911.8,706,911.8,706z M911.7,706.1c-0.2-0.1-0.4-0.2-0.6-0.2c-0.2,0,0,0.3-0.1,0.4
			c-0.1,0.5-0.1,0.9-0.1,1.4c-0.1,1.1,0,2.2-0.2,3.3c-0.1,0.8-0.5,1.5-0.6,2.3c-0.1,1.2,0.4,2.2,0.6,3.3c0.2,1.1-0.2,2.1-0.2,3.2
			c0,1.1,0.2,2.2,0.1,3.3c-0.1,1.3-0.6,2.6-1.1,3.8c-0.7,1.7-1.3,3.5-1.6,5.4c-0.2,1.2-0.1,2.3,0.4,3.5c0.2,0.4,0.6,1.1,1.1,0.7
			c0.4-0.4,0.6-1.5,0.8-1.9c0.2-0.5,0.4-1,0.5-1.5c0.3-1,0.4-1.9,0.6-2.9c0.3-1.3,0.6-2.6,0.9-3.9c0.6-2.4,1.2-4.8,1.4-7.3
			c0.1-1.2,0.2-2.3,0.1-3.5c-0.2-1.4-0.7-2.7-0.9-4.1c-0.1-0.9-0.1-1.9-0.1-2.8c0-0.3,0.1-0.6,0-0.8c0,0.3,0,0.5,0,0.8s0,0.5,0,0.8
			c0,0.7,0,1.3,0.1,2c0.2,1.4,0.7,2.8,0.8,4.2c0.2,1.2,0,2.3-0.1,3.5c-0.3,2.8-1.1,5.5-1.8,8.3c-0.2,1-0.5,1.9-0.7,2.9
			s-0.3,1.9-0.6,2.9c-0.2,0.5-0.4,1-0.5,1.4c0,0.1-0.1,0.3-0.1,0.4c0,0.2-0.1,0.3-0.2,0.5s-0.3,1.1-0.7,0.9
			c-0.4-0.2-0.5-0.8-0.6-1.2c-0.3-1.2-0.2-2.2,0-3.4c0.1-0.2,0.1-0.5,0.2-0.8c0.4-1.5,1-3,1.6-4.5c0.3-0.8,0.6-1.5,0.8-2.3
			c0.2-1.2,0-2.5,0-3.8c0-0.8,0.1-1.5,0.2-2.2c0.1-0.7,0.1-1.4-0.1-2.1c-0.2-0.7-0.5-1.4-0.5-2.1c0-0.9,0.4-1.7,0.6-2.5
			c0.2-0.8,0.2-1.6,0.2-2.3c0-0.9,0-1.8,0.2-2.6C911.7,706.3,911.6,706.2,911.7,706.1z M912.8,707.7c-0.2-0.5,0-0.8,0-0.8
			s-0.6-0.8-0.5-0.6C912.6,706.7,912.7,707.2,912.8,707.7z"/>
	</g>
	<g>
		<path class="st2" d="M894.5,802.4c0.4,2.4,0.9,4.6,3.4,5.4c0.7,0.2,1,0.6,1.6-0.2c1.1-1.3-0.4-3.6-0.6-5c-1-4.5-4-8.4-3.5-13.2
			c0.3-3.2,0.4-6.4,1.2-9.6c0.3-1.2,1-2.3,1.3-3.5c0.9-4.2,2.6-8.3,4-12.5c0.7-2.2,2-4.2,2.9-6.3c1.1-2.6,2-5.2,2.9-7.8
			c0.3-0.9,0.9-1.7,1.2-2.5c0.7-2.1,1.1-5,0.7-7.1c-0.3-2.1-1.3-4.1-1.7-6.2c-0.4-2.1-1.6-2.9-3.1-4.2c-0.2-0.2-0.3-0.6-0.5-0.6
			c-0.6,0-1.1,3.2-1.1,3.8c0.1,2.4,1.3,4.7,1.5,7c0.1,1.3-0.5,3.1-0.7,4.4c-0.3,1.5,0.1,3-0.5,4.4c-1,2.5-1.8,6.3-3.3,8.5
			c-0.5,0.7-1.3,1.2-1.9,1.9c-1,1.2-1.9,2.8-2.4,4.2c-1.8,4.4-2.3,9.1-3.2,13.6c-0.8,3.9-2,7.7-2.2,11.7c-0.2,5.5,2.2,12.4,5.6,16.7
			"/>
		<path class="st2" d="M904.2,728.9c-0.4,0-0.6,0.7-0.7,1c-0.4,1.1-0.7,2.4-0.5,3.6c0.3,2.2,1.2,4.3,1.5,6.5
			c0.2,1.6-0.6,3.2-0.8,4.8c-0.2,1.4,0,2.7-0.4,4c-0.3,1-0.6,1.9-0.9,2.8c-0.6,2-1.3,3.9-2.4,5.6c-0.5,0.8-1.3,1.3-1.9,1.9
			c-0.9,1-1.6,2.3-2.1,3.5c-2,4.5-2.5,9.6-3.5,14.4c-0.6,3.2-1.6,6.4-2,9.7c-0.5,4.2,0.3,8.4,1.9,12.3c-1.5-3.9-2.3-8.1-1.8-12.3
			c0.4-3.3,1.4-6.5,2-9.7c0.9-4.8,1.5-9.8,3.5-14.3c0.5-1.2,1.2-2.5,2.1-3.5c0.6-0.7,1.4-1.1,1.9-1.9c1.2-2,1.9-4.2,2.7-6.4
			c0.2-0.7,0.5-1.4,0.7-2.1c0.4-1.3,0.2-2.7,0.4-4.1c0.2-1.5,0.8-2.9,0.8-4.5c0-1.3-0.5-2.6-0.8-3.9c-0.3-1.2-0.6-2.3-0.7-3.5
			c0-0.7,0.2-1.4,0.3-2.1c0.1-0.4,0.2-0.9,0.4-1.3l0.2-0.3c0.2,0,0.2,0.3,0.3,0.5s0.4,0.3,0.5,0.5c0.8,0.7,1.7,1.5,2.2,2.5
			c0.4,0.7,0.5,1.6,0.7,2.3c0.5,1.7,1.2,3.4,1.4,5.2c0.3,1.8,0.1,3.6-0.3,5.4c-0.2,0.7-0.3,1.4-0.6,2.1c-0.3,0.7-0.7,1.4-1,2.1
			c-1,2.6-1.8,5.3-2.9,7.8c-0.7,1.6-1.5,3.1-2.3,4.7c-0.7,1.5-1.2,3.1-1.7,4.7c-1.1,3.1-2.1,6.2-2.9,9.4c-0.3,1.1-0.9,2.1-1.2,3.2
			c-0.3,1.1-0.5,2.3-0.7,3.5c-0.2,1.6-0.3,3.2-0.5,4.8c-0.1,0.9-0.2,1.9-0.2,2.8c0,1.2,0.2,2.3,0.5,3.4c0.6,2,1.5,3.9,2.2,5.9
			c0.4,1,0.6,2.1,0.9,3.1c0.3,1.1,1,2.2,0.9,3.4c0,0.2,0,0.5-0.1,0.7c-0.4,0.9-0.8,0.6-1.5,0.4c-0.7-0.2-1.3-0.6-1.8-1.1
			c-0.2-0.2-0.4-0.6-0.5-0.8c-0.2-0.3-0.3-0.7-0.4-1c0-0.1,0-0.2-0.1-0.2l0,0c0-0.1-0.1-0.3-0.1-0.4c-0.1-0.1-0.2-0.2-0.3-0.2
			c-0.1-0.2-0.3-0.4-0.4-0.6c-0.8-1.3-1.4-2.7-2-4.1c0.1,0.2,0.2,0.5,0.3,0.7c0.5,1.2,1.1,2.3,1.7,3.4c0.1,0.2,0.2,0.3,0.3,0.5
			c-0.1-0.1-0.2-0.1-0.3,0c-0.2,0.4,0.2,0.8,0.3,1.1c0.1,0.4,0.3,0.7,0.4,1.1c0.1,0.3,0.4,0.7,0.6,1c0.6,0.7,1.3,1,2.2,1.3
			c0.3,0.1,0.6,0.3,0.9,0.2c0.6-0.1,1-0.7,1.2-1.2c0.1-0.2,0.1-0.5,0.1-0.7c0-1.3-0.6-2.4-1-3.6c-0.3-1-0.5-2.1-0.9-3.1
			c-0.7-2-1.6-3.8-2.2-5.8c-0.3-1.1-0.5-2.2-0.5-3.3c0-1.2,0.2-2.4,0.2-3.6c0.1-1.3,0.2-2.7,0.4-4c0.2-1.1,0.3-2.3,0.7-3.4
			c0.3-1.1,0.9-2.1,1.2-3.2c0.8-3.2,1.8-6.3,2.9-9.3c0.6-1.6,1-3.2,1.7-4.7c0.7-1.6,1.5-3.1,2.2-4.7c1.1-2.6,1.9-5.2,2.9-7.9
			c0.3-0.7,0.7-1.4,1-2.1c0.3-0.7,0.5-1.4,0.6-2.1c0.4-1.8,0.6-3.7,0.3-5.5c-0.2-1.4-0.7-2.8-1.2-4.2c-0.4-1.3-0.5-2.7-1.2-3.8
			c-0.6-1-1.6-1.7-2.5-2.5C904.6,729.4,904.5,729,904.2,728.9z M895.1,804c0-0.2-0.1-0.3-0.1-0.5s0,0-0.2-1.2c0-0.2-0.2-0.2-0.3-0.2
			c-0.2,0-0.3,0.2-0.2,0.3C895.1,804,895.3,804.2,895.1,804z M895.4,803.9c0.1,0.3,0.3,0.7,0.2,1c-0.1-0.3,0.4,0.6,0.4,0.6
			S895.3,803.7,895.4,803.9z"/>
	</g>
	<g>
		<path class="st2" d="M897.6,764.3c-0.5,0.1-0.7-0.8-0.8-1.3c-0.1-0.8,1.6-3.5,2-4.3c1.5-3.4,2.5-7,4.2-10.3c0.8-1.4,1-3,2-4.3
			c0.2-0.2,0.3-0.7,0.5-0.6c1.2,0.2,0.4,4.7,0.2,5.4c-0.7,2-1.5,4.1-2.4,6c-0.7,1.4-1.7,2.7-2.4,4.2
			C900,760.8,899.6,763.8,897.6,764.3z"/>
		<path class="st2" d="M905.8,743.3c-0.5-0.3-0.7,0.3-0.9,0.6c-0.2,0.2-0.3,0.5-0.5,0.7c-0.6,1-0.9,2.2-1.4,3.3
			c-0.3,0.7-0.7,1.3-1,2c-0.5,1.1-1,2.3-1.4,3.4c-0.7,1.9-1.3,3.9-2.3,5.7c-0.1,0.3-0.3,0.5-0.5,0.8s-0.3,0.6-0.5,0.8
			c-0.3,0.6-0.8,1.4-0.8,2.2c0,0.5,0,0,1.1,1.7c0.2,0,0.3-0.1,0.3-0.3c0,0-0.1,0-0.1-0.1c0.1,0,0.3-0.1,0.5-0.2
			c0.2-0.1,0.3-0.3,0.4-0.4c-0.2,0.2-0.7,0.5-0.9,0.6c-0.1-0.1-0.1-0.2-0.2-0.2c-0.5-1.1-0.5-0.6-0.5-1.1c0-0.4,0.3-0.9,0.4-1.3
			c0.4-0.8,0.8-1.5,1.2-2.3c0.7-1.3,1.2-2.7,1.7-4c0.6-1.7,1.3-3.5,2-5.2c0.4-0.9,0.9-1.8,1.3-2.8c0.2-0.6,0.4-1.2,0.7-1.8
			c0.2-0.5,0.5-1,0.8-1.4c0.1-0.1,0.2-0.5,0.3-0.5s0.3,0.1,0.3,0.2c0.2,0.3,0.2,0.7,0.3,1c0.1,1.2-0.1,2.6-0.4,3.8
			c-0.3,1.1-0.8,2.2-1.2,3.3c-0.5,1.3-1,2.5-1.7,3.7c-0.7,1.3-1.7,2.5-2.2,3.9c-0.3,0.7-0.5,1.4-0.8,2.1c0.5-1.1,0.8-2.2,1.4-3.2
			c0.7-1.2,1.5-2.2,2.1-3.4c1-2,1.7-4,2.5-6c0.2-0.5,0.3-1.1,0.3-1.7c0.1-0.8,0.2-1.6,0.1-2.5C906.3,744.3,906.3,743.6,905.8,743.3z
			 M899.9,761.6c-0.2,0.7-0.6,1.3-1,1.9c0.1-0.1,0.2-0.2,0.3-0.3C899.5,762.7,899.7,762.1,899.9,761.6z M898.9,763.4
			c-0.1,0.1-0.1,0.1-0.2,0.2C898.7,763.6,898.8,763.6,898.9,763.4C898.8,763.5,898.8,763.5,898.9,763.4z"/>
	</g>
	<g>
		<path class="st2" d="M900.5,763.9c0.7-1.3,1.7-2.2,2.6-3.4c2.5-3.3,4.6-7.1,6-10.9c0.6-1.6,0.2-2.7-0.1-4.2
			c-0.1-0.3,0.2-1.5-0.5-1.6c-0.7-0.2-2.5,3.8-2.7,4.4c-1.5,4-2.5,8.1-4,12"/>
		<path class="st2" d="M908.6,743.6c-0.3-0.1-0.7,0.4-0.8,0.6c-0.6,0.8-1,1.6-1.4,2.5c-0.1,0.2-0.2,0.5-0.3,0.7
			c-1,2.2-1.6,4.5-2.2,6.8c-0.6,1.9-1,3.1-1.4,4.3c0.3-0.7,0.6-1.5,0.8-2.2c1-2.9,1.7-5.9,3-8.7c0.5-1,0.9-2,1.6-2.9
			c0.1-0.1,0.5-0.7,0.7-0.7c0.5,0.2,0.3,0.9,0.3,1.4c0,0.4,0.2,0.8,0.2,1.2c0.2,0.9,0.2,1.8,0,2.7c-0.4,1.4-1.1,2.8-1.8,4.1
			c-1.1,2.2-2.3,4.2-3.7,6.2c-0.7,1-1.5,1.8-2.2,2.8c0,0,0,0,0,0.1c0-0.1,0-0.1,0-0.2c0.1-0.3-0.1,0.4-0.1,0.2
			c-0.1,0.5-0.2,0.9-0.3,1.4c0,0.1,0.1-0.2,0.2-0.3c0.1-0.2,0.3-0.4,0.4-0.6c0.3-0.4,0.6-0.7,0.9-1.1c0.8-0.9,1.4-1.8,2.1-2.8
			c1.6-2.3,2.9-4.8,4-7.4c0.4-1,0.9-2,1-3.1c0.1-0.7,0-1.4-0.2-2.1c-0.1-0.4-0.2-0.9-0.2-1.3C909.2,744.5,909.3,743.8,908.6,743.6z
			 M901.3,762.3c-0.2,0.3-0.4,0.5-0.6,0.8c-0.1,0.1-0.3,0.4-0.2,0.3c0.2-0.5,0,0-0.2,0.3c-0.1,0.1,0,0.3,0.1,0.4
			c0.1,0.1,0.3,0,0.4-0.1C901.3,762.3,901.7,761,901.3,762.3z M902.5,758.4c-0.5,1.2-0.9,2.4-1.4,3.6c-0.2,0.5,0.8-1.8,0.8-1.8
			C901.9,760.1,902.3,758.8,902.5,758.4z"/>
	</g>
	<g>
		<path class="st2" d="M899.1,855c0.8,1.8,0.9,3.8,1.5,5.6c0.3,1,0.8,1.6,0.7,2.6c-0.1,0.9-1.7,3.8-0.2,4.5c1.7,0.7,2.9-4.5,3.2-5.6
			c1.1-4.5,1.2-9.6,1-14.2c-0.1-1.4-0.4-2.7-0.5-4c-0.2-5.3,1.4-10.8,2.1-16.1c0.6-4.6-0.6-10.3-2.3-14.6c-0.6-1.5-1-3.4-1.9-4.7
			c-0.5-0.7-1.3-1.3-1.8-2c-0.7-1-0.1-0.5-0.7-1.5c-1-1.7-2-3.2-2.9-5c-0.1-0.2-0.9-2.1-1.2-2.1c-0.7-0.2-0.7,1.5-0.7,1.5
			c-0.2,1.8,0.6,2.8,0.9,4.5c0.2,1.2,0,2.5,0.2,3.7c0.3,1.8,2.4,4,3,5.7c0.9,2.6,1.7,5.2,2.3,7.8c0.4,1.8,0.2,3.9-0.1,5.8
			c-0.1,0.8,0,1.6-0.1,2.5c-0.3,3-1.5,6.2-2.3,9.1c-0.6,2.3-0.3,4.6-0.7,6.9C898.2,848.2,898,852.3,899.1,855z"/>
		<path class="st2" d="M896.2,797.8c-0.2-0.1-0.4-0.1-0.6,0.1c-0.3,0.5-0.3,1.2-0.3,1.8c0,1.2,0.4,2.2,0.7,3.3
			c0.2,0.7,0.3,1.3,0.3,2c0,1,0,2,0.2,3c0.6,1.9,2.2,3.4,2.9,5.2c0.7,1.7,1.2,3.5,1.6,5.2c0.4,1.3,0.8,2.7,0.9,4
			c0.1,1.5-0.1,2.9-0.3,4.3c-0.1,0.8,0,1.7-0.1,2.5c-0.3,3.3-1.7,6.4-2.4,9.7c-0.3,1.7-0.3,3.5-0.5,5.2c-0.1,0.9-0.2,1.8-0.3,2.7
			v0.2c0-0.1,0-0.1,0-0.2c0.1-0.9,0.3-1.8,0.3-2.7c0.2-1.7,0.1-3.5,0.5-5.2c0.5-2.2,1.3-4.4,1.9-6.6c0.2-1,0.5-2,0.6-3.1
			c0.1-0.7,0-1.4,0-2.1c0.1-1.4,0.4-2.8,0.4-4.3c0-1.1-0.3-2.2-0.5-3.3c-0.4-1.5-0.8-3.1-1.3-4.6c-0.3-1-0.6-2-1.1-2.9
			c-0.8-1.5-2.1-2.8-2.5-4.5c-0.2-0.8-0.1-1.6-0.2-2.4c0-0.8-0.1-1.6-0.3-2.4c-0.3-1.1-0.7-2.1-0.7-3.3c0-0.5,0-1.1,0.2-1.6
			C895.7,797.6,895.9,797.4,896.2,797.8c0.5,0.7,0.9,1.8,1.3,2.7c0.7,1.4,1.6,2.8,2.4,4.1c0.1,0.2,0.2,0.4,0.3,0.6
			c0,0.2,0,0.3,0.1,0.5c0.7,1.2,1.9,1.9,2.5,3.1c0.6,1.1,0.9,2.4,1.3,3.6c1.2,3.5,2.2,7,2.5,10.7c0.3,5-1.3,10-1.9,14.9
			c-0.2,1.8-0.4,3.6-0.3,5.4c0.1,1.1,0.3,2.2,0.4,3.4c0,0.6,0.1,1.3,0.1,1.8c0.1,5-0.1,10.2-1.6,15.1c-0.1,0.2-0.1,0.5-0.2,0.7
			c-0.3,0.8-0.6,1.7-1.2,2.3c-0.2,0.2-0.5,0.5-0.8,0.4c-0.6-0.2-0.6-0.9-0.5-1.4c0.1-0.7,0.3-1.3,0.6-2c0.1-0.3,0.2-0.6,0.2-0.9
			c0.1-1-0.3-1.7-0.7-2.5c-0.1-0.4-0.2-0.8-0.3-1.1c-0.3-1.1-0.4-2.2-0.7-3.3c-0.1-0.3,0,0-0.5-1.4c0-0.1-0.2-0.1-0.3-0.1v0.2
			c0,0-0.1-0.2-0.1-0.3l0,0c-0.2,0.1-0.2,0.2-0.1,0.4c0.7,2.3,0.5,1.5,0.7,2.3c0.2,1.1,0.5,2.2,0.8,3.3c0.2,0.7,0.7,1.3,0.7,2
			c0,0.5-0.1,0.9-0.3,1.4c-0.2,0.8-0.6,1.5-0.6,2.3c0,0.5,0.2,1.1,0.6,1.4c1.1,0.7,2-0.6,2.4-1.5c1.1-2.3,1.7-5.2,2-7.7
			c0.1-0.8,0.2-1.6,0.2-2.4c0.1-0.8,0.1-1.7,0.2-2.4c0.1-2.2,0.1-4.5-0.1-6.6c-0.1-0.9-0.3-1.8-0.4-2.7c-0.1-1.3-0.1-2.7,0-4
			c0.2-3.2,0.9-6.3,1.4-9.4c0.3-1.5,0.5-3,0.6-4.5c0.2-3.8-0.5-7.7-1.7-11.2c-0.3-1-0.7-2-1.1-3c-0.4-1.1-0.7-2.2-1.2-3.2
			c-0.6-1.2-1.7-1.9-2.4-2.9c-0.3-0.4-0.3-0.8-0.5-1.3c-0.6-1.1-1.3-2.2-2-3.3c-0.6-1.1-1.1-2.3-1.7-3.3
			C896.5,798.1,896.4,797.9,896.2,797.8z M899,854.7C899.1,854.7,899.1,854.7,899,854.7c0-0.4-0.6-6-0.5-7.6c-0.1,1.3-0.2,2.6-0.2,4
			c0,1,0.1,2.3,0.5,3.2C898.9,854.4,899,854.5,899,854.7z"/>
	</g>
	<g>
		<path class="st2" d="M903.6,884.7c-0.7-1.1-0.3-3.2-0.2-4.4c0.2-1.5,0.6-3.7,0.3-5.2c-0.2-0.8-0.9-1.5-1.1-2.4
			c-0.2-0.5-1-2.8-1.8-2.7c-1.2,0.1-0.8,2.7-0.9,3.3c-0.2,1.2-0.8,2.2-1,3.4c-0.1,1.4,0.2,2.9,0.1,4.3c-0.1,1.9-0.1,4-0.4,5.9
			c-0.2,1.4-0.6,2.9-0.2,4.2c0.6,1.8,1.8,3,2.6,4.7c0.6,1.2,0.7,2.5,1,3.8c0.4,1.5,1.1,2.9,1.4,4.4c0.5,2,0.1,7.6,2.1,8.6
			c0.2,0.1,0.5,0.4,0.8,0.3c0.5-0.3,1-3.9,1.1-4.6c0.2-4.3,0.2-8.4-1.2-12.5c-0.9-2.5-2.2-4.8-2.6-7.4
			C903.4,887.3,904.3,885.7,903.6,884.7z"/>
		<path class="st2" d="M900.4,869.8c-0.4,0.2-0.6,0.8-0.7,1.2c-0.1,0.8,0.1,1.7-0.1,2.5c-0.3,1.1-0.8,2.1-0.9,3.2
			c-0.2,1.2,0.1,2.4,0.1,3.6c0,1.9,0,3.8-0.2,5.7c-0.2,1.5-0.7,3-0.5,4.5c0.3,2,1.9,3.7,2.9,5.4c0.7,1.3,0.7,2.8,1.1,4.1
			c0.4,1.4,1.1,2.8,1.4,4.3c0.4,2.4,0.1,5,1.1,7.2c0.3,0.6,0.7,1,1.3,1.4c0.2,0.1,0.4,0.2,0.6,0.1c0.4-0.2,0.6-1.6,0.7-2
			c0.4-2,0.5-3.9,0.5-5.9c0-2.8-0.2-5.6-1-8.3c-0.6-1.9-1.5-3.7-2.2-5.6c0.7,1.9,1.5,3.7,2.1,5.6c0.8,2.7,1,5.5,1,8.3
			c0,1.2,0,2.5-0.1,3.7c0,0.3-0.1,0.6-0.1,0.9c-0.1,0.8-0.3,1.6-0.5,2.4c0,0.2-0.1,0.6-0.3,0.7c-0.2,0.1-0.7-0.3-0.9-0.4
			c-0.8-0.6-1-1.9-1.2-2.9c-0.2-1.2-0.3-2.3-0.3-3.5c0-0.7-0.1-1.4-0.2-2.1c-0.4-1.5-1.1-2.9-1.4-4.4c-0.3-1.3-0.4-2.7-1-3.8
			c-0.9-1.7-2.5-3.3-2.8-5.3c-0.2-1.2,0.2-2.3,0.3-3.5c0.2-1.6,0.3-3.3,0.3-4.9c0-0.8,0.1-1.6,0-2.4c0-0.9-0.2-1.9-0.1-2.8
			c0.2-1.3,1-2.6,1-3.9c0-0.2,0-0.5,0-0.7c0-0.1,0-0.2,0-0.4s0-0.2,0-0.4c0-0.3,0.2-1.4,0.7-1.2c0.3,0.1,0.5,0.5,0.6,0.7
			c0.3,0.6,0.5,1.2,0.8,1.8c0.3,0.7,1,1.5,1.1,2.3c0.3,1.9-0.1,3.9-0.4,5.8c-0.1,1,0,0,0.3,3.9c0,0.1,0.2,0,0.2,0.1v-0.2
			c0,0,0.1,0.1,0.1,0.2c0,0,0,0,0.1,0c0.1-0.1,0.2-0.3,0.1-0.4c-0.3-0.9-0.3-0.5-0.3-0.9c-0.1-0.5-0.1-1,0-1.5
			c0.2-2.3,0.8-4.7,0.5-7.1c-0.1-0.8-0.7-1.4-1-2c-0.4-0.9-0.6-1.8-1.2-2.6C901.5,869.9,901,869.5,900.4,869.8z M903.7,884.9
			L903.7,884.9c-0.1,0.2-0.1,2.5-0.1,3.2c0,0.2,0.1,0.4,0.1,0.6c-0.1-0.4-0.2-0.8-0.1-1.2c0.1-0.6,0.2-1.1,0.2-1.7
			c0-0.2,0-0.4,0-0.6C903.8,885.1,903.8,885,903.7,884.9z M903.7,888.8c0,0.1,0,0.2,0,0.4c0,0.1,0.1,0.2,0.1,0.3
			C903.8,889.2,903.8,889,903.7,888.8z M903.8,889.4c0,0.1,0,0.2,0.1,0.3c0.1,0.5,0.4,1.1,0.6,1.6
			C904.3,890.7,904,890.1,903.8,889.4z"/>
	</g>
</g>
<g>
	<path class="st8" d="M767.6,242.9c1.4-0.2,2.4,1.7,2,3c-0.4,1.4-1.6,2.4-2.6,3.4c-3.9,3.7-6.7,8.3-9.4,12.9c-0.9,1.5-1.9,3.2-1.7,5
		c0.1,2,1.6,3.6,2.3,5.4s0.3,4.6-1.7,4.9c-0.6,0.1-1.2-0.1-1.7,0.2c-1,0.4-1.2,1.8-1.1,2.9c0.1,3.8-0.5,8.5-4,10.1
		c-1.5,0.7-3.3,0.6-4.9,0.8c-1.7,0.2-3.4,1-4,2.5c-0.2,0.5-0.2,1.1-0.5,1.6c-0.6,1.3-2.3,1.9-3.7,1.6s-2.7-1.2-3.8-2
		c0.2,2.1-0.2,5.5-1.7,7.1c-0.5,0.5-1.1,0.9-1.7,1.3c-2.1,1.3-4.5,2.4-6,4.4s-2,5.1-0.1,6.8c1,0.9,2.5,1.2,3.9,1.6
		c1.3,0.4,2.8,1.1,3.2,2.5c0.2,0.8,0.1,1.7,0.3,2.5c0.4,1.3,1.7,2,3,2.3c4,0.8,7.7-2,10.8-4.7c1.3-1.1,2.5-2.1,3.8-3.2
		c0.1-0.1,0.2-0.2,0.3-0.3c0.2-0.5-0.2-0.9-0.7-1.2c-1.3-1-2.5-2.1-3.1-3.6s-0.6-3.3,0.4-4.6c0.3-0.4,0.7-0.7,1.1-0.7
		c0.7,0,1.2,0.7,1.7,1.3c1.1,1.4,2.5,2.6,4.2,3.3c0.7,0.3,1.6,0.5,2.4,0.4c0.5-0.1,1-0.4,1.5-0.6c4.4-2.2,9.7-2.7,14.5-1.2
		c0.8,0.3,1.8,0.6,2.6,0.3c0.8-0.3,1.3-1.6,0.6-2.1c5.1-1,10.2-2,15.2-3.1c2.4-0.5,4.8-1,7-2.1c1.4-0.7,2.7-1.7,4.2-2.3
		c4.3-1.8,9.4-0.8,13.5-2.9c-0.4-2.6-0.4-4.7-0.4-7.3c0-0.5,0-1,0.4-1.3c0.3-0.3,0.8-0.3,1.3-0.3c1.7,0,3.4,0,5.1,0.1
		c0.5,0,1.1,0,1.6-0.3c1.4-1,0-3.2,0.3-4.8c5.1-0.1,10.2-0.7,15.1-1.7c0.9-0.2,1.8-0.4,2.3-1.2c0.8-1.3-0.4-2.9-1.7-3.6
		s-3-1-3.9-2.2c-0.3-0.4-0.6-1-0.3-1.5c0.1-0.2,0.4-0.4,0.6-0.5c5.1-3.5,10.9-6,16.9-7.4c-1.8-1.5-4.4-0.9-6.6-0.1
		c-2.1,0.8-4.5,1.9-6.7,1.2c0-0.7,0.7-1.2,1.4-1.3c0.7-0.1,1.4,0.1,2.1,0.1c2.3,0,4.4-2.4,4-4.8c2.5-0.4,5.1-0.8,7.6-1.2
		c-0.4,1.3,0.7,2.8,2,2.9c1.4,0.1,2.6-1.2,2.5-2.5c1,1.5,2.2,3.2,3.9,3.7c0.3-1,0.6-2,0.4-3s-0.9-2-1.9-2.2
		c-0.6-0.1-1.2,0.1-1.7-0.1c-1.6-0.5-1.1-2.9-2.1-4.2c-1.2-1.6-3.7-0.8-5.4,0.2s-3.9,2.2-5.5,1c-0.5-0.4-0.9-1-1.4-1.4
		c-1.7-1.3-4,0-6.1,0c-2.7,0.1-5-1.8-7.6-2.5s-5.4-0.1-8.1-0.2c-0.5,0-1-0.1-1.5-0.4c-0.6-0.4-0.8-1.1-1.1-1.8
		c-1.4-3.2-5.6-4-9.1-3.6c-3.5,0.5-6.9,1.8-10.4,1.2c-0.6-0.1-1.3-0.3-1.8-0.7c-0.4-0.4-0.7-0.9-1-1.3c-1.7-2.8-3.9-5.5-7-6.5
		c-2.4-0.7-4.9-0.2-7.3-0.6c-2.5-0.4-4.9-1.7-6.6-3.7c-1.3,1-1.6,2.8-2.3,4.2c-0.9,1.9-2.5,3.4-4.1,4.8
		C768.8,242.1,768.4,242.6,767.6,242.9z"/>
	<path class="st8" d="M809.2,303.4c-3-1.4-6.2-0.5-9.3,0.6c-1.8,0.7-3.6,1.4-5.5,2c-1.3,0.5-2.5,0.9-3.7,1.6
		c-0.8,0.5-1.6,1.1-2.5,1.5c-2.5,1.4-5.4,1.7-8.2,2.1c-8.8,1-17.9,2.2-25.3,7c-4.1,2.7-7.5,6.4-11.8,8.7c-0.5,0.2-0.9,0.5-1.3,0.9
		c-0.4,0.4-0.5,1-0.7,1.6c-0.7,2.6-1.4,5.1-2,7.7c-0.2,0.8-0.8,1.9-1.6,1.6c-0.7-1.7,1.2-3.6,0.7-5.4c-0.3-1.1-1.7-1.8-2.9-1.7
		c-1.2,0.1-2.3,0.6-3.4,1.2c-1.5,0.8-3.2,1.8-3.7,3.4c0.6,0.6,1.6,0.5,2.5,0.4s2,0.3,2.1,1.2c0,0.3-0.1,0.6-0.2,0.9
		c-0.5,1.6-1.1,3.3-1.6,4.9c2.2,1.7,4.8,2.9,7.5,3.5c0.3,3.8-0.6,7.7-2.1,11.2c1.4-0.2,2.8-0.4,4.2-0.6c0.3,0,0.7-0.1,1,0.2
		c0.2,0.2,0.3,0.6,0.3,0.9c0.1,1.6,0.1,3.2,0.2,4.9c0.1,1.6,0.1,3.3-0.8,4.6c-0.9,1.3-2.6,1.9-4.2,2.2c-1.6,0.3-3.2,0.3-4.7,0.9
		c-2.8,1.1-4.6,4.3-4.2,7.3c0,0.3,0.1,0.7,0.3,0.9c0.3,0.4,0.8,0.5,1.2,0.6c1.3,0.3,2.5,0.5,3.8,0.8c0.2,0,0.4,0.1,0.5,0
		c0.3-0.2,0.1-0.7,0.1-1.1c0-0.8,1-1.1,1.8-1.2c1.3-0.1,2.5-0.1,3.8-0.2c0.7,0,1.7,0.3,1.5,1c0.6,0,1.1-0.1,1.7-0.1
		c0.1,0.4,0.3,0.7,0.4,1.1c0.9-0.2,1.8-0.4,2.7-0.1s1.6,1.2,1.3,2.1c0.6,2.6-1.3,5.5,0.1,7.8c0.3,0.5,0.8,1,1.1,1.6
		c0.9,1.9-1.1,4.1-0.4,6.1c1.3,0.2,2.4,1.6,2.2,2.9c0,0.5-0.2,0.9-0.1,1.4c0.2,1,1.6,1.3,2.3,2c0.6,0.7,0.6,1.8,0.2,2.6
		s-1,1.5-1.7,2.2c0.9,0.1,1.9,0.2,2.8,0.2c1.7,1.4,1.9,4.3,0.4,5.9c1,0.1,2.1,0.3,3.1,0.4c1.8,1.6,1,4.7,2.2,6.8
		c0.8,1.4,2.4,2.2,3.6,3.4c1.6,1.6,2.5,3.7,3.3,5.8c0.4,1,0.7,2,1.1,3c1.2,3.1,2.5,6.3,5.2,8.1c1.2,0.8,2.7,1.3,3.7,2.4
		c0.5,0.6,0.9,1.2,1.2,1.9c0.4,0.8,0.8,1.5,1.2,2.3c0.9,1.7,1.6,3.9,0.3,5.2c-0.7,0.7-2,1.1-2.1,2.1c1.7,1.3,3.8,1.3,5.9,1.7
		c2.9,0.6,5.6,2.5,7,5.1c1.7,3.1,1.6,6.7,1.6,10.2c-0.1,3.5-0.1,7.1-0.2,10.6c0,1.1-0.2,2.3-1.2,2.7c1.2,1.7,1.7,3.9,1.2,5.9
		c-0.2,1-0.7,1.9-0.5,2.9c0.2,1.3,1.6,2.3,2.9,2c0.7-0.1,1.4-0.6,2.1-0.5c1.4,0.1,1.8,2,1.9,3.4c0.1,2,0,4.5-1.7,5.6
		c-0.6,0.4-1.3,0.6-1.4,1.3c-0.1,0.9,1.1,1.2,1.8,1.8c1.1,1,0.6,2.7,0,4s-1.5,2.7-1,4.1c3.1,0.5,6,1.4,9.1,2.3
		c0.5,1.3-1.1,2.3-1.7,3.5c-0.4,0.8-0.3,1.8-0.4,2.8c-0.1,1.4-0.4,2.8-0.2,4.1c0.3,1.3,1.6,2.6,2.9,2.2c0.1,2.7,0.2,5.4,0.3,8
		c0,0.3,0,0.6,0.1,0.9c0.2,0.4,0.5,0.8,0.7,1.1c0.9,1.5,0.5,3.4,0.1,5c-2.2,0.5-4.5,0.3-6.5-0.8c-1.1-0.6-2-1.4-3.2-1.8
		c-1.4-0.5-2.9-0.6-4.4-0.6c-2.1,0-4.2,0.1-6.3,0.2c-0.7,2.8-1.4,5.5-2.1,8.3c0,0.2-0.1,0.4,0,0.5c0.1,0.2,0.3,0.3,0.6,0.4
		c3.9,1.7,7,5.2,8.2,9.2c0.3,1,0.5,2.1,1.4,2.7c0.8-1.2,2.5-1.6,3.8-1c0.6,0.3,1.1,0.8,1.6,1.2c1,0.9,2.3,1.5,3.6,1.8
		c-0.9,0.4-1.7,1-2.2,1.9c2.7,1.8,5.7,3.2,8.8,4l-0.2,1.4c-0.5,2-1.1,4-2.5,5.5c-1.5,1.5-3.7,2.2-4.8,4.1c-0.6,1-0.7,2.2-1.6,3
		c-0.6,0.6-1.4,0.8-2.2,1c-3.2,1.1-6,3.5-7.7,6.5c1.2-0.6,2.6,0.4,3,1.6c0.4,1.2,0.1,2.6-0.2,3.8c-0.3,1.4-0.7,2.8-1,4.3
		c-0.2,0.9-0.6,1.9-1.4,2.2c-0.6,0.2-1.2-0.1-1.7,0.3c-1,0.7,0.2,2.8-0.9,3.4c-1.4-0.3-2.9,0.9-2.8,2.3c0.1,0.8,0.5,1.5,0.2,2.2
		c-0.4,1.2-2.2,1-3.4,0.5c0.2,5.4,0.4,10.8,0.6,16.3c0,0.5,0,1-0.2,1.4c-0.3,0.6-1,0.9-1.5,1.2c-1.8,1-2.9,3.1-2.9,5.1
		c0.9,0.6,2-0.3,3.1-0.3s1.9,0.9,2.2,1.9s0.1,2.1-0.1,3.1c-0.1,0.5-0.2,1-0.6,1.4c-0.7,0.6-1.7,0.1-2.5-0.2
		c-3.4-1.4-7.8,0.8-8.8,4.3c0.8-0.4,1.9,0.2,2.3,1c0.4,0.8,0.4,1.8,0.3,2.7c-0.1,1.2-0.1,2.5-0.7,3.6c-0.5,1.1-1.7,2-2.9,1.9
		c-0.3,3.2-0.1,6.5,0.6,9.7c-2.3-0.6-4.7,1.8-4.2,4.1c1.4,0.4,1.9,2.1,1.7,3.6c-0.1,1.4-0.6,2.9-0.3,4.3c0.3,1.3,1.4,2.9,2.1,4
		c0.1,0.2,0.2,0.4,0.2,0.6c0,0.8-1.1,0.9-1.7,1.4c-0.7,0.7-0.2,1.8,0.4,2.5c0.7,0.7,1.5,1.2,1.9,2.1c0.5,1.4-0.6,2.7-1.7,3.7
		c-0.3,0.3-0.8,0.6-1.1,0.4c-0.2-0.1-0.2-0.3-0.3-0.5c-0.6-1-2.3-0.7-2.9,0.3s-0.5,2.3-0.3,3.4c-1-0.6-2.4,0-3,0.9
		c-0.6,1-0.6,2.2-0.5,3.4c0.4,3.5,1.9,6.8,2.9,10.2c1.4,4.6,2,9.5,2.6,14.3c0.2,1.7,0.4,3.3,0.6,5c0.2,1.4,0,3.2-1.3,3.5
		c-0.8,0.2-1.6-0.3-2.4-0.2c-1.3,0.1-2,1.8-1.9,3.1c0.2,1.3,0.8,2.6,1.1,3.9c0.4,2.2-0.6,4.5-2.5,5.7c0.8,0.1,1.8,0.4,2,1.2
		c-1.7,0.5-2.7,2.4-2.3,4c-1.1-0.1-1.8-1.4-1.3-2.3c-1.1-1.2-2.9-1.3-4.5-1s-3.1,1.1-4.7,1.2c-0.4,1.1-0.5,2.3-0.4,3.5
		c1.6,0.7,3.5,0.4,5.2,0.4c1.8,0,3.8,0.5,4.5,2.1c0.8,1.7-0.2,3.9,0.7,5.6c4.5,0.3,9,0.6,13.5,0.9c0.3,0,0.7,0.1,1,0.2
		c0.4,0.3,0.6,0.8,0.7,1.3c0.4,1.7,0.6,3.5,0.6,5.2c0,0.5,0,1.1-0.2,1.5c-0.5,1.2-2,1.6-3.3,1.9c-4.5,0.9-9.1,1.6-13.8,2
		c-1.6,0.2-3.4,0.4-4.2,1.8c-0.6,1-0.4,2.2-0.2,3.3c0.7,4.6,1.2,9.2,1.4,13.8c0.1,1.2,0.1,2.4-0.2,3.6c-0.3,1.2-0.8,2.3-1.1,3.5
		c-1,4.3,2.2,8.7,1.5,13.1c-0.1,0.9-0.4,1.7-0.4,2.6c0,0.9,0.3,1.8,1.1,2.2c1.7,0.9,3.8-1.5,5.6-0.7c0.5,1.7-1.7,2.9-2.3,4.6
		c-1.2,3.7,2.4,7.4,2.5,11.3c0,1.5-0.3,3.3,0.9,4.1c0.3,0.2,0.7,0.3,1,0.6c0.5,0.5,0.5,1.2,0.5,1.9c0,1.6,0,3.2,0,4.8
		c0,5.3,0,10.6,0.1,15.8c0,1,0,1.9-0.2,2.9c-0.2,0.8-0.5,1.6-0.6,2.4c-0.2,1-0.2,2.1-0.2,3.1c-0.2,5-2.2,10-1.6,14.9
		c1-0.8,2.7-0.5,3.2,0.7c1,2.2,0.4,5-1.2,6.8c-0.8,0.9-1.9,1.8-1.7,3c1.4-0.5,3,0.4,3.8,1.7c0.7,1.3,0.7,2.9,0.6,4.4
		c0,0.4-0.1,0.7-0.4,1c-0.3,0.3-0.7,0.3-1.1,0.4c-4,0.5-7.6,3.8-8.3,7.8c0.9,1,2.4,1,3.6,0.6c1.2-0.4,2.3-1.1,3.6-1.5
		c3.8-1.1,7.7,1.4,11.7,1.3c0.6,0,1.3-0.1,1.8-0.4c0.5-0.3,0.9-0.7,1.3-1.2c2.3-3,2.6-7.5,5.6-9.8c0.4-0.3,0.8-0.5,1.2-0.5
		c0.7,0,1.2,0.6,1.8,1c2,1.1,4.7-1.3,6.7-0.2c1.1,0.6,1.5,1.9,2.1,3s1.8,2.1,2.9,1.7c-1.4,2.3-1.7,5.3-0.8,7.8
		c0.3,0.8,0.9,1.7,1.8,1.6c0.4,0,0.7-0.2,1-0.4c2.7-1.7,5.8-2.8,8.9-3c0.9,2.7,0.8,5.6,1,8.4c0.2,2.8,0.9,5.8,3.1,7.7
		c2.9-3.8,9.3-3.1,12.4-6.8c-0.4-2.4-0.7-4.8-1.1-7.3c-0.3-2.3-0.6-4.8,1-6.5c1.3-1.4,3.4-1.7,5.3-2c5.8-1,11.1-3.7,16.3-6.4
		c-2.1-0.8-4.4-0.1-6.4,0.9s-3.9,2.3-6.1,2.7c-0.3-1.1-1.7-1.6-2.8-1.4s-2.1,0.9-3.1,1.5c-1.5,0.9-3.2,1.6-4.9,2.2
		c-2.7,1.1-5.3,2.1-8,3.2c-3.3,1.3-6.7,2.7-10.3,2.7c-1.5-1.9-0.8-5.5-3.1-6.2c-1.2-0.4-2.9,0.2-3.7-0.8c-0.4-0.5-0.3-1.2-0.3-1.9
		c0-1-0.1-2-0.6-2.8c-1.6-2.2-6.2-1.3-6.9-4c-0.5-1.9,1.6-3.4,3.4-4.1c3.1-1.1,6.5-1.5,9.8-1.3c3,0.2,6.7,0.8,8.6-1.7
		c2-2.6,0-6.5,0.6-9.7c0.1-0.4,0.2-0.9,0.6-1.2c0.4-0.4,1-0.4,1.6-0.4c5.9,0,11.7-0.1,17.6-0.1c-1-0.4-1.5-1.9-1.4-3
		c0-1.1,0.8-2.1,1.9-2.5c1.2-0.4,2.7,0.1,3.8-0.7c0.6-0.4,0.9-1.2,1.5-1.5c1.4-0.8,3.6,0.6,4.5-0.7c0.3-0.4,0.3-0.9,0.3-1.4
		c0-3.2,0-6.5-0.1-9.7c0-0.9,0-1.9,0.7-2.5c0.6-0.5,1.5-0.5,2.2-0.5c1.4,0,2.8,0.1,4.2,0.1c0.5,0,1.1,0,1.5-0.4s0.4-0.9,0.4-1.4
		c0-5.3-3.6-10.4-8.6-12.2c-1.5-0.5-3.4-1-3.9-2.6c0.9,0,1.8,0.1,2.8,0.1c-2.4-2-2.7-5.5-3.3-8.6s-2.2-6.6-5.3-7
		c-0.9-0.1-1.9,0.1-2.8-0.2c-0.9-0.3-1.6-1.4-1.1-2.1c1.2,0.3,2.5-0.7,2.4-1.9c-0.1-1.6-2.2-2.7-2.1-4.3c0.2-1.7,2.5-2.1,4.2-1.9
		c0.2-4.8,0.1-9.6-0.3-14.4c-1.2,0.5-2.6-1.2-1.9-2.3c0.2-0.4,0.6-0.7,0.9-1.1c0.5-0.8,0.4-1.8,0.6-2.8s0.9-2,1.8-1.8
		c-0.9-3.6-1.2-7.3-0.9-11c0.9,0.8,2.6,0,2.9-1.2c0.3-1.2-0.2-2.5-0.8-3.6c-0.5-1.1-1.1-2.4-0.8-3.6c1.4,0,2.9-0.2,4.2-0.7
		c1.3-0.4,2.6-1.4,3.1-2.7c0.8-2.1-0.5-4.3-1.7-6.1c-2.9,1.7-6.2,2.6-9.5,2.5c-0.3,0-0.7,0-0.9-0.2s-0.4-0.4-0.5-0.7
		c-1.7-3.6-3.5-7.2-4-11.1c5.1-0.9,10.2-1.2,15.4-1.2c0.6-1.6,1.1-3.2,0.8-4.8s-1.7-3.2-3.3-3c-0.5,0.1-0.9,0.3-1.4,0.3
		s-1.1-0.1-1.2-0.6c-0.2-0.5,0.4-1.1,0.8-0.8c-0.4-1.4-1.5-2.5-2.9-2.8c1.1-0.4,2.1-0.8,3.3-0.8c1.1,0,2.3,0.7,2.7,1.7
		c0.2,0.5,0.1,1.1,0.3,1.6c0.7,1.9,3.7,1.3,5.2,2.7c0.8,0.7,1.6,1.9,2.5,1.3c0.7-0.5,0.2-1.6-0.5-2.1c-0.9-0.7-1.9-1.2-2.6-2.1
		c-0.7-0.9-0.8-2.4,0.2-3c0.4-0.3,1-0.2,1.5-0.5c0.5-0.2,0.7-0.9,0.3-1.2c-1.2,0-2.2-0.8-2.7-1.9c-0.5-1.1-0.6-2.2-0.6-3.4
		c-0.1-2.2-0.2-4.3-0.3-6.5c0.4,0.5,1.7,0,2.1-0.6s0.3-1.3,0.3-2c-0.4-5.7-0.7-11.4-1.1-17.1c1.3-0.8,2.6-1.7,3.9-2.5
		c0.5-0.3,1-0.7,1.3-1.2s0.3-1.2,0.3-1.8c-0.1-3.1-0.7-6.2-1.9-9.1c-0.8-2-1.9-3.9-2.5-6c-0.7-2.1-0.9-4.4,0.1-6.4
		c0.4-0.8,0.9-1.5,1.2-2.2c1.7-4.3-3.4-9.3-1.6-13.6c2.1,0,4.3-0.1,6.4-0.1c1.2,0,2.8-0.2,3.2-1.4c0.3-0.6,0.1-1.3,0.1-2
		c-0.3-2.8,1-5.6,1.8-8.3c0.7-2.5,0.9-5.1,1-7.7c0.3-5.7,0.2-11.3-0.4-17c-0.2-1.5-0.7-3.9,0.5-4.8c0.8-0.6,1.9-0.5,2.9-0.4
		c1.5,0.2,3,0.3,4.4,0.5c0.2-1.6,0.4-3.2,0.6-4.9c0.1-0.8,0.2-1.7,0.8-2.3c1-1.1,2.9-0.8,4.4-0.3c1.1-3.6-0.5-7.4-1.2-11.1
		c-0.8-4.2-0.2-8.7,1.5-12.6c0.4-0.9,0.9-1.8,1.1-2.8c0.3-1.1,0.4-2.2,0.5-3.3c0.2-3.1,0.3-6.4,1.9-9.1c0.6-1.1,1.5-2,2.1-3
		c2.3-3.4,2.9-7.9,5.7-10.9c0.6-0.7,1.4-1.2,1.9-2c0.6-1,0.8-2.2,1.3-3.3c1-2.2,3.2-4.1,2.6-6.4c-1.9,0-3.8,0-5.7,0
		c-0.5,0-1.1-0.3-0.9-0.7c1.5-2.5,1.8-5.7,2.2-8.7c0.2-1,0.1-2.4-0.9-2.7c-1.6-0.5-2.9,2.4-4.4,1.7c-1.1-0.5-0.7-2.1,0.1-2.9
		c0.8-0.8,2-1.4,2.4-2.5c0.3-0.9,0-2-0.2-2.9c-0.4-2.5,0.4-5.1-0.3-7.4c-0.8-2.6-3.3-4.8-2.9-7.5c0.2-1.1,0.7-2,1.2-3
		c0.8-2,0.9-4.3,0.9-6.5c0-1.9-0.1-4.1-1.6-5.2c-1-0.7-2.5-1-2.8-2.1c-0.2-0.7,0.1-1.4,0.1-2.1c0-1.8-1.8-3-3.6-3.2
		c-1.7-0.2-3.5,0.1-5.3-0.2c-1.1-0.2-2.4-1.3-1.8-2.3c3.1-5.8,2.8-12.9,4.1-19.3c0.7-3.6,1.5-7.2,1.3-10.8c-0.1-1.5-0.3-3-0.3-4.5
		c0.1-5.2,3.8-10.1,3-15.2c0-0.3-0.1-0.7-0.3-1c-0.8-1.1-2.5,0-3.8-0.2c-0.8-1.4-1.2-3-1.2-4.6c-4.9,0.3-9.8,0.7-14.7,1
		c-0.5,0-1,0.1-1.4-0.2c-0.6-0.4-0.7-1.2-0.7-1.9c-0.2-2.7-0.3-5.3-0.5-8c-0.1-2.1-0.7-4.8-2.8-5.2c-0.4-0.1-0.8-0.1-1.1-0.2
		c-2.9-0.8-1-6.5-3.8-7.5c-0.5-0.2-1.2-0.1-1.7-0.3c-1.5-0.4-2.4-1.9-2.6-3.4c-0.3-1.5-0.1-3-0.4-4.5c-0.1-0.5-0.2-0.9-0.6-1.2
		c-0.3-0.3-0.7-0.3-1.1-0.5c-1.5-0.8-1.8-2.8-1.9-4.4c-0.2-1.7-0.7-3.7-2.3-4.1c-1-0.2-2.4-0.9-2.5-1.9s0.9-1.9,0.7-2.8
		c-0.1-0.3-0.3-0.6-0.6-0.9c-1.2-1.4-2.5-2.8-3.7-4.2c0.2-0.6,0.9-0.8,1.5-0.7c0.6,0.1,1.1,0.4,1.7,0.7c1.5,0.6,3.3,0.6,4.8,0
		c-2.3-1.5-4.6-3-7-4.5c-1.9-1.2-4-2.7-4.3-5c-0.2-1.5,0.4-3,0.1-4.5c-0.3-1.7-1.7-3.6-0.7-4.9c0.7-0.9,2.3-1.2,2.4-2.3
		c0.1-1.1-1.3-1.7-1.5-2.7c-0.1-0.4,0-0.9,0.1-1.3c0.5-2,1.3-4.4,3.3-4.9c-0.9-1.4-2.6-2.1-4.3-2.7c-1.6-0.6-3.3-1.2-4.4-2.6
		c-1.1-1.4-1-3.7,0.6-4.5c0.2-2-1.2-3.9-2.7-5.3s-3.1-2.8-3.7-4.8c-0.1-0.4-0.2-0.9-0.5-1.3c-0.3-0.5-0.8-0.7-1.2-1.1
		c-1.1-0.9-1.7-2.4-1.5-3.8s1.2-2.7,2.5-3.2c0.9-0.3,1.9-0.3,2.6-0.9c0.9-0.9,0.5-2.5-0.1-3.7c-3.2-1-6.8-0.8-9.8,0.7
		c-1-3.3,1.8-6.3,3-9.5C810.3,308.3,810.2,305.7,809.2,303.4"/>
</g>
</svg>
