<?xml version="1.0" encoding="utf-8"?>
<!-- Generator: Adobe Illustrator 25.4.1, SVG Export Plug-In . SVG Version: 6.00 Build 0)  -->
<svg version="1.1" id="Capa_1" xmlns="http://www.w3.org/2000/svg" xmlns:xlink="http://www.w3.org/1999/xlink" x="0px" y="0px"
	 viewBox="0 0 1207.1 968.6" style="enable-background:new 0 0 1207.1 968.6;" xml:space="preserve">
<style type="text/css">
	.st0{fill:url(#SVGID_1_);}
	.st1{opacity:0.68;fill:#E29471;stroke:#FF742E;stroke-width:2;stroke-miterlimit:10;enable-background:new    ;}
	.st2{fill:#C83A02;}
	.st3{opacity:0.68;fill:#E2B971;stroke:#E78900;stroke-width:2;stroke-miterlimit:10;enable-background:new    ;}
	.st4{opacity:0.68;fill:#F4DDB5;stroke:#D0B000;stroke-width:2;stroke-miterlimit:10;enable-background:new    ;}
	.st5{opacity:0.68;fill:#F4DDB5;enable-background:new    ;}
</style>
<image style="overflow:visible;enable-background:new    ;" width="2036" height="1599" xlink:href="E2674A73.jpg"  transform="matrix(0.6057 0 0 0.6057 -12.9953 -0.2)">
</image>
<linearGradient id="SVGID_1_" gradientUnits="userSpaceOnUse" x1="0" y1="484.3973" x2="1207.1" y2="484.3973" gradientTransform="matrix(1 0 0 -1 0 968.3947)">
	<stop  offset="3.214890e-02" style="stop-color:#000000"/>
	<stop  offset="6.224116e-02" style="stop-color:#090908;stop-opacity:0.9354"/>
	<stop  offset="0.1275" style="stop-color:#141413;stop-opacity:0.7952"/>
	<stop  offset="0.2193" style="stop-color:#1B1B19;stop-opacity:0.5979"/>
	<stop  offset="0.4744" style="stop-color:#1D1D1B;stop-opacity:5.000000e-02"/>
	<stop  offset="0.75" style="stop-color:#1B1B19;stop-opacity:0.5664"/>
	<stop  offset="0.8637" style="stop-color:#141413;stop-opacity:0.7795"/>
	<stop  offset="0.9473" style="stop-color:#080807;stop-opacity:0.9361"/>
	<stop  offset="0.9814" style="stop-color:#000000"/>
</linearGradient>
<rect y="-16" class="st0" width="1207.1" height="1000"/>
<path class="st1" d="M833.1,126.4c0.9-1.8,1.5-3.2,3.8-3.2c0,2.3-3.5,7.7-0.5,9.7c8.8,5.9,31.3,9.6,40.5,8.1
	c0-11.1,15.1-23.3,18.9-8.1c8.2,0.6,16.8,0.2,19.4,8.1c4.3,0,5.8,6.9,6.5,10.3c2-1,5.2-1,7.6-1.6c0,3.3,1.3,5.8-0.5,8.6
	c2.1,1.4,2.4,2.4,1.6,4.9c3.4,0,1.8-0.2,4.9,0.5c0.7-2.6,0-1.6,1.6-3.2c8.1,4.1,21.6,4.8,16.7,14.6c3.3,3.3,3.2,4.2,8.6,5.4
	c-3.1-6.1,31.3-3.7,13,14.6c3.6,3.6,0.6,7.5,0,11.9c4.8,0,9.7-5.6,9.7-10.8c4.7-0.7,5.7-1,6.5,3.8c12.6,0-4.9,17.4-4.9,17.8
	c9.2,0,36.5,5.3,28.6,21.1c6.6,0.5,10.6,1.2,17.3,1.6c-0.1,2,0,4,0.5,5.9c5.5-0.8,6.7-0.5,11.3,1.1c0,2.9-2.4,2.4-4.9,2.2
	c-12.6-1-37.8,10.8-41-5.4c-2.3,0-2.7-1.5-2.7-3.8c-4.4-1.1-6.7-0.5-7.6-5.4h-1.1c0-1.8-1.1-1.6-2.7-2.2v-1.1
	c-4.2,2.1-3.4,2.7-8.6,2.7c-3.6,18-2.6,8.9-27.5,10.3c-1.7,0.1-3.2,1.6-4.9,1.6v-3.2c-3.2,0-8.7,4.7-4.9,7.6
	c2.8,2.1,11.3,1.3,12.4,4.9c2.5,8.2-6.7,5.6-5.4,11.9c-2.3,0.5-4.6,0.9-7,1.1c-0.3,3.5-0.3,3.5-0.5,7c3.3,0,9.6,0.9,7,5.9h1.1
	c0,4.5-0.4,4.7-3.8,8.1c2.1,1.1,2.1,3.4,1.1,5.4c2.9,0,4.3-0.8,4.3,2.2c-1.9,0.5-1.9,0.5-3.8,1.1c0.2,0.7,0.4,1.5,0.5,2.2
	c-5.8,0.7-8.8,3.8-13.5,3.8c-5.7,0-11.5-3.8-3.2-5.4c0-7.5-16.7,6.7-16.7,9.7c5.9,0,4.3,4.3,4.3,8.6c4.5,1.5,9.3,0.9,14,1.1
	c0,5.2-10.7-0.1-14.6,3.8c4.1,2,9.8,3.8,5.4,9.7c18.7,9.3-0.8,15.7-2.2,29.7c-4.6,0.7-10,6.9-13.5,1.6c1.8-0.9,2.5-2.1,4.3-2.7v-2.2
	c-2.6,0-2.9-1-5.4-1.6v-1.1c-3.1-0.6-2.3,0.3-3.2-1.6c0.6-0.3,1.1-0.7,1.6-1.1c-2-2-0.3-3.8,2.2-3.8c-6.3-0.6-3.6-0.9-8.1,0
	c-1.2,10.9-16.8,8.2-20.5,19.4c-3.8,0-3.2-1.3-6.5-2.2c-1.1,3.4,8.2,19.9,8.6,25.9c2.6,0,7,4.4,8.1,6.5c-3.3,0-2-0.5-4.3,1.1
	c20.1,10,24.6-5.3,30.8,19.4c-0.9,0.3-1.6,0.9-2.2,1.6c1,1.4,9.7,4.5,12.4,5.4c0,1.6-0.1,0.7,0.5,2.7c-22.5-4.5-3.2,13.5-17.3,13.5
	c-2.2,13.5-7.2,10.2-5.9,7.6c-0.9,0.2-1.8,0.4-2.7,0.5c4.7,2.4,4,8.5,0.5,11.9h3.8c2.1,12.7,1.4,13.7-7.6,22.7
	c7,0,7.5,14.8,21.1,16.2c0,6.2-7.8,7-12.4,7c-1.4,5.5-7,10.5-7,16.2c7.9,1,8.7,9.5,1.6,11.9c5.7,2.9,6.7,2.3,7.6,9.2
	c-1.9,0.3-1.9,0.3-3.8,0.5c-0.6,6.8,5.4,14.5,5.4,14.6c-0.6,3-21.8,3.1-23.8,3.8s0,20.1,0,21.6c0,12.3-8.6,5.6-8.6,11.9
	c7.2,2.4,3.8,13-3.8,9.2c-1.5,1.5-3.5,3.9-5.4,4.9c4.4,0,17.3-1.4,17.8,4.3c2.1,23.2-19.3,5.8-22.1,12.4c-2.4,5.7-7.2,11.4-9.2,17.3
	c0,0,7.8,4.3,2.7,5.4c-3.5,0.8-7.8-2.1-11.3-3.2v-1.6c-2.5,1.3-4.9,1.1-7,3.2c0.2,0.3,0.4,0.7,0.5,1.1c-7.5,7.5-2.2,16.2-10.8,24.8
	c4.3,8.7,21.6,8.1,29.2,8.1c1.6,4.7,3.5,6.7,4.3,11.9c12.6,1.8-8.4,19,0,22.7c14.8,6.6,20.6,16.8,38.9,18.4c0-4.3-0.4-2.6,0.5-5.4
	c3.8,0,8.4,3.8,10.3,7.6c-0.7,0.4-1.3,1.1-2.2,1.1c-6.5,0-13-0.7-19.4-0.5c-2.6,0.1,0.2,5.7-1.6,7.6c6.6,0.4,23.5-1,18.9,8.1
	c13,0,6.8,11.2-1.1,15.1c3.3,9.8,5.1,0.5,11.3,0.5c0.2,1.7-0.2,3.4-1.1,4.9c0.3,0.2,0.7,0.4,1.1,0.5c2.1-1.9,4.8-3,7.6-3.2
	c0,2-0.2,2.4-1.6,3.8c6.5,1.9,14.6,5.9,14.6,13c1.9,0.3,1.9,0.3,3.8,0.5c2.8-5.5,9.7-9.1,13-16.7c0.3-0.5,0.6-0.8,1.1-1.1
	c1.9-1.4,6.8,1.8,9.2,1.6c8.4-0.8,13.9-8.9,27.5-9.7c-0.3-0.2-0.7-0.4-1.1-0.5c0.8-0.3,24.9-6.5,25.4-6.5c-2.5-5,5.9-12.4,11.3-12.4
	c-0.4-1.5-0.9-2.9-1.6-4.3c6.8-0.6,13-2.5,20-3.2v-1.1h-1.1c1.8-3.6,10.6-3,13.5-3.2c0,2.2,0.5,3.2,1.1,5.4
	c-2.5,1.7-0.8,2.9-2.7,4.9c0.8,1.6,1.9,2.7,2.7,4.3c-2.8,2.8-6.8,1.2-10.3,2.7c-8.7,3.9-2.8,9.5-18.4,7.6v-1.1
	c-2.5,0-1.1,0.1-4.3-0.5v-1.1c-15,0,1.2,9.1-1.6,18.9c-0.2,0.7-1,3.7-2.2,3.8c-4.8,0.4-40,5.1-40-4.3c-7.5,0-1.2,9.7-4.9,11.9
	c-5.8,3.5-13.1,0-18.9,0c-4.7,0-3.2,8.6-7.6,9.7c-6.6,1.6-21.2,0.8-25.4,6.5c-1.5,2.1,3.2,13.5,0,14c-10.7,1.9-13.7-1.9-23.8,4.9
	c7.4,0,12,10.8,4.3,11.9c-8.1,1.2-11.3-0.5-19.4-0.5c-2.2,15.1-47.2,17-48.6,24.3c-0.8,4,2.6,10.6,3.2,14.6
	c-20.2,6.8-9.4-8.1-15.1-8.1V860c-3,1-6,1.5-8.6,3.2c0.9,3.6-5.8,5.9-9.2,5.9c0.2-0.3,0.4-0.7,0.5-1.1h-1.1v-1.1
	c-2.7,0-4.7,1.1-7.6,1.1c3.9-5.8,15.5-3.7,18.4-8.1c2.3-3.4-2.8-7.2-1.6-10.8h-1.1c0-13.7-27.5,12.1-31.9-1.1
	c-4.3-12.9,9.7-4.4,10.8-10.3c1.9-9.9-1.4-13,8.1-16.2c-4.6-13.9,20-0.9,22.7,4.3c5-2.5,2-5.8,11.9-10.3c2.5-1.1,0.5-5.4,0.5-8.1
	c-2.2,0-5-5.7-7.6-4.9c-1.2,0.4-9.2,9.3-9.2,1.6c-1.6,0-0.7,0.1-2.7-0.5v-1.1c-2.2,0-3.6,2.8-4.9,4.3c-1.9-1-3.9-1.9-5.9-2.7V803
	c-4.3,0-7.9-8.1-12.4-9.2c0-2.7,2.2-2.7,2.2-4.9h2.7c0-3.4,0.2-5.2,1.6-8.1c-5.2,4.4-6,9.2-13,9.2c0-1.8,0.8-3.2,2.7-3.2v-1.1
	c-1.9,1-0.7,0.6-3.8,0c-0.1-1.7,1.1-3.1,2.8-3.2c0.1,0,0.3,0,0.4,0v-1.1c-2.4,0-6.3,1.4-7.6-1.1c3.4-0.9,3.7-2.3,2.2-5.4
	c2.9-1.4,0.7-0.5,7-1.1v-2.2c-3.5-0.6-4,0-4.9-3.2c0.7-0.2,1.5-0.4,2.2-0.5v-1.6c-2-0.5-3.3-0.8-4.3-2.7c1.3-1.3,0.6-1.1,2.2-1.1
	c0-2.8,1.3-7.3-0.5-9.2c2.3-3.8,1.9-7.7,2.7-11.9c0.6-3.5,10.4-3.1,5.9-7.6c3.9-7.8-6.6-21.1,5.9-21.1V710c-3.9-0.7-2.6,0.4-4.3-2.2
	c1.3-1.3,0.6-1.1,2.2-1.1c-1.3-3.9-3.7-1.5-2.7-6.5h-1.1c1.6-3.2,0.6-0.7,0-8.1c2.2-0.3,2.2-0.3,4.3-0.5c-1-3.9-0.6-1.4,0-7.6
	c-5.4-1.8,2.2-23.8,1.1-30.2h-1.1c0.2-0.3,0.4-0.7,0.5-1.1c-2.2-1.1,0.1-3.8-2.7-3.8c0.2-0.5,0.4-1.1,0.5-1.6
	c-0.3-0.2-0.7-0.4-1.1-0.5c0.7-2.9-0.2-2,2.7-2.7c0-2.7,0-0.7-0.5-5.9h-1.1c0-2-0.2-1.1,0.5-2.7h-1.1c0.2-0.7,0.4-1.5,0.5-2.2
	c0.2,0.3,0.4,0.7,0.5,1.1c0-7.6,1.7-4.3,8.1-6.5c-3.4-10.1,7.3-28.3,3.8-38.9c1.7-0.9,0.7-0.4,3.2-1.1v-1.1c2.5-0.6,1.8,0.1,2.7-1.6
	c-0.5-0.2-1.1-0.4-1.6-0.5c0.8-2.5,1.2-2.3,3.8-1.6c-0.9-0.5-1.8-0.8-2.7-1.1c0-3.5,3.7-3.4,6.5-2.7v-1.1h-1.1c1.2-3.5,0.6-1,0-7.6
	h-1.1c0-3.8-0.8-2.5,1.1-4.3c-0.2-0.3-0.4-0.7-0.5-1.1c1.3-1.3,2.2-9.6,1.6-11.9c4.9-2.5,4.3-11.1,5.4-15.7
	c1.7-6.7,8.9-11.5,11.3-18.9c-9.2-3.1-6.2-7.5-2.7-14.6c-2.6-1.3-8.7-7.5-2.2-10.8c-2-4-3.3-8.2-5.4-12.4c3.6-3.6,1.2-8,2.2-13
	c-1.9-0.3-1.9-0.3-3.8-0.5c0-2.6,0.5-4.9,0.5-7.6c-9.6-0.6-6.4,0.8-10.3-1.1c1.7-2.6,2.6-10,1.6-13c2.5-1.2,1.5-3.8,5.4-3.8v-4.3
	h-3.2c0-1.8,0.8-3.8,0-5.4c3.2-1.6,1.1-0.1,1.1-7.6h-1.1c1.1-2.2,0-3.8,3.2-3.8c-2.3-4.5-2.1-6.5-1.6-13c-3.4,0-2-3.4-3.2-5.9
	c1.4-0.7,1.1-0.1,1.1-1.6c-4.7,0-10,0.8-14.6,1.1c-0.9-4.7-4.4-8.4-5.9-13h-1.1c0.2-0.3,0.4-0.7,0.5-1.1c-1.7-1.7-1-0.6-1.6-3.8
	h-1.1c0-2.9-0.6-3.8,2.7-5.4c-0.8-1.6-0.1-1.1-2.2-1.1c0.2-0.3,0.4-0.7,0.5-1.1c-1.5,0.8-1.1,1.6-1.6,3.2c-3-0.3-3-0.3-5.9-0.5
	c-0.6-3.6-1-2.3,0-4.3h-1.1c0.2-0.7,0.4-1.5,0.5-2.2h-1.6c0.3-0.2,0.7-0.4,1.1-0.5c-4.2-1.4-4.3-7.6-4.3-11.3h-1.1v-1.1h-2.2
	c0.9-1.9,1.5-3.5,2.2-5.4h-4.9v-1.1c2.4-0.3,2.4-0.3,4.9-0.5c0-4-7.6-8.2-9.2-13h-1.1c1-2.1,0.1-1,3.8-1.6c-0.9-0.2-1.8-0.4-2.7-0.5
	c0.2-0.3,0.4-0.7,0.5-1.1c-2-0.7-1.4,0-2.2-1.6c3.1-1.6,2.7-3.6,6.5-4.3v-2.2h-2.7c0-3.1-0.4-1.9,0.5-3.8c-2.5-0.6-1.8,0.1-2.7-1.6
	l1.1-1.1c-1.5-3.1-4.6-3.1-6.5-5.9c0.7-0.2,1.5-0.4,2.2-0.5v-1.1h-1.1c0-7.1-10.3-11.7-7-18.4c-1.9-1-1-0.1-1.6-3.2
	c3.8-1.9,3.2-0.9,3.2-6.5c-2.2,0-0.7-0.1-4.3,0.5v-1.1c-1.6,1.6-2,1.6-4.3,1.6c0-7.1,9.1-19.1,7-25.4c-8.2,0,3.1-8.1,7-8.1v-1.1
	h-1.6c0-5.8,18.2-4.8,19.4-4.9v-1.6h-1.1c-1-3-4.5-3.7-5.4-5.4c-0.5-1.1,15.4-9.2,17.3-9.2c0.2-0.7,0.4-1.5,0.5-2.2
	c-4.2,2.1-10.5,3.2-15.1,3.8c5.4-8.1,14.3-7.6,21.1-7.6c-0.2-0.3-0.4-0.7-0.5-1.1c3.5,0,1.4,3.8,4.9,3.8v-3.2
	c-3.1,0-2.3-19.8-1.6-24.8c-0.5,0-26.2,4-22.7-6.5H782c0-17.5-16.3,5.1-20-2.2c-1.4-2.8,3.2-3.9,3.2-5.9c-2,0-4.9,0.9-4.9-1.6
	c-4.4,0-4.3-4.3-4.3-7.6c-2.1,0,1.3-12.3,2.7-13c-0.6-2.6-0.9-1.5,0-3.2h-1.6c0-1.5-0.7-2.8-1.1-4.3h-4.9v-1.1H750
	c0.2-0.3,0.4-0.7,0.5-1.1h-1.1V149h-1.1c1.2-2.4,2.7-5.5,2.7-8.6h-1.1v-1.1c-2.3,1.7-21.6,15.6-23.2,12.4c-1.8-3.7,1.3-3.4,0-5.9
	l1.1-1.1c-0.2-0.3-0.4-0.7-0.5-1.1c1.7-0.9,1.1-0.1,1.1-2.7h-1.1c0-8-0.7-25.4,11.9-25.4v-2.7c-0.7-0.2-1.5-0.4-2.2-0.5
	c0-14.7,21.3-1.5,29.2,1.1c4.2-16.7,28.1,3.3,28.1-5.4c8.7-1,29.1-11.4,34,3.2C831,116.5,827,123.4,833.1,126.4z"/>
<g id="Layer_4">
	<path class="st2" d="M871.3,386.6c-0.3-1.9-0.8-3.8-1.4-5.6c-1.3-3.1-3.2-5.9-5.5-8.3c-2.5-2.7-6.1-4.4-8.6-7.2
		c-1.8-2-1.2-4.5-1.4-6.9c-0.2-1.5-0.8-3-1.6-4.3c-0.2-0.4-1.5-2.8-2.3-2.3c-0.3,0.1-0.3,1.7-0.4,1.9c-0.1,1-0.2,6.3-0.9,6.6
		c-0.7,0.3-2.3-1.6-2.7-2c-0.9-1.1-1.9-2.1-3-3c-2-1.3-4.4-2.3-6.1-3.9s-1.3-4.9-1.1-6.9c0.4-4.6,1-9.2,0-13.8c-0.3-1.8-1-3.5-2.1-5
		c-0.4-0.4-0.6-1.4-1.2-1.2c-0.4,0.1-0.3,3.5-0.4,4c-0.2,2.4-1.1,4.9-1.1,7.4c0,1.5,0.1,3,0.1,4.5c0,0.6,0.2,2.6-1,1.5
		c-0.5-0.8-0.9-1.7-1.1-2.6c-0.9-2.5-1.6-5.1-2.1-7.7c-0.7-3.4-2.6-6.7-2.8-10.2c-0.2-4.3,1-8.5,0.4-12.8c-1-7.7-5.9-14.2-10-20.6
		c-1-1.6-1.9-3.2-2.5-5c-0.7-2.1-0.8-4.4-2-6.4c-0.2-0.4-1.7-3-2.1-2.8c-0.1,0.6-0.2,1.1-0.2,1.7c-0.4,2-0.6,4.1-0.7,6.1
		c0.1,5.3,4.1,8.4,6.5,12.7c1.5,2.7,2,5.8,3.1,8.7c0.2,0.9,0.5,1.9,0.8,2.8c0.6,1.2,1.3,1.7,1.4,3.1c0.3,3.8-1,7.5-0.4,11.3
		c0.5,2.8,1.1,5.5,2,8.2c1.9,7.4,4.5,14.4,8.8,20.8c2.1,3.1,5.1,5.3,7.7,7.9c0.9,0.9,1.3,2.2,2.2,3.1c0.7,0.7,1.4,1.3,2.2,1.8
		c3.3,2.3,8.7,2.5,11.4,5.5c1,1.1,1.7,2.4,2.8,3.4s2.4,1.9,3.6,2.9c2.1,1.8,4.1,3.8,5.9,5.9c0.6,0.8,1,1.6,1.6,2.4
		c0.9,1.3,2.1,2.3,2.7,3.7c0,0,0.6,1.6,0.8,1.5C871,387.4,871.3,387,871.3,386.6z"/>
	<path class="st2" d="M809.1,273.7c-0.1-0.1-0.4-0.2-0.5,0c-0.2,0.6-0.2,1.1-0.2,1.7c-0.1,0.7-0.2,1.4-0.3,2
		c-0.3,1.8-0.4,3.6-0.3,5.4c0.7,4.8,4.7,8,6.8,12.1c0.7,1.6,1.4,3.4,1.8,5.1c0.3,1.1,0.8,2.3,1.1,3.4c0.2,0.6,0.3,1.3,0.5,1.9
		c0.3,0.9,1,1.6,1.3,2.4c0.2,0.8,0.3,1.7,0.3,2.5c0,1.4-0.2,2.8-0.4,4.2c-0.2,1.3-0.2,2.5-0.2,3.8c0.1,1.3,0.2,2.7,0.5,4
		c0.4,2,1,4.1,1.5,6.1c1,4,2.3,7.8,3.9,11.6c1.4,3.5,3.2,6.8,5.4,9.9c2,2.7,4.8,4.8,7.2,7.1c0.6,0.8,1.2,1.7,1.7,2.6
		c0.9,1,1.9,1.8,3.1,2.5c0.4,0.2,0.8,0.4,1.2,0.5c-1.3-0.6-2.4-1.4-3.5-2.3c-1.1-1-1.5-2.4-2.5-3.4c-2.4-2.4-5.1-4.4-7.1-7.1
		c-1.5-2-2.8-4.2-3.8-6.5c-2.1-4.5-3.9-9.3-5.2-14.1c-0.9-2.8-1.6-5.6-2.1-8.4c-0.3-2.1-0.3-4.3,0-6.4c0.3-1.9,0.4-3.8,0.3-5.7
		c0-0.4-0.1-0.8-0.3-1.2c-0.3-0.7-0.8-1.3-1.1-2c-0.4-0.9-0.5-1.9-0.8-2.8c-0.4-1.2-0.8-2.4-1.1-3.7c-0.4-1.8-1.1-3.5-1.9-5.1
		c-1.9-3.2-4.8-6-6-9.6c-0.8-2.3-0.5-4.7-0.1-7.1c0.1-0.8,0.3-1.7,0.4-2.5c0-0.3,0-0.5,0.1-0.8c0-0.1,0-0.2,0.1-0.3h0.1
		c0,0,0.1,0.1,0.1,0c0.1,0.1,0.2,0.3,0.3,0.4c0.2,0.2,0.3,0.4,0.4,0.6c0.6,0.8,1.1,1.7,1.5,2.6c0.6,1.6,1,3.2,1.3,4.8
		c0.4,1.4,1,2.7,1.7,4c0.9,1.6,2,3.2,3,4.8c2.6,4,5.2,8.1,6.8,12.7c0.7,2.2,1.2,4.5,1.2,6.8c0.1,3.6-0.7,7.1-0.5,10.6
		c0.1,1.5,0.4,3,0.9,4.4c0.5,1.7,1.2,3.3,1.7,5.1c0.7,2.7,1.1,5.4,2,8c0.2,0.3,0.3,0.7,0.4,1c0.3,0.8,0.6,2.5,1.6,2.8
		c0.4,0.1,0.6-0.2,0.7-0.6c0.1-0.7,0.1-1.5,0-2.2v-0.8c0-1.4-0.1-2.8,0-4.2c0.2-2.1,0.8-4,1-6.1V326c0-0.4,0-0.8,0.1-1.2v-0.4h0.1
		c0.2,0,0.3,0.3,0.3,0.4c0.2,0.3,0.4,0.7,0.7,1c1.1,1.7,1.8,3.7,2,5.7c0.7,4.2,0.1,8.4-0.3,12.6c-0.2,2-0.5,4.9,0.8,6.7
		c0.7,0.8,1.4,1.4,2.3,2c1.2,0.8,2.5,1.4,3.7,2.1c1.3,0.9,2.4,2.1,3.4,3.3c0.6,0.6,1.2,1.2,1.9,1.7c0.3,0.2,0.6,0.4,1,0.4
		c0.7-0.1,0.8-1.4,0.8-1.9c0.2-1.6,0.2-3.2,0.3-4.9c0-0.5,0.1-1,0.2-1.5c0-0.2,0-0.4,0.3-0.3c0.3,0.2,0.6,0.5,0.8,0.8
		c0.5,0.7,0.9,1.4,1.3,2.1c0.6,1.1,1,2.3,1.2,3.5c0.2,2-0.2,4.1,0.8,5.9c0.7,1.2,1.7,2.2,2.8,3c2.2,1.8,4.6,3.2,6.5,5.3
		c2.3,2.4,4.1,5.2,5.4,8.2c0.2,0.6,0.4,1.2,0.6,1.8c0.3,1.2,0.6,2.5,0.8,3.7c0,0.1,0.1,0.1,0.2,0.1l0.1-0.1v0.3h0.1
		c0.2,0,0.3-0.2,0.2-0.3c-1.1-4.7-0.6-3.2-1.1-4.7c-1.5-4.3-4.1-8.1-7.6-11c-1.8-1.5-3.8-2.7-5.5-4.3c-1-0.8-1.8-1.8-2.3-3
		c-0.5-1.7-0.2-3.6-0.4-5.4c-0.3-1.5-0.8-2.9-1.7-4.2c-0.4-0.7-0.8-1.4-1.4-1.9c-0.2-0.2-0.6-0.4-0.9-0.4c-0.8,0-0.8,1.4-0.8,2
		c0,1.7-0.2,3.4-0.4,5.1c0,0.2-0.1,0.4-0.1,0.6s-0.1,0.8-0.3,0.9s-0.6-0.3-0.6-0.3s-0.2-0.1-0.2-0.2c-0.7-0.6-1.4-1.3-2-2
		c-0.7-0.9-1.6-1.8-2.5-2.5c-1.3-0.9-2.8-1.6-4.2-2.5c-0.7-0.4-1.3-0.9-1.9-1.4c-0.6-0.7-1-1.6-1-2.5c-0.1-1.8-0.1-3.6,0.2-5.4
		c0.4-4.5,0.8-9.1-0.3-13.6c-0.3-1.2-0.7-2.4-1.4-3.5l-0.6-0.9c-0.3-0.4-0.4-1-0.9-1.2c-0.9-0.3-0.8,1.6-0.9,2.1v1.7
		c-0.1,1.8-0.4,3.6-0.9,5.3c-0.2,1.3-0.2,2.7-0.2,4v3.1c0,0.5,0.3,2.2-0.6,1.3c-0.5-0.8-0.9-1.7-1.1-2.6c-0.8-2.3-1.4-4.7-1.9-7.1
		c-0.2-1.1-0.5-2.2-0.9-3.2c-0.8-2.5-1.9-5-2-7.6c-0.1-2.1,0.2-4.2,0.3-6.4c0.2-2.1,0.2-4.3,0-6.4c-0.3-1.9-0.7-3.8-1.4-5.6
		c-1.8-4.9-4.8-9.1-7.5-13.5c-1.4-2-2.6-4.2-3.5-6.5c-0.5-1.4-0.7-2.9-1.1-4.3c-0.6-1.6-1.3-3-2.3-4.4
		C809.4,274.1,809.3,273.8,809.1,273.7z M871.3,386.9l-0.1-0.1c-0.2,0.2-0.5,0.5-0.6,0.3c0,0.1,0.1,0.2,0.1,0.3
		C870.9,387.6,871.3,387.1,871.3,386.9z M870.5,387.1c-0.3-0.7-0.6-1.3-1-1.9c0.2,0.3,0.4,0.7,0.5,1.1
		C870.2,386.6,870.3,386.8,870.5,387.1z M869.6,385.2c-0.3-0.5-0.7-1.1-1.2-1.5c-0.5-0.6-1-1.2-1.5-1.9c0.2,0.2,0.3,0.5,0.5,0.7
		C868.2,383.3,868.9,384.2,869.6,385.2L869.6,385.2z M867,381.8c-0.3-0.6-0.6-1.1-1-1.6c-0.2-0.2-0.4-0.4-0.5-0.6
		C866,380.3,866.5,381,867,381.8L867,381.8z M865.4,379.6c-0.1-0.1-0.1-0.2-0.2-0.3c-0.8-1-1.7-1.9-2.6-2.8
		C863.6,377.5,864.5,378.5,865.4,379.6L865.4,379.6z M843.6,362.9c0.1,0,0.1,0.1,0.2,0.1s0.2,0,0.2,0.1
		C843.9,363,843.7,362.9,843.6,362.9L843.6,362.9z M844,363c1.5,0.7,3.2,1.2,4.7,1.8C847.2,364.3,845.6,363.7,844,363L844,363z
		 M849.6,365.2c1.1,0.4,2.1,1,3,1.7c-0.4-0.3-0.8-0.7-1.2-1C850.8,365.6,850.2,365.4,849.6,365.2L849.6,365.2z M852.6,366.9
		c0.2,0.1,0.4,0.2,0.5,0.4c0-0.1,0-0.1-0.1-0.1C852.9,367.1,852.7,367,852.6,366.9L852.6,366.9z M853.1,367.3c1.1,1.1,1.9,2.6,3,3.7
		s2.4,1.9,3.6,2.9c-0.2-0.2-0.4-0.4-0.6-0.5c-1-0.7-2-1.5-3-2.4c-1-1.1-1.8-2.3-2.8-3.4C853.3,367.4,853.2,367.4,853.1,367.3
		L853.1,367.3z"/>
	<path class="st2" d="M839.1,359.4c1.4,1.4,2.8,2.7,4.3,3.9c0.5,0.5,1.1,1,1.7,1.4c0.7,0.2,1.4,0.5,2.1,0.8c1.4,0.9,2.5,2.3,3.9,3.2
		s2.2,1.8,4.1,1.7c0.2,0,0.3,0.1,0.5,0c0.4-0.2,0-0.9,0-1.1c-0.4-1.2-1.6-2.1-2.4-3.1c-0.8-0.9-1.7-1.8-2.7-2.6
		c-1.4-1.1-3.1-1.6-4.7-2.5s-2.9-2.3-4.8-3"/>
	<path class="st2" d="M841.1,358c0,0-1.3,0.8-0.9,0.6c0.5-0.4,1.2-0.2,1.8-0.2c0.3,0,0.5,0.3,0.8,0.5c0.2,0.2,0.5,0.4,0.8,0.5
		c1,0.7,2,1.3,3.1,1.9c-1.3-0.7-2.6-1.6-3.8-2.5c-0.3-0.2-0.5-0.5-0.8-0.5C841.3,358.4,841.1,358,841.1,358z M840,358.8
		c0.3-0.2-0.3,0.2-0.6,0.5c0.1,0.1,0.2,0.2,0.3,0.2C839.7,359.2,839.8,359,840,358.8L840,358.8z M839.6,359.5
		c-0.1,0.3-0.1,0.6-0.1,0.9s0.5,0.5,0.7,0.7l2.2,1.9c0.7,0.7,1.4,1.3,2.2,1.8c0.9,0.5,1.9,0.6,2.8,1.2s1.5,1.3,2.2,1.9
		s1.5,1.2,2.4,1.7c0.5,0.3,1,0.6,1.6,0.8c0.4,0.1,0.8,0.2,1.2,0.2h0.4c0.2,0,0.4,0.1,0.5,0c0.5-0.3,0.2-0.9,0-1.3
		c-0.5-1-1.1-1.9-2-2.6c-0.7-0.8-1.4-1.5-2.2-2.3c-0.5-0.5-1.1-1-1.7-1.3c-1-0.6-2.1-1-3.2-1.6c0.3,0.1,0.6,0.3,0.8,0.5
		c1,0.4,1.9,0.9,2.7,1.5s1.5,1.3,2.1,2c0.3,0.3,0.6,0.6,0.8,0.9c1,0.9,1.8,1.9,2.4,3.1c0.1,0.2,0.4,0.8,0.1,1h-1.2
		c-0.4,0-0.7-0.1-1-0.3c-0.4-0.2-0.8-0.5-1.2-0.7c-0.6-0.4-1.2-0.8-1.7-1.2c-0.9-0.9-1.9-1.7-2.9-2.5c-0.3-0.3-0.7-0.5-1.1-0.6
		c-0.6-0.2-1.1-0.4-1.7-0.6c-0.5-0.4-1-0.8-1.4-1.2c-0.5-0.4-1-0.8-1.5-1.2c-0.5-0.4-1-0.8-1.5-1.2c-0.2-0.2-0.6-0.4-0.7-0.7
		C839.9,359.6,839.8,359.6,839.6,359.5z M839.3,359.3L839.3,359.3c-0.2-0.2-0.4-0.2-0.5-0.1s-0.1,0.3,0,0.4
		C838.9,359.5,839.1,359.4,839.3,359.3L839.3,359.3z"/>
	<path class="st2" d="M853.4,369.7c2.1,1.7,4.4,2.6,6.5,4.5c0.9,0.8,1.8,1.5,2.7,2.4c0.2,0.2,0.7,0.7,1,0.4c0.3-0.3-0.2-0.7-0.3-0.8
		c-0.7-0.8-1.3-1.7-1.9-2.5c-1.1-1.6-2.4-3.1-4-4.3c-2.1-1.7-3.5-2.4-4.8-3.8"/>
	<path class="st2" d="M852.6,365.6c0.2,0.6,0.4,1.3,0.5,1.9c-0.2-0.5-0.2-1.1-0.2-1.6C852.8,366.5,852.6,365.6,852.6,365.6z
		 M853,366c0-0.1,0.2,0.2,0.3,0.3s0.5,0.4,0.7,0.6c0.6,0.5,1.3,1,2,1.5c2.1,1.5,3.9,3.3,5.3,5.4c0.4,0.6,0.8,1.2,1.2,1.7
		c0.2,0.3,0.4,0.5,0.6,0.8c0.1,0.1,0.6,0.5,0.2,0.6c-0.1,0-0.1,0-0.2-0.1c-0.5-0.4-0.9-0.8-1.3-1.2c-0.2-0.1-0.3-0.3-0.5-0.4
		s-0.3-0.3-0.5-0.4s-0.3-0.3-0.4-0.4c-0.8-0.8-1.7-1.5-2.6-2.1s-1.8-1.1-2.7-1.7c-0.2-0.1-0.4-0.2-0.5-0.4c-0.2-0.1-0.4-0.2-0.5-0.4
		c-0.4-0.7,0,0-0.5-0.4h-0.1l0.3,0.9c0.1,0.2,0.4,0.3,0.5,0.4c0.4,0.3,0.7,0.5,1.1,0.7c1.5,0.9,2.9,1.8,4.3,2.9
		c0.8,0.6,1.5,1.3,2.3,2c0.3,0.2,0.6,0.6,0.9,0.8s1,0,0.9-0.5c-0.1-0.2-0.3-0.4-0.4-0.6c-0.2-0.3-0.4-0.6-0.7-0.8
		c-0.2-0.3-0.4-0.6-0.7-0.9l-1.8-2.4c-1-1.2-2.1-2.2-3.3-3.1l-3-2.1c-0.2-0.2-0.5-0.4-0.7-0.6C853.2,366.2,853,365.8,853,366
		L853,366z M853.5,369.5c-0.2-0.6-0.4-1.1-0.6-1.7c-0.1-0.5,0.1,0.5,0.3,1.8C853.3,369.5,853.4,369.5,853.5,369.5L853.5,369.5z"/>
	<path class="st2" d="M873.6,454.5c0.1,0.6,0.8,3.3,1.9,3c0.9-0.3,0.6-1.9,0.6-2.6c0-1.7,0.7-3.3,0.8-4.9c0.1-0.9,0-1.9-0.1-2.8
		c-0.2-4.5-3.8-6.9-5.5-10.7c-0.4-1.3-0.6-2.7-0.6-4.1c-0.3-4.8,2-9.3,3.9-13.5c1.7-4.2,2.4-8.7,2.1-13.2c-0.4-3.9-0.7-7.9-2.5-11.5
		c-0.2-0.5-1.7-3-2.4-2.5c-0.1,1.2-0.2,2.3-0.1,3.5c-0.2,4.3,1.4,8.4,1.2,12.7c-0.2,1.5-0.5,3-0.9,4.5c-0.5,3.1-1.3,6.1-2.4,9
		c-0.5,0.9-1,1.7-1.6,2.5c-1.1,1.9-1.8,4.1-1.8,6.4c0,2.4,0.2,5.6,1.2,7.8c0.7,1.4,1.7,2.8,2.7,4c0.6,0.5,1.2,1.1,1.8,1.7
		c0.6,0.9,1,1.9,1.4,2.9C874.2,449.2,873.2,452,873.6,454.5z"/>
	<path class="st2" d="M872,391.4c-0.6,0.1-0.5,1.5-0.5,1.9v1.9c0,1.4,0.1,2.8,0.3,4.2c0.3,2.1,0.8,4.2,1,6.3v2.1
		c-0.2,1.5-0.5,3-0.9,4.5c-0.5,2.3-0.9,4.6-1.6,6.8c-0.3,0.8-0.5,1.7-0.8,2.5s-1.1,1.5-1.5,2.2c-1,1.8-1.5,3.8-1.7,5.8
		c0.1-2,0.8-4,1.8-5.7c0.6-0.7,1.1-1.4,1.5-2.2c0.4-0.8,0.7-1.6,0.9-2.5c0.7-2.2,1.2-4.5,1.7-6.8c0.4-1.5,0.7-3,0.9-4.5v-2.1
		c-0.2-2.5-0.8-4.9-1-7.4c-0.1-1.7-0.2-3.4-0.1-5.1v-1.1c0-0.4,0.1-0.8,0.5-0.4c0.1,0.1,0.2,0.1,0.2,0.2c0.8,0.9,1.4,1.9,1.9,3
		c0.8,2.1,1.4,4.3,1.6,6.6c0.3,2,0.5,4,0.5,6c0,3.1-0.5,6.1-1.5,9c-0.6,1.8-1.4,3.5-2.1,5.2c-1.3,3.1-2.5,6.4-2.5,9.8
		c-0.1,1.5,0.1,3,0.5,4.5c0.3,0.8,0.7,1.5,1.2,2.2c1,1.5,2.2,2.9,3.1,4.5c0.9,1.4,1.3,3,1.4,4.7c0.1,1.3,0.1,2.6-0.2,3.9
		c-0.3,0.9-0.4,1.9-0.5,2.9v1.6c0,0.4,0,1.1-0.5,1.1c-0.3,0-0.5-0.2-0.6-0.4c-0.4-0.5,0,0-0.9-2.3c0-0.1-0.2-0.2-0.3-0.2V454l0,0
		c-0.2,0-0.3,0.2-0.2,0.3v0.1c0,0.2,0.1,0.5,0.2,0.7c0,0.1,0.1,0.2,0.1,0.4c0.3,0.8,0.9,2.3,2,2c1.3-0.3,0.8-2.3,0.8-3.3
		c0.1-1.5,0.6-3,0.8-4.5c0.1-0.8,0-1.6-0.1-2.4c0-0.5-0.1-1.1-0.2-1.6c-0.5-2.8-2.3-4.8-3.9-7.1c-0.7-0.9-1.2-1.9-1.7-2.9
		c-0.3-0.8-0.4-1.6-0.4-2.4c-0.2-2,0-4,0.4-6c0.8-3.4,2.5-6.5,3.7-9.8c1.1-2.9,1.7-6,1.8-9.1c0-2.1-0.1-4.1-0.4-6.2
		c-0.2-2.6-0.8-5.2-1.8-7.6c-0.4-1-1-2-1.7-2.9C872.8,391.8,872.5,391.4,872,391.4z M873.6,454.2L873.6,454.2v-2.8
		c-0.1,0.6-0.1,1.2-0.1,1.8C873.5,453.5,873.5,453.9,873.6,454.2L873.6,454.2z M866.3,429.9c0,0.4-0.1,0.7-0.1,1.1
		c0,2.4,0.4,4.9,1.2,7.2c0.4,0.7,0.8,1.4,1.3,2.1s1,1.3,1.5,1.9c0.4,0.4,0.8,0.7,1.2,1.1l-0.9-0.9c-0.5-0.4-0.9-0.9-1.2-1.4
		c-0.7-0.9-1.3-1.8-1.8-2.8c-0.7-1.9-1-3.9-1.1-5.9C866.3,431.5,866.3,430.7,866.3,429.9L866.3,429.9z M871.7,443.6
		c0.5,0.5,0.8,1.1,1,1.7c0.4,0.8,0.6,1.6,0.8,2.5c-0.2-0.9-0.4-1.7-0.8-2.5c-0.2-0.5-0.5-1-0.8-1.4
		C871.9,443.7,871.8,443.7,871.7,443.6z M873.5,447.8c0,0.2,0.1,0.3,0.1,0.5v-0.2C873.6,448,873.5,447.9,873.5,447.8L873.5,447.8z
		 M873.6,448.2c0.1,1,0.1,2,0,3c0.1-0.9,0.1-1.7,0.1-2.6C873.7,448.5,873.6,448.4,873.6,448.2L873.6,448.2z"/>
	<path class="st2" d="M875.8,469.7c0.1,2.1,0.2,5.8,0.9,7.8c0.5,1.1,1,2.2,1.3,3.3c0,0.9,0,1.9,0,2.8c0.1,0.9,0.8,3.7,2,3.5
		c0.7-0.1,0.8-1.2,1-1.7c0.8-2.7,1-5.6,0.6-8.4c-0.3-0.8-0.7-1.6-1.1-2.4c-0.3-1.2-0.5-2.4-0.4-3.6c0.1-0.7,0.2-1.3,0.5-1.9
		c0.4-1.1,0.5-2.4,0.8-3.5c0.5-1.8,1.2-4.1,0.5-6c-0.2-0.4-1.5-3.6-2.3-2.9c-0.2,0.5-0.2,1.1-0.2,1.6c0,1.3-0.3,2.7-0.8,3.9
		C877.4,464.7,875.6,466.7,875.8,469.7z"/>
	<path class="st2" d="M879.7,456.7c-0.4,0.2-0.3,0.9-0.4,1.3c-0.1,1-0.1,2.1-0.3,3.1c-0.5,1.9-1.8,3.5-2.5,5.4v0.2
		c0-0.1,0-0.1,0.1-0.2c0.8-1.8,2.1-3.4,2.6-5.3c0.2-0.9,0.3-1.8,0.4-2.6c0-0.5,0-1,0.2-1.5c0.2-0.4,0.7,0.2,0.9,0.3
		c1,1.3,1.6,2.9,1.7,4.5c-0.1,1.5-0.4,3-0.9,4.5c-0.2,0.8-0.3,1.6-0.5,2.4s-0.5,1.4-0.7,2.1c-0.2,1-0.1,2.1,0.1,3.1
		c0.2,1.1,1,2,1.3,3c0.4,1.3,0.5,2.7,0.3,4c-0.1,1-0.2,2.1-0.4,3.1c-0.2,0.8-0.5,1.7-0.8,2.5c-0.1,0.3-0.4,0.7-0.8,0.5
		c-0.5-0.4-0.9-1-1-1.6c-0.3-0.7-0.4-1.4-0.5-2.2c0-0.6,0.1-1.3,0.1-1.9c-0.2-1.1-0.6-2.3-1.1-3.3c-0.2-0.5-0.4-1.1-0.5-1.6
		c-0.4-1.6,0,0-0.6-6.7c0-0.1-0.1-0.2-0.2-0.2v-0.1c-0.1,0-0.3,0.1-0.3,0.2c0,0,0,0,0,0.1c0.1,1.2,0,0.7,0.1,1.1
		c0,0.7,0.1,1.4,0.1,2.1c0.1,1.6,0.3,3.2,0.7,4.7c0.3,0.9,0.9,1.8,1.2,2.7c0.2,1,0.2,1.9,0.1,2.9c0,0.5,0.1,1,0.2,1.5
		c0.2,0.9,0.6,1.7,1.2,2.4c0.4,0.4,1.1,0.4,1.5-0.1c0.1-0.1,0.2-0.2,0.2-0.3c0.2-0.4,0.3-0.8,0.4-1.2c0.5-1.5,0.7-3.1,0.8-4.7
		c0.1-1.3,0-2.6-0.3-3.8c-0.3-0.8-0.7-1.6-1.1-2.4c-0.3-0.7-0.4-1.5-0.4-2.3c0-0.6,0-1.2,0.1-1.8l0.6-1.8c0.2-1,0.4-2,0.6-2.9
		c0.3-1.1,0.6-2.3,0.7-3.5c0.1-1.7-0.5-3.4-1.5-4.8C880.6,457.1,880.1,456.5,879.7,456.7z M875.8,469.4L875.8,469.4
		c0.1-0.2,0.4-2,0.6-2.8c-0.3,0.6-0.5,1.3-0.5,2C875.8,468.9,875.8,469.1,875.8,469.4z"/>
	<path class="st2" d="M889.5,513.4c-0.6-0.8-1.1-1.8-1.3-2.8c-0.5-1.3-1.5-2.2-1.6-3.7c-0.2-1.3,0.8-2.6,0.8-3.9
		c0.1-2.2-0.2-4.4-0.7-6.5c-0.1-0.8-0.2-1.5-0.3-2.3c-1.1-1.7-2.5-3.1-4.2-4.2c-0.9-0.4-2.6,0.1-2.3,1.4c0.5,1.8,2.1,3.3,2.5,5.2
		c0.1,0.7,0.2,1.5,0.1,2.2c0.2,0.8,0.4,1.5,0.6,2.3c0.2,1.8-0.1,3.8,0,5.7c0.1,0.8,0.3,1.7,0.5,2.5c0,1.3,0.2,2.6,0.5,3.8
		c0.2,0.5,0.5,0.9,0.9,1.3c0.5,0.7,0.9,1.5,1.1,2.4c0.4,0.8,0.6,1.6,0.8,2.4c0,0.5-0.4,1-0.2,1.5c0.5,1.3,2.2-0.1,2.6-0.8
		C890.5,518.3,890.7,514.9,889.5,513.4z"/>
	<path class="st2" d="M880.8,489.9c-0.5,0.2-1,0.5-1,1.1c0.1,0.8,0.3,1.6,0.8,2.3c0.7,1.2,1.7,2.3,1.9,3.7c0.1,0.7,0,1.3,0.1,2
		c0.1,0.9,0.5,1.7,0.6,2.6c0.1,1.7-0.1,3.5,0,5.2c0.1,0.8,0.3,1.7,0.5,2.5c0,1.1,0.2,2.1,0.4,3.2c0.2,0.7,0.6,1.4,1.1,1.9
		c0.4,0.6,0.7,1.3,1,2c0.4,0.9,0.8,1.8,0.9,2.8c0,0.7-0.6,1.3,0.1,1.9c0.7,0.6,1.5-0.2,2.1-0.9c-0.5,0.5-1.6,1.5-2.1,0.8
		s0.1-1.1,0-1.8c0-0.5-0.2-1-0.4-1.4c-0.3-1-0.7-2-1.2-3c-0.3-0.5-0.8-0.9-1.1-1.4c-0.1-0.2-0.2-0.6-0.3-0.8c-0.2-1-0.2-2.2-0.3-3.2
		c-0.1-0.7-0.3-1.4-0.4-2.1c-0.1-0.5-0.1-0.9-0.1-1.4c0.2-1.7,0.2-3.5,0-5.2c-0.1-0.6-0.4-1.1-0.5-1.7c0-0.5,0-1.1,0-1.6
		c0-0.6-0.2-1.2-0.4-1.7c-0.5-1.2-1.4-2.2-1.9-3.4c-0.4-0.9-0.6-1.7,0.5-2c0.2,0,0.3-0.1,0.5-0.1s0.3,0,0.5,0.1
		c0.9,0.2,1.8,1.3,2.5,1.9s1.7,1.6,1.8,2.6c0,0.6,0.1,1.3,0.2,1.9c0.6,2.1,0.8,4.2,0.6,6.4c-0.1,1.3-0.9,2.3-0.9,3.6
		c0.2,1.3,0.6,2.5,1.4,3.5l1.7,3.4c0.1,0.1,0.1,0.1,0.2,0l0,0v-0.2c0.1,0.1,0.1,0.1,0.1,0.2l0,0c0.1-0.1,0.2-0.3,0.1-0.4
		c-0.7-1.3-0.5-0.8-0.7-1.2c-0.3-0.7-0.6-1.4-0.9-2.1c-0.6-0.9-1-1.9-1.3-3c0-0.9,0.2-1.7,0.6-2.5c0.1-0.5,0.2-0.9,0.3-1.4
		c0.1-1.8-0.1-3.7-0.5-5.5l-0.3-1.2c0-0.8-0.1-1.5-0.3-2.3c-0.6-1-1.3-1.9-2.2-2.7c-0.6-0.6-1.3-1.1-2-1.5
		C882,489.7,881.4,489.7,880.8,489.9z M889.6,513.6L889.6,513.6c0,0.3,0.7,4.3,0,5.9c0.6-1.3,0.8-2.7,0.6-4.1c0-0.2-0.1-0.4-0.1-0.6
		C890.1,514.4,889.9,514,889.6,513.6L889.6,513.6z M889.6,519.5l-0.3,0.6l0.3-0.3V519.5z M889.3,520.1c0,0.1-0.1,0.1-0.2,0.2
		C889.1,520.2,889.2,520.2,889.3,520.1z"/>
	<path class="st2" d="M878.4,541.8c-0.1-1.1-0.4-2.2-1-3.2c-0.5-0.7-0.9-1.5-1.2-2.3c-0.1-0.9-0.1-1.8,0-2.7c0-1-0.1-2.1-0.1-3.1
		c0-2.3-0.6-4.5-0.2-6.8c0.2-1.1,0.5-2.1,1.1-3c0.9-0.7,1.6-1.6,2.1-2.6c0.9-2.8,1.1-5.9,0.6-8.8c-0.1-1.2-0.3-2.3-0.7-3.4
		c-1.2-2-2.8-3.7-4.8-5c-0.7-0.5-1.8-1.4-2.7-1.3c-0.6,0.1-0.6,0.9-0.4,1.3c0.5,1.2,1.5,2.1,2,3.4s1.5,2.3,2.1,3.6s0.5,3.1,0.9,4.6
		c0.8,2.9-3.1,6.1-4.2,8.7c-1.1,2.8-0.5,5.8-0.2,8.7c0,0.7,0,1.4-0.1,2.1c0.4,3.3,1.6,6.5,3.5,9.2c0.4,0.5,2.1,3.6,3,2.7
		C878.5,543.3,878.6,542.5,878.4,541.8z"/>
	<path class="st2" d="M871.7,499.4c-0.2,0-0.3,0.1-0.5,0.2c-0.5,0.5,0,1.4,0.3,1.9c0,0.1,0.1,0.2,0.2,0.3c0.1,0.2,0.2,0.3,0.3,0.5
		c0.3,0.5,0.6,0.9,0.9,1.4s0.5,1,0.8,1.5c0.7,0.9,1.3,1.9,1.7,3s0.4,2.3,0.7,3.5l0.3,1.5c-0.1,1.2-0.5,2.3-1.2,3.3
		c-1.1,1.5-2.1,3.1-3,4.7c-1.2,2.7-0.4,5.9-0.2,8.7c0,0.6-0.1,1.2-0.1,1.7c0,0.7,0.1,1.4,0.3,2c0.2,0.8,0.4,1.6,0.7,2.4
		c0.3,0.8,0.6,1.6,1,2.3c0.5,1,1.1,2,1.7,3l1.2,1.8c0.2,0.2,0.6,0.8,1,0.9c-0.4-0.2-0.7-0.5-1-0.9c-0.4-0.6-0.8-1.2-1.2-1.8
		c-1.9-2.7-3.1-5.9-3.5-9.2c0-0.6,0.1-1.2,0.1-1.7c0-0.4,0-0.7-0.1-1.1c-0.3-2.6-0.8-5.5,0.3-7.9c0.9-2,2.4-3.5,3.5-5.4
		c0.7-1,0.9-2.2,0.7-3.4c-0.2-1.4-0.4-2.8-0.8-4.2c-0.4-1-0.9-1.9-1.5-2.8c-0.3-0.6-0.6-1.2-0.9-1.8c-0.2-0.4-0.4-0.7-0.7-1.1
		c-0.1-0.2-0.2-0.3-0.3-0.5s-0.2-0.3-0.3-0.5c0-0.1-0.1-0.2-0.1-0.3c-0.1-0.3-0.5-1.3,0.1-1.3c0.9,0.1,1.7,0.5,2.4,1.1
		c0.4,0.2,0.8,0.5,1.1,0.8c1.2,1,2.2,2.1,3.1,3.4c0.3,0.4,0.6,0.8,0.8,1.3c0.2,0.7,0.3,1.5,0.4,2.2c0.1,1,0.2,2,0.3,2.9
		c0.1,1.7,0,3.5-0.4,5.2c-0.1,0.6-0.4,1.2-0.7,1.8c-0.6,0.7-1.2,1.4-1.9,2.1c-0.4,0.5-0.7,1.2-0.9,1.8c-0.7,2.3-0.2,4.7-0.1,7.1
		c0.1,1.4,0.1,2.8,0.1,4.2c-0.1,0.9-0.1,1.9,0,2.8c0.3,1.2,1.2,2.1,1.7,3.3c0.1,0.3,0,0,0.5,2.1c0,0.1,0.1,0.3,0.2,0.3
		c0,0,0,0,0.1,0l0,0c0.2,0,0.3-0.1,0.3-0.3c-0.3-1.7-0.2-1.2-0.3-1.7c-0.2-0.6-0.4-1.1-0.7-1.6c-0.4-0.6-0.7-1.2-1-1.8
		c-0.2-0.8-0.3-1.7-0.1-2.6V533c0-1.1,0-2.2-0.1-3.2s-0.2-2.3-0.3-3.4c-0.2-1.7,0.1-3.3,0.9-4.8c0.3-0.4,0.6-0.8,1-1.1
		c0.6-0.5,1.1-1.2,1.4-1.9c1-3,1.2-6.1,0.6-9.2c0-1.1-0.3-2.3-0.7-3.3c-0.9-1.5-2-2.9-3.4-4c-0.5-0.4-1-0.8-1.6-1.2
		C873.5,500,872.7,499.4,871.7,499.4z M878.5,542.1c0.1,0.4,0.1,0.8,0,1.2C878.5,542.9,878.5,542.5,878.5,542.1z M878.5,543.3
		c0,0.2-0.1,0.4-0.3,0.5C878.4,543.7,878.5,543.5,878.5,543.3L878.5,543.3z M878.2,543.8c-0.1,0.1-0.3,0.2-0.5,0.1
		C877.9,543.9,878,543.9,878.2,543.8z"/>
	<path class="st2" d="M891.6,553.9c-0.7-0.6-1.7-5.5-1.9-6.5c-0.4-1.2-0.9-2.3-1.7-3.3c-0.3-0.7-0.7-1.3-1.1-1.9
		c-0.5-0.4-0.9-0.9-1.3-1.4c-0.4-0.8,0.1-1.8,0.1-2.6c0-0.9-0.2-1.8-0.4-2.6c-0.6-1.6-1.6-3-2.9-4.1c-0.2-0.2-0.6-0.8-1.1-0.4
		c-0.5,0.4-0.2,1.9-0.1,2.4c0.4,1.7,1.8,3.3,1.9,5.1c0.2,2.2-1.3,4.4-0.6,6.6c0.7,2.2,2.3,3.5,3.6,5.2c0.8,1.2,1.5,2.4,2.1,3.7
		c0.6,1.1,1.5,5.3,2.8,5.6c0.8,0.2,1-0.7,1.1-1.2C892.3,557.3,892.6,554.8,891.6,553.9z"/>
	<path class="st2" d="M881.4,530.9c-0.8,0.2-0.6,1.4-0.5,2c0.3,2.1,1.8,3.8,2.1,5.8c0.1,1.1-0.1,2.2-0.5,3.2
		c-0.4,1.2-0.3,2.6,0.1,3.8c0.8,1.8,2.2,3.1,3.4,4.7c0.9,1.2,1.6,2.5,2.2,3.8s0.9,2.8,1.6,4.1c0.1,0.1,0.2,0.2,0.2,0.3
		c-0.2-0.3-0.3-0.7-0.4-1c-0.5-1.1-0.8-2.3-1.2-3.4c-0.2-0.6-0.5-1.1-0.8-1.6c-0.6-1.2-1.3-2.3-2.1-3.3c-1.2-1.6-3-3.3-3.1-5.4
		c-0.1-1.8,1.1-3.7,0.8-5.5c-0.3-2.1-1.8-3.8-2.1-5.8C881,532.2,880.9,531.2,881.4,530.9c0.2,0,0.5,0.5,0.7,0.6s0.2,0.2,0.3,0.2
		l0.3,0.3c1,1,1.8,2.2,2.2,3.5c0.3,0.8,0.4,1.6,0.4,2.5c0,0.8-0.5,1.7-0.2,2.5s1.3,1.4,1.8,2.3c0.2,0.5,0.4,0.9,0.7,1.3
		c0.5,0.8,1,1.5,1.4,2.3c0.3,0.9,0.6,1.9,0.7,2.9c0.3,1.2,0.6,2.5,1,3.7l0.5,1c0.1,0.1,0.2,0,0.3,0v-0.2l0.2,0.2
		c0.1-0.1,0.1-0.3,0-0.4c-0.4-0.8-0.3-0.5-0.4-0.8c-0.3-0.7-0.5-1.5-0.7-2.2c-0.2-0.9-0.4-1.7-0.6-2.6c-0.1-0.9-0.5-1.8-0.9-2.6
		c-0.4-0.6-0.8-1.2-1.2-1.9c-0.2-0.5-0.4-0.9-0.7-1.3c-0.5-0.6-1.3-1.1-1.6-1.8s0.2-1.6,0.2-2.3c0.1-1-0.2-2.1-0.6-3
		c-0.6-1.5-1.6-2.7-2.9-3.7C882.1,531.1,881.8,530.9,881.4,530.9z M891.8,554.2h-0.2c0.3,1.3,0.5,2.6,0.5,3.9
		c0.1-0.8,0.2-1.6,0.2-2.4C892.2,555.3,892.1,554.4,891.8,554.2z M892.1,558.1v0.6c-0.1,0.6-0.5,1.6-1.3,0.9
		c-0.3-0.2-0.5-0.5-0.6-0.8c0.1,0.3,0.3,0.6,0.6,0.8c0.9,0.7,1.3-0.4,1.4-1.1C892.1,558.5,892.1,558.2,892.1,558.1z"/>
	<path class="st2" d="M879.6,555.4c-0.6,0.8-0.4,4.2,0.1,5.1c2.1,4.4,4.5,8.6,6.7,12.9c0.6,1,1.2,1.9,2,2.7c1.3,1.7,2.5,3.5,3.9,5.1
		c0.4,0.5,0.6,0.4,1,1s0.3,1.4,0.5,2.1c0.3,1.3,1,2.5,2,3.3c2.7,1.6,5.3,3.6,8.2,5.1c0.6,0.3,1.8,1.3,2.4,0.5s-0.7-2.1-1.2-2.7
		c-1.8-2.2-4.1-3.7-6.1-5.7c-1-1-1.2-2.6-1.8-3.9c-0.9-1.8-2.1-3.2-3.1-4.9c-0.6-1.2-1.2-2.3-1.9-3.4c-0.5-0.6-1.2-0.8-1.6-1.4
		c-0.8-1.1-1.2-2.5-2.1-3.5c-1.4-1.6-3.2-2.3-4.2-4.3c-0.5-1-1.3-2.2-1.7-3.2c-0.2-0.9-0.4-1.7-0.6-2.6c-0.1-0.4-0.5-1.9-1-2
		C880.6,555.1,879.9,555,879.6,555.4z"/>
	<path class="st2" d="M879.8,555.2c-0.1-0.1-0.3,0-0.4,0.1s0,0.1-0.1,0.1c-0.1,0.2-0.2,0.4-0.2,0.6c-0.1,0.4-0.1,0.8-0.1,1.2
		c0,1.1,0.1,2.2,0.3,3.2c0.3,0.8,0.8,1.7,1.2,2.5c0.2,0.3,0.4,0.7,0.5,1.1c0.4,0.7,0.8,1.4,1.1,2.2c0.9,1.8,1.9,3.6,2.8,5.3
		c0.6,1,1.1,2.1,1.8,3.1s1.4,1.7,2,2.6c0.9,1.1,1.7,2.3,2.6,3.4c0.3,0.3,0.6,0.7,0.9,1c0.3,0.2,0.6,0.4,0.8,0.7
		c0.4,0.5,0.3,1.1,0.4,1.6c0.2,0.8,0.5,1.5,0.9,2.2c0.7,1,1.6,1.8,2.7,2.3c0.7,0.4,1.3,0.9,2,1.3c1.1,0.7,2.2,1.5,3.4,2.2
		c0.6,0.3,1.2,0.6,1.7,1c0.5,0.3,1.5,1,2.1,0.4c1.1-0.9-0.5-2.4-1.1-3.1l-0.5-0.5l-0.5-0.5c-1.2-1.1-2.4-2.2-3.7-3.2
		c-0.6-0.5-1.2-1.1-1.8-1.7c-0.8-1-1-2.4-1.6-3.6c-0.7-1.5-1.8-2.7-2.6-4.1c-0.8-1.4-1.5-2.9-2.4-4.2c-0.5-0.7-1.3-1-1.8-1.7
		c-0.7-1-1.1-2.3-1.9-3.3s-2-1.7-3-2.7c0.8,0.8,1.8,1.5,2.6,2.3c0.8,0.9,1.4,1.9,1.9,3c0.2,0.4,0.5,0.8,0.8,1.2
		c0.4,0.4,0.9,0.6,1.3,1c0.3,0.4,0.6,0.8,0.8,1.2c0.6,1,1.1,2.1,1.7,3.1c0.9,1.1,1.6,2.3,2.3,3.6s0.9,3,1.8,4.1
		c0.4,0.5,0.8,0.9,1.3,1.2c0.8,0.8,1.7,1.5,2.6,2.3c0.4,0.3,0.7,0.6,1,0.9c0.4,0.3,0.7,0.6,1,1c0.7,0.6,1.3,1.4,1.7,2.2
		c0.1,0.3,0,0.7-0.2,1c-0.5,0.4-1.6-0.4-2-0.7c-1.9-1-3.7-2.2-5.4-3.4c-0.7-0.4-1.3-0.9-2-1.3c-0.8-0.4-1.4-1.1-1.9-1.8
		c-0.4-0.6-0.7-1.4-0.8-2.1c0-0.6-0.2-1.3-0.5-1.8c-0.2-0.3-0.5-0.6-0.8-0.8c-0.3-0.3-0.6-0.7-0.9-1c-0.9-1.1-1.7-2.3-2.6-3.4
		c-0.7-0.9-1.4-1.7-2-2.6c-0.8-1.3-1.6-2.7-2.2-4.1c-1-1.8-1.9-3.6-2.8-5.4c-0.5-1.1-1.1-2.2-1.6-3.2c-0.4-0.6-0.6-1.3-0.8-2
		c-0.1-0.9,0,0,0.2-3.8V555.2h-0.2C879.7,555.3,879.8,555.3,879.8,555.2L879.8,555.2L879.8,555.2z M879.8,555.3c0,0.1,0,0.1,0.1,0.2
		c0.6,0.1,1.2,0.3,1.8,0.6c-0.1-0.3-0.2-0.5-0.4-0.7C881.1,555.2,880,555,879.8,555.3z M881.6,556.1
		C881.7,556.1,881.7,556.2,881.6,556.1c0.4,1.1,0.5,2.2,0.8,3.3c0.2,0.5,0.4,1,0.7,1.5s0.6,1.1,0.9,1.6c0.2,0.5,0.5,1,0.8,1.4
		c0.2,0.3,0.4,0.5,0.7,0.7c-0.8-1-1.6-2-2.1-3.2c-0.5-0.7-0.9-1.5-1.1-2.4C882.3,558,882,557,881.6,556.1L881.6,556.1z"/>
	<path class="st2" d="M851,674.1c-0.9-2,2.3-7.3,3.3-9.5c0.1-0.3,0.7-1.2,0.8-1.5c0-0.8-0.2-1.6-0.6-2.4c-0.2-0.9-0.4-1.8-0.7-2.7
		s-1-1.5-1.3-2.4c-0.6-1.3-0.9-2.6-1-4c0-1.1,0.5-2.3,0.3-3.4c-0.2-1.1-0.8-1.9-0.6-3.1c0.2-0.9,0.8-1.6,1-2.5
		c0.5-2.4,1.5-5.5,3.2-7.3c1-1.1,2.4-1.6,3.5-2.6c2.6-2.1,5.3-4.1,8.1-6c1-0.5,2-1.1,2.9-1.8c0.5-0.4,0.8-0.9,1.3-1.3
		c0.8-0.6,1.7-0.8,2.5-1.3c1.4-0.9,2.7-1.8,4-2.8c2.1-1.6,5.5-4.6,6.8-7c0.5-1,0.5-2.1,1.1-3.1c2-3,5.9-5.2,6.8-8.9
		c0.2-0.9,1.2-6.2,0.8-6.8c-0.6-0.9-2.4,0.6-2.8,1.1c-0.5,0.8-0.5,1.7-1,2.5c-0.8,1.4-1.8,2.6-2.7,4c-0.6,1.1-1.2,2.2-2,3.2
		c-1,1.1-2.3,1.9-3.3,3.1c-0.7,0.9-0.9,2.2-1.5,3.3c-1.3,2.4-3,4.5-5.1,6.3c-4.1,3.4-9.5,4.8-13.8,7.8c-0.8,0.4-1.5,0.9-2.2,1.5
		c-1.3,1.2-2.4,2.8-3.9,3.7c-0.5,0.2-1,0.4-1.5,0.6c-0.2,0.1-0.5,0.6-0.7,0.4c0-0.8,0.1-1.6,0.2-2.4c0-2.1,0.2-5.1-0.6-7.1
		c-1.2-2.7-2.7-5.3-4.4-7.7c-0.7-1-1.7-1.5-2.4-2.4c-0.8-1.3-1.3-2.7-1.5-4.2c0.1-0.7,0-1.3-0.1-2c-0.1-0.2-0.9-1.3-1-1.5
		c-0.3-0.9-0.4-1.9-0.5-2.9c-0.3-1.6-0.4-3.3-0.8-4.9c-0.3-0.6-0.5-1.2-0.6-1.9c0-0.6-0.1-1.2-0.2-1.8c-0.1-0.3-1.7-3-1.7-3
		c-0.4,0-0.6,1.6-0.6,1.6c-0.3,2,0.2,4-0.1,6c-0.4,2.4-0.6,4.8-0.4,7.2c0.1,1.1,0.8,2,1.1,3.1c0.3,1.4,0.7,2.9,1.3,4.2
		c1.3,2.4,3.3,4.5,4.8,6.7c0.7,0.8,1.3,1.8,1.7,2.8c0.4,1.3,0,2.7,0.2,4c0.4,4.3,0.5,8.5,0.3,12.8c-0.1,1.8,1.1,4.2,0.5,5.9
		c-0.3,0.8-0.9,1.4-1.2,2.2c-0.3,1.2-0.4,2.3-0.5,3.5c-0.1,0.8-0.5,1.7-0.6,2.5c-0.2,1.9,0.1,3.8,0.7,5.6c0.3,0.9,1.1,1.3,1.5,2.2
		c0.2,0.7,0.3,1.5,0.3,2.3c0.1,1.7-0.1,3.5-0.5,5.2c-0.5,1.4-1.5,2.5-1.9,4c-0.8,3.2-0.3,6.5-0.3,9.7"/>
	<path class="st2" d="M839.3,589.6c-0.5,0.3-0.6,1.7-0.6,2.2c-0.2,1.8,0.2,3.7,0,5.5c-0.3,2-0.5,4-0.5,6c0,0.5,0,1,0.1,1.5
		c0.3,1,0.7,1.9,1.1,2.8c0.3,1,0.4,1.9,0.7,2.9c0.2,0.7,0.5,1.4,0.9,2c1.4,2.1,2.9,4.2,4.5,6.1c0.8,1.1,1.7,2.1,1.8,3.5
		c0.1,1.1,0,2.2,0.1,3.4c0.2,2.8,0.4,5.7,0.4,8.5c0,1.5-0.1,3-0.1,4.5s0.8,3.2,0.7,4.8c-0.1,1.3-1,2-1.4,3.1
		c-0.3,1.2-0.4,2.3-0.5,3.5c-0.1,0.7-0.4,1.4-0.5,2.1c-0.1,0.4-0.1,0.9-0.1,1.3c0.1,0.8,0.2,1.5,0.3,2.3c-0.2-1.1-0.3-2.1-0.2-3.2
		c0.1-0.8,0.4-1.6,0.6-2.5c0.1-1.2,0.2-2.4,0.5-3.5c0.4-1.2,1.3-1.9,1.4-3.2c0.1-1.6-0.7-3.2-0.7-4.8s0.1-3,0.1-4.5
		c0-2.8-0.2-5.7-0.5-8.5c0.1-1.2,0-2.5-0.1-3.7c-0.5-1.4-1.2-2.6-2.2-3.7c-1.1-1.5-2.3-2.9-3.3-4.4c-0.7-0.9-1.3-2-1.7-3.1
		c-0.3-1.1-0.5-2.3-0.9-3.4c-0.4-0.8-0.8-1.6-0.9-2.5c-0.1-1.6-0.1-3.2,0.1-4.8c0.1-1.1,0.3-2.3,0.4-3.4c0.1-1.5-0.2-3,0-4.5
		c0-0.5,0.1-1,0.3-1.5c0-0.2,0.1-0.3,0.2-0.4c0.1-0.1,0.2-0.1,0.1-0.1s0.2,0.2,0.1,0.2c0.1,0.2,0.2,0.3,0.3,0.5
		c0.3,0.5,0.5,0.9,0.8,1.4c0.3,0.4,0.4,0.8,0.5,1.2c0,0.7,0.1,1.5,0.3,2.2c0.1,0.4,0.3,0.8,0.4,1.2c0.2,1.1,0.4,2.2,0.5,3.3l0.3,2.1
		c0.1,0.6,0.1,1.2,0.2,1.8c0.1,0.5,0.4,1.1,0.7,1.5c0.1,0.2,0.4,0.5,0.5,0.7c0.1,0.7,0.1,1.3,0.1,2c0.2,1.3,0.6,2.5,1.2,3.7
		c0.6,1.1,1.8,1.7,2.6,2.7c0.8,1.1,1.5,2.2,2.2,3.3c0.9,1.5,1.7,3,2.4,4.6c0.8,2,0.6,4.3,0.6,6.4c0,0.8-0.1,1.6-0.2,2.4
		c0,0.2-0.2,0.8,0.2,0.8s0.6-0.5,0.9-0.6c0.7-0.3,1.4-0.6,2-1c1.5-1.2,2.6-2.9,4.2-4c1.9-1.2,3.8-2.3,5.8-3.3
		c3.6-1.8,7.4-3.3,10.3-6.1c1.6-1.6,3-3.4,4.1-5.4c0.4-1,0.8-2,1.3-3c0.5-0.6,1.1-1.2,1.7-1.7c0.8-0.6,1.5-1.3,2.1-2.1
		s1-1.8,1.6-2.7c1-1.3,1.9-2.6,2.7-4c0.3-0.8,0.6-1.5,0.8-2.3c0.4-0.7,1-1.2,1.7-1.4c0.1,0,0.7-0.2,0.8,0c0.1,1.1,0.1,2.1-0.1,3.2
		c-0.3,2-0.6,4.2-1.8,5.9c-1.5,2.1-3.5,3.7-5.1,5.6c-0.5,0.5-0.8,1.1-1.1,1.8c-0.1,0.7-0.4,1.4-0.7,2c-1,1.6-2.2,3.1-3.7,4.3
		c-2.1,2-4.5,3.8-7,5.3c-0.7,0.5-1.6,0.7-2.3,1.2s-1.2,1.2-1.9,1.8c-0.6,0.5-1.3,0.9-2,1.2c-1.1,0.7-2.2,1.5-3.3,2.2
		c-1.4,1-2.7,2-4,3c-0.6,0.6-1.2,1.1-1.9,1.5c-1,0.5-1.9,1.2-2.7,1.9c-1.5,1.6-2.6,3.6-3.1,5.8c-0.2,0.8-0.4,1.5-0.6,2.3
		c-0.4,0.8-0.8,1.8-0.9,2.7c0,1.1,0.7,2,0.7,3.1s-0.4,1.9-0.4,2.9c0,0.8,0.2,1.6,0.4,2.4c0.2,0.7,0.4,1.4,0.8,2.1
		c0.3,0.6,0.7,1.1,1,1.8c0.3,0.9,0.6,1.8,0.7,2.8c0.2,0.7,0.7,1.4,0.6,2.1c-0.1,0.3-0.2,0.6-0.3,0.9c-0.3,0.6-0.6,1.1-0.9,1.7
		c-1.1,1.8-2,3.7-2.7,5.7c-0.4,1-0.5,2.1-0.2,3.1c0,0.2,0.2,0.2,0.4,0.2s0.2-0.2,0.2-0.4c-0.3-1-0.1-2.2,0.4-3.1
		c0.8-2,1.8-3.9,2.8-5.8c0.4-0.7,0.8-1.4,1-2.2c-0.1-0.8-0.3-1.6-0.6-2.3c-0.2-1-0.5-2-0.8-2.9c-0.3-0.6-0.7-1.2-1-1.8
		s-0.5-1.3-0.7-2s-0.4-1.5-0.4-2.3c0.1-1,0.2-1.9,0.4-2.9c0-0.5-0.1-0.9-0.2-1.4c-0.3-0.5-0.4-1.1-0.5-1.7c0-1.1,0.7-2,1-3
		c0.7-2.6,1.3-5.5,3.4-7.5c1.1-0.8,2.2-1.6,3.3-2.3c2.6-2.1,5.3-4.1,8-6c0.8-0.5,1.7-0.9,2.5-1.5s1.2-1.3,1.9-1.8s1.5-0.7,2.3-1.2
		c2.6-1.5,4.9-3.3,7.1-5.4c1.5-1.3,2.7-2.8,3.7-4.5c0.3-0.7,0.5-1.4,0.7-2.1c0.2-0.6,0.6-1.2,1-1.7c1.7-2.1,3.9-3.7,5.4-6
		c0.9-1.8,1.4-3.7,1.6-5.7c0.2-1.1,0.3-2.3,0.1-3.4c-0.2-0.6-1.1-0.5-1.5-0.3c-1,0.4-1.7,1.2-2,2.2c-0.2,0.6-0.4,1.1-0.6,1.7
		c-0.8,1.4-1.7,2.7-2.7,3.9c-0.7,1-1.2,2.2-2,3.2c-1,1.2-2.3,2-3.3,3.1c-0.5,0.9-0.9,1.8-1.2,2.8c-0.7,1.4-1.5,2.7-2.5,3.9
		c-3.1,4-7.6,5.9-12,8.1c-1.4,0.7-2.8,1.5-4.1,2.3c-0.8,0.5-1.7,1-2.5,1.6c-0.6,0.5-1.1,1-1.6,1.6c-0.8,1.1-1.8,2-3,2.6
		c-0.5,0.1-0.9,0.4-1.3,0.7l-0.1,0.1l0,0v-0.2c0-0.3,0-0.5,0.1-0.8c0.1-0.8,0.1-1.6,0.1-2.4c0.2-2.2-0.1-4.5-0.9-6.6
		c-0.8-1.8-1.8-3.5-2.9-5.2c-0.5-0.7-0.9-1.4-1.4-2.1c-0.7-0.9-1.8-1.5-2.4-2.4c-0.8-1.2-1.2-2.5-1.3-3.9c0-0.7,0-1.3-0.1-2
		c-0.1-0.5-0.7-1-1-1.5c-0.1-0.4-0.2-0.8-0.3-1.2c-0.3-1.9-0.5-3.9-0.8-5.8c-0.1-0.4-0.1-0.8-0.2-1.1c-0.3-0.6-0.4-1.2-0.5-1.8
		c0-0.5,0-1-0.1-1.5c-0.1-0.3-0.3-0.6-0.5-0.9c-0.3-0.5-0.5-0.9-0.8-1.4c-0.1-0.2-0.2-0.3-0.3-0.5
		C839.5,589.6,839.4,589.5,839.3,589.6z M846.2,655.6v0.6c0,0.1,0.1,0.2,0.1,0.3C846.2,656.2,846.2,655.9,846.2,655.6L846.2,655.6z
		 M846.3,656.5c0,0.2,0,0.5,0.1,0.7c0.1,0.4,0.2,0.7,0.3,1.1c0.3,0.7,1,1.2,1.3,1.9c-0.1-0.1-0.1-0.3-0.1-0.5
		c-0.3-0.5-0.9-0.9-1.2-1.5C846.5,657.7,846.4,657.1,846.3,656.5L846.3,656.5z M848,660.2c0,0.1,0.1,0.2,0.1,0.3L848,660.2
		C848.1,660.3,848,660.2,848,660.2L848,660.2L848,660.2z M848.2,660.5c0.2,0.8,0.3,1.6,0.3,2.4c0,0.7,0,1.5-0.1,2.2
		c0,1-0.2,2-0.6,2.9c-0.5,1.3-1.4,2.3-1.8,3.7c-0.4,1.6-0.5,3.2-0.5,4.8c0-1.6,0.1-3.2,0.5-4.8c0.4-1.3,1.3-2.4,1.8-3.7
		c0.5-1.7,0.7-3.4,0.7-5.1C848.5,662.1,848.4,661.3,848.2,660.5L848.2,660.5z"/>
	<path class="st2" d="M852.5,716.6c0.3-1.3,0.5-2.7,0.5-4c-0.1-1.5-1-2.5-0.7-4c0.3-0.9,0.8-1.7,1.4-2.5c0.9-1.4,1.6-2.9,2.2-4.4
		c1.3-3.9,1.7-8.1,2.2-12.2c0.3-3.2,0.3-6.3,0.4-9.5c0-1.2-0.3-3.5,0.3-4.5s2.2-1.4,3.1-1.8c2-1.1,3.7-2.6,5.1-4.4
		c1.3-1.5,2.2-3.3,3.5-4.7c1.6-1.7,3.8-2.8,5.5-4.4c2.1-2.1,3.4-5.1,5.1-7.5c1-1.5,2.6-3.2,3.1-5c0.3-1.8,0.5-3.7,0.6-5.5
		c0.2-1.7,0.8-3.4,1.6-5c0.8-1.4,2-2.5,2.7-4c1.5-3.3,3.1-6.7,4.4-10.1c0.7-1.7,0.8-3.5,0.5-5.3c-0.1-0.6,0.3-1.5-0.2-1.8
		c-0.9-0.6-1.6,1.5-1.8,1.8c-1.1,2-1.7,4-2.6,6c-2.3,4.8-7,9-8.5,14.1c-1,3.1-1.7,6.4-2.3,9.6c-0.1,1.3-0.3,2.6-0.7,3.8
		c-1.5,2.8-3.7,5.2-6.3,7c-1.3,0.9-2.9,1.2-4.2,2.2c-1.4,1.3-2.6,2.8-3.5,4.4c-0.7,1-0.5,0.4-1.4,1.2s-1.8,1.7-2.7,2.6
		c-2.3,2-5.3,2.9-7.6,4.8c-1.1,0.9-1.8,2.5-2.6,3.7c-0.4,0.8-1,1.5-1.7,2c-0.2,0.2-0.6,0.2-0.8,0.4c-0.3,0.5-0.6,1-0.7,1.6
		c-0.9,1.8-1.6,3.8-1.8,5.8c-0.2,1.2-1,2.2-1.2,3.4c-0.3,2,0,4.1,0.9,6c0.3,0.5,0.8,0.8,1.1,1.3s0,1.3,0.1,1.7
		c0.3,1.2,0.8,2.3,1.6,3.2c3,2.8,4.6-0.7,4.6-3.4c0-1.2-0.7-2.2-0.8-3.3c-0.5-3.5-1.9-6.9-1.1-10.5c0.5-2.1,2.3-3.7,3.4-5.5
		c0.2-0.5,0.4-1.1,0.5-1.6c0.2-0.4,0.9-1.2,1.5-0.5c0.1,0.8,0.1,1.7,0.1,2.5c0.6,2.4,0.6,4.9-0.1,7.3c-0.6,2.3-0.4,4.8-1.1,7
		c-0.3,0.8-0.7,1.6-1.1,2.4c-0.2,0.5-0.2,1.2-0.5,1.6c-0.6,0.7-1.2,1.4-1.7,2.1c-0.9,1.8-1,6.1-1.2,8.2c-0.2,2.1,0.3,4.2,0.5,6.4
		c0,0.9,0.1,1.8,0.4,2.7C851,720.1,852.3,717.3,852.5,716.6z"/>
	<path class="st2" d="M893.1,615.8c-0.6,0.2-1.1,1.2-1.2,1.6c-0.1,0.1-0.1,0.3-0.2,0.4l-0.3,0.6c-0.1,0.2-0.2,0.3-0.2,0.5
		s-0.2,0.3-0.2,0.5c-0.2,0.3-0.3,0.7-0.4,1l-0.6,1.5c-0.1,0.3-0.3,0.7-0.4,1c-0.2,0.6-0.5,1.1-0.8,1.6c-2.3,4.5-6.3,8.1-8,12.9
		c-0.4,1.2-0.8,2.5-1.1,3.8c-0.5,1.9-0.9,3.8-1.2,5.7c-0.1,1.3-0.3,2.7-0.6,4c-0.2,0.6-0.5,1.2-0.9,1.8c-1.1,1.6-2.3,3.1-3.8,4.4
		c-0.6,0.6-1.3,1.2-2,1.6c-1.2,0.8-2.7,1.2-3.8,2c-1.7,1.3-2.5,3.2-3.9,4.8c-0.2,0.2-0.5,0.3-0.7,0.5c-0.3,0.2-0.6,0.4-0.9,0.7
		c-0.8,0.7-1.4,1.5-2.2,2.2c-2.3,2-5.2,2.9-7.6,4.8c-0.8,0.7-1.4,1.6-1.8,2.5c-0.4,0.7-0.8,1.4-1.3,2c-0.3,0.5-0.7,0.9-1.2,1.3
		c-0.3,0.2-0.7,0.2-0.9,0.5s-0.4,1-0.7,1.5c-0.5,0.9-0.9,1.8-1.2,2.8s-0.5,2-0.7,3s-0.8,1.8-1.1,2.8c-0.4,1.6-0.4,3.2,0.1,4.8
		c0.2,0.8,0.5,1.5,0.9,2.1c0.3,0.4,0.8,0.7,0.9,1.2s0,1,0.1,1.6c0.2,1.3,0.9,2.5,1.8,3.4c0.3,0.2,0.6,0.4,0.9,0.6
		c0.3,0.1,0.6,0.2,1,0.3c0.3,0,0.6-0.1,0.8-0.3c-0.1,0.7-0.2,1.4-0.2,2.1c-0.1,1.3-0.2,2.6-0.3,4c0,1.6,0.1,3.2,0.4,4.8
		c-0.3-1.8-0.4-3.5-0.4-5.3c0.2-1.7,0.2-3.3,0.4-5c0-0.2,0.1-0.4,0.1-0.6c0.8-0.6,1.3-1.6,1.4-2.6c-0.1,0.6-0.3,1.1-0.6,1.6
		c-0.2,0.3-0.5,0.6-0.8,0.8c0.1-0.7,0.2-1.3,0.4-2c0.2-0.6,0.6-1.1,1-1.6v0.8c0-0.3,0.2-0.7,0.2-0.9v-0.1c0.2-0.3,0.5-0.5,0.7-0.8
		c0.3-0.5,0.2-1.1,0.4-1.6c0.9-1.5,1.5-3.3,1.6-5.1c-0.1,0.9-0.2,1.8-0.5,2.6s-0.7,1.6-1.1,2.4c-0.1,0.5-0.3,1.1-0.5,1.6
		c-0.2,0.3-0.4,0.6-0.7,0.8c0-0.3-0.1-0.5-0.1-0.8v1c-0.4,0.5-0.8,1-1.1,1.6c-0.2,0.7-0.4,1.3-0.5,2c-0.1,0.1-0.2,0.2-0.3,0.2
		c-0.7,0.1-1.4,0-1.9-0.5c-1.1-0.9-1.9-2.2-2.1-3.6c0-0.4,0-0.9,0-1.3c-0.1-0.8-0.8-1.1-1.2-1.7c-0.4-0.7-0.7-1.6-0.8-2.4
		c-0.3-1.4-0.3-2.8,0.1-4.2c0.4-0.8,0.7-1.6,1-2.5c0.2-1.3,0.5-2.5,0.9-3.7c0.3-0.9,0.8-1.7,1.2-2.6c0.1-0.4,0.3-0.8,0.5-1.2
		c0.2-0.2,0.4-0.3,0.7-0.4c0.2-0.1,0.3-0.2,0.5-0.3c0.5-0.4,0.8-0.9,1.1-1.5c0.4-0.5,0.7-1.1,1.1-1.6c0.5-0.9,1.1-1.7,1.8-2.4
		c2.4-1.8,5.3-2.8,7.6-4.8c0.9-0.8,1.6-1.7,2.5-2.4c0.4-0.4,1-0.5,1.4-1c1.3-1.5,2.2-3.5,3.8-4.7c1.2-0.7,2.5-1.4,3.8-2
		c1.9-1.3,3.6-2.9,5-4.7c0.8-1,1.4-2,1.9-3.2c0.3-1.3,0.5-2.7,0.6-4.1c0.4-2.2,0.9-4.3,1.5-6.5c0.3-1.2,0.6-2.4,1.1-3.6
		c1.9-4.5,5.5-7.9,7.8-12.2c0.5-0.8,0.9-1.7,1.2-2.6c0.7-1.7,1.4-3.4,2.2-5c0.1-0.3,0.8-1.3,1.1-0.6c0.2,0.3-0.1,1.1,0,1.5
		c0.1,1,0.2,2,0.1,3c-0.2,1-0.5,2-0.9,3c-0.9,2.3-1.9,4.5-2.9,6.7c-0.4,1.1-0.9,2.2-1.5,3.2s-1.5,1.9-2.1,2.9
		c-1,1.6-1.6,3.5-1.8,5.4c-0.2,1.7,0,3.8-0.6,5.5c-0.6,1.9-2,3.3-3,4.9c-1.4,2.1-2.5,4.4-4.1,6.4c-0.8,1-1.8,1.9-2.8,2.6
		c-1.4,0.8-2.6,1.8-3.7,3s-1.9,2.7-2.9,4c-0.9,1.2-1.9,2.2-3,3.2c-1,0.8-2,1.6-3.2,2.1c-0.9,0.4-2.3,0.7-2.8,1.7
		c-0.4,1-0.5,2.1-0.4,3.2v3.1c0,1.8,0,3.7-0.2,5.5c-0.1,2.2-0.4,4.3-0.7,6.5c-0.3,3.3-1.1,6.5-2.3,9.5c-0.5,1.2-1.1,2.3-1.8,3.3
		c-0.6,0.6-1,1.4-1.2,2.2c-0.1,0.5-0.1,1,0,1.5c0.2,0.9,0,0,0.2,6.5c0,0.1,0,0.1,0.1,0.1l0.2-0.1c0,0.1-0.1,0.2-0.1,0.3l0,0
		c0.2,0,0.3-0.1,0.4-0.2c0.4-4.4,0.7-3.1,0.4-4.4c-0.3-1.3-0.8-2.2-0.7-3.5c0.1-0.9,0.9-1.6,1.4-2.3c0.9-1.4,1.7-2.9,2.2-4.5
		c1.4-4.2,1.8-8.7,2.2-13c0.2-2.9,0.3-5.8,0.3-8.7c0-1.5-0.3-3.1,0.3-4.4c0.2-0.4,0.6-0.7,1-0.8c0.8-0.4,1.7-0.7,2.5-1.1
		c1.7-1,3.2-2.3,4.4-3.8c1.5-1.6,2.4-3.6,3.9-5.2c1.6-1.8,3.8-2.8,5.5-4.4c2-2,3.2-4.6,4.7-7c1-1.6,2.4-3,3.2-4.8
		c1-2.3,0.6-4.9,1-7.3c0.3-1.5,0.8-3,1.6-4.4c0.6-1,1.5-1.9,2.1-2.9c0.7-1.3,1.3-2.6,1.9-4c1-2.2,2-4.5,2.8-6.8
		c0.4-1.1,0.7-2.3,0.7-3.5c0-0.7-0.2-1.3-0.2-2s0.3-1.3-0.2-1.8C893.5,615.8,893.3,615.7,893.1,615.8z M852.3,716.8
		c-0.1,0-0.1-0.1-0.1-0.2c-0.3,0.2-2.2,1.1-2.4,0.7c0.1,0.4,0.1,0.9,0.4,1.2c0.8,0.9,1.6-0.6,1.9-1.2
		C852.2,717.2,852.3,717,852.3,716.8z M849.8,717.3c0-0.1-0.1-0.1-0.1-0.2C849.7,717.2,849.8,717.2,849.8,717.3z M849.7,717.1
		L849.7,717.1z M849.7,716.6c0-0.4,0-0.7-0.1-1.1c0-0.4-0.1-0.7-0.1-1.1C849.6,715.2,849.6,715.9,849.7,716.6L849.7,716.6z
		 M851.2,698.8c-0.2-0.9-0.5-1.8-0.7-2.8c-0.2-1.2-0.5-2.3-0.7-3.5c-0.5-2.4-1.1-5.1-0.3-7.5c-0.9,2.6-0.2,5.8,0.3,8.4
		c0.2,1,0.3,2.1,0.6,3.2C850.7,697.3,851,698,851.2,698.8L851.2,698.8z M849.5,685.1c0.3-0.8,0.8-1.6,1.3-2.3
		c0.4-0.6,0.9-1.2,1.3-1.8l0.6-0.9c0.1-0.2,0.2-0.3,0.2-0.5c0.1-0.5,0.6-2.2,1.4-1.8l0.3,0.3c0-0.1,0-0.2-0.1-0.3
		c-0.7-0.6-1.5,0.7-1.6,1.2c0,0.2-0.1,0.3-0.1,0.5s-0.1,0.4-0.2,0.5l-0.6,0.9c-0.2,0.3-0.5,0.6-0.7,0.9c-0.2,0.3-0.5,0.6-0.7,0.9
		c-0.4,0.5-0.7,1-1,1.6C849.6,684.6,849.6,684.9,849.5,685.1L849.5,685.1z M854,692.1c0.1-1.5,0.4-3,0.7-4.4
		c0.4-1.6,0.6-3.2,0.5-4.8c0-0.6-0.1-1.2-0.2-1.8c-0.1-0.3-0.2-0.7-0.2-1v-1.5c0,0.4-0.1,0.8-0.1,1v0.5c0,0.4,0.1,0.5,0.1,1l0.3,1.8
		c0.1,1.4,0,2.8-0.4,4.1c-0.2,0.8-0.4,1.6-0.5,2.4C854.2,690.3,854.2,691.2,854,692.1L854,692.1z M851.1,700.7
		c0,0.1-0.1,0.2-0.1,0.3C851.1,700.9,851.1,700.8,851.1,700.7L851.1,700.7z"/>
	<path class="st2" d="M846.5,679.1c-1.1,1.7-1.6,3.7-1.2,5.7c0,0.4-0.2,1,0.5,1.1c1.6,0.2,2.6-2.4,3-3.4c0.9-2,1.6-4.1,2-6.3
		c0.1-0.7,0.7-1.4,0.5-2.1c-0.4-0.8-1-1.6-1.7-2.2"/>
	<path class="st2" d="M849.6,671.9c0.5,0.7,1.4,1.4,1.6,2.3c0.2,0.7-0.3,1.2-0.5,1.9s-0.3,1.5-0.5,2.3c-0.3,1.1-0.8,2.1-1.2,3.2
		c-0.1,0.3-0.3,0.7-0.4,1c-0.4,1-1,2.7-2.1,3.1c-0.1,0-0.2,0.1-0.3,0.1c-0.8,0.1-0.6-0.3-0.7-0.8c0-0.2,0-0.5-0.1-0.7
		c-0.2-1.7,0.3-3.4,1.2-4.9c0.1-0.1,0-0.3-0.1-0.4s-0.3,0-0.4,0.1c-0.7,1.2-1.1,2.5-1.3,3.8c0,0.7,0,1.4,0.1,2.1
		c0.1,0.6-0.1,1.2,0.7,1.3h0.5c0.1,0,0.3-0.1,0.4-0.1c1.5-0.7,2.1-3.1,2.6-4.5c0.4-1.1,0.8-2.1,1.1-3.2c0.2-0.8,0.3-1.5,0.5-2.3
		s0.6-1.2,0.4-1.9C850.9,673.4,850.3,672.5,849.6,671.9z"/>
	<path class="st2" d="M854.5,675.7c-0.5,1.7-0.3,3.5-0.5,5.3c-0.1,1-0.7,2-0.7,3.1s0.6,2.2,0.7,3.2s-0.3,1.8-0.3,2.7
		c0,1.8,0.4,3.2-0.2,5c-0.9,2.7-2.5,6-2.5,8.9c0,0.3,0.5,3.1,1.3,2.6c0.3-0.7,0.6-1.4,0.8-2.1c0.6-1.6,1-3.2,1.2-4.9
		c1-4.2,2.2-8.2,2.4-12.5c0-1.9-0.6-3.3-0.9-5.1c-0.1-1.6-0.2-3.2-0.1-4.8"/>
	<path class="st2" d="M854.6,675.4c-0.2,0-0.3,0-0.4,0.2l0.5,0.5l0.1-0.3C854.9,675.6,854.8,675.4,854.6,675.4z M854.8,676.1
		L854.8,676.1L854.8,676.1c0.1,0.1,0.2,0.1,0.3,0.2C855.1,676.4,854.8,676.1,854.8,676.1L854.8,676.1z M854.7,676.2
		c-0.2-0.1-0.4-0.2-0.6-0.2s0,0.3-0.1,0.4c-0.1,0.5-0.1,0.9-0.1,1.4c-0.1,1.1,0,2.2-0.2,3.3c-0.1,0.8-0.5,1.5-0.6,2.3
		c0,1.1,0.2,2.2,0.6,3.3c0,1.1,0,2.1-0.2,3.2c0,1.1,0.2,2.2,0.1,3.3c-0.2,1.3-0.5,2.6-1.1,3.8c-0.7,1.7-1.3,3.5-1.6,5.4
		c-0.2,1.2-0.1,2.4,0.4,3.5c0.2,0.4,0.6,1.1,1.1,0.7c0.4-0.6,0.6-1.2,0.8-1.9c0.2-0.5,0.4-1,0.5-1.5c0.3-1,0.4-1.9,0.6-2.9l0.9-3.9
		c0.7-2.4,1.1-4.8,1.4-7.3c0.1-1.2,0.2-2.3,0.1-3.5c-0.2-1.4-0.7-2.7-0.9-4.1c-0.1-0.9-0.1-1.9-0.1-2.8c0-0.3,0.1-0.6,0-0.8v1.6
		c0,0.7,0,1.3,0.1,2c0.2,1.4,0.7,2.8,0.8,4.2c0.1,1.2,0.1,2.3-0.1,3.5c-0.4,2.8-1,5.6-1.8,8.3c-0.2,1-0.5,1.9-0.7,2.9
		s-0.3,1.9-0.6,2.9c-0.2,0.5-0.4,0.9-0.5,1.4c0,0.1-0.1,0.3-0.1,0.4s-0.1,0.3-0.2,0.5s-0.3,1.1-0.7,0.9s-0.5-0.8-0.6-1.2
		c-0.2-1.1-0.2-2.3,0-3.4c0.1-0.2,0.1-0.5,0.2-0.8c0.4-1.5,1-3,1.6-4.5c0.3-0.8,0.6-1.5,0.8-2.3c0.1-1.3,0.1-2.5,0-3.8
		c0-0.7,0.1-1.5,0.2-2.2s0.1-1.4-0.1-2.1c-0.3-0.7-0.4-1.4-0.5-2.1c0.1-0.9,0.3-1.7,0.6-2.5c0.2-0.8,0.2-1.5,0.2-2.3
		c0-0.9,0-1.7,0.2-2.6C854.7,676.4,854.6,676.3,854.7,676.2L854.7,676.2z M855.8,677.8c-0.1-0.3-0.1-0.5,0-0.8c0,0-0.6-0.8-0.5-0.6
		C855.6,676.8,855.7,677.3,855.8,677.8L855.8,677.8z"/>
	<path class="st2" d="M837.5,772.5c0.4,2.4,0.9,4.6,3.4,5.4c0.7,0.2,1,0.6,1.6-0.2c1.1-1.3-0.4-3.6-0.6-5c-1-4.5-4-8.4-3.5-13.2
		c0.2-3.2,0.6-6.4,1.2-9.6c0.3-1.2,1-2.3,1.3-3.5c0.9-4.2,2.6-8.3,4-12.5c0.7-2.2,2-4.2,2.9-6.3c1.1-2.6,2-5.2,2.9-7.8
		c0.3-0.9,0.9-1.7,1.2-2.5c0.8-2.3,1-4.7,0.7-7.1c-0.3-2.1-1.3-4.1-1.7-6.2s-1.6-2.9-3.1-4.2c-0.2-0.2-0.3-0.6-0.5-0.6
		c-0.6,0-1.1,3.2-1.1,3.8c0.1,2.4,1.3,4.7,1.5,7c-0.1,1.5-0.3,3-0.7,4.4c-0.3,1.5,0.1,3-0.5,4.4c-1,2.5-1.8,6.3-3.3,8.5
		c-0.5,0.7-1.3,1.2-1.9,1.9c-1,1.3-1.8,2.7-2.4,4.2c-1.8,4.4-2.3,9.1-3.2,13.6c-0.8,3.9-2,7.7-2.2,11.7c0,6,2,11.9,5.6,16.7"/>
	<path class="st2" d="M847.2,699c-0.4,0-0.6,0.7-0.7,1c-0.5,1.1-0.6,2.4-0.5,3.6c0.3,2.2,1.2,4.3,1.5,6.5c0.2,1.6-0.6,3.2-0.8,4.8
		c0,1.3-0.2,2.7-0.4,4c-0.3,1-0.6,1.9-0.9,2.8c-0.5,2-1.3,3.9-2.4,5.6c-0.6,0.7-1.2,1.3-1.9,1.9c-0.9,1-1.6,2.2-2.1,3.5
		c-2,4.5-2.5,9.6-3.5,14.4c-0.6,3.2-1.6,6.4-2,9.7c-0.4,4.2,0.2,8.4,1.9,12.3c-1.6-3.9-2.2-8.1-1.8-12.3c0.4-3.3,1.4-6.5,2-9.7
		c0.9-4.8,1.5-9.8,3.5-14.3c0.5-1.3,1.2-2.5,2.1-3.5c0.6-0.7,1.4-1.1,1.9-1.9c1.1-2,2-4.2,2.7-6.4c0.2-0.7,0.5-1.4,0.7-2.1
		c0.2-1.4,0.4-2.7,0.4-4.1c0.4-1.5,0.6-3,0.8-4.5c-0.1-1.3-0.4-2.6-0.8-3.9c-0.3-1.1-0.6-2.3-0.7-3.5c0.1-0.7,0.2-1.4,0.3-2.1
		c0.1-0.4,0.2-0.9,0.4-1.3l0.2-0.3c0.2,0,0.2,0.3,0.3,0.5s0.4,0.3,0.5,0.5c0.9,0.7,1.6,1.5,2.2,2.5c0.3,0.7,0.6,1.5,0.7,2.3
		c0.6,1.7,1.1,3.4,1.4,5.2c0.2,1.8,0.1,3.6-0.3,5.4c-0.2,0.7-0.4,1.4-0.6,2.1c-0.3,0.7-0.7,1.4-1,2.1c-1,2.6-1.8,5.3-2.9,7.8
		c-0.7,1.6-1.5,3.1-2.3,4.7c-0.7,1.5-1.2,3.1-1.7,4.7c-1.1,3.1-2.1,6.2-2.9,9.4c-0.3,1.1-0.9,2.1-1.2,3.2c-0.3,1.1-0.5,2.3-0.7,3.5
		c-0.2,1.6-0.3,3.2-0.5,4.8c-0.1,0.9-0.2,1.9-0.2,2.8c0,1.2,0.2,2.3,0.5,3.4c0.6,2,1.5,3.9,2.2,5.9c0.4,1,0.6,2.1,0.9,3.1
		s1,2.2,0.9,3.4c0,0.2,0,0.5-0.1,0.7c-0.4,0.9-0.8,0.6-1.5,0.4c-0.7-0.2-1.3-0.6-1.8-1.1c-0.2-0.2-0.4-0.5-0.5-0.8
		c-0.2-0.3-0.3-0.7-0.4-1c0-0.1,0-0.2-0.1-0.2l0,0c0-0.1-0.1-0.3-0.1-0.4s-0.2-0.2-0.3-0.2c-0.1-0.2-0.3-0.4-0.4-0.6
		c-0.8-1.3-1.4-2.7-2-4.1c0.1,0.2,0.2,0.5,0.3,0.7c0.5,1.2,1.1,2.3,1.7,3.4c0.1,0.2,0.2,0.3,0.3,0.5c-0.1-0.1-0.2-0.1-0.3,0l0,0
		c-0.2,0.4,0.2,0.8,0.3,1.1s0.3,0.7,0.4,1.1c0.2,0.4,0.4,0.7,0.6,1c0.6,0.6,1.4,1.1,2.2,1.3c0.3,0.1,0.6,0.3,0.9,0.2
		c0.6-0.2,1-0.6,1.2-1.2c0.1-0.2,0.1-0.5,0.1-0.7c-0.1-1.2-0.5-2.5-1-3.6c-0.3-1-0.5-2.1-0.9-3.1c-0.7-2-1.6-3.8-2.2-5.8
		c-0.3-1.1-0.5-2.2-0.5-3.3c0-1.2,0.2-2.4,0.2-3.6s0.2-2.7,0.4-4c0.1-1.2,0.4-2.3,0.7-3.4c0.3-1.1,0.9-2.1,1.2-3.2
		c0.8-3.1,1.8-6.3,2.9-9.3c0.6-1.6,1-3.2,1.7-4.7s1.5-3.1,2.2-4.7c1.1-2.6,1.9-5.2,2.9-7.9c0.3-0.7,0.7-1.4,1-2.1
		c0.3-0.7,0.5-1.4,0.6-2.1c0.4-1.8,0.5-3.7,0.3-5.5c-0.3-1.4-0.7-2.8-1.2-4.2c-0.2-1.3-0.6-2.6-1.2-3.8c-0.7-1-1.5-1.8-2.5-2.5
		C847.6,699.5,847.5,699.2,847.2,699z M838.1,774.1c0-0.2-0.1-0.3-0.1-0.5c0-0.4-0.1-0.8-0.2-1.2c0-0.2-0.2-0.2-0.3-0.2
		s-0.3,0.2-0.2,0.3C838.1,774.1,838.3,774.3,838.1,774.1L838.1,774.1z M838.4,774c0.1,0.3,0.3,0.7,0.2,1c-0.1-0.3,0.4,0.6,0.4,0.6
		S838.3,773.8,838.4,774z"/>
	<path class="st2" d="M840.6,734.4c-0.5,0.1-0.7-0.8-0.8-1.3c-0.1-0.8,1.6-3.5,2-4.3c1.5-3.4,2.5-7,4.2-10.3c0.8-1.4,1-3,2-4.3
		c0.2-0.2,0.3-0.7,0.5-0.6c1.2,0.2,0.4,4.7,0.2,5.4c-0.7,2-1.5,4-2.4,6c-0.7,1.4-1.7,2.7-2.4,4.2C843,730.9,842.6,733.9,840.6,734.4
		z"/>
	<path class="st2" d="M848.8,713.4c-0.5-0.3-0.7,0.3-0.9,0.6s-0.3,0.5-0.5,0.7c-0.5,1.1-1,2.2-1.4,3.3c-0.3,0.7-0.7,1.3-1,2
		c-0.5,1.1-1,2.3-1.4,3.4c-0.6,2-1.4,3.9-2.3,5.7c-0.1,0.3-0.3,0.6-0.5,0.8c-0.1,0.3-0.3,0.5-0.5,0.8c-0.4,0.7-0.7,1.4-0.8,2.2
		c0,0.5,0,0,1.1,1.7c0.1,0,0.3-0.1,0.3-0.2c0,0,0,0,0-0.1c-0.1,0-0.1,0-0.1-0.1c0.2,0,0.3-0.1,0.5-0.2c0.2-0.1,0.3-0.3,0.4-0.4
		c-0.3,0.2-0.6,0.4-0.9,0.6c-0.1-0.1-0.1-0.2-0.2-0.2c-0.5-1.1-0.5-0.6-0.5-1.1c0.1-0.4,0.2-0.9,0.4-1.3c0.4-0.8,0.8-1.5,1.2-2.3
		c0.7-1.3,1.2-2.6,1.7-4c0.6-1.7,1.3-3.5,2-5.2c0.4-0.9,0.9-1.8,1.3-2.8c0.2-0.6,0.4-1.2,0.7-1.8c0.2-0.5,0.5-1,0.8-1.4
		c0.1-0.1,0.2-0.5,0.3-0.5s0.3,0.1,0.3,0.2c0.1,0.3,0.2,0.7,0.3,1c0.1,1.3-0.1,2.6-0.4,3.8c-0.3,1.1-0.8,2.2-1.2,3.3
		c-0.5,1.3-1,2.5-1.7,3.7c-0.8,1.2-1.6,2.5-2.2,3.9c-0.3,0.7-0.5,1.4-0.8,2.1c0.4-1.1,0.9-2.2,1.4-3.2c0.7-1.2,1.5-2.2,2.1-3.4
		c1-2,1.7-4,2.5-6c0.2-0.5,0.3-1.1,0.3-1.7c0.1-0.8,0.2-1.7,0.1-2.5C849.4,714.3,849.2,713.7,848.8,713.4z M842.9,731.7
		c-0.2,0.7-0.6,1.3-1,1.9l0.3-0.3C842.5,732.8,842.7,732.3,842.9,731.7L842.9,731.7z M841.9,733.5l-0.2,0.2
		C841.7,733.7,841.8,733.7,841.9,733.5z"/>
	<path class="st2" d="M843.5,734c0.8-1.2,1.6-2.3,2.6-3.4c2.5-3.3,4.5-7,6-10.9c0.6-1.6,0.2-2.7-0.1-4.2c-0.1-0.3,0.2-1.5-0.5-1.6
		s-2.5,3.8-2.7,4.4c-1.5,4-2.5,8.1-4,12"/>
	<path class="st2" d="M851.6,713.7c-0.3-0.1-0.7,0.4-0.8,0.6c-0.6,0.8-1,1.6-1.4,2.5c-0.1,0.2-0.2,0.5-0.3,0.7
		c-0.9,2.2-1.7,4.5-2.2,6.8c-0.6,1.9-1,3.1-1.4,4.3c0.3-0.7,0.6-1.5,0.8-2.2c0.8-2.9,1.9-5.9,3-8.7c0.4-1,1-2,1.6-2.9
		c0.1-0.1,0.5-0.7,0.7-0.7c0.5,0.2,0.3,0.9,0.3,1.4s0.2,0.8,0.2,1.2c0.2,0.9,0.2,1.8,0,2.7c-0.5,1.4-1.1,2.8-1.8,4.1
		c-1.1,2.2-2.3,4.2-3.7,6.2c-0.7,1-1.5,1.8-2.2,2.8v-0.1c0.1-0.3-0.1,0.4-0.1,0.2c-0.1,0.5-0.2,0.9-0.3,1.4c0,0.1,0.1-0.2,0.2-0.3
		s0.3-0.4,0.4-0.6c0.3-0.4,0.6-0.7,0.9-1.1c0.8-0.9,1.5-1.8,2.1-2.8c1.6-2.3,2.9-4.8,4-7.4c0.5-1,0.8-2,1-3.1c0.1-0.7,0-1.4-0.2-2.1
		c-0.1-0.4-0.2-0.9-0.2-1.3C852.2,714.6,852.3,713.9,851.6,713.7z M844.3,732.4c-0.2,0.3-0.4,0.5-0.6,0.8c-0.1,0.1-0.3,0.4-0.2,0.3
		c0.2-0.5,0,0-0.2,0.3c-0.1,0.1,0,0.3,0.1,0.4s0.3,0,0.4-0.1C844.3,732.4,844.7,731.1,844.3,732.4z M845.5,728.5
		c-0.5,1.2-0.9,2.4-1.4,3.6c-0.2,0.5,0.8-1.8,0.8-1.8C845,729.7,845.2,729.1,845.5,728.5L845.5,728.5z"/>
	<path class="st2" d="M842.1,825.1c0.8,1.8,0.9,3.8,1.5,5.6c0.3,1,0.8,1.6,0.7,2.6s-1.7,3.8-0.2,4.5c1.7,0.7,2.9-4.5,3.2-5.6
		c1-4.7,1.3-9.4,1-14.2c-0.1-1.4-0.4-2.7-0.5-4c-0.2-5.3,1.4-10.8,2.1-16.1c0.6-4.6-0.6-10.3-2.3-14.6c-0.6-1.5-1-3.4-1.9-4.7
		c-0.5-0.7-1.3-1.3-1.8-2c-0.7-1-0.1-0.5-0.7-1.5c-1-1.7-2-3.2-2.9-5c-0.1-0.2-0.9-2.1-1.2-2.1c-0.7-0.2-0.7,1.5-0.7,1.5
		c-0.2,1.8,0.6,2.8,0.9,4.5c0.2,1.2,0,2.5,0.2,3.7c0.3,1.8,2.4,4,3,5.7c0.9,2.6,1.7,5.2,2.3,7.8c0.3,1.9,0.3,3.9-0.1,5.8
		c-0.1,0.8,0,1.6-0.1,2.5c-0.3,3-1.5,6.2-2.3,9.1c-0.6,2.3-0.3,4.6-0.7,6.9C841.2,818.3,841,822.4,842.1,825.1z"/>
	<path class="st2" d="M839.2,767.9c-0.2-0.1-0.5-0.1-0.6,0.1c-0.3,0.6-0.4,1.2-0.3,1.8c0.1,1.1,0.3,2.2,0.7,3.3
		c0.2,0.6,0.3,1.3,0.3,2c0,1,0,2,0.2,3c0.6,1.9,2.2,3.4,2.9,5.2c0.7,1.7,1.2,3.4,1.6,5.2c0.4,1.3,0.7,2.6,0.9,4
		c0.1,1.4,0,2.9-0.3,4.3c-0.1,0.8,0,1.7-0.1,2.5c-0.3,3.3-1.7,6.4-2.4,9.7c-0.3,1.7-0.3,3.5-0.5,5.2l-0.3,2.7l0,0
		c0.1-0.9,0.2-1.8,0.3-2.7c0.1-1.7,0.2-3.5,0.5-5.2c0.5-2.2,1.3-4.4,1.9-6.6c0.3-1,0.5-2.1,0.6-3.1c0-0.7,0-1.4,0-2.1
		c0.1-1.4,0.4-2.8,0.4-4.3c-0.1-1.1-0.2-2.2-0.5-3.3c-0.4-1.5-0.8-3.1-1.3-4.6c-0.3-1-0.6-2-1.1-2.9c-0.8-1.5-2.1-2.8-2.5-4.5
		c-0.1-0.8-0.2-1.6-0.2-2.4c0-0.8-0.1-1.6-0.3-2.4c-0.4-1.1-0.6-2.2-0.7-3.3c0-0.5,0-1.1,0.2-1.6
		C838.7,767.7,838.9,767.5,839.2,767.9c0.5,0.8,0.9,1.7,1.3,2.7c0.7,1.4,1.6,2.8,2.4,4.1l0.3,0.6c0,0.2,0,0.3,0.1,0.5
		c0.7,1.2,1.9,1.9,2.5,3.1c0.5,1.2,1,2.4,1.3,3.6c1.3,3.4,2.1,7,2.5,10.7c0.3,5-1.3,10-1.9,14.9c-0.2,1.8-0.3,3.6-0.3,5.4
		c0.1,1.1,0.3,2.2,0.4,3.4c0,0.6,0.1,1.3,0.1,1.8c0.3,5.1-0.3,10.2-1.6,15.1c-0.1,0.2-0.1,0.5-0.2,0.7c-0.2,0.8-0.6,1.6-1.2,2.3
		c-0.2,0.2-0.5,0.5-0.8,0.4c-0.6-0.2-0.6-0.9-0.5-1.4c0.1-0.7,0.3-1.4,0.6-2c0.1-0.3,0.2-0.6,0.2-0.9c0-0.9-0.2-1.8-0.7-2.5
		c-0.1-0.4-0.2-0.8-0.3-1.1c-0.3-1.1-0.4-2.2-0.7-3.3c-0.1-0.3,0,0-0.5-1.4c0-0.1-0.2-0.1-0.3-0.1v0.2c0-0.1-0.1-0.2-0.1-0.3l0,0
		c-0.2,0.1-0.2,0.2-0.1,0.4c0.7,2.3,0.5,1.5,0.7,2.3c0.2,1.1,0.5,2.2,0.8,3.3c0.2,0.7,0.7,1.3,0.7,2c0,0.5-0.1,1-0.3,1.4
		c-0.3,0.7-0.5,1.5-0.6,2.3c0,0.5,0.2,1,0.6,1.4c1.1,0.7,2-0.6,2.4-1.5c1.1-2.4,1.7-5,2-7.7c0.1-0.8,0.2-1.6,0.2-2.4
		c0.1-0.8,0.1-1.7,0.2-2.4c0.1-2.2,0.1-4.4-0.1-6.6c-0.1-0.9-0.3-1.8-0.4-2.7c-0.1-1.3-0.1-2.7,0-4c0.2-3.2,0.9-6.3,1.4-9.4
		c0.3-1.5,0.5-3,0.6-4.5c0.1-3.8-0.4-7.6-1.7-11.2c-0.3-1-0.7-2-1.1-3c-0.3-1.1-0.7-2.2-1.2-3.2c-0.6-1.2-1.7-1.9-2.4-2.9
		c-0.2-0.4-0.4-0.8-0.5-1.3c-0.6-1.1-1.3-2.2-2-3.3s-1.1-2.3-1.7-3.3C839.5,768.2,839.4,768,839.2,767.9z M842,824.8L842,824.8
		c0-0.4-0.6-6-0.5-7.6c-0.1,1.3-0.2,2.6-0.2,4c0,1.1,0.1,2.2,0.5,3.2C841.9,824.5,842,824.7,842,824.8L842,824.8z"/>
	<path class="st2" d="M846.6,854.8c-0.7-1.1-0.3-3.2-0.2-4.4c0.3-1.7,0.4-3.5,0.3-5.2c-0.2-0.8-0.9-1.5-1.1-2.4
		c-0.2-0.5-1-2.8-1.8-2.7c-1.2,0.1-0.8,2.7-0.9,3.3c-0.2,1.2-0.8,2.2-1,3.4c-0.1,1.4,0.2,2.9,0.1,4.3c0,2-0.2,3.9-0.4,5.9
		c-0.2,1.4-0.6,2.9-0.2,4.2c0.6,1.8,1.8,3,2.6,4.7c0.5,1.2,0.8,2.5,1,3.8c0.4,1.5,1.1,2.9,1.4,4.4c0.5,2,0.1,7.6,2.1,8.6
		c0.2,0.1,0.5,0.4,0.8,0.3c0.5-0.3,1-3.9,1.1-4.6c0.2-4.3,0.2-8.4-1.2-12.5c-0.9-2.5-2.2-4.8-2.6-7.4
		C846.4,857.4,847.3,855.8,846.6,854.8z"/>
	<path class="st2" d="M843.4,839.9c-0.4,0.3-0.6,0.7-0.7,1.2c0,0.8,0,1.7-0.1,2.5c-0.4,1-0.7,2.1-0.9,3.2c-0.1,1.2,0,2.4,0.1,3.6
		c0,1.9,0,3.8-0.2,5.7c-0.4,1.5-0.5,3-0.5,4.5c0.3,2,1.9,3.7,2.9,5.4c0.7,1.3,0.7,2.8,1.1,4.1s1.1,2.8,1.4,4.3
		c0.4,2.4,0.1,5,1.1,7.2c0.3,0.6,0.7,1.1,1.3,1.4c0.2,0.1,0.4,0.2,0.6,0.1c0.4-0.2,0.6-1.6,0.7-2c0.4-1.9,0.5-3.9,0.5-5.9
		c0.1-2.8-0.3-5.6-1-8.3c-0.6-1.9-1.5-3.7-2.2-5.6c0.7,1.9,1.5,3.7,2.1,5.6c0.7,2.7,1.1,5.5,1,8.3c0,1.2,0,2.5-0.1,3.7
		c0,0.3-0.1,0.6-0.1,0.9c-0.1,0.8-0.3,1.6-0.5,2.4c0,0.2-0.1,0.6-0.3,0.7c-0.2,0.1-0.7-0.3-0.9-0.4c-0.8-0.6-1-1.9-1.2-2.9
		c-0.2-1.2-0.3-2.3-0.3-3.5c0-0.7-0.1-1.4-0.2-2.1c-0.4-1.5-1.1-2.9-1.4-4.4c-0.2-1.3-0.5-2.6-1-3.8c-0.9-1.7-2.5-3.3-2.8-5.3
		c0-1.2,0.1-2.4,0.3-3.5c0.2-1.6,0.3-3.3,0.3-4.9c0-0.8,0-1.6,0-2.4c-0.1-0.9-0.1-1.9-0.1-2.8c0.2-1.3,1-2.6,1-3.9v-1.5
		c0-0.3,0.2-1.4,0.7-1.2c0.3,0.1,0.5,0.5,0.6,0.7c0.3,0.6,0.5,1.2,0.8,1.8c0.5,0.7,0.8,1.5,1.1,2.3c0.2,1.9,0,3.9-0.4,5.8
		c-0.1,1,0,0,0.3,3.9c0,0.1,0.2,0,0.2,0.1v-0.2c0.1,0.1,0.1,0.1,0.1,0.2h0.1c0.1-0.1,0.2-0.3,0.1-0.4c-0.3-0.9-0.3-0.5-0.3-0.9
		c-0.1-0.5-0.1-1,0-1.5c0.2-2.3,0.8-4.7,0.5-7.1c-0.2-0.7-0.5-1.4-1-2c-0.3-0.9-0.7-1.8-1.2-2.6C844.5,840,844,839.6,843.4,839.9z
		 M846.7,855L846.7,855c-0.1,1.1-0.1,2.1-0.1,3.2c0,0.2,0.1,0.4,0.1,0.6c-0.1-0.4-0.2-0.8-0.1-1.2c0.1-0.6,0.2-1.1,0.2-1.7v-0.6
		C846.8,855.2,846.8,855.1,846.7,855z M846.7,858.9v0.4c0,0.1,0.1,0.2,0.1,0.3C846.8,859.4,846.8,859.1,846.7,858.9z M846.8,859.5
		c0,0.1,0,0.2,0.1,0.3c0.2,0.5,0.4,1.1,0.6,1.6C847.3,860.8,847,860.2,846.8,859.5L846.8,859.5z"/>
</g>
<path class="st3" d="M714.6,208.3c1.4-0.2,2.4,1.7,2,3s-1.6,2.4-2.6,3.4c-3.9,3.7-6.7,8.3-9.4,12.9c-0.9,1.5-1.9,3.2-1.7,5
	c0.1,2,1.6,3.6,2.3,5.4s0.3,4.6-1.7,4.9c-0.6,0.1-1.2-0.1-1.7,0.2c-1,0.4-1.2,1.8-1.1,2.9c0.1,3.8-0.5,8.5-4,10.1
	c-1.5,0.7-3.3,0.6-4.9,0.8c-1.6,0.2-3.4,1-4,2.5c-0.1,0.5-0.3,1.1-0.5,1.6c-0.7,1.3-2.2,1.9-3.7,1.6c-1.4-0.4-2.7-1.1-3.8-2
	c0.2,2.1-0.2,5.5-1.7,7.1c-0.5,0.5-1.1,0.9-1.7,1.3c-2.1,1.3-4.5,2.4-6,4.4s-2,5.1-0.1,6.8c1.2,0.8,2.5,1.4,3.9,1.6
	c1.3,0.4,2.8,1.1,3.2,2.5c0.2,0.8,0.1,1.7,0.3,2.5c0.5,1.2,1.7,2.1,3,2.3c4,0.8,7.7-2,10.8-4.7l3.8-3.2l0.3-0.3
	c0.2-0.5-0.2-0.9-0.7-1.2c-1.3-0.9-2.4-2.1-3.1-3.6c-0.7-1.5-0.5-3.2,0.4-4.6c0.2-0.4,0.6-0.6,1.1-0.7c0.7,0,1.2,0.7,1.7,1.3
	c1.1,1.4,2.5,2.6,4.2,3.3c0.8,0.3,1.6,0.5,2.4,0.4c0.5-0.2,1-0.4,1.5-0.6c4.5-2.2,9.7-2.7,14.5-1.2c0.8,0.4,1.7,0.5,2.6,0.3
	c0.8-0.3,1.3-1.6,0.6-2.1c5.1-1,10.2-2,15.2-3.1c2.4-0.4,4.8-1.1,7-2.1c1.4-0.7,2.7-1.7,4.2-2.3c4.3-1.8,9.4-0.8,13.5-2.9
	c-0.3-2.4-0.5-4.9-0.4-7.3c0-0.5,0-1,0.4-1.3s0.8-0.4,1.3-0.3c1.7,0,3.4,0,5.1,0.1c0.6,0,1.1-0.1,1.6-0.3c1.4-1,0-3.2,0.3-4.8
	c5.1-0.1,10.1-0.7,15.1-1.7c0.9-0.1,1.7-0.5,2.3-1.2c0.8-1.3-0.4-2.9-1.7-3.6s-3-1-3.9-2.2c-0.4-0.4-0.5-1-0.3-1.5
	c0.2-0.2,0.4-0.4,0.6-0.5c5.1-3.5,10.9-6,16.9-7.4c-1.8-1.5-4.4-0.9-6.6-0.1s-4.5,1.9-6.7,1.2c0.1-0.7,0.7-1.3,1.4-1.3
	s1.4,0,2.1,0.1c2.4-0.1,4.2-2.2,4-4.5c0-0.1,0-0.2,0-0.3l7.6-1.2c-0.3,1.3,0.5,2.6,1.8,2.9c0.1,0,0.1,0,0.2,0c1.3,0,2.5-1,2.5-2.3
	c0-0.1,0-0.1,0-0.2c1,1.5,2.2,3.2,3.9,3.7c0.4-1,0.5-2,0.4-3c-0.2-1-0.9-1.9-1.9-2.2c-0.6-0.1-1.2,0.1-1.7-0.1
	c-1.6-0.5-1.1-2.9-2.1-4.2c-1.2-1.6-3.7-0.8-5.4,0.2s-3.9,2.2-5.5,1c-0.5-0.4-0.9-1-1.4-1.4c-1.7-1.3-4,0-6.1,0
	c-2.7,0.1-5-1.8-7.6-2.5s-5.4-0.1-8.1-0.2c-0.5,0-1-0.1-1.5-0.4c-0.5-0.5-0.9-1.1-1.1-1.8c-1.4-3.2-5.6-4-9.1-3.6s-6.9,1.8-10.4,1.2
	c-0.6-0.1-1.3-0.3-1.8-0.7c-0.4-0.4-0.7-0.8-1-1.3c-1.7-2.8-3.9-5.5-7-6.5c-2.4-0.7-4.9-0.2-7.3-0.6c-2.6-0.4-4.9-1.7-6.6-3.7
	c-1.3,1-1.6,2.8-2.3,4.2c-1,1.9-2.4,3.5-4.1,4.8C716,207.5,715.3,207.9,714.6,208.3z"/>
<path class="st3" d="M756.2,268.7c-3-1.4-6.2-0.5-9.3,0.6c-1.8,0.7-3.6,1.4-5.5,2c-1.3,0.4-2.5,1-3.7,1.6c-0.8,0.6-1.6,1.1-2.5,1.5
	c-2.5,1.4-5.4,1.7-8.2,2.1c-8.8,1-17.9,2.2-25.3,7c-4.1,2.7-7.5,6.4-11.8,8.7c-0.5,0.2-0.9,0.5-1.3,0.9c-0.4,0.5-0.6,1-0.7,1.6
	c-0.7,2.6-1.4,5.1-2,7.7c-0.2,0.8-0.8,1.9-1.6,1.6c-0.7-1.7,1.2-3.6,0.7-5.4c-0.5-1.1-1.7-1.8-2.9-1.7c-1.2,0.2-2.4,0.6-3.4,1.2
	c-1.5,0.8-3.2,1.8-3.7,3.4c0.7,0.5,1.6,0.6,2.5,0.4c0.9-0.1,2,0.3,2.1,1.2c0,0.3-0.1,0.6-0.2,0.9c-0.5,1.6-1.1,3.3-1.6,4.9
	c2.2,1.7,4.8,2.9,7.5,3.5c0.2,3.8-0.5,7.7-2.1,11.2l4.2-0.6c0.3,0,0.7-0.1,1,0.2c0.2,0.3,0.3,0.6,0.3,0.9c0.1,1.6,0.1,3.2,0.2,4.9
	c0.3,1.6,0,3.2-0.8,4.6c-1.1,1.2-2.6,2-4.2,2.2c-1.6,0.1-3.2,0.4-4.7,0.9c-2.9,1.2-4.6,4.2-4.2,7.3c0,0.3,0.1,0.6,0.3,0.9
	c0.3,0.3,0.7,0.5,1.2,0.6c1.3,0.3,2.5,0.5,3.8,0.8c0.2,0,0.4,0.1,0.5,0c0.3-0.2,0.1-0.7,0.1-1.1c0-0.8,1-1.1,1.8-1.2
	c1.3-0.1,2.5-0.1,3.8-0.2c0.7,0,1.7,0.3,1.5,1c0.6,0,1.1-0.1,1.7-0.1c0.1,0.4,0.3,0.7,0.4,1.1c0.9-0.3,1.8-0.3,2.7-0.1
	c0.9,0.2,1.5,1.2,1.3,2.1c0.6,2.6-1.3,5.5,0.1,7.8c0.3,0.5,0.8,1,1.1,1.6c0.9,1.9-1.1,4.1-0.4,6.1c1.4,0.3,2.3,1.5,2.2,2.9
	c-0.1,0.5-0.1,0.9-0.1,1.4c0.2,1,1.6,1.3,2.3,2c0.6,0.8,0.6,1.8,0.2,2.6c-0.4,0.8-1,1.6-1.7,2.2c0.9,0.1,1.9,0.2,2.8,0.2
	c1.7,1.5,1.9,4.1,0.4,5.9c1,0.1,2.1,0.3,3.1,0.4c1.8,1.6,1,4.7,2.2,6.8c0.8,1.4,2.4,2.2,3.6,3.4c1.5,1.7,2.6,3.7,3.3,5.8
	c0.4,1,0.7,2,1.1,3c1.2,3.1,2.5,6.3,5.2,8.1c1.2,0.8,2.7,1.3,3.7,2.4c0.5,0.6,0.9,1.2,1.2,1.9c0.4,0.8,0.8,1.5,1.2,2.3
	c0.9,1.7,1.6,3.9,0.3,5.2c-0.7,0.7-2,1.1-2.1,2.1c1.7,1.3,3.8,1.3,5.9,1.7c3,0.6,5.5,2.5,7,5.1c1.7,3.1,1.6,6.7,1.6,10.2
	s-0.1,7.1-0.2,10.6c0,1.1-0.2,2.3-1.2,2.7c1.2,1.7,1.7,3.9,1.2,5.9c-0.2,1-0.7,1.9-0.5,2.9c0.2,1.4,1.5,2.2,2.9,2l0,0
	c0.7-0.1,1.4-0.6,2.1-0.5c1.4,0.1,1.8,2,1.9,3.4c0.1,2,0,4.5-1.7,5.6c-0.6,0.4-1.3,0.6-1.4,1.3c-0.1,0.9,1.1,1.2,1.8,1.8
	c1.1,1,0.6,2.7,0,4s-1.5,2.7-1,4.1c3.1,0.6,6.1,1.3,9.1,2.3c0.5,1.3-1.1,2.3-1.7,3.5c-0.3,0.9-0.4,1.9-0.4,2.8
	c-0.2,1.4-0.3,2.7-0.2,4.1c0.3,1.3,1.6,2.6,2.9,2.2c0.1,2.7,0.2,5.4,0.3,8c0,0.3,0,0.6,0.1,0.9c0.2,0.4,0.4,0.7,0.7,1.1
	c0.9,1.5,0.5,3.4,0.1,5c-2.2,0.5-4.5,0.3-6.5-0.8c-1-0.7-2.1-1.3-3.2-1.8c-1.4-0.5-2.9-0.7-4.4-0.6c-2.1,0-4.2,0.1-6.3,0.2
	c-0.7,2.8-1.4,5.5-2.1,8.3c0,0.2-0.1,0.4,0,0.5c0.1,0.2,0.4,0.4,0.6,0.4c3.9,1.7,6.9,5.1,8.2,9.2c0.3,1,0.5,2.1,1.4,2.7
	c0.9-1.2,2.5-1.6,3.8-1c0.6,0.3,1.1,0.7,1.6,1.2c1,0.9,2.3,1.5,3.6,1.8c-0.9,0.4-1.7,1-2.2,1.9c2.7,1.8,5.7,3.2,8.8,4l-0.2,1.4
	c-0.4,2-1.2,3.9-2.5,5.5c-1.5,1.5-3.7,2.2-4.8,4.1c-0.6,1-0.7,2.2-1.6,3c-0.6,0.5-1.4,0.9-2.2,1c-3.3,1.2-6,3.5-7.7,6.5
	c1.2-0.6,2.6,0.4,3,1.6c0.3,1.3,0.2,2.6-0.2,3.8c-0.3,1.4-0.7,2.8-1,4.3c-0.1,0.9-0.6,1.7-1.4,2.2c-0.6,0.2-1.2-0.1-1.7,0.3
	c-1,0.7,0.2,2.8-0.9,3.4c-1.3-0.2-2.5,0.6-2.8,1.9c0,0.1,0,0.3,0,0.4c0.1,0.8,0.5,1.5,0.2,2.2c-0.4,1.2-2.2,1-3.4,0.5
	c0.2,5.4,0.4,10.8,0.6,16.3c0,0.5,0,1-0.2,1.4c-0.4,0.5-0.9,0.9-1.5,1.2c-1.8,1.1-2.9,3-2.9,5.1c0.9,0.6,2-0.3,3.1-0.3
	c1.1,0.1,2,0.9,2.2,1.9s0.2,2.1-0.1,3.1c-0.1,0.5-0.3,1-0.6,1.4c-0.7,0.6-1.7,0.1-2.5-0.2c-3.6-1.3-7.5,0.6-8.8,4.2v0.1
	c0.9-0.3,1.9,0.1,2.3,1c0.4,0.9,0.5,1.8,0.3,2.7c0,1.2-0.2,2.5-0.7,3.6c-0.5,1.2-1.6,1.9-2.9,1.9c-0.3,3.2-0.1,6.5,0.6,9.7
	c-2-0.4-3.8,0.9-4.2,2.9c-0.1,0.4-0.1,0.8,0,1.2c1.4,0.4,1.9,2.1,1.7,3.6s-0.6,2.9-0.3,4.3c0.5,1.4,1.2,2.8,2.1,4
	c0.1,0.2,0.2,0.4,0.2,0.6c0,0.8-1.1,0.9-1.7,1.4c-0.7,0.7-0.2,1.8,0.4,2.5c0.8,0.6,1.4,1.3,1.9,2.1c0.5,1.4-0.6,2.7-1.7,3.7
	c-0.3,0.3-0.8,0.6-1.1,0.4s-0.2-0.3-0.3-0.5c-0.6-1-2.3-0.7-2.9,0.3c-0.5,1.1-0.6,2.3-0.3,3.4c-1.1-0.5-2.4-0.1-3,0.9
	c-0.5,1.1-0.7,2.2-0.5,3.4c0.4,3.5,1.9,6.8,2.9,10.2c1.3,4.7,2.1,9.5,2.6,14.3c0.2,1.7,0.4,3.3,0.6,5c0.2,1.4,0,3.2-1.3,3.5
	c-0.8,0.2-1.6-0.3-2.4-0.2c-1.3,0.1-2,1.8-1.9,3.1s0.8,2.6,1.1,3.9c0.4,2.2-0.6,4.5-2.5,5.7c0.8,0.1,1.8,0.4,2,1.2
	c-1.7,0.5-2.7,2.3-2.3,4c-0.9-0.1-1.5-0.9-1.4-1.8c0-0.2,0.1-0.3,0.1-0.5c-1.1-1.2-2.9-1.3-4.5-1s-3.1,1.1-4.7,1.2
	c-0.4,1.1-0.5,2.3-0.4,3.5c1.6,0.7,3.5,0.4,5.2,0.4s3.8,0.5,4.5,2.1s-0.2,3.9,0.7,5.6l13.5,0.9c0.3,0,0.7,0.1,1,0.2
	c0.4,0.3,0.6,0.8,0.7,1.3c0.4,1.7,0.6,3.4,0.6,5.2c0,0.5,0,1-0.2,1.5c-0.5,1.2-2,1.6-3.3,1.9c-4.6,0.9-9.2,1.6-13.8,2
	c-1.6,0.2-3.4,0.4-4.2,1.8c-0.5,1-0.5,2.2-0.2,3.3c0.7,4.6,1.2,9.2,1.4,13.8c0.1,1.2,0.1,2.4-0.2,3.6c-0.3,1.2-0.8,2.3-1.1,3.5
	c-1,4.3,2.2,8.7,1.5,13.1c-0.2,0.9-0.3,1.7-0.4,2.6c-0.1,0.9,0.3,1.7,1.1,2.2c1.7,0.9,3.8-1.5,5.6-0.7c0.5,1.7-1.7,2.9-2.3,4.6
	c-1.2,3.7,2.4,7.4,2.5,11.3c0,1.5-0.3,3.3,0.9,4.1c0.4,0.2,0.7,0.4,1,0.6c0.4,0.5,0.6,1.2,0.5,1.9v4.8c0,5.3,0,10.6,0.1,15.8
	c0,1,0,1.9-0.2,2.9c-0.2,0.8-0.4,1.6-0.6,2.4c-0.2,1-0.2,2.1-0.2,3.1c-0.2,5-2.2,10-1.6,14.9c0.9-0.7,2.3-0.6,3,0.4
	c0.1,0.1,0.2,0.2,0.2,0.3c0.9,2.3,0.5,4.9-1.2,6.8c-0.8,0.9-1.9,1.8-1.7,3c1.5-0.4,3.1,0.3,3.8,1.7c0.6,1.4,0.8,2.9,0.6,4.4
	c0,0.4-0.1,0.7-0.4,1c-0.3,0.2-0.7,0.4-1.1,0.4c-4.1,0.6-7.5,3.7-8.3,7.8c1,0.9,2.4,1.1,3.6,0.6c1.2-0.4,2.3-1.1,3.6-1.5
	c3.8-1.1,7.7,1.4,11.7,1.3c0.6,0,1.2-0.1,1.8-0.4c0.5-0.3,0.9-0.7,1.3-1.2c2.3-3,2.6-7.5,5.6-9.8c0.3-0.3,0.8-0.5,1.2-0.5
	c0.7,0,1.2,0.6,1.8,1c2,1.1,4.7-1.3,6.7-0.2c1.1,0.6,1.5,1.9,2.1,3s1.8,2.1,2.9,1.7c-1.4,2.4-1.7,5.2-0.8,7.8
	c0.3,0.8,0.9,1.7,1.8,1.6c0.4,0,0.7-0.2,1-0.4c2.7-1.7,5.7-2.7,8.9-3c0.9,2.7,0.8,5.6,1,8.4c0.2,2.8,0.9,5.8,3.1,7.7
	c2.9-3.8,9.3-3.1,12.4-6.8c-0.4-2.4-0.7-4.8-1.1-7.3c-0.3-2.3-0.6-4.8,1-6.5c1.3-1.4,3.4-1.7,5.3-2c5.8-1,11.1-3.7,16.3-6.4
	c-2.1-0.8-4.4-0.1-6.4,0.9s-3.9,2.3-6.1,2.7c-0.5-1.1-1.7-1.7-2.8-1.4s-2.2,0.8-3.1,1.5c-1.6,0.9-3.2,1.6-4.9,2.2
	c-2.7,1.1-5.3,2.1-8,3.2c-3.3,1.3-6.7,2.7-10.3,2.7c-1.5-1.9-0.8-5.5-3.1-6.2c-1.2-0.4-2.9,0.2-3.7-0.8c-0.3-0.6-0.4-1.3-0.3-1.9
	c0.1-1-0.1-1.9-0.6-2.8c-1.6-2.2-6.2-1.3-6.9-4c-0.5-1.9,1.6-3.4,3.4-4.1c3.1-1.1,6.5-1.5,9.8-1.3c3,0.2,6.7,0.8,8.6-1.7
	s0-6.5,0.6-9.7c0.1-0.5,0.3-0.9,0.6-1.2c0.5-0.3,1-0.5,1.6-0.4c5.9,0,11.7-0.1,17.6-0.1c-1-0.4-1.5-1.9-1.4-3s0.8-2.1,1.9-2.5
	c1.2-0.4,2.7,0.1,3.8-0.7c0.6-0.4,0.9-1.2,1.5-1.5c1.4-0.8,3.6,0.6,4.5-0.7c0.3-0.4,0.4-0.9,0.3-1.4c0-3.2,0-6.5-0.1-9.7
	c-0.1-0.9,0.1-1.8,0.7-2.5c0.7-0.4,1.4-0.6,2.2-0.5c1.4,0,2.8,0.1,4.2,0.1c0.5,0.1,1.1-0.1,1.5-0.4c0.3-0.4,0.5-0.9,0.4-1.4
	c-0.1-5.4-3.5-10.3-8.6-12.2c-1.5-0.5-3.4-1-3.9-2.6c0.9,0,1.8,0.1,2.8,0.1c-2.4-2-2.7-5.5-3.3-8.6s-2.2-6.6-5.3-7
	c-0.9,0-1.9,0-2.8-0.2c-0.9-0.3-1.6-1.4-1.1-2.1c1.1,0.2,2.1-0.5,2.4-1.6c0-0.1,0-0.2,0-0.3c-0.1-1.6-2.2-2.7-2.1-4.3
	s2.5-2.1,4.2-1.9c0.2-4.8,0.1-9.6-0.3-14.4c-1.2,0.5-2.6-1.2-1.9-2.3c0.3-0.4,0.6-0.8,0.9-1.1c0.4-0.9,0.6-1.8,0.6-2.8
	c0.2-1,0.9-2,1.8-1.8c-0.9-3.6-1.2-7.3-0.9-11c0.9,0.8,2.6,0,2.9-1.2c0.2-1.3-0.1-2.5-0.8-3.6s-0.9-2.3-0.8-3.6
	c1.4,0,2.9-0.2,4.2-0.7c1.4-0.4,2.5-1.4,3.1-2.7c0.8-2.1-0.5-4.3-1.7-6.1c-2.9,1.7-6.2,2.6-9.5,2.5c-0.3,0-0.6,0-0.9-0.2
	c-0.2-0.2-0.4-0.4-0.5-0.7c-1.7-3.6-3.5-7.2-4-11.1c5.1-0.9,10.2-1.3,15.4-1.2c0.7-1.5,1-3.2,0.8-4.8c-0.3-1.6-1.7-3.2-3.3-3
	c-0.5,0.1-0.9,0.2-1.4,0.3c-0.5,0-1.1-0.1-1.2-0.6s0.4-1.1,0.8-0.8c-0.4-1.4-1.5-2.5-2.9-2.8c1-0.5,2.2-0.7,3.3-0.8
	c1.2,0,2.2,0.7,2.7,1.7c0.2,0.5,0.1,1.1,0.3,1.6c0.7,1.9,3.7,1.3,5.2,2.7c0.8,0.7,1.6,1.9,2.5,1.3c0.7-0.5,0.2-1.6-0.5-2.1
	c-1-0.6-1.8-1.3-2.6-2.1c-0.7-0.9-0.8-2.4,0.2-3c0.4-0.3,1-0.2,1.5-0.5s0.7-0.9,0.3-1.2c-1.2,0-2.3-0.8-2.7-1.9
	c-0.4-1.1-0.7-2.2-0.6-3.4c-0.1-2.2-0.2-4.3-0.3-6.5c0.4,0.5,1.7,0,2.1-0.6c0.3-0.6,0.4-1.3,0.3-2c-0.4-5.7-0.7-11.4-1.1-17.1
	c1.3-0.8,2.6-1.7,3.9-2.5c0.5-0.3,1-0.7,1.3-1.2c0.3-0.6,0.4-1.2,0.3-1.8c-0.1-3.1-0.7-6.2-1.9-9.1c-0.9-2-1.8-4-2.5-6
	c-0.8-2.1-0.8-4.4,0.1-6.4c0.4-0.8,0.9-1.5,1.2-2.2c1.7-4.3-3.4-9.3-1.6-13.6c2.1,0,4.3-0.1,6.4-0.1c1.2,0,2.8-0.2,3.2-1.4
	c0.2-0.7,0.2-1.3,0.1-2c-0.3-2.8,1-5.6,1.8-8.3c0.6-2.5,1-5.1,1-7.7c0.3-5.7,0.2-11.4-0.4-17c-0.2-1.5-0.7-3.9,0.5-4.8
	c0.9-0.5,1.9-0.6,2.9-0.4c1.5,0.2,3,0.3,4.4,0.5c0.2-1.6,0.4-3.2,0.6-4.9c0-0.8,0.3-1.6,0.8-2.3c1-1.1,2.9-0.8,4.4-0.3
	c1.1-3.6-0.5-7.4-1.2-11.1c-0.8-4.3-0.2-8.6,1.5-12.6c0.5-0.9,0.8-1.8,1.1-2.8c0.3-1.1,0.4-2.2,0.5-3.3c0.2-3.1,0.3-6.4,1.9-9.1
	c0.6-1.1,1.5-2,2.1-3c2.3-3.4,2.9-7.9,5.7-10.9c0.7-0.6,1.3-1.3,1.9-2c0.5-1.1,0.9-2.2,1.3-3.3c1-2.2,3.2-4.1,2.6-6.4h-5.7
	c-0.5,0-1.1-0.3-0.9-0.7c1.5-2.5,1.8-5.7,2.2-8.7c0.2-1,0.1-2.4-0.9-2.7c-1.6-0.5-2.9,2.4-4.4,1.7c-1.1-0.5-0.7-2.1,0.1-2.9
	c0.8-0.8,2-1.4,2.4-2.5c0.2-1,0.1-2-0.2-2.9c-0.4-2.5,0.4-5.1-0.3-7.4c-0.8-2.6-3.3-4.8-2.9-7.5c0.3-1.1,0.7-2.1,1.2-3
	c0.7-2.1,1-4.3,0.9-6.5c0-1.9-0.1-4.1-1.6-5.2c-1-0.7-2.5-1-2.8-2.1c-0.1-0.7,0-1.4,0.1-2.1c0-1.8-1.8-3-3.6-3.2s-3.5,0.1-5.3-0.2
	c-1.1-0.2-2.4-1.3-1.8-2.3c3.1-5.8,2.8-12.9,4.1-19.3c0.7-3.6,1.5-7.2,1.3-10.8c-0.1-1.5-0.3-3-0.3-4.5c0.1-5.2,3.8-10.1,3-15.2
	c0-0.4-0.1-0.7-0.3-1c-0.8-1.1-2.5,0-3.8-0.2c-0.8-1.4-1.2-3-1.2-4.6c-4.9,0.3-9.8,0.7-14.7,1c-0.5,0.1-1,0-1.4-0.2
	c-0.5-0.5-0.8-1.2-0.7-1.9c-0.2-2.7-0.3-5.3-0.5-8c-0.1-2.1-0.7-4.8-2.8-5.2c-0.4-0.1-0.8-0.1-1.1-0.2c-2.9-0.8-1-6.5-3.8-7.5
	c-0.5-0.2-1.2-0.1-1.7-0.3c-1.5-0.5-2.5-1.9-2.6-3.4c-0.3-1.5-0.1-3-0.4-4.5c0-0.5-0.2-0.9-0.6-1.2c-0.3-0.3-0.7-0.3-1.1-0.5
	c-1.5-0.8-1.8-2.8-1.9-4.4s-0.7-3.7-2.3-4.1c-1-0.2-2.4-0.9-2.5-1.9s0.9-1.9,0.7-2.8c-0.1-0.3-0.3-0.7-0.6-0.9
	c-1.2-1.4-2.5-2.8-3.7-4.2c0.3-0.6,0.9-0.9,1.5-0.7c0.6,0.1,1.2,0.4,1.7,0.7c1.5,0.6,3.3,0.6,4.8,0c-2.3-1.5-4.6-3-7-4.5
	c-1.9-1.2-4-2.7-4.3-5c-0.2-1.5,0.4-3,0.1-4.5c-0.3-1.7-1.7-3.6-0.7-4.9c0.7-0.9,2.3-1.2,2.4-2.3c0.1-1.1-1.3-1.7-1.5-2.7
	c-0.1-0.4,0-0.9,0.1-1.3c0.5-2,1.3-4.4,3.3-4.9c-0.9-1.4-2.6-2.1-4.3-2.7s-3.3-1.2-4.4-2.6s-1-3.7,0.6-4.5c0.2-2-1.2-3.9-2.7-5.3
	s-3.1-2.8-3.7-4.8c-0.1-0.5-0.2-0.9-0.5-1.3c-0.3-0.5-0.8-0.7-1.2-1.1c-1.1-0.9-1.7-2.4-1.5-3.8s1.2-2.6,2.5-3.2
	c0.9-0.1,1.8-0.4,2.6-0.9c0.9-0.9,0.5-2.5-0.1-3.7c-3.2-1-6.7-0.8-9.8,0.7c-1-3.3,1.8-6.3,3-9.5C757.3,273.7,757.3,271,756.2,268.7"
	/>
<path class="st4" d="M733.7,508.4c1.5-3.6,2.4-7.4,2.8-11.3c0-0.3,0-0.5,0.2-0.7c0.4-0.4,1.1-0.1,1.6-0.1c0.9,0,1.4-1.1,1.7-2
	c0.6-2.1,1-4.2,1.3-6.3c0.1-1.1,0.3-2.2,0.8-3.2s1.6-1.7,2.7-1.6c-0.2-0.9,0.4-1.7,1.3-1.9c0.3-0.1,0.6,0,0.9,0.1
	c-0.9,1-0.7,2.5,0.3,3.4l0,0c-0.6-0.1-1.2,0.3-1.3,0.8c0,0.1,0,0.2,0,0.4c0.2,0.7,0.7,1.3,1.4,1.5c0.7,0.1,1.4,0.1,2.1,0
	c0.4,2.5,0.5,5.1,0.4,7.7c0.8-0.6,1.9,0.2,2.2,1.2c0,1-0.1,2-0.3,2.9c-0.6,4.4,3.5,8.5,2.7,12.9c-3.9-0.9-7.7-1.7-11.6-2.5
	c-1.4-0.3-2.8-0.5-4.1-0.8c-1-0.3-2.1-0.4-3.2-0.5c-0.7-0.1-1.4,0.2-1.9,0.6c-0.3,0.2-0.5,0.6-0.6,0.9c-0.1,0.2-0.2,0.5-0.2,0.7
	c-0.4,1.5-0.7,3.1-1,4.6c-0.2,1-0.5,2-0.7,3c-0.6,2.5-1.1,5-1.7,7.5s-1,5.2-1.6,7.8c1.5-1,3.1-2.1,5-2.1c1.3,0.1,2.6,0.4,3.8,1
	c0.7,0.3,1.5,0.7,1.7,1.4c0.1,0.7-0.1,1.4-0.6,1.9c-0.8,1.1-1.8,2-2.9,2.7c2.5,0.1,4.8,1.2,6.3,3.2c0.2,0.4,0.5,0.8,0.9,1.1
	c0.8,0.6,2,0.4,2.6-0.4c0.1-0.3,0.3-0.6,0.6-0.8c0.5-0.3,1.2,0.1,1.7,0.5c1.9,1.1,4.7,0.6,5.9,2.4c1,1.6-1.8,4.1-3.7,4.3
	c-0.4,0-0.9,0-1.3,0.2c-0.6,0.5-1,1.3-1.1,2.1c-0.5,1.7-1.9,3-3.7,3.3c-0.9,0.1-1.7,0.2-2.6,0.4c-2.2,0.8-2.7,3.6-2.8,5.9l-0.9,13.5
	c-0.9,0-1.9,0-2.8,0.1c0.2,2.6-0.4,5.2-1.7,7.4c-0.8-0.3-1.7-0.5-2.5-0.8c-0.6,0.8-0.7,1.8-0.3,2.7s0.8,1.8,1.1,2.7
	c0.3,1.9-1,4-0.1,5.7c0.2,0.4,0.6,0.9,0.5,1.3c-0.2,0.8-1.2,0.8-2,0.9c-1.2,0.2-2.2,1-2.7,2.1c0.3,0.7,1.2,0.9,1.8,1.4
	c1.1,1,0.3,2.7,0.4,4.2c0.1,2.7,3,4.2,4.5,6.5c-4.1,0.9-8.2,1.2-12.4,0.9c-0.3,0-0.6,0-0.9,0.2c-0.2,0.2-0.2,0.5-0.1,0.8
	c0.6,4.1,1.9,8.1,3.7,11.9c-1.9-0.1-4.2,0.2-6.2,0.2c0.9,3.4,1.8,6.8,2.6,10.3c-1.6,0-3.2,0.3-4.6,1.1c0.7,2.4,1.5,4.9,2.2,7.3
	c-0.5,0.1-0.9,0.1-1.4,0.2c-0.3,3.2,2.5,5.9,3.2,9.1c-1,0-2,0-3-0.2c1.7,2.6,3.1,5.4,4.1,8.4l-2.3,0.6c-0.3,0.1-0.6,0.1-0.9,0
	c-0.3-0.2-0.4-0.6-0.5-0.9c-0.4-1.6-1.2-3.1-2.3-4.3v2.4H713c0.6,0.3,1.3,1,1,1.6c-0.2,0.4-0.8,0.6-0.9,1c-0.3,0.9,1.6,1.7,1,2.5
	c-0.3,0.3-0.6,0.5-1,0.5c-0.9,0.3-1.5,1-1.6,1.9c0.5-0.2,0.9-0.2,1.4,0c0.4,0.2,0.8,0.7,0.6,1.1c-0.4,1-2.3,0.3-2.6,1.3
	c2,6.9,3.2,14,3.8,21.2c0.1,0.5,0,1-0.2,1.4c-0.3,0.5-0.9,0.6-1.3,1s-0.7,1.1-0.3,1.4c1-0.1,2,0.5,2.4,1.5c0.4,0.9,0.6,2,0.5,3
	c0.1,0.8-0.1,1.5-0.4,2.2c-0.4,0.6-1.5,0.9-1.9,0.3c-0.1,0.6-0.1,1.2-0.2,1.8c-1.4-0.1-2.2,1.6-2.4,3c-0.6,3.6-0.4,7.3,0.4,10.8
	c-0.6,0.1-1.1,0.3-1.7,0.4c0,0.7-0.1,1.4-0.1,2.2l-2.7,0.3c0.3-1.4-0.4-2.9-1.6-3.6c-0.9,1.8-3.6,1.1-5.4,1.9
	c-1.5,0.8-2.1,2.7-1.3,4.3l0,0l6.2-0.3c0.7-0.1,1.4,0,2.1,0.2c1,0.4,1.7,1.4,1.7,2.5c0,2.3-2.8,3.7-5,3.3s-4.1-2-6-3.2
	c-3.6-2.2-7.7-3.3-11.8-4.4c0.9,5.6,1.4,11.3,1.4,17c2.3-0.3,4.6-0.6,6.8-0.8c0.4-0.1,0.9-0.1,1.2,0.2c0.3,0.2,0.4,0.7,0.5,1
	c0.3,1.7,0.6,3.5,0.8,5.2c2.7-0.4,5.3-0.9,8-1.3c-0.1,0.7-0.5,1.4-1.2,1.7c0.4,0.8,0.6,1.6,0.6,2.5c-0.1,0.8-0.9,1.7-1.7,1.5
	c-0.3-0.1-0.7-0.2-1-0.3c-0.4,0-0.8,0.3-0.7,0.6c0.7,0,1.3,0.1,2,0.1c0.2,2.2,0.4,4.5,0.6,6.7c-1.4,1.3-0.7,3.6,0,5.4
	c-0.4,0.1-0.8,0.2-1.2,0.2c-0.1,1.2-0.1,2.4-0.2,3.6c0.8-0.2,1.1,1.1,0.9,1.9c-0.4,2-0.8,4.1-1.2,6.1c-0.9,4.4,1.7,8.9,2.7,13.2
	c0.2,1.1,0.5,2.2,0.9,3.2c0.7,1.3,1.2,2.7,1.5,4.2c0.1,1.1-0.2,2.2,0.3,3.1c0.7-0.1,1.3-0.4,1.9-0.7c0.8,4.1,1.5,8.2,2.3,12.2
	c0.2-0.4,0.7-0.5,1.1-0.4c0.6,3,0.9,6.1,1,9.2c0.1,1.4-0.1,2.8-0.5,4.1c-0.5,1.2-1.4,2.2-1.7,3.4c-0.4,1.5,0.2,3.1,0.6,4.6
	c0.7,2.4,1.3,4.8,1.7,7.2c-0.8-0.1-1.3,0.8-1.2,1.6c0.2,0.7,0.4,1.5,0.7,2.2c0.3,0.8-0.1,1.6-0.9,1.9c-0.2,0-0.4,0-0.6,0.1
	c-0.2,0.1-0.3,0.4-0.1,0.5c0.6,3.3,0.8,6.7,0.5,10c-0.6-0.1-1.2-0.4-1.7-0.8c0,0.7,0.8,1.1,1.5,1.2c0.7,0,1.4,0.2,2,0.6
	c0.3,0.3,0.5,0.8,0.5,1.2c0.5,2.1,0.7,4.2,0.6,6.3c-0.8-0.6-1.9,0-2.4,0.8c-0.4,0.9-0.5,1.9-0.3,2.8c0.4,0.2,0.7,0.5,1.1,0.7
	c0.3-0.5,1-0.6,1.5-0.3c0.4,0.3,0.5,1,0.2,1.4l-0.1,0.1c0.7,0.3,1.3,0.9,1.5,1.6c-0.6-0.4-1.4-0.3-1.9,0.3l0,0
	c-0.4,0.6-0.7,1.3-0.9,2c-0.7,1.4-2.3,2.2-3.8,2.9c-3.9,1.7-7.8,3.3-11.7,4.8c-4.1,1.6-8.2,2.9-12.4,4c-1.6,0.5-3.3,0.6-5,0.4
	c-0.2,0.4,0.4,0.7,0.8,0.8s1,0,1.2,0.4c0.1,0.2,0,0.5,0,0.8c-0.2,1.1,0.5,2.2,1.5,2.6c-1.7,2.1-4.4,3.1-7,4
	c-4.9,1.7-9.7,3.5-14.6,5.2c-0.6,0.2-1.1,0.4-1.7,0.6c-1.4,0.5-3.1,0.9-4.2,0c-0.7-0.6-0.9-1.5-1.5-2.2c-0.4-0.5-1-0.9-1.5-1.4
	c-1.3-1.4-1.5-3.4-1.7-5.4l-0.9-13.2h-2c-3.8,2.5-9.2,2.3-13.7,2.1c-0.6-0.1-1.1,0-1.6,0.3c-0.5,0.6-0.7,1.4-0.5,2.2
	c0.6,6,1.1,12,1.7,18.1c-4.1,0.7-8,1.9-11.8,3.6c-1.8,0.8-3.7,1.7-5.5,1c-1.4-0.5-2.3-1.9-3.5-2.9c-1.7-1.3-3.6-2.2-5.7-2.6
	c-0.7-0.3-1.5-0.3-2.3-0.2c-0.6,0.3-1.1,0.6-1.6,1.1c-1,0.8-2.3,1.3-3.6,1.3c0.3-3.8,0.7-7.6,1-11.4c0.1-1.1,0.2-2.1,0.4-3.2
	c0.2-1,0.4-2.1,0.7-3.1c0.9-3.7,1.8-7.4,2.7-11.2c0.4-2.3,1.2-4.5,2.4-6.5l-36.8-1.4l2.2-17.2l-4.7-0.4l9.4-48.8l-40.7-3.2v-4
	l11.5,0.6l1.7-13.4l13.7,0.9l0.8-6l-11.5-0.4l0.6-4.1l11.9,0.1v-5.6c-1.9,0.1-3.7-0.2-5.5-0.7c0.4-1.1,0.7-2.1,1-3.2
	c1.2-0.1,2.4-0.1,3.6-0.2c0-0.6-0.1-1.2-0.3-1.8c0-0.1-0.1-0.2-0.2-0.2c-0.1-0.1-0.2,0-0.4,0s-0.4-0.1-0.6-0.2
	c-1.3-0.4-2.6,1.4-3.8,0.8c-0.5-0.2-0.8-0.7-0.8-1.2c-0.1-0.5,0-1,0.1-1.5c0-0.2,0.1-0.3,0.2-0.4c0.1-0.1,0.2-0.1,0.3-0.1
	c2.8-0.4,5.7-0.7,8.5-1l0.4-11.3h-2.5v1h-1.9v-1l-27.9-3.1l-5.7-6.8l7.3-21.6l34,4c0.2-1.3,0.2-2.7,0.4-4c0.9-0.1,1.5-0.8,1.7-1.6
	s0.2-1.7,0-2.5l-1.7-0.3c-0.2,0-0.4-0.1-0.5-0.2c-0.1-0.2-0.1-0.3,0-0.5c0.4-1.5,0.7-3,1.1-4.5c0.2-1.2,0.6-2.3,1.2-3.3
	c0.6-1,1.8-1.6,3-1.4c0.4,0.1,0.7,0.2,1.1,0.2c0.8-0.2,0.8-1.4,0.6-2.2c-0.7-0.2-1.3-0.4-1.9-0.8c-0.3-3.8,2.3-7.2,2.6-11
	c0-0.3,0-0.7-0.2-1s-0.6-0.4-0.9-0.2l0,0c0.1,1.3-0.7,2.4-1.9,2.8c0.1-2.6,0.4-5.1,0.9-7.6c0-0.2,0.1-0.4,0.3-0.5s0.5,0,0.8,0
	c0.5-0.1,1-0.5,1.1-1s0-1.1-0.3-1.5c-0.3-0.5-0.5-1-0.6-1.6c0-0.6,0.6-1.2,1.1-0.9c0.4-2.5,0.4-5.3,0.9-7.8c0.5-1.8,0.5-3.8,0-5.6
	c-0.4-1.1-1.1-2.1-1.4-3.2c-0.2-1.4,0-2.7,0.5-4c1.7-5.4,3.5-10.7,5.1-16.1c-1-0.6-1.7-1.6-2.1-2.7c-0.8-2.3,0-4.8,0.8-7.1
	c0.4-1,0.7-2,1.1-3.1c0.4-1.1,1.1-2.3,2.2-2c-0.2,1.4,0.8,2.6,2.2,2.7c0.3,0,0.5,0,0.8,0c-0.2-2.8-0.3-5.8-0.5-8.6
	c0-0.6,0-1.3,0.5-1.4s1.1,0.5,1.8,0.5s1.1-1,1.1-1.7c-0.2-0.5-0.9-0.6-1.4-0.5c-0.5,0.2-1.1,0.2-1.6,0.2c-1.1-0.2-1.5-1.5-1.7-2.6
	c-0.7-3.1-1.1-6.2-1.2-9.4c0.5,0,0.9,0.3,1,0.8c1.6,0,2.6-1.9,2.4-3.4c-0.1-1.2-0.5-2.7,0.6-3.2c0.7-0.3,1.6,0.1,2.3-0.2
	c1-0.5,0.7-1.9,0.2-2.9c-0.7-1.4-1.3-2.9-2-4.3c1.3,0.2,2.6-0.1,3.8-0.7c-1.5-0.7-3.3-0.8-4.9-0.5c-0.7-1.7-1.2-3.4-1.4-5.2
	c3,0.1,5.9-0.2,8.8-1c0-1.5,0-3-0.2-4.5c0.5,0.1,0.9,0.1,1.4,0v-3.1c0.5,0,0.9-0.1,1.4-0.1c0-1.4,0.2-2.9,0.7-4.2
	c0.8,0.1,1.4-0.8,1.5-1.6s0.2-1.7,0.9-2.2c0.2-0.2,0.6-0.3,0.7-0.6c0.2-0.3,0.2-0.6,0.2-0.9c0.1-2.7,0.1-5.3,0.2-8
	c0.9-0.2,1.9-0.2,2.8,0c0.8,0.2,1.3-0.8,1.2-1.6c-0.2-0.8-0.5-1.5-1-2.2c-0.8-1.5-1.1-3.1-0.9-4.8c0.7,0.1,1.4-0.1,2-0.4
	c0.6-0.4,0.9-1.1,0.6-1.8c3.7-0.8,7.4-1.1,11.2-0.8c0.4-2.4,0-4.9-1.1-7.1c-0.7-1-1.3-2.1-1.6-3.3c-0.3-1.5,0.2-3.2-0.7-4.4
	c-0.3-0.4-0.8-0.8-0.8-1.3s0.4-0.9,0.6-1.3c1.1-1.8,1.2-4,0.5-5.9c-0.6-1.9-1.4-3.9-1.3-6c0-1.9,0.8-3.8,0.5-5.7
	c-0.3-1.6-1.5-3-1.8-4.6c-0.1-0.8-0.1-1.6-0.1-2.4c0-1.8-0.5-3.7-1.3-5.3c-1,0.2-2,0-2.9-0.5c-0.8-0.6-1.1-2-0.2-2.5
	c0.3-0.2,0.8-0.2,1-0.5s0.1-0.8,0-1.2l-6-19.5c-0.1-0.5-0.4-1-0.7-1.4c-0.9-0.9-2.5-0.4-3.6,0.2c-1.5-4.5-3.8-8.7-5.7-13.1
	c-0.5-0.3-1,0.3-1.6,0.4c-0.8,0.1-1.3-0.9-1.5-1.6c-0.4-1.5-0.7-3-0.9-4.6c-1.2,0.1-2.3,0.2-3.5,0.2c-0.3-1-0.4-2.1-0.3-3.1
	c0.8,0.1,1.5-0.2,2.1-0.7c-0.5-3.2-1.5-6.4-2.9-9.3c-0.7,0.4-1.6,0.6-2.4,0.7v-0.7c-0.4,0-0.7-0.2-0.9-0.5c0.2-0.2,0.5-0.3,0.7-0.5
	c-0.6-0.4-1.3-0.5-2-0.5v-2.7c-0.9,0.1-1.7,0.4-2.4,0.9c-1.8-4.1-3.3-8.3-4.5-12.6c0.7,0.6,1.8-0.2,1.9-1.1c0-0.9-0.4-1.7-1-2.4
	c-0.2-0.2-0.4-0.5-0.6-0.5c-0.6,0-1,1.1-1.6,0.8c-0.3-0.5-0.7-1.1-1-1.6c-1.1-1.8-2.3-4-1.4-5.9c0.8-1.6-0.2-3.5-0.3-5.3
	c0-0.3,0-0.6-0.2-0.9c-0.4-0.6-1.4-0.3-2.2-0.4c-1.2-0.2-2.1-1.2-2.2-2.4c-0.1-1.1,0-2.3,0.4-3.4c0.6-2.1,1.2-4.1,1.7-6.2
	c-0.6,0.1-1.2,0.1-1.7,0.2c0.2-1.3,0.2-2.7,0.1-4c-1.1,0.2-2.1,0.2-3.2,0.1c0.3-0.9,0.3-1.8,0.1-2.7c-0.2-0.9-1.1-1.4-1.9-1.2
	c-0.1,0-0.1,0-0.2,0c-0.4-0.9-0.4-2-0.1-2.9c0.4-1.6,0.8-3.2,1.3-4.8c-2-0.6-4.1-0.8-6.2-0.8c-0.7-3.7,0.8-7.4,3.7-9.7
	c0.9-0.7,1.9-1.3,3-1.7c2.1-1.1,4.5-1.8,6.9-1.9c0.1-2.7,0.3-5.4,0.4-8.1c-1.3-0.1-2.6-0.1-3.8-0.2c-0.4-3-0.5-5.9-0.4-8.9
	l-20.9-3.6c0.2-3.4,0.6-6.8,1.4-10.1c-0.6,0-1.1,0-1.7-0.1c0.1-2.9,0.4-5.9,0.7-8.8c-1.3,0-2.6,0-3.8-0.1c-0.2-2.5-0.1-5.1,0.3-7.6
	c-1.5-0.9-2.9-2.2-3.9-3.6c-0.1-0.2-0.2-0.4-0.2-0.6c0-0.5,0.6-0.8,1.1-0.9s1.1,0,1.5-0.3c0.6-0.6,0.8-1.5,0.5-2.3
	c-0.3-1.6-0.5-3.2-0.8-4.8c-1.5,0.4-3.1,0.5-4.6,0.4c-0.3-3.4-0.2-6.8,0.4-10.2c1.8-0.4,3.9,0.8,5.4-0.2c1.3-0.8,1.5-2.8,2.8-3.7
	c-2,0.1-3.9,0.6-5.7,1.5c0.5-1.7,0.6-3.5,0.5-5.2c-0.8,0.3-1.4-0.7-1.4-1.5c-0.1-1.5,0.2-3.1,0.7-4.5c0.6-2.1,1-4.2,1.4-6.3
	c0.2-0.5,0.1-1.1-0.2-1.6c-0.5-0.4-1.1-0.7-1.7-0.7c-0.6-0.1-1.3-0.5-1.3-1.1c0.1-0.5,0.5-0.9,1-1c0.5,0,1,0.1,1.5,0.3
	c2.1,0.8,4.1,1.7,6.2,2.5c0.6,0.3,1.4,0.4,2.1,0.3c0.5-0.3,0.8-0.6,1.1-1.1c0.5-0.8,1-1.5,1.5-2.3c0.5-0.7,0.9-1.5,1.2-2.4
	c0.2-0.8,0.1-1.7,0.3-2.4c0.3-0.7,0.6-1.3,1.1-1.8c0.5-0.8,0.8-1.8,0.8-2.8c0-0.2,0-0.3-0.1-0.5c-0.1-0.1-0.2-0.1-0.3-0.2
	c-1-0.4-1.9-0.7-2.9-1.1c0.3-1.4,0.8-2.8,1.2-4.1c0.2-0.7,0.6-1.3,1.1-1.7c0.9-0.6,2-0.2,2.9,0.1c2,0.8,4.3,1.8,4.7,3.9
	c0.3,1.7-0.9,3.4-1,5.2c-0.3,0-0.4,0.5-0.7,0.5c1.8,2,4.4,3,7.1,2.8c1.2-3.5,1.1-7.2-0.1-10.7c2.7-2.2,4.4-5.3,4.8-8.7l6.8,0.9
	c1.5-3.3,3-6.7,4.5-10c0.7-1.5,1.4-3.1,2.9-3.9s3.2-0.5,4.7-1.1c2-0.7,3.3-2.6,5-3.7c3.1-1.7,7-1,9.2,1.8c0.3,0.6,0.8,1.2,1.3,1.7
	c1,0.8,2.4,0.9,3.6,1.2c2.5,0.6,4.7,2.3,5.9,4.6c0.6,1.1,0.9,2.6,0,3.5c-0.5,0.6-1.4,0.7-2.1,1c-2.9,1.3-4.2,4.6-2.9,7.5
	c0.4,0.6,0.7,1.2,0.9,1.9c0.5,2.4-2.9,4.7-1.9,7c0.4,0.8,1,1.4,1.8,1.7c6.7,4,13.8,8.2,21.7,8.3c-0.1-1.9,0.2-3.8,0.9-5.6
	c0.1-0.4,0.4-0.7,0.7-1c1.6-0.9,3.2,2.4,4.8,1.6c0.4-2.4,3.4-3.3,5.9-3.3s5.2,0.4,7-1.2c1.4-1.3,2.1-3.7,4-4s3.3,1.7,4.9,2.9
	c2.3,1.8,5.5,2,7.7,3.9c1.2,1.2,2.2,2.5,2.9,4c1.1,1.7,1.8,3.7,2.1,5.7c0.2,3-1.5,5.8-2.9,8.5c-1,1.6-1.5,3.5-1.5,5.4
	s1.3,3.6,3.2,4.1c1.3,0.2,2.9-0.4,4,0.3c1.4,0.9,1.2,3,0.2,4.4s-2.4,2.3-3.2,3.7c-0.6,1.4-1,2.8-1.4,4.3c-1.5,3.8-5.6,5.6-9.1,7.6
	c-3.7,2.1-7.1,4.8-10.1,7.9c-2.3,2.4-4.6,5.2-7.9,5.4s-5.9-2.3-8.7-4c-3.2-1.9-6.8-2.7-10.5-2.4c0.6,4.2,3.3,7.8,7.1,9.7
	c1.5,0.7,3.2,1.1,4.4,2.2s1.8,3.2,0.6,4.4c-0.9,0.6-1.9,0.9-3,1.1c-1,0.3-2.1,1.3-1.7,2.3c0.5,1.4,2.6,0.7,4,0.9
	c2.1,0.4,3,3.3,2.1,5.2c-0.9,1.9-3,3.1-4.9,4.1c-1.1-4-5-6.6-9.1-6.2c-1.5,1.9-3,3.9-4.5,5.8c4.1,1.6,4.4,8.1,8.4,9.8
	c6-1.3,10.8-3.7,16.3-6.6c1.3-0.7,2.6-1.3,4-1.8c1.5-0.3,3.1-0.5,4.7-0.4h7.5c1.7,0,4.1,0.6,3.9,2.3c-2.4,0.7-4.3,2.7-4.8,5.2
	c-0.5,2.7,0.7,5.3,1.8,7.8c4.2,0.4,7.7-3.3,9.4-7.1s2.5-8.1,5-11.6c1.1-1.5,2.6-3,2.6-4.9c0.1-3.1-3.5-5.3-3.3-8.4
	c0.2-0.8,0.4-1.6,0.6-2.4c0.4-1.9,0.8-3.9,1-5.8c0.4-1.9,1.6-3.9,3.5-4.5c1.2,0.9,1.6,2.5,1,3.9c1.9,0.5,3.1,2.6,3.3,4.6
	c0.1,2-0.3,4-1,5.9c-1.3,0.1-2.3,1-2.6,2.3c0.9,0.6,0.8,1.9,0.4,2.9s-1,2-0.7,3.1c0.8,0.4,1.7,0.2,2.2-0.6c0.4-0.8,0.6-1.6,0.6-2.5
	c0.1-1.3,0.6-2.6,1.5-3.6s2.4-1.3,3.6-0.6c1.1,0.7,1.3,2.7,0.1,3.3c0.9,0.7,1.8,1.5,2.7,2.2c-0.5,0.7-1.5,1-2.3,0.7
	c0,1.5-0.1,2.9-0.1,4.4c-2.3,0.7-4.6,1.3-6.8,2c-1.8,0.4-3.4,1.2-4.8,2.4c-1.3,1.4-1.7,3.3-2.1,5.2c2,0.1,4,0.6,5.9,1.4
	c-0.6-0.7-0.8-1.5-0.6-2.4c1.8,0.3,3.6,0.6,5.4,0.7c0.7,0.1,1.8-0.3,1.5-1c1.5,0.9,3,1.6,4.6,2.2c-0.8,0.7-1.9,1-2.9,0.8
	c0.2,0.6,0.9,0.9,1.5,0.7l0,0c0.6-0.2,1.1-0.6,1.8-0.8c1.3-0.3,2.6,1,2.9,2.3c0.1,1.4,0.2,2.7,0.1,4.1c0.1,1.4,0.6,2.9,1.9,3.4
	c-0.6,0-1.2,0-1.8-0.1c0.4,3.8,1.8,7.4,3.9,10.6c1.4,2,3.1,4.4,2.3,6.7c-1,0.2-1.9,0.7-2.7,1.3c1.8,0,3.5,0,5.3,0.1v3
	c-1,0-2.7,0.1-3.7,0.2c2.9,1.7,5.5,4.1,7.5,6.8c-0.7,0.2-1.4,0.3-2,0.5c1.2,0.1,1.8,1.5,2.1,2.6s0.4,2.5,1.4,3.2
	c0.4,0.3,1,0.4,1.4,0.7c1.6,1,1.7,3.5,3.4,4.3c0.6,0.2,1.2,0.2,1.8,0.4s1.1,0.8,1,1.3c-1.5,0.4-2.5,1.9-2.1,3.4
	c0.1,0.4,0.2,0.7,0.4,1c1.1,0.1,2,0.9,2.2,2c1,0,1.9,0.3,2.7,0.8c0.2,0.1,0.3,0.3,0.4,0.5c0,0.2,0,0.3-0.1,0.5
	c-0.5,1.1-1,2.1-1.4,3.2c2,0.4,4,1,5.9,1.8c-0.7,0.6-1.3,1.2-1.9,1.9c1.3-0.1,2.6,0.1,3.8,0.7c-0.5,3-0.2,6,0.8,8.9
	c1.7-0.1,3.3-0.3,5-0.4v3l4-0.3c1.6,7.3,2.8,14.6,3.6,22c-0.7,0-1.3-0.1-2-0.1c0.8,2,0.9,4.2,0.2,6.3c1.4,0.5,2.7,1.1,3.9,1.8
	c-0.8-0.4-1.7,1.1-1.9,2.1s-0.3,2.1-1.2,2.3c0.4,0,0.7,0.1,1.1,0.1c0,1.1,0.3,2.2,0.9,3.2c1.1-0.7,2.4-0.9,3.7-0.8
	c0.4,1.5,0.5,3.2,0.1,4.7c-0.4,1.3-0.9,2.6-1.5,3.8c-0.4,0.8-0.8,1.7-1.2,2.5c1-0.2,2-0.2,3-0.1c0.2,3.5-0.8,6.9-2.8,9.8
	c-1.2,0.2-2.3,0.2-3.5,0c-0.9,3.9-1.2,8-2,11.9c-0.5,2.5-1.2,4.9-1.8,7.3s-1.2,4.5-1.7,6.8"/>
<path class="st5" d="M743,530.4c1.1,0.3,2.3,0.5,3.4,0.8c1.3,0.3,2.7,0.8,3.1,2c0.1,0.5,0.1,1,0,1.5c0,0.4-0.1,0.8-0.4,1
	c-0.2,0.1-0.5,0.1-0.7,0.1c-2.9,0-5.8-0.4-8.6-1.4c-0.2-0.1-0.5-0.2-0.6-0.4s-0.1-0.5-0.1-0.7v-3.2c0-0.6,0-1.1,0.2-1.7
	c0.2-0.5,0.6-0.9,1.1-1c0.6-0.1,1.1,0.3,1.7,0.4c0.4,0.1,0.7,0.1,0.8,0.5C743,528.7,742.9,530.4,743,530.4z"/>
</svg>
