<?xml version="1.0" encoding="utf-8"?>
<!-- Generator: Adobe Illustrator 25.4.1, SVG Export Plug-In . SVG Version: 6.00 Build 0)  -->
<svg version="1.1" xmlns="http://www.w3.org/2000/svg" xmlns:xlink="http://www.w3.org/1999/xlink" x="0px" y="0px"
	 viewBox="0 0 1204.4 997.4" style="enable-background:new 0 0 1204.4 997.4;" xml:space="preserve">
<style type="text/css">
	.st0{fill:url(#SVGID_1_);}
	.st1{opacity:0.68;fill:#E29471;stroke:#FF742E;stroke-width:2;stroke-miterlimit:10;enable-background:new    ;}
	.st2{fill:#C83A02;}
	.st3{opacity:0.68;fill:#E2B971;stroke:#E78900;stroke-width:2;stroke-miterlimit:10;enable-background:new    ;}
	.st4{opacity:0.68;fill:#F4DDB5;stroke:#D0B000;stroke-width:2;stroke-miterlimit:10;enable-background:new    ;}
	.st5{opacity:0.68;fill:#F4DDB5;enable-background:new    ;}
	.st6{display:none;fill:url(#SVGID_00000005268703367089911700000000540850039198299267_);}
</style>
<g id="Capa_1">
	
		<image style="overflow:visible;enable-background:new    ;" width="2036" height="1599" xlink:href="E2674A73.jpg"  transform="matrix(0.6031 0 0 0.6363 -1.9017 -1.8223)">
	</image>
	
		<linearGradient id="SVGID_1_" gradientUnits="userSpaceOnUse" x1="-1.9017" y1="498.5777" x2="1205.1982" y2="498.5777" gradientTransform="matrix(1 0 0 -1 0 996.7554)">
		<stop  offset="3.214890e-02" style="stop-color:#000000"/>
		<stop  offset="6.224116e-02" style="stop-color:#090908;stop-opacity:0.9354"/>
		<stop  offset="0.1275" style="stop-color:#141413;stop-opacity:0.7952"/>
		<stop  offset="0.2193" style="stop-color:#1B1B19;stop-opacity:0.5979"/>
		<stop  offset="0.4744" style="stop-color:#1D1D1B;stop-opacity:5.000000e-02"/>
		<stop  offset="0.75" style="stop-color:#1B1B19;stop-opacity:0.5664"/>
		<stop  offset="0.8637" style="stop-color:#141413;stop-opacity:0.7795"/>
		<stop  offset="0.9473" style="stop-color:#080807;stop-opacity:0.9361"/>
		<stop  offset="0.9814" style="stop-color:#000000"/>
	</linearGradient>
	<rect x="-1.9" y="-1.8" class="st0" width="1207.1" height="1000"/>
	<path class="st1" d="M831.2,140.6c0.9-1.8,1.5-3.2,3.8-3.2c0,2.3-3.5,7.7-0.5,9.7c8.8,5.9,31.3,9.6,40.5,8.1
		c0-11.1,15.1-23.3,18.9-8.1c8.2,0.6,16.8,0.2,19.4,8.1c4.3,0,5.8,6.9,6.5,10.3c2-1,5.2-1,7.6-1.6c0,3.3,1.3,5.8-0.5,8.6
		c2.1,1.4,2.4,2.4,1.6,4.9c3.4,0,1.8-0.2,4.9,0.5c0.7-2.6,0-1.6,1.6-3.2c8.1,4.1,21.6,4.8,16.7,14.6c3.3,3.3,3.2,4.2,8.6,5.4
		c-3.1-6.1,31.3-3.7,13,14.6c3.6,3.6,0.6,7.5,0,11.9c4.8,0,9.7-5.6,9.7-10.8c4.7-0.7,5.7-1,6.5,3.8c12.6,0-4.9,17.4-4.9,17.8
		c9.2,0,36.5,5.3,28.6,21.1c6.6,0.5,10.6,1.2,17.3,1.6c-0.1,2,0,4,0.5,5.9c5.5-0.8,6.7-0.5,11.3,1.1c0,2.9-2.4,2.4-4.9,2.2
		c-12.6-1-37.8,10.8-41-5.4c-2.3,0-2.7-1.5-2.7-3.8c-4.4-1.1-6.7-0.5-7.6-5.4H985c0-1.8-1.1-1.6-2.7-2.2V246
		c-4.2,2.1-3.4,2.7-8.6,2.7c-3.6,18-2.6,8.9-27.5,10.3c-1.7,0.1-3.2,1.6-4.9,1.6v-3.2c-3.2,0-8.7,4.7-4.9,7.6
		c2.8,2.1,11.3,1.3,12.4,4.9c2.5,8.2-6.7,5.6-5.4,11.9c-2.3,0.5-4.6,0.9-7,1.1c-0.3,3.5-0.3,3.5-0.5,7c3.3,0,9.6,0.9,7,5.9h1.1
		c0,4.5-0.4,4.7-3.8,8.1c2.1,1.1,2.1,3.4,1.1,5.4c2.9,0,4.3-0.8,4.3,2.2c-1.9,0.5-1.9,0.5-3.8,1.1c0.2,0.7,0.4,1.5,0.5,2.2
		c-5.8,0.7-8.8,3.8-13.5,3.8c-5.7,0-11.5-3.8-3.2-5.4c0-7.5-16.7,6.7-16.7,9.7c5.9,0,4.3,4.3,4.3,8.6c4.5,1.5,9.3,0.9,14,1.1
		c0,5.2-10.7-0.1-14.6,3.8c4.1,2,9.8,3.8,5.4,9.7c18.7,9.3-0.8,15.7-2.2,29.7c-4.6,0.7-10,6.9-13.5,1.6c1.8-0.9,2.5-2.1,4.3-2.7
		v-2.2c-2.6,0-2.9-1-5.4-1.6v-1.1c-3.1-0.6-2.3,0.3-3.2-1.6c0.6-0.3,1.1-0.7,1.6-1.1c-2-2-0.3-3.8,2.2-3.8c-6.3-0.6-3.6-0.9-8.1,0
		c-1.2,10.9-16.8,8.2-20.5,19.4c-3.8,0-3.2-1.3-6.5-2.2c-1.1,3.4,8.2,19.9,8.6,25.9c2.6,0,7,4.4,8.1,6.5c-3.3,0-2-0.5-4.3,1.1
		c20.1,10,24.6-5.3,30.8,19.4c-0.9,0.3-1.6,0.9-2.2,1.6c1,1.4,9.7,4.5,12.4,5.4c0,1.6-0.1,0.7,0.5,2.7c-22.5-4.5-3.2,13.5-17.3,13.5
		c-2.2,13.5-7.2,10.2-5.9,7.6c-0.9,0.2-1.8,0.4-2.7,0.5c4.7,2.4,4,8.5,0.5,11.9h3.8c2.1,12.7,1.4,13.7-7.6,22.7
		c7,0,7.5,14.8,21.1,16.2c0,6.2-7.8,7-12.4,7c-1.4,5.5-7,10.5-7,16.2c7.9,1,8.7,9.5,1.6,11.9c5.7,2.9,6.7,2.3,7.6,9.2
		c-1.9,0.3-1.9,0.3-3.8,0.5c-0.6,6.8,5.4,14.5,5.4,14.6c-0.6,3-21.8,3.1-23.8,3.8s0,20.1,0,21.6c0,12.3-8.6,5.6-8.6,11.9
		c7.2,2.4,3.8,13-3.8,9.2c-1.5,1.5-3.5,3.9-5.4,4.9c4.4,0,17.3-1.4,17.8,4.3c2.1,23.2-19.3,5.8-22.1,12.4
		c-2.4,5.7-7.2,11.4-9.2,17.3c0,0,7.8,4.3,2.7,5.4c-3.5,0.8-7.8-2.1-11.3-3.2v-1.6c-2.5,1.3-4.9,1.1-7,3.2c0.2,0.3,0.4,0.7,0.5,1.1
		c-7.5,7.5-2.2,16.2-10.8,24.8c4.3,8.7,21.6,8.1,29.2,8.1c1.6,4.7,3.5,6.7,4.3,11.9c12.6,1.8-8.4,19,0,22.7
		c14.8,6.6,20.6,16.8,38.9,18.4c0-4.3-0.4-2.6,0.5-5.4c3.8,0,8.4,3.8,10.3,7.6c-0.7,0.4-1.3,1.1-2.2,1.1c-6.5,0-13-0.7-19.4-0.5
		c-2.6,0.1,0.2,5.7-1.6,7.6c6.6,0.4,23.5-1,18.9,8.1c13,0,6.8,11.2-1.1,15.1c3.3,9.8,5.1,0.5,11.3,0.5c0.2,1.7-0.2,3.4-1.1,4.9
		c0.3,0.2,0.7,0.4,1.1,0.5c2.1-1.9,4.8-3,7.6-3.2c0,2-0.2,2.4-1.6,3.8c6.5,1.9,14.6,5.9,14.6,13c1.9,0.3,1.9,0.3,3.8,0.5
		c2.8-5.5,9.7-9.1,13-16.7c0.3-0.5,0.6-0.8,1.1-1.1c1.9-1.4,6.8,1.8,9.2,1.6c8.4-0.8,13.9-8.9,27.5-9.7c-0.3-0.2-0.7-0.4-1.1-0.5
		c0.8-0.3,24.9-6.5,25.4-6.5c-2.5-5,5.9-12.4,11.3-12.4c-0.4-1.5-0.9-2.9-1.6-4.3c6.8-0.6,13-2.5,20-3.2v-1.1h-1.1
		c1.8-3.6,10.6-3,13.5-3.2c0,2.2,0.5,3.2,1.1,5.4c-2.5,1.7-0.8,2.9-2.7,4.9c0.8,1.6,1.9,2.7,2.7,4.3c-2.8,2.8-6.8,1.2-10.3,2.7
		c-8.7,3.9-2.8,9.5-18.4,7.6v-1.1c-2.5,0-1.1,0.1-4.3-0.5v-1.1c-15,0,1.2,9.1-1.6,18.9c-0.2,0.7-1,3.7-2.2,3.8
		c-4.8,0.4-40,5.1-40-4.3c-7.5,0-1.2,9.7-4.9,11.9c-5.8,3.5-13.1,0-18.9,0c-4.7,0-3.2,8.6-7.6,9.7c-6.6,1.6-21.2,0.8-25.4,6.5
		c-1.5,2.1,3.2,13.5,0,14c-10.7,1.9-13.7-1.9-23.8,4.9c7.4,0,12,10.8,4.3,11.9c-8.1,1.2-11.3-0.5-19.4-0.5
		c-2.2,15.1-47.2,17-48.6,24.3c-0.8,4,2.6,10.6,3.2,14.6c-20.2,6.8-9.4-8.1-15.1-8.1v-3.2c-3,1-6,1.5-8.6,3.2
		c0.9,3.6-5.8,5.9-9.2,5.9c0.2-0.3,0.4-0.7,0.5-1.1h-1.1v-1.1c-2.7,0-4.7,1.1-7.6,1.1c3.9-5.8,15.5-3.7,18.4-8.1
		c2.3-3.4-2.8-7.2-1.6-10.8h-1.1c0-13.7-27.5,12.1-31.9-1.1c-4.3-12.9,9.7-4.4,10.8-10.3c1.9-9.9-1.4-13,8.1-16.2
		c-4.6-13.9,20-0.9,22.7,4.3c5-2.5,2-5.8,11.9-10.3c2.5-1.1,0.5-5.4,0.5-8.1c-2.2,0-5-5.7-7.6-4.9c-1.2,0.4-9.2,9.3-9.2,1.6
		c-1.6,0-0.7,0.1-2.7-0.5v-1.1c-2.2,0-3.6,2.8-4.9,4.3c-1.9-1-3.9-1.9-5.9-2.7v-1.1c-4.3,0-7.9-8.1-12.4-9.2c0-2.7,2.2-2.7,2.2-4.9
		h2.7c0-3.4,0.2-5.2,1.6-8.1c-5.2,4.4-6,9.2-13,9.2c0-1.8,0.8-3.2,2.7-3.2v-1.1c-1.9,1-0.7,0.6-3.8,0c-0.1-1.7,1.1-3.1,2.8-3.2
		c0.1,0,0.3,0,0.4,0v-1.1c-2.4,0-6.3,1.4-7.6-1.1c3.4-0.9,3.7-2.3,2.2-5.4c2.9-1.4,0.7-0.5,7-1.1v-2.2c-3.5-0.6-4,0-4.9-3.2
		c0.7-0.2,1.5-0.4,2.2-0.5v-1.6c-2-0.5-3.3-0.8-4.3-2.7c1.3-1.3,0.6-1.1,2.2-1.1c0-2.8,1.3-7.3-0.5-9.2c2.3-3.8,1.9-7.7,2.7-11.9
		c0.6-3.5,10.4-3.1,5.9-7.6c3.9-7.8-6.6-21.1,5.9-21.1v-2.7c-3.9-0.7-2.6,0.4-4.3-2.2c1.3-1.3,0.6-1.1,2.2-1.1
		c-1.3-3.9-3.7-1.5-2.7-6.5h-1.1c1.6-3.2,0.6-0.7,0-8.1c2.2-0.3,2.2-0.3,4.3-0.5c-1-3.9-0.6-1.4,0-7.6c-5.4-1.8,2.2-23.8,1.1-30.2
		h-1.1c0.2-0.3,0.4-0.7,0.5-1.1c-2.2-1.1,0.1-3.8-2.7-3.8c0.2-0.5,0.4-1.1,0.5-1.6c-0.3-0.2-0.7-0.4-1.1-0.5c0.7-2.9-0.2-2,2.7-2.7
		c0-2.7,0-0.7-0.5-5.9h-1.1c0-2-0.2-1.1,0.5-2.7h-1.1c0.2-0.7,0.4-1.5,0.5-2.2c0.2,0.3,0.4,0.7,0.5,1.1c0-7.6,1.7-4.3,8.1-6.5
		c-3.4-10.1,7.3-28.3,3.8-38.9c1.7-0.9,0.7-0.4,3.2-1.1V601c2.5-0.6,1.8,0.1,2.7-1.6c-0.5-0.2-1.1-0.4-1.6-0.5
		c0.8-2.5,1.2-2.3,3.8-1.6c-0.9-0.5-1.8-0.8-2.7-1.1c0-3.5,3.7-3.4,6.5-2.7v-1.1H817c1.2-3.5,0.6-1,0-7.6h-1.1
		c0-3.8-0.8-2.5,1.1-4.3c-0.2-0.3-0.4-0.7-0.5-1.1c1.3-1.3,2.2-9.6,1.6-11.9c4.9-2.5,4.3-11.1,5.4-15.7c1.7-6.7,8.9-11.5,11.3-18.9
		c-9.2-3.1-6.2-7.5-2.7-14.6c-2.6-1.3-8.7-7.5-2.2-10.8c-2-4-3.3-8.2-5.4-12.4c3.6-3.6,1.2-8,2.2-13c-1.9-0.3-1.9-0.3-3.8-0.5
		c0-2.6,0.5-4.9,0.5-7.6c-9.6-0.6-6.4,0.8-10.3-1.1c1.7-2.6,2.6-10,1.6-13c2.5-1.2,1.5-3.8,5.4-3.8v-4.3h-3.2c0-1.8,0.8-3.8,0-5.4
		c3.2-1.6,1.1-0.1,1.1-7.6h-1.1c1.1-2.2,0-3.8,3.2-3.8c-2.3-4.5-2.1-6.5-1.6-13c-3.4,0-2-3.4-3.2-5.9c1.4-0.7,1.1-0.1,1.1-1.6
		c-4.7,0-10,0.8-14.6,1.1c-0.9-4.7-4.4-8.4-5.9-13h-1.1c0.2-0.3,0.4-0.7,0.5-1.1c-1.7-1.7-1-0.6-1.6-3.8h-1.1c0-2.9-0.6-3.8,2.7-5.4
		c-0.8-1.6-0.1-1.1-2.2-1.1c0.2-0.3,0.4-0.7,0.5-1.1c-1.5,0.8-1.1,1.6-1.6,3.2c-3-0.3-3-0.3-5.9-0.5c-0.6-3.6-1-2.3,0-4.3H785
		c0.2-0.7,0.4-1.5,0.5-2.2h-1.6c0.3-0.2,0.7-0.4,1.1-0.5c-4.2-1.4-4.3-7.6-4.3-11.3h-1.1v-1.1h-2.2c0.9-1.9,1.5-3.5,2.2-5.4h-4.9
		v-1.1c2.4-0.3,2.4-0.3,4.9-0.5c0-4-7.6-8.2-9.2-13h-1.1c1-2.1,0.1-1,3.8-1.6c-0.9-0.2-1.8-0.4-2.7-0.5c0.2-0.3,0.4-0.7,0.5-1.1
		c-2-0.7-1.4,0-2.2-1.6c3.1-1.6,2.7-3.6,6.5-4.3v-2.2h-2.7c0-3.1-0.4-1.9,0.5-3.8c-2.5-0.6-1.8,0.1-2.7-1.6l1.1-1.1
		c-1.5-3.1-4.6-3.1-6.5-5.9c0.7-0.2,1.5-0.4,2.2-0.5v-1.1H766c0-7.1-10.3-11.7-7-18.4c-1.9-1-1-0.1-1.6-3.2c3.8-1.9,3.2-0.9,3.2-6.5
		c-2.2,0-0.7-0.1-4.3,0.5v-1.1c-1.6,1.6-2,1.6-4.3,1.6c0-7.1,9.1-19.1,7-25.4c-8.2,0,3.1-8.1,7-8.1v-1.1h-1.6
		c0-5.8,18.2-4.8,19.4-4.9v-1.6h-1.1c-1-3-4.5-3.7-5.4-5.4c-0.5-1.1,15.4-9.2,17.3-9.2c0.2-0.7,0.4-1.5,0.5-2.2
		c-4.2,2.1-10.5,3.2-15.1,3.8c5.4-8.1,14.3-7.6,21.1-7.6c-0.2-0.3-0.4-0.7-0.5-1.1c3.5,0,1.4,3.8,4.9,3.8v-3.2
		c-3.1,0-2.3-19.8-1.6-24.8c-0.5,0-26.2,4-22.7-6.5h-1.1c0-17.5-16.3,5.1-20-2.2c-1.4-2.8,3.2-3.9,3.2-5.9c-2,0-4.9,0.9-4.9-1.6
		c-4.4,0-4.3-4.3-4.3-7.6c-2.1,0,1.3-12.3,2.7-13c-0.6-2.6-0.9-1.5,0-3.2h-1.6c0-1.5-0.7-2.8-1.1-4.3h-4.9v-1.1h-1.1
		c0.2-0.3,0.4-0.7,0.5-1.1h-1.1v-4.3h-1.1c1.2-2.4,2.7-5.5,2.7-8.6H748v-1.1c-2.3,1.7-21.6,15.6-23.2,12.4c-1.8-3.7,1.3-3.4,0-5.9
		l1.1-1.1c-0.2-0.3-0.4-0.7-0.5-1.1c1.7-0.9,1.1-0.1,1.1-2.7h-1.1c0-8-0.7-25.4,11.9-25.4V127c-0.7-0.2-1.5-0.4-2.2-0.5
		c0-14.7,21.3-1.5,29.2,1.1c4.2-16.7,28.1,3.3,28.1-5.4c8.7-1,29.1-11.4,34,3.2C829.1,130.7,825.1,137.6,831.2,140.6z"/>
	<g id="Layer_4">
		<path class="st2" d="M869.4,400.8c-0.3-1.9-0.8-3.8-1.4-5.6c-1.3-3.1-3.2-5.9-5.5-8.3c-2.5-2.7-6.1-4.4-8.6-7.2
			c-1.8-2-1.2-4.5-1.4-6.9c-0.2-1.5-0.8-3-1.6-4.3c-0.2-0.4-1.5-2.8-2.3-2.3c-0.3,0.1-0.3,1.7-0.4,1.9c-0.1,1-0.2,6.3-0.9,6.6
			c-0.7,0.3-2.3-1.6-2.7-2c-0.9-1.1-1.9-2.1-3-3c-2-1.3-4.4-2.3-6.1-3.9s-1.3-4.9-1.1-6.9c0.4-4.6,1-9.2,0-13.8
			c-0.3-1.8-1-3.5-2.1-5c-0.4-0.4-0.6-1.4-1.2-1.2c-0.4,0.1-0.3,3.5-0.4,4c-0.2,2.4-1.1,4.9-1.1,7.4c0,1.5,0.1,3,0.1,4.5
			c0,0.6,0.2,2.6-1,1.5c-0.5-0.8-0.9-1.7-1.1-2.6c-0.9-2.5-1.6-5.1-2.1-7.7c-0.7-3.4-2.6-6.7-2.8-10.2c-0.2-4.3,1-8.5,0.4-12.8
			c-1-7.7-5.9-14.2-10-20.6c-1-1.6-1.9-3.2-2.5-5c-0.7-2.1-0.8-4.4-2-6.4c-0.2-0.4-1.7-3-2.1-2.8c-0.1,0.6-0.2,1.1-0.2,1.7
			c-0.4,2-0.6,4.1-0.7,6.1c0.1,5.3,4.1,8.4,6.5,12.7c1.5,2.7,2,5.8,3.1,8.7c0.2,0.9,0.5,1.9,0.8,2.8c0.6,1.2,1.3,1.7,1.4,3.1
			c0.3,3.8-1,7.5-0.4,11.3c0.5,2.8,1.1,5.5,2,8.2c1.9,7.4,4.5,14.4,8.8,20.8c2.1,3.1,5.1,5.3,7.7,7.9c0.9,0.9,1.3,2.2,2.2,3.1
			c0.7,0.7,1.4,1.3,2.2,1.8c3.3,2.3,8.7,2.5,11.4,5.5c1,1.1,1.7,2.4,2.8,3.4s2.4,1.9,3.6,2.9c2.1,1.8,4.1,3.8,5.9,5.9
			c0.6,0.8,1,1.6,1.6,2.4c0.9,1.3,2.1,2.3,2.7,3.7c0,0,0.6,1.6,0.8,1.5C869.1,401.6,869.4,401.2,869.4,400.8z"/>
		<path class="st2" d="M807.2,287.9c-0.1-0.1-0.4-0.2-0.5,0c-0.2,0.6-0.2,1.1-0.2,1.7c-0.1,0.7-0.2,1.4-0.3,2
			c-0.3,1.8-0.4,3.6-0.3,5.4c0.7,4.8,4.7,8,6.8,12.1c0.7,1.6,1.4,3.4,1.8,5.1c0.3,1.1,0.8,2.3,1.1,3.4c0.2,0.6,0.3,1.3,0.5,1.9
			c0.3,0.9,1,1.6,1.3,2.4c0.2,0.8,0.3,1.7,0.3,2.5c0,1.4-0.2,2.8-0.4,4.2c-0.2,1.3-0.2,2.5-0.2,3.8c0.1,1.3,0.2,2.7,0.5,4
			c0.4,2,1,4.1,1.5,6.1c1,4,2.3,7.8,3.9,11.6c1.4,3.5,3.2,6.8,5.4,9.9c2,2.7,4.8,4.8,7.2,7.1c0.6,0.8,1.2,1.7,1.7,2.6
			c0.9,1,1.9,1.8,3.1,2.5c0.4,0.2,0.8,0.4,1.2,0.5c-1.3-0.6-2.4-1.4-3.5-2.3c-1.1-1-1.5-2.4-2.5-3.4c-2.4-2.4-5.1-4.4-7.1-7.1
			c-1.5-2-2.8-4.2-3.8-6.5c-2.1-4.5-3.9-9.3-5.2-14.1c-0.9-2.8-1.6-5.6-2.1-8.4c-0.3-2.1-0.3-4.3,0-6.4c0.3-1.9,0.4-3.8,0.3-5.7
			c0-0.4-0.1-0.8-0.3-1.2c-0.3-0.7-0.8-1.3-1.1-2c-0.4-0.9-0.5-1.9-0.8-2.8c-0.4-1.2-0.8-2.4-1.1-3.7c-0.4-1.8-1.1-3.5-1.9-5.1
			c-1.9-3.2-4.8-6-6-9.6c-0.8-2.3-0.5-4.7-0.1-7.1c0.1-0.8,0.3-1.7,0.4-2.5c0-0.3,0-0.5,0.1-0.8c0-0.1,0-0.2,0.1-0.3h0.1
			c0,0,0.1,0.1,0.1,0c0.1,0.1,0.2,0.3,0.3,0.4c0.2,0.2,0.3,0.4,0.4,0.6c0.6,0.8,1.1,1.7,1.5,2.6c0.6,1.6,1,3.2,1.3,4.8
			c0.4,1.4,1,2.7,1.7,4c0.9,1.6,2,3.2,3,4.8c2.6,4,5.2,8.1,6.8,12.7c0.7,2.2,1.2,4.5,1.2,6.8c0.1,3.6-0.7,7.1-0.5,10.6
			c0.1,1.5,0.4,3,0.9,4.4c0.5,1.7,1.2,3.3,1.7,5.1c0.7,2.7,1.1,5.4,2,8c0.2,0.3,0.3,0.7,0.4,1c0.3,0.8,0.6,2.5,1.6,2.8
			c0.4,0.1,0.6-0.2,0.7-0.6c0.1-0.7,0.1-1.5,0-2.2v-0.8c0-1.4-0.1-2.8,0-4.2c0.2-2.1,0.8-4,1-6.1v-2.2c0-0.4,0-0.8,0.1-1.2v-0.4h0.1
			c0.2,0,0.3,0.3,0.3,0.4c0.2,0.3,0.4,0.7,0.7,1c1.1,1.7,1.8,3.7,2,5.7c0.7,4.2,0.1,8.4-0.3,12.6c-0.2,2-0.5,4.9,0.8,6.7
			c0.7,0.8,1.4,1.4,2.3,2c1.2,0.8,2.5,1.4,3.7,2.1c1.3,0.9,2.4,2.1,3.4,3.3c0.6,0.6,1.2,1.2,1.9,1.7c0.3,0.2,0.6,0.4,1,0.4
			c0.7-0.1,0.8-1.4,0.8-1.9c0.2-1.6,0.2-3.2,0.3-4.9c0-0.5,0.1-1,0.2-1.5c0-0.2,0-0.4,0.3-0.3c0.3,0.2,0.6,0.5,0.8,0.8
			c0.5,0.7,0.9,1.4,1.3,2.1c0.6,1.1,1,2.3,1.2,3.5c0.2,2-0.2,4.1,0.8,5.9c0.7,1.2,1.7,2.2,2.8,3c2.2,1.8,4.6,3.2,6.5,5.3
			c2.3,2.4,4.1,5.2,5.4,8.2c0.2,0.6,0.4,1.2,0.6,1.8c0.3,1.2,0.6,2.5,0.8,3.7c0,0.1,0.1,0.1,0.2,0.1l0.1-0.1v0.3h0.1
			c0.2,0,0.3-0.2,0.2-0.3c-1.1-4.7-0.6-3.2-1.1-4.7c-1.5-4.3-4.1-8.1-7.6-11c-1.8-1.5-3.8-2.7-5.5-4.3c-1-0.8-1.8-1.8-2.3-3
			c-0.5-1.7-0.2-3.6-0.4-5.4c-0.3-1.5-0.8-2.9-1.7-4.2c-0.4-0.7-0.8-1.4-1.4-1.9c-0.2-0.2-0.6-0.4-0.9-0.4c-0.8,0-0.8,1.4-0.8,2
			c0,1.7-0.2,3.4-0.4,5.1c0,0.2-0.1,0.4-0.1,0.6s-0.1,0.8-0.3,0.9s-0.6-0.3-0.6-0.3s-0.2-0.1-0.2-0.2c-0.7-0.6-1.4-1.3-2-2
			c-0.7-0.9-1.6-1.8-2.5-2.5c-1.3-0.9-2.8-1.6-4.2-2.5c-0.7-0.4-1.3-0.9-1.9-1.4c-0.6-0.7-1-1.6-1-2.5c-0.1-1.8-0.1-3.6,0.2-5.4
			c0.4-4.5,0.8-9.1-0.3-13.6c-0.3-1.2-0.7-2.4-1.4-3.5l-0.6-0.9c-0.3-0.4-0.4-1-0.9-1.2c-0.9-0.3-0.8,1.6-0.9,2.1v1.7
			c-0.1,1.8-0.4,3.6-0.9,5.3c-0.2,1.3-0.2,2.7-0.2,4v3.1c0,0.5,0.3,2.2-0.6,1.3c-0.5-0.8-0.9-1.7-1.1-2.6c-0.8-2.3-1.4-4.7-1.9-7.1
			c-0.2-1.1-0.5-2.2-0.9-3.2c-0.8-2.5-1.9-5-2-7.6c-0.1-2.1,0.2-4.2,0.3-6.4c0.2-2.1,0.2-4.3,0-6.4c-0.3-1.9-0.7-3.8-1.4-5.6
			c-1.8-4.9-4.8-9.1-7.5-13.5c-1.4-2-2.6-4.2-3.5-6.5c-0.5-1.4-0.7-2.9-1.1-4.3c-0.6-1.6-1.3-3-2.3-4.4
			C807.5,288.3,807.4,288,807.2,287.9z M869.4,401.1l-0.1-0.1c-0.2,0.2-0.5,0.5-0.6,0.3c0,0.1,0.1,0.2,0.1,0.3
			C869,401.8,869.4,401.3,869.4,401.1z M868.6,401.3c-0.3-0.7-0.6-1.3-1-1.9c0.2,0.3,0.4,0.7,0.5,1.1
			C868.3,400.8,868.4,401,868.6,401.3z M867.7,399.4c-0.3-0.5-0.7-1.1-1.2-1.5c-0.5-0.6-1-1.2-1.5-1.9c0.2,0.2,0.3,0.5,0.5,0.7
			C866.3,397.5,867,398.4,867.7,399.4L867.7,399.4z M865.1,396c-0.3-0.6-0.6-1.1-1-1.6c-0.2-0.2-0.4-0.4-0.5-0.6
			C864.1,394.5,864.6,395.2,865.1,396L865.1,396z M863.5,393.8c-0.1-0.1-0.1-0.2-0.2-0.3c-0.8-1-1.7-1.9-2.6-2.8
			C861.7,391.7,862.6,392.7,863.5,393.8L863.5,393.8z M841.7,377.1c0.1,0,0.1,0.1,0.2,0.1s0.2,0,0.2,0.1
			C842,377.2,841.8,377.1,841.7,377.1L841.7,377.1z M842.1,377.2c1.5,0.7,3.2,1.2,4.7,1.8C845.3,378.5,843.7,377.9,842.1,377.2
			L842.1,377.2z M847.7,379.4c1.1,0.4,2.1,1,3,1.7c-0.4-0.3-0.8-0.7-1.2-1C848.9,379.8,848.3,379.6,847.7,379.4L847.7,379.4z
			 M850.7,381.1c0.2,0.1,0.4,0.2,0.5,0.4c0-0.1,0-0.1-0.1-0.1C851,381.3,850.8,381.2,850.7,381.1L850.7,381.1z M851.2,381.5
			c1.1,1.1,1.9,2.6,3,3.7s2.4,1.9,3.6,2.9c-0.2-0.2-0.4-0.4-0.6-0.5c-1-0.7-2-1.5-3-2.4c-1-1.1-1.8-2.3-2.8-3.4
			C851.4,381.6,851.3,381.6,851.2,381.5L851.2,381.5z"/>
		<path class="st2" d="M837.2,373.6c1.4,1.4,2.8,2.7,4.3,3.9c0.5,0.5,1.1,1,1.7,1.4c0.7,0.2,1.4,0.5,2.1,0.8
			c1.4,0.9,2.5,2.3,3.9,3.2s2.2,1.8,4.1,1.7c0.2,0,0.3,0.1,0.5,0c0.4-0.2,0-0.9,0-1.1c-0.4-1.2-1.6-2.1-2.4-3.1
			c-0.8-0.9-1.7-1.8-2.7-2.6c-1.4-1.1-3.1-1.6-4.7-2.5s-2.9-2.3-4.8-3"/>
		<path class="st2" d="M839.2,372.2c0,0-1.3,0.8-0.9,0.6c0.5-0.4,1.2-0.2,1.8-0.2c0.3,0,0.5,0.3,0.8,0.5c0.2,0.2,0.5,0.4,0.8,0.5
			c1,0.7,2,1.3,3.1,1.9c-1.3-0.7-2.6-1.6-3.8-2.5c-0.3-0.2-0.5-0.5-0.8-0.5C839.4,372.6,839.2,372.2,839.2,372.2z M838.1,373
			c0.3-0.2-0.3,0.2-0.6,0.5c0.1,0.1,0.2,0.2,0.3,0.2C837.8,373.4,837.9,373.2,838.1,373L838.1,373z M837.7,373.7
			c-0.1,0.3-0.1,0.6-0.1,0.9s0.5,0.5,0.7,0.7l2.2,1.9c0.7,0.7,1.4,1.3,2.2,1.8c0.9,0.5,1.9,0.6,2.8,1.2s1.5,1.3,2.2,1.9
			s1.5,1.2,2.4,1.7c0.5,0.3,1,0.6,1.6,0.8c0.4,0.1,0.8,0.2,1.2,0.2h0.4c0.2,0,0.4,0.1,0.5,0c0.5-0.3,0.2-0.9,0-1.3
			c-0.5-1-1.1-1.9-2-2.6c-0.7-0.8-1.4-1.5-2.2-2.3c-0.5-0.5-1.1-1-1.7-1.3c-1-0.6-2.1-1-3.2-1.6c0.3,0.1,0.6,0.3,0.8,0.5
			c1,0.4,1.9,0.9,2.7,1.5s1.5,1.3,2.1,2c0.3,0.3,0.6,0.6,0.8,0.9c1,0.9,1.8,1.9,2.4,3.1c0.1,0.2,0.4,0.8,0.1,1h-1.2
			c-0.4,0-0.7-0.1-1-0.3c-0.4-0.2-0.8-0.5-1.2-0.7c-0.6-0.4-1.2-0.8-1.7-1.2c-0.9-0.9-1.9-1.7-2.9-2.5c-0.3-0.3-0.7-0.5-1.1-0.6
			c-0.6-0.2-1.1-0.4-1.7-0.6c-0.5-0.4-1-0.8-1.4-1.2c-0.5-0.4-1-0.8-1.5-1.2c-0.5-0.4-1-0.8-1.5-1.2c-0.2-0.2-0.6-0.4-0.7-0.7
			C838,373.8,837.9,373.8,837.7,373.7z M837.4,373.5L837.4,373.5c-0.2-0.2-0.4-0.2-0.5-0.1s-0.1,0.3,0,0.4
			C837,373.7,837.2,373.6,837.4,373.5L837.4,373.5z"/>
		<path class="st2" d="M851.5,383.9c2.1,1.7,4.4,2.6,6.5,4.5c0.9,0.8,1.8,1.5,2.7,2.4c0.2,0.2,0.7,0.7,1,0.4
			c0.3-0.3-0.2-0.7-0.3-0.8c-0.7-0.8-1.3-1.7-1.9-2.5c-1.1-1.6-2.4-3.1-4-4.3c-2.1-1.7-3.5-2.4-4.8-3.8"/>
		<path class="st2" d="M850.7,379.8c0.2,0.6,0.4,1.3,0.5,1.9c-0.2-0.5-0.2-1.1-0.2-1.6C850.9,380.7,850.7,379.8,850.7,379.8z
			 M851.1,380.2c0-0.1,0.2,0.2,0.3,0.3s0.5,0.4,0.7,0.6c0.6,0.5,1.3,1,2,1.5c2.1,1.5,3.9,3.3,5.3,5.4c0.4,0.6,0.8,1.2,1.2,1.7
			c0.2,0.3,0.4,0.5,0.6,0.8c0.1,0.1,0.6,0.5,0.2,0.6c-0.1,0-0.1,0-0.2-0.1c-0.5-0.4-0.9-0.8-1.3-1.2c-0.2-0.1-0.3-0.3-0.5-0.4
			s-0.3-0.3-0.5-0.4s-0.3-0.3-0.4-0.4c-0.8-0.8-1.7-1.5-2.6-2.1s-1.8-1.1-2.7-1.7c-0.2-0.1-0.4-0.2-0.5-0.4
			c-0.2-0.1-0.4-0.2-0.5-0.4c-0.4-0.7,0,0-0.5-0.4h-0.1l0.3,0.9c0.1,0.2,0.4,0.3,0.5,0.4c0.4,0.3,0.7,0.5,1.1,0.7
			c1.5,0.9,2.9,1.8,4.3,2.9c0.8,0.6,1.5,1.3,2.3,2c0.3,0.2,0.6,0.6,0.9,0.8s1,0,0.9-0.5c-0.1-0.2-0.3-0.4-0.4-0.6
			c-0.2-0.3-0.4-0.6-0.7-0.8c-0.2-0.3-0.4-0.6-0.7-0.9l-1.8-2.4c-1-1.2-2.1-2.2-3.3-3.1l-3-2.1c-0.2-0.2-0.5-0.4-0.7-0.6
			C851.3,380.4,851.1,380,851.1,380.2L851.1,380.2z M851.6,383.7c-0.2-0.6-0.4-1.1-0.6-1.7c-0.1-0.5,0.1,0.5,0.3,1.8
			C851.4,383.7,851.5,383.7,851.6,383.7L851.6,383.7z"/>
		<path class="st2" d="M871.7,468.7c0.1,0.6,0.8,3.3,1.9,3c0.9-0.3,0.6-1.9,0.6-2.6c0-1.7,0.7-3.3,0.8-4.9c0.1-0.9,0-1.9-0.1-2.8
			c-0.2-4.5-3.8-6.9-5.5-10.7c-0.4-1.3-0.6-2.7-0.6-4.1c-0.3-4.8,2-9.3,3.9-13.5c1.7-4.2,2.4-8.7,2.1-13.2
			c-0.4-3.9-0.7-7.9-2.5-11.5c-0.2-0.5-1.7-3-2.4-2.5c-0.1,1.2-0.2,2.3-0.1,3.5c-0.2,4.3,1.4,8.4,1.2,12.7c-0.2,1.5-0.5,3-0.9,4.5
			c-0.5,3.1-1.3,6.1-2.4,9c-0.5,0.9-1,1.7-1.6,2.5c-1.1,1.9-1.8,4.1-1.8,6.4c0,2.4,0.2,5.6,1.2,7.8c0.7,1.4,1.7,2.8,2.7,4
			c0.6,0.5,1.2,1.1,1.8,1.7c0.6,0.9,1,1.9,1.4,2.9C872.3,463.4,871.3,466.2,871.7,468.7z"/>
		<path class="st2" d="M870.1,405.6c-0.6,0.1-0.5,1.5-0.5,1.9v1.9c0,1.4,0.1,2.8,0.3,4.2c0.3,2.1,0.8,4.2,1,6.3v2.1
			c-0.2,1.5-0.5,3-0.9,4.5c-0.5,2.3-0.9,4.6-1.6,6.8c-0.3,0.8-0.5,1.7-0.8,2.5s-1.1,1.5-1.5,2.2c-1,1.8-1.5,3.8-1.7,5.8
			c0.1-2,0.8-4,1.8-5.7c0.6-0.7,1.1-1.4,1.5-2.2c0.4-0.8,0.7-1.6,0.9-2.5c0.7-2.2,1.2-4.5,1.7-6.8c0.4-1.5,0.7-3,0.9-4.5V420
			c-0.2-2.5-0.8-4.9-1-7.4c-0.1-1.7-0.2-3.4-0.1-5.1v-1.1c0-0.4,0.1-0.8,0.5-0.4c0.1,0.1,0.2,0.1,0.2,0.2c0.8,0.9,1.4,1.9,1.9,3
			c0.8,2.1,1.4,4.3,1.6,6.6c0.3,2,0.5,4,0.5,6c0,3.1-0.5,6.1-1.5,9c-0.6,1.8-1.4,3.5-2.1,5.2c-1.3,3.1-2.5,6.4-2.5,9.8
			c-0.1,1.5,0.1,3,0.5,4.5c0.3,0.8,0.7,1.5,1.2,2.2c1,1.5,2.2,2.9,3.1,4.5c0.9,1.4,1.3,3,1.4,4.7c0.1,1.3,0.1,2.6-0.2,3.9
			c-0.3,0.9-0.4,1.9-0.5,2.9v1.6c0,0.4,0,1.1-0.5,1.1c-0.3,0-0.5-0.2-0.6-0.4c-0.4-0.5,0,0-0.9-2.3c0-0.1-0.2-0.2-0.3-0.2v-0.1l0,0
			c-0.2,0-0.3,0.2-0.2,0.3v0.1c0,0.2,0.1,0.5,0.2,0.7c0,0.1,0.1,0.2,0.1,0.4c0.3,0.8,0.9,2.3,2,2c1.3-0.3,0.8-2.3,0.8-3.3
			c0.1-1.5,0.6-3,0.8-4.5c0.1-0.8,0-1.6-0.1-2.4c0-0.5-0.1-1.1-0.2-1.6c-0.5-2.8-2.3-4.8-3.9-7.1c-0.7-0.9-1.2-1.9-1.7-2.9
			c-0.3-0.8-0.4-1.6-0.4-2.4c-0.2-2,0-4,0.4-6c0.8-3.4,2.5-6.5,3.7-9.8c1.1-2.9,1.7-6,1.8-9.1c0-2.1-0.1-4.1-0.4-6.2
			c-0.2-2.6-0.8-5.2-1.8-7.6c-0.4-1-1-2-1.7-2.9C870.9,406,870.6,405.6,870.1,405.6z M871.7,468.4L871.7,468.4v-2.8
			c-0.1,0.6-0.1,1.2-0.1,1.8C871.6,467.7,871.6,468.1,871.7,468.4L871.7,468.4z M864.4,444.1c0,0.4-0.1,0.7-0.1,1.1
			c0,2.4,0.4,4.9,1.2,7.2c0.4,0.7,0.8,1.4,1.3,2.1s1,1.3,1.5,1.9c0.4,0.4,0.8,0.7,1.2,1.1l-0.9-0.9c-0.5-0.4-0.9-0.9-1.2-1.4
			c-0.7-0.9-1.3-1.8-1.8-2.8c-0.7-1.9-1-3.9-1.1-5.9C864.4,445.7,864.4,444.9,864.4,444.1L864.4,444.1z M869.8,457.8
			c0.5,0.5,0.8,1.1,1,1.7c0.4,0.8,0.6,1.6,0.8,2.5c-0.2-0.9-0.4-1.7-0.8-2.5c-0.2-0.5-0.5-1-0.8-1.4
			C870,457.9,869.9,457.9,869.8,457.8z M871.6,462c0,0.2,0.1,0.3,0.1,0.5v-0.2C871.7,462.2,871.6,462.1,871.6,462L871.6,462z
			 M871.7,462.4c0.1,1,0.1,2,0,3c0.1-0.9,0.1-1.7,0.1-2.6C871.8,462.7,871.7,462.6,871.7,462.4L871.7,462.4z"/>
		<path class="st2" d="M873.9,483.9c0.1,2.1,0.2,5.8,0.9,7.8c0.5,1.1,1,2.2,1.3,3.3c0,0.9,0,1.9,0,2.8c0.1,0.9,0.8,3.7,2,3.5
			c0.7-0.1,0.8-1.2,1-1.7c0.8-2.7,1-5.6,0.6-8.4c-0.3-0.8-0.7-1.6-1.1-2.4c-0.3-1.2-0.5-2.4-0.4-3.6c0.1-0.7,0.2-1.3,0.5-1.9
			c0.4-1.1,0.5-2.4,0.8-3.5c0.5-1.8,1.2-4.1,0.5-6c-0.2-0.4-1.5-3.6-2.3-2.9c-0.2,0.5-0.2,1.1-0.2,1.6c0,1.3-0.3,2.7-0.8,3.9
			C875.5,478.9,873.7,480.9,873.9,483.9z"/>
		<path class="st2" d="M877.8,470.9c-0.4,0.2-0.3,0.9-0.4,1.3c-0.1,1-0.1,2.1-0.3,3.1c-0.5,1.9-1.8,3.5-2.5,5.4v0.2
			c0-0.1,0-0.1,0.1-0.2c0.8-1.8,2.1-3.4,2.6-5.3c0.2-0.9,0.3-1.8,0.4-2.6c0-0.5,0-1,0.2-1.5c0.2-0.4,0.7,0.2,0.9,0.3
			c1,1.3,1.6,2.9,1.7,4.5c-0.1,1.5-0.4,3-0.9,4.5c-0.2,0.8-0.3,1.6-0.5,2.4s-0.5,1.4-0.7,2.1c-0.2,1-0.1,2.1,0.1,3.1
			c0.2,1.1,1,2,1.3,3c0.4,1.3,0.5,2.7,0.3,4c-0.1,1-0.2,2.1-0.4,3.1c-0.2,0.8-0.5,1.7-0.8,2.5c-0.1,0.3-0.4,0.7-0.8,0.5
			c-0.5-0.4-0.9-1-1-1.6c-0.3-0.7-0.4-1.4-0.5-2.2c0-0.6,0.1-1.3,0.1-1.9c-0.2-1.1-0.6-2.3-1.1-3.3c-0.2-0.5-0.4-1.1-0.5-1.6
			c-0.4-1.6,0,0-0.6-6.7c0-0.1-0.1-0.2-0.2-0.2v-0.1c-0.1,0-0.3,0.1-0.3,0.2c0,0,0,0,0,0.1c0.1,1.2,0,0.7,0.1,1.1
			c0,0.7,0.1,1.4,0.1,2.1c0.1,1.6,0.3,3.2,0.7,4.7c0.3,0.9,0.9,1.8,1.2,2.7c0.2,1,0.2,1.9,0.1,2.9c0,0.5,0.1,1,0.2,1.5
			c0.2,0.9,0.6,1.7,1.2,2.4c0.4,0.4,1.1,0.4,1.5-0.1c0.1-0.1,0.2-0.2,0.2-0.3c0.2-0.4,0.3-0.8,0.4-1.2c0.5-1.5,0.7-3.1,0.8-4.7
			c0.1-1.3,0-2.6-0.3-3.8c-0.3-0.8-0.7-1.6-1.1-2.4c-0.3-0.7-0.4-1.5-0.4-2.3c0-0.6,0-1.2,0.1-1.8l0.6-1.8c0.2-1,0.4-2,0.6-2.9
			c0.3-1.1,0.6-2.3,0.7-3.5c0.1-1.7-0.5-3.4-1.5-4.8C878.7,471.3,878.2,470.7,877.8,470.9z M873.9,483.6L873.9,483.6
			c0.1-0.2,0.4-2,0.6-2.8c-0.3,0.6-0.5,1.3-0.5,2C873.9,483.1,873.9,483.3,873.9,483.6z"/>
		<path class="st2" d="M887.6,527.6c-0.6-0.8-1.1-1.8-1.3-2.8c-0.5-1.3-1.5-2.2-1.6-3.7c-0.2-1.3,0.8-2.6,0.8-3.9
			c0.1-2.2-0.2-4.4-0.7-6.5c-0.1-0.8-0.2-1.5-0.3-2.3c-1.1-1.7-2.5-3.1-4.2-4.2c-0.9-0.4-2.6,0.1-2.3,1.4c0.5,1.8,2.1,3.3,2.5,5.2
			c0.1,0.7,0.2,1.5,0.1,2.2c0.2,0.8,0.4,1.5,0.6,2.3c0.2,1.8-0.1,3.8,0,5.7c0.1,0.8,0.3,1.7,0.5,2.5c0,1.3,0.2,2.6,0.5,3.8
			c0.2,0.5,0.5,0.9,0.9,1.3c0.5,0.7,0.9,1.5,1.1,2.4c0.4,0.8,0.6,1.6,0.8,2.4c0,0.5-0.4,1-0.2,1.5c0.5,1.3,2.2-0.1,2.6-0.8
			C888.6,532.5,888.8,529.1,887.6,527.6z"/>
		<path class="st2" d="M878.9,504.1c-0.5,0.2-1,0.5-1,1.1c0.1,0.8,0.3,1.6,0.8,2.3c0.7,1.2,1.7,2.3,1.9,3.7c0.1,0.7,0,1.3,0.1,2
			c0.1,0.9,0.5,1.7,0.6,2.6c0.1,1.7-0.1,3.5,0,5.2c0.1,0.8,0.3,1.7,0.5,2.5c0,1.1,0.2,2.1,0.4,3.2c0.2,0.7,0.6,1.4,1.1,1.9
			c0.4,0.6,0.7,1.3,1,2c0.4,0.9,0.8,1.8,0.9,2.8c0,0.7-0.6,1.3,0.1,1.9c0.7,0.6,1.5-0.2,2.1-0.9c-0.5,0.5-1.6,1.5-2.1,0.8
			s0.1-1.1,0-1.8c0-0.5-0.2-1-0.4-1.4c-0.3-1-0.7-2-1.2-3c-0.3-0.5-0.8-0.9-1.1-1.4c-0.1-0.2-0.2-0.6-0.3-0.8
			c-0.2-1-0.2-2.2-0.3-3.2c-0.1-0.7-0.3-1.4-0.4-2.1c-0.1-0.5-0.1-0.9-0.1-1.4c0.2-1.7,0.2-3.5,0-5.2c-0.1-0.6-0.4-1.1-0.5-1.7
			c0-0.5,0-1.1,0-1.6c0-0.6-0.2-1.2-0.4-1.7c-0.5-1.2-1.4-2.2-1.9-3.4c-0.4-0.9-0.6-1.7,0.5-2c0.2,0,0.3-0.1,0.5-0.1s0.3,0,0.5,0.1
			c0.9,0.2,1.8,1.3,2.5,1.9s1.7,1.6,1.8,2.6c0,0.6,0.1,1.3,0.2,1.9c0.6,2.1,0.8,4.2,0.6,6.4c-0.1,1.3-0.9,2.3-0.9,3.6
			c0.2,1.3,0.6,2.5,1.4,3.5l1.7,3.4c0.1,0.1,0.1,0.1,0.2,0l0,0v-0.2c0.1,0.1,0.1,0.1,0.1,0.2l0,0c0.1-0.1,0.2-0.3,0.1-0.4
			c-0.7-1.3-0.5-0.8-0.7-1.2c-0.3-0.7-0.6-1.4-0.9-2.1c-0.6-0.9-1-1.9-1.3-3c0-0.9,0.2-1.7,0.6-2.5c0.1-0.5,0.2-0.9,0.3-1.4
			c0.1-1.8-0.1-3.7-0.5-5.5l-0.3-1.2c0-0.8-0.1-1.5-0.3-2.3c-0.6-1-1.3-1.9-2.2-2.7c-0.6-0.6-1.3-1.1-2-1.5
			C880.1,503.9,879.5,503.9,878.9,504.1z M887.7,527.8L887.7,527.8c0,0.3,0.7,4.3,0,5.9c0.6-1.3,0.8-2.7,0.6-4.1
			c0-0.2-0.1-0.4-0.1-0.6C888.2,528.6,888,528.2,887.7,527.8L887.7,527.8z M887.7,533.7l-0.3,0.6l0.3-0.3V533.7z M887.4,534.3
			c0,0.1-0.1,0.1-0.2,0.2C887.2,534.4,887.3,534.4,887.4,534.3z"/>
		<path class="st2" d="M876.5,556c-0.1-1.1-0.4-2.2-1-3.2c-0.5-0.7-0.9-1.5-1.2-2.3c-0.1-0.9-0.1-1.8,0-2.7c0-1-0.1-2.1-0.1-3.1
			c0-2.3-0.6-4.5-0.2-6.8c0.2-1.1,0.5-2.1,1.1-3c0.9-0.7,1.6-1.6,2.1-2.6c0.9-2.8,1.1-5.9,0.6-8.8c-0.1-1.2-0.3-2.3-0.7-3.4
			c-1.2-2-2.8-3.7-4.8-5c-0.7-0.5-1.8-1.4-2.7-1.3c-0.6,0.1-0.6,0.9-0.4,1.3c0.5,1.2,1.5,2.1,2,3.4s1.5,2.3,2.1,3.6s0.5,3.1,0.9,4.6
			c0.8,2.9-3.1,6.1-4.2,8.7c-1.1,2.8-0.5,5.8-0.2,8.7c0,0.7,0,1.4-0.1,2.1c0.4,3.3,1.6,6.5,3.5,9.2c0.4,0.5,2.1,3.6,3,2.7
			C876.6,557.5,876.7,556.7,876.5,556z"/>
		<path class="st2" d="M869.8,513.6c-0.2,0-0.3,0.1-0.5,0.2c-0.5,0.5,0,1.4,0.3,1.9c0,0.1,0.1,0.2,0.2,0.3c0.1,0.2,0.2,0.3,0.3,0.5
			c0.3,0.5,0.6,0.9,0.9,1.4s0.5,1,0.8,1.5c0.7,0.9,1.3,1.9,1.7,3s0.4,2.3,0.7,3.5l0.3,1.5c-0.1,1.2-0.5,2.3-1.2,3.3
			c-1.1,1.5-2.1,3.1-3,4.7c-1.2,2.7-0.4,5.9-0.2,8.7c0,0.6-0.1,1.2-0.1,1.7c0,0.7,0.1,1.4,0.3,2c0.2,0.8,0.4,1.6,0.7,2.4
			c0.3,0.8,0.6,1.6,1,2.3c0.5,1,1.1,2,1.7,3l1.2,1.8c0.2,0.2,0.6,0.8,1,0.9c-0.4-0.2-0.7-0.5-1-0.9c-0.4-0.6-0.8-1.2-1.2-1.8
			c-1.9-2.7-3.1-5.9-3.5-9.2c0-0.6,0.1-1.2,0.1-1.7c0-0.4,0-0.7-0.1-1.1c-0.3-2.6-0.8-5.5,0.3-7.9c0.9-2,2.4-3.5,3.5-5.4
			c0.7-1,0.9-2.2,0.7-3.4c-0.2-1.4-0.4-2.8-0.8-4.2c-0.4-1-0.9-1.9-1.5-2.8c-0.3-0.6-0.6-1.2-0.9-1.8c-0.2-0.4-0.4-0.7-0.7-1.1
			c-0.1-0.2-0.2-0.3-0.3-0.5s-0.2-0.3-0.3-0.5c0-0.1-0.1-0.2-0.1-0.3c-0.1-0.3-0.5-1.3,0.1-1.3c0.9,0.1,1.7,0.5,2.4,1.1
			c0.4,0.2,0.8,0.5,1.1,0.8c1.2,1,2.2,2.1,3.1,3.4c0.3,0.4,0.6,0.8,0.8,1.3c0.2,0.7,0.3,1.5,0.4,2.2c0.1,1,0.2,2,0.3,2.9
			c0.1,1.7,0,3.5-0.4,5.2c-0.1,0.6-0.4,1.2-0.7,1.8c-0.6,0.7-1.2,1.4-1.9,2.1c-0.4,0.5-0.7,1.2-0.9,1.8c-0.7,2.3-0.2,4.7-0.1,7.1
			c0.1,1.4,0.1,2.8,0.1,4.2c-0.1,0.9-0.1,1.9,0,2.8c0.3,1.2,1.2,2.1,1.7,3.3c0.1,0.3,0,0,0.5,2.1c0,0.1,0.1,0.3,0.2,0.3
			c0,0,0,0,0.1,0l0,0c0.2,0,0.3-0.1,0.3-0.3c-0.3-1.7-0.2-1.2-0.3-1.7c-0.2-0.6-0.4-1.1-0.7-1.6c-0.4-0.6-0.7-1.2-1-1.8
			c-0.2-0.8-0.3-1.7-0.1-2.6v-1.5c0-1.1,0-2.2-0.1-3.2s-0.2-2.3-0.3-3.4c-0.2-1.7,0.1-3.3,0.9-4.8c0.3-0.4,0.6-0.8,1-1.1
			c0.6-0.5,1.1-1.2,1.4-1.9c1-3,1.2-6.1,0.6-9.2c0-1.1-0.3-2.3-0.7-3.3c-0.9-1.5-2-2.9-3.4-4c-0.5-0.4-1-0.8-1.6-1.2
			C871.6,514.2,870.8,513.6,869.8,513.6z M876.6,556.3c0.1,0.4,0.1,0.8,0,1.2C876.6,557.1,876.6,556.7,876.6,556.3z M876.6,557.5
			c0,0.2-0.1,0.4-0.3,0.5C876.5,557.9,876.6,557.7,876.6,557.5L876.6,557.5z M876.3,558c-0.1,0.1-0.3,0.2-0.5,0.1
			C876,558.1,876.1,558.1,876.3,558z"/>
		<path class="st2" d="M889.7,568.1c-0.7-0.6-1.7-5.5-1.9-6.5c-0.4-1.2-0.9-2.3-1.7-3.3c-0.3-0.7-0.7-1.3-1.1-1.9
			c-0.5-0.4-0.9-0.9-1.3-1.4c-0.4-0.8,0.1-1.8,0.1-2.6c0-0.9-0.2-1.8-0.4-2.6c-0.6-1.6-1.6-3-2.9-4.1c-0.2-0.2-0.6-0.8-1.1-0.4
			c-0.5,0.4-0.2,1.9-0.1,2.4c0.4,1.7,1.8,3.3,1.9,5.1c0.2,2.2-1.3,4.4-0.6,6.6c0.7,2.2,2.3,3.5,3.6,5.2c0.8,1.2,1.5,2.4,2.1,3.7
			c0.6,1.1,1.5,5.3,2.8,5.6c0.8,0.2,1-0.7,1.1-1.2C890.4,571.5,890.7,569,889.7,568.1z"/>
		<path class="st2" d="M879.5,545.1c-0.8,0.2-0.6,1.4-0.5,2c0.3,2.1,1.8,3.8,2.1,5.8c0.1,1.1-0.1,2.2-0.5,3.2
			c-0.4,1.2-0.3,2.6,0.1,3.8c0.8,1.8,2.2,3.1,3.4,4.7c0.9,1.2,1.6,2.5,2.2,3.8s0.9,2.8,1.6,4.1c0.1,0.1,0.2,0.2,0.2,0.3
			c-0.2-0.3-0.3-0.7-0.4-1c-0.5-1.1-0.8-2.3-1.2-3.4c-0.2-0.6-0.5-1.1-0.8-1.6c-0.6-1.2-1.3-2.3-2.1-3.3c-1.2-1.6-3-3.3-3.1-5.4
			c-0.1-1.8,1.1-3.7,0.8-5.5c-0.3-2.1-1.8-3.8-2.1-5.8C879.1,546.4,879,545.4,879.5,545.1c0.2,0,0.5,0.5,0.7,0.6s0.2,0.2,0.3,0.2
			l0.3,0.3c1,1,1.8,2.2,2.2,3.5c0.3,0.8,0.4,1.6,0.4,2.5c0,0.8-0.5,1.7-0.2,2.5s1.3,1.4,1.8,2.3c0.2,0.5,0.4,0.9,0.7,1.3
			c0.5,0.8,1,1.5,1.4,2.3c0.3,0.9,0.6,1.9,0.7,2.9c0.3,1.2,0.6,2.5,1,3.7l0.5,1c0.1,0.1,0.2,0,0.3,0V568l0.2,0.2
			c0.1-0.1,0.1-0.3,0-0.4c-0.4-0.8-0.3-0.5-0.4-0.8c-0.3-0.7-0.5-1.5-0.7-2.2c-0.2-0.9-0.4-1.7-0.6-2.6c-0.1-0.9-0.5-1.8-0.9-2.6
			c-0.4-0.6-0.8-1.2-1.2-1.9c-0.2-0.5-0.4-0.9-0.7-1.3c-0.5-0.6-1.3-1.1-1.6-1.8s0.2-1.6,0.2-2.3c0.1-1-0.2-2.1-0.6-3
			c-0.6-1.5-1.6-2.7-2.9-3.7C880.2,545.3,879.9,545.1,879.5,545.1z M889.9,568.4h-0.2c0.3,1.3,0.5,2.6,0.5,3.9
			c0.1-0.8,0.2-1.6,0.2-2.4C890.3,569.5,890.2,568.6,889.9,568.4z M890.2,572.3v0.6c-0.1,0.6-0.5,1.6-1.3,0.9
			c-0.3-0.2-0.5-0.5-0.6-0.8c0.1,0.3,0.3,0.6,0.6,0.8c0.9,0.7,1.3-0.4,1.4-1.1C890.2,572.7,890.2,572.4,890.2,572.3z"/>
		<path class="st2" d="M877.7,569.6c-0.6,0.8-0.4,4.2,0.1,5.1c2.1,4.4,4.5,8.6,6.7,12.9c0.6,1,1.2,1.9,2,2.7
			c1.3,1.7,2.5,3.5,3.9,5.1c0.4,0.5,0.6,0.4,1,1s0.3,1.4,0.5,2.1c0.3,1.3,1,2.5,2,3.3c2.7,1.6,5.3,3.6,8.2,5.1
			c0.6,0.3,1.8,1.3,2.4,0.5s-0.7-2.1-1.2-2.7c-1.8-2.2-4.1-3.7-6.1-5.7c-1-1-1.2-2.6-1.8-3.9c-0.9-1.8-2.1-3.2-3.1-4.9
			c-0.6-1.2-1.2-2.3-1.9-3.4c-0.5-0.6-1.2-0.8-1.6-1.4c-0.8-1.1-1.2-2.5-2.1-3.5c-1.4-1.6-3.2-2.3-4.2-4.3c-0.5-1-1.3-2.2-1.7-3.2
			c-0.2-0.9-0.4-1.7-0.6-2.6c-0.1-0.4-0.5-1.9-1-2C878.7,569.3,878,569.2,877.7,569.6z"/>
		<path class="st2" d="M877.9,569.4c-0.1-0.1-0.3,0-0.4,0.1s0,0.1-0.1,0.1c-0.1,0.2-0.2,0.4-0.2,0.6c-0.1,0.4-0.1,0.8-0.1,1.2
			c0,1.1,0.1,2.2,0.3,3.2c0.3,0.8,0.8,1.7,1.2,2.5c0.2,0.3,0.4,0.7,0.5,1.1c0.4,0.7,0.8,1.4,1.1,2.2c0.9,1.8,1.9,3.6,2.8,5.3
			c0.6,1,1.1,2.1,1.8,3.1s1.4,1.7,2,2.6c0.9,1.1,1.7,2.3,2.6,3.4c0.3,0.3,0.6,0.7,0.9,1c0.3,0.2,0.6,0.4,0.8,0.7
			c0.4,0.5,0.3,1.1,0.4,1.6c0.2,0.8,0.5,1.5,0.9,2.2c0.7,1,1.6,1.8,2.7,2.3c0.7,0.4,1.3,0.9,2,1.3c1.1,0.7,2.2,1.5,3.4,2.2
			c0.6,0.3,1.2,0.6,1.7,1c0.5,0.3,1.5,1,2.1,0.4c1.1-0.9-0.5-2.4-1.1-3.1l-0.5-0.5l-0.5-0.5c-1.2-1.1-2.4-2.2-3.7-3.2
			c-0.6-0.5-1.2-1.1-1.8-1.7c-0.8-1-1-2.4-1.6-3.6c-0.7-1.5-1.8-2.7-2.6-4.1c-0.8-1.4-1.5-2.9-2.4-4.2c-0.5-0.7-1.3-1-1.8-1.7
			c-0.7-1-1.1-2.3-1.9-3.3s-2-1.7-3-2.7c0.8,0.8,1.8,1.5,2.6,2.3c0.8,0.9,1.4,1.9,1.9,3c0.2,0.4,0.5,0.8,0.8,1.2
			c0.4,0.4,0.9,0.6,1.3,1c0.3,0.4,0.6,0.8,0.8,1.2c0.6,1,1.1,2.1,1.7,3.1c0.9,1.1,1.6,2.3,2.3,3.6s0.9,3,1.8,4.1
			c0.4,0.5,0.8,0.9,1.3,1.2c0.8,0.8,1.7,1.5,2.6,2.3c0.4,0.3,0.7,0.6,1,0.9c0.4,0.3,0.7,0.6,1,1c0.7,0.6,1.3,1.4,1.7,2.2
			c0.1,0.3,0,0.7-0.2,1c-0.5,0.4-1.6-0.4-2-0.7c-1.9-1-3.7-2.2-5.4-3.4c-0.7-0.4-1.3-0.9-2-1.3c-0.8-0.4-1.4-1.1-1.9-1.8
			c-0.4-0.6-0.7-1.4-0.8-2.1c0-0.6-0.2-1.3-0.5-1.8c-0.2-0.3-0.5-0.6-0.8-0.8c-0.3-0.3-0.6-0.7-0.9-1c-0.9-1.1-1.7-2.3-2.6-3.4
			c-0.7-0.9-1.4-1.7-2-2.6c-0.8-1.3-1.6-2.7-2.2-4.1c-1-1.8-1.9-3.6-2.8-5.4c-0.5-1.1-1.1-2.2-1.6-3.2c-0.4-0.6-0.6-1.3-0.8-2
			c-0.1-0.9,0,0,0.2-3.8V569.4h-0.2C877.8,569.5,877.9,569.5,877.9,569.4L877.9,569.4L877.9,569.4z M877.9,569.5
			c0,0.1,0,0.1,0.1,0.2c0.6,0.1,1.2,0.3,1.8,0.6c-0.1-0.3-0.2-0.5-0.4-0.7C879.2,569.4,878.1,569.2,877.9,569.5z M879.7,570.3
			C879.8,570.3,879.8,570.4,879.7,570.3c0.4,1.1,0.5,2.2,0.8,3.3c0.2,0.5,0.4,1,0.7,1.5s0.6,1.1,0.9,1.6c0.2,0.5,0.5,1,0.8,1.4
			c0.2,0.3,0.4,0.5,0.7,0.7c-0.8-1-1.6-2-2.1-3.2c-0.5-0.7-0.9-1.5-1.1-2.4C880.4,572.2,880.1,571.2,879.7,570.3L879.7,570.3z"/>
		<path class="st2" d="M849.1,688.3c-0.9-2,2.3-7.3,3.3-9.5c0.1-0.3,0.7-1.2,0.8-1.5c0-0.8-0.2-1.6-0.6-2.4
			c-0.2-0.9-0.4-1.8-0.7-2.7s-1-1.5-1.3-2.4c-0.6-1.3-0.9-2.6-1-4c0-1.1,0.5-2.3,0.3-3.4c-0.2-1.1-0.8-1.9-0.6-3.1
			c0.2-0.9,0.8-1.6,1-2.5c0.5-2.4,1.5-5.5,3.2-7.3c1-1.1,2.4-1.6,3.5-2.6c2.6-2.1,5.3-4.1,8.1-6c1-0.5,2-1.1,2.9-1.8
			c0.5-0.4,0.8-0.9,1.3-1.3c0.8-0.6,1.7-0.8,2.5-1.3c1.4-0.9,2.7-1.8,4-2.8c2.1-1.6,5.5-4.6,6.8-7c0.5-1,0.5-2.1,1.1-3.1
			c2-3,5.9-5.2,6.8-8.9c0.2-0.9,1.2-6.2,0.8-6.8c-0.6-0.9-2.4,0.6-2.8,1.1c-0.5,0.8-0.5,1.7-1,2.5c-0.8,1.4-1.8,2.6-2.7,4
			c-0.6,1.1-1.2,2.2-2,3.2c-1,1.1-2.3,1.9-3.3,3.1c-0.7,0.9-0.9,2.2-1.5,3.3c-1.3,2.4-3,4.5-5.1,6.3c-4.1,3.4-9.5,4.8-13.8,7.8
			c-0.8,0.4-1.5,0.9-2.2,1.5c-1.3,1.2-2.4,2.8-3.9,3.7c-0.5,0.2-1,0.4-1.5,0.6c-0.2,0.1-0.5,0.6-0.7,0.4c0-0.8,0.1-1.6,0.2-2.4
			c0-2.1,0.2-5.1-0.6-7.1c-1.2-2.7-2.7-5.3-4.4-7.7c-0.7-1-1.7-1.5-2.4-2.4c-0.8-1.3-1.3-2.7-1.5-4.2c0.1-0.7,0-1.3-0.1-2
			c-0.1-0.2-0.9-1.3-1-1.5c-0.3-0.9-0.4-1.9-0.5-2.9c-0.3-1.6-0.4-3.3-0.8-4.9c-0.3-0.6-0.5-1.2-0.6-1.9c0-0.6-0.1-1.2-0.2-1.8
			c-0.1-0.3-1.7-3-1.7-3c-0.4,0-0.6,1.6-0.6,1.6c-0.3,2,0.2,4-0.1,6c-0.4,2.4-0.6,4.8-0.4,7.2c0.1,1.1,0.8,2,1.1,3.1
			c0.3,1.4,0.7,2.9,1.3,4.2c1.3,2.4,3.3,4.5,4.8,6.7c0.7,0.8,1.3,1.8,1.7,2.8c0.4,1.3,0,2.7,0.2,4c0.4,4.3,0.5,8.5,0.3,12.8
			c-0.1,1.8,1.1,4.2,0.5,5.9c-0.3,0.8-0.9,1.4-1.2,2.2c-0.3,1.2-0.4,2.3-0.5,3.5c-0.1,0.8-0.5,1.7-0.6,2.5c-0.2,1.9,0.1,3.8,0.7,5.6
			c0.3,0.9,1.1,1.3,1.5,2.2c0.2,0.7,0.3,1.5,0.3,2.3c0.1,1.7-0.1,3.5-0.5,5.2c-0.5,1.4-1.5,2.5-1.9,4c-0.8,3.2-0.3,6.5-0.3,9.7"/>
		<path class="st2" d="M837.4,603.8c-0.5,0.3-0.6,1.7-0.6,2.2c-0.2,1.8,0.2,3.7,0,5.5c-0.3,2-0.5,4-0.5,6c0,0.5,0,1,0.1,1.5
			c0.3,1,0.7,1.9,1.1,2.8c0.3,1,0.4,1.9,0.7,2.9c0.2,0.7,0.5,1.4,0.9,2c1.4,2.1,2.9,4.2,4.5,6.1c0.8,1.1,1.7,2.1,1.8,3.5
			c0.1,1.1,0,2.2,0.1,3.4c0.2,2.8,0.4,5.7,0.4,8.5c0,1.5-0.1,3-0.1,4.5s0.8,3.2,0.7,4.8c-0.1,1.3-1,2-1.4,3.1
			c-0.3,1.2-0.4,2.3-0.5,3.5c-0.1,0.7-0.4,1.4-0.5,2.1c-0.1,0.4-0.1,0.9-0.1,1.3c0.1,0.8,0.2,1.5,0.3,2.3c-0.2-1.1-0.3-2.1-0.2-3.2
			c0.1-0.8,0.4-1.6,0.6-2.5c0.1-1.2,0.2-2.4,0.5-3.5c0.4-1.2,1.3-1.9,1.4-3.2c0.1-1.6-0.7-3.2-0.7-4.8s0.1-3,0.1-4.5
			c0-2.8-0.2-5.7-0.5-8.5c0.1-1.2,0-2.5-0.1-3.7c-0.5-1.4-1.2-2.6-2.2-3.7c-1.1-1.5-2.3-2.9-3.3-4.4c-0.7-0.9-1.3-2-1.7-3.1
			c-0.3-1.1-0.5-2.3-0.9-3.4c-0.4-0.8-0.8-1.6-0.9-2.5c-0.1-1.6-0.1-3.2,0.1-4.8c0.1-1.1,0.3-2.3,0.4-3.4c0.1-1.5-0.2-3,0-4.5
			c0-0.5,0.1-1,0.3-1.5c0-0.2,0.1-0.3,0.2-0.4c0.1-0.1,0.2-0.1,0.1-0.1s0.2,0.2,0.1,0.2c0.1,0.2,0.2,0.3,0.3,0.5
			c0.3,0.5,0.5,0.9,0.8,1.4c0.3,0.4,0.4,0.8,0.5,1.2c0,0.7,0.1,1.5,0.3,2.2c0.1,0.4,0.3,0.8,0.4,1.2c0.2,1.1,0.4,2.2,0.5,3.3
			l0.3,2.1c0.1,0.6,0.1,1.2,0.2,1.8c0.1,0.5,0.4,1.1,0.7,1.5c0.1,0.2,0.4,0.5,0.5,0.7c0.1,0.7,0.1,1.3,0.1,2
			c0.2,1.3,0.6,2.5,1.2,3.7c0.6,1.1,1.8,1.7,2.6,2.7c0.8,1.1,1.5,2.2,2.2,3.3c0.9,1.5,1.7,3,2.4,4.6c0.8,2,0.6,4.3,0.6,6.4
			c0,0.8-0.1,1.6-0.2,2.4c0,0.2-0.2,0.8,0.2,0.8s0.6-0.5,0.9-0.6c0.7-0.3,1.4-0.6,2-1c1.5-1.2,2.6-2.9,4.2-4
			c1.9-1.2,3.8-2.3,5.8-3.3c3.6-1.8,7.4-3.3,10.3-6.1c1.6-1.6,3-3.4,4.1-5.4c0.4-1,0.8-2,1.3-3c0.5-0.6,1.1-1.2,1.7-1.7
			c0.8-0.6,1.5-1.3,2.1-2.1s1-1.8,1.6-2.7c1-1.3,1.9-2.6,2.7-4c0.3-0.8,0.6-1.5,0.8-2.3c0.4-0.7,1-1.2,1.7-1.4c0.1,0,0.7-0.2,0.8,0
			c0.1,1.1,0.1,2.1-0.1,3.2c-0.3,2-0.6,4.2-1.8,5.9c-1.5,2.1-3.5,3.7-5.1,5.6c-0.5,0.5-0.8,1.1-1.1,1.8c-0.1,0.7-0.4,1.4-0.7,2
			c-1,1.6-2.2,3.1-3.7,4.3c-2.1,2-4.5,3.8-7,5.3c-0.7,0.5-1.6,0.7-2.3,1.2s-1.2,1.2-1.9,1.8c-0.6,0.5-1.3,0.9-2,1.2
			c-1.1,0.7-2.2,1.5-3.3,2.2c-1.4,1-2.7,2-4,3c-0.6,0.6-1.2,1.1-1.9,1.5c-1,0.5-1.9,1.2-2.7,1.9c-1.5,1.6-2.6,3.6-3.1,5.8
			c-0.2,0.8-0.4,1.5-0.6,2.3c-0.4,0.8-0.8,1.8-0.9,2.7c0,1.1,0.7,2,0.7,3.1s-0.4,1.9-0.4,2.9c0,0.8,0.2,1.6,0.4,2.4
			c0.2,0.7,0.4,1.4,0.8,2.1c0.3,0.6,0.7,1.1,1,1.8c0.3,0.9,0.6,1.8,0.7,2.8c0.2,0.7,0.7,1.4,0.6,2.1c-0.1,0.3-0.2,0.6-0.3,0.9
			c-0.3,0.6-0.6,1.1-0.9,1.7c-1.1,1.8-2,3.7-2.7,5.7c-0.4,1-0.5,2.1-0.2,3.1c0,0.2,0.2,0.2,0.4,0.2s0.2-0.2,0.2-0.4
			c-0.3-1-0.1-2.2,0.4-3.1c0.8-2,1.8-3.9,2.8-5.8c0.4-0.7,0.8-1.4,1-2.2c-0.1-0.8-0.3-1.6-0.6-2.3c-0.2-1-0.5-2-0.8-2.9
			c-0.3-0.6-0.7-1.2-1-1.8s-0.5-1.3-0.7-2s-0.4-1.5-0.4-2.3c0.1-1,0.2-1.9,0.4-2.9c0-0.5-0.1-0.9-0.2-1.4c-0.3-0.5-0.4-1.1-0.5-1.7
			c0-1.1,0.7-2,1-3c0.7-2.6,1.3-5.5,3.4-7.5c1.1-0.8,2.2-1.6,3.3-2.3c2.6-2.1,5.3-4.1,8-6c0.8-0.5,1.7-0.9,2.5-1.5s1.2-1.3,1.9-1.8
			s1.5-0.7,2.3-1.2c2.6-1.5,4.9-3.3,7.1-5.4c1.5-1.3,2.7-2.8,3.7-4.5c0.3-0.7,0.5-1.4,0.7-2.1c0.2-0.6,0.6-1.2,1-1.7
			c1.7-2.1,3.9-3.7,5.4-6c0.9-1.8,1.4-3.7,1.6-5.7c0.2-1.1,0.3-2.3,0.1-3.4c-0.2-0.6-1.1-0.5-1.5-0.3c-1,0.4-1.7,1.2-2,2.2
			c-0.2,0.6-0.4,1.1-0.6,1.7c-0.8,1.4-1.7,2.7-2.7,3.9c-0.7,1-1.2,2.2-2,3.2c-1,1.2-2.3,2-3.3,3.1c-0.5,0.9-0.9,1.8-1.2,2.8
			c-0.7,1.4-1.5,2.7-2.5,3.9c-3.1,4-7.6,5.9-12,8.1c-1.4,0.7-2.8,1.5-4.1,2.3c-0.8,0.5-1.7,1-2.5,1.6c-0.6,0.5-1.1,1-1.6,1.6
			c-0.8,1.1-1.8,2-3,2.6c-0.5,0.1-0.9,0.4-1.3,0.7l-0.1,0.1l0,0v-0.2c0-0.3,0-0.5,0.1-0.8c0.1-0.8,0.1-1.6,0.1-2.4
			c0.2-2.2-0.1-4.5-0.9-6.6c-0.8-1.8-1.8-3.5-2.9-5.2c-0.5-0.7-0.9-1.4-1.4-2.1c-0.7-0.9-1.8-1.5-2.4-2.4c-0.8-1.2-1.2-2.5-1.3-3.9
			c0-0.7,0-1.3-0.1-2c-0.1-0.5-0.7-1-1-1.5c-0.1-0.4-0.2-0.8-0.3-1.2c-0.3-1.9-0.5-3.9-0.8-5.8c-0.1-0.4-0.1-0.8-0.2-1.1
			c-0.3-0.6-0.4-1.2-0.5-1.8c0-0.5,0-1-0.1-1.5c-0.1-0.3-0.3-0.6-0.5-0.9c-0.3-0.5-0.5-0.9-0.8-1.4c-0.1-0.2-0.2-0.3-0.3-0.5
			C837.6,603.8,837.5,603.7,837.4,603.8z M844.3,669.8v0.6c0,0.1,0.1,0.2,0.1,0.3C844.3,670.4,844.3,670.1,844.3,669.8L844.3,669.8z
			 M844.4,670.7c0,0.2,0,0.5,0.1,0.7c0.1,0.4,0.2,0.7,0.3,1.1c0.3,0.7,1,1.2,1.3,1.9c-0.1-0.1-0.1-0.3-0.1-0.5
			c-0.3-0.5-0.9-0.9-1.2-1.5C844.6,671.9,844.5,671.3,844.4,670.7L844.4,670.7z M846.1,674.4c0,0.1,0.1,0.2,0.1,0.3L846.1,674.4
			C846.2,674.5,846.1,674.4,846.1,674.4L846.1,674.4L846.1,674.4z M846.3,674.7c0.2,0.8,0.3,1.6,0.3,2.4c0,0.7,0,1.5-0.1,2.2
			c0,1-0.2,2-0.6,2.9c-0.5,1.3-1.4,2.3-1.8,3.7c-0.4,1.6-0.5,3.2-0.5,4.8c0-1.6,0.1-3.2,0.5-4.8c0.4-1.3,1.3-2.4,1.8-3.7
			c0.5-1.7,0.7-3.4,0.7-5.1C846.6,676.3,846.5,675.5,846.3,674.7L846.3,674.7z"/>
		<path class="st2" d="M850.6,730.8c0.3-1.3,0.5-2.7,0.5-4c-0.1-1.5-1-2.5-0.7-4c0.3-0.9,0.8-1.7,1.4-2.5c0.9-1.4,1.6-2.9,2.2-4.4
			c1.3-3.9,1.7-8.1,2.2-12.2c0.3-3.2,0.3-6.3,0.4-9.5c0-1.2-0.3-3.5,0.3-4.5s2.2-1.4,3.1-1.8c2-1.1,3.7-2.6,5.1-4.4
			c1.3-1.5,2.2-3.3,3.5-4.7c1.6-1.7,3.8-2.8,5.5-4.4c2.1-2.1,3.4-5.1,5.1-7.5c1-1.5,2.6-3.2,3.1-5c0.3-1.8,0.5-3.7,0.6-5.5
			c0.2-1.7,0.8-3.4,1.6-5c0.8-1.4,2-2.5,2.7-4c1.5-3.3,3.1-6.7,4.4-10.1c0.7-1.7,0.8-3.5,0.5-5.3c-0.1-0.6,0.3-1.5-0.2-1.8
			c-0.9-0.6-1.6,1.5-1.8,1.8c-1.1,2-1.7,4-2.6,6c-2.3,4.8-7,9-8.5,14.1c-1,3.1-1.7,6.4-2.3,9.6c-0.1,1.3-0.3,2.6-0.7,3.8
			c-1.5,2.8-3.7,5.2-6.3,7c-1.3,0.9-2.9,1.2-4.2,2.2c-1.4,1.3-2.6,2.8-3.5,4.4c-0.7,1-0.5,0.4-1.4,1.2s-1.8,1.7-2.7,2.6
			c-2.3,2-5.3,2.9-7.6,4.8c-1.1,0.9-1.8,2.5-2.6,3.7c-0.4,0.8-1,1.5-1.7,2c-0.2,0.2-0.6,0.2-0.8,0.4c-0.3,0.5-0.6,1-0.7,1.6
			c-0.9,1.8-1.6,3.8-1.8,5.8c-0.2,1.2-1,2.2-1.2,3.4c-0.3,2,0,4.1,0.9,6c0.3,0.5,0.8,0.8,1.1,1.3s0,1.3,0.1,1.7
			c0.3,1.2,0.8,2.3,1.6,3.2c3,2.8,4.6-0.7,4.6-3.4c0-1.2-0.7-2.2-0.8-3.3c-0.5-3.5-1.9-6.9-1.1-10.5c0.5-2.1,2.3-3.7,3.4-5.5
			c0.2-0.5,0.4-1.1,0.5-1.6c0.2-0.4,0.9-1.2,1.5-0.5c0.1,0.8,0.1,1.7,0.1,2.5c0.6,2.4,0.6,4.9-0.1,7.3c-0.6,2.3-0.4,4.8-1.1,7
			c-0.3,0.8-0.7,1.6-1.1,2.4c-0.2,0.5-0.2,1.2-0.5,1.6c-0.6,0.7-1.2,1.4-1.7,2.1c-0.9,1.8-1,6.1-1.2,8.2c-0.2,2.1,0.3,4.2,0.5,6.4
			c0,0.9,0.1,1.8,0.4,2.7C849.1,734.3,850.4,731.5,850.6,730.8z"/>
		<path class="st2" d="M891.2,630c-0.6,0.2-1.1,1.2-1.2,1.6c-0.1,0.1-0.1,0.3-0.2,0.4l-0.3,0.6c-0.1,0.2-0.2,0.3-0.2,0.5
			s-0.2,0.3-0.2,0.5c-0.2,0.3-0.3,0.7-0.4,1l-0.6,1.5c-0.1,0.3-0.3,0.7-0.4,1c-0.2,0.6-0.5,1.1-0.8,1.6c-2.3,4.5-6.3,8.1-8,12.9
			c-0.4,1.2-0.8,2.5-1.1,3.8c-0.5,1.9-0.9,3.8-1.2,5.7c-0.1,1.3-0.3,2.7-0.6,4c-0.2,0.6-0.5,1.2-0.9,1.8c-1.1,1.6-2.3,3.1-3.8,4.4
			c-0.6,0.6-1.3,1.2-2,1.6c-1.2,0.8-2.7,1.2-3.8,2c-1.7,1.3-2.5,3.2-3.9,4.8c-0.2,0.2-0.5,0.3-0.7,0.5c-0.3,0.2-0.6,0.4-0.9,0.7
			c-0.8,0.7-1.4,1.5-2.2,2.2c-2.3,2-5.2,2.9-7.6,4.8c-0.8,0.7-1.4,1.6-1.8,2.5c-0.4,0.7-0.8,1.4-1.3,2c-0.3,0.5-0.7,0.9-1.2,1.3
			c-0.3,0.2-0.7,0.2-0.9,0.5s-0.4,1-0.7,1.5c-0.5,0.9-0.9,1.8-1.2,2.8s-0.5,2-0.7,3s-0.8,1.8-1.1,2.8c-0.4,1.6-0.4,3.2,0.1,4.8
			c0.2,0.8,0.5,1.5,0.9,2.1c0.3,0.4,0.8,0.7,0.9,1.2s0,1,0.1,1.6c0.2,1.3,0.9,2.5,1.8,3.4c0.3,0.2,0.6,0.4,0.9,0.6
			c0.3,0.1,0.6,0.2,1,0.3c0.3,0,0.6-0.1,0.8-0.3c-0.1,0.7-0.2,1.4-0.2,2.1c-0.1,1.3-0.2,2.6-0.3,4c0,1.6,0.1,3.2,0.4,4.8
			c-0.3-1.8-0.4-3.5-0.4-5.3c0.2-1.7,0.2-3.3,0.4-5c0-0.2,0.1-0.4,0.1-0.6c0.8-0.6,1.3-1.6,1.4-2.6c-0.1,0.6-0.3,1.1-0.6,1.6
			c-0.2,0.3-0.5,0.6-0.8,0.8c0.1-0.7,0.2-1.3,0.4-2c0.2-0.6,0.6-1.1,1-1.6v0.8c0-0.3,0.2-0.7,0.2-0.9V714c0.2-0.3,0.5-0.5,0.7-0.8
			c0.3-0.5,0.2-1.1,0.4-1.6c0.9-1.5,1.5-3.3,1.6-5.1c-0.1,0.9-0.2,1.8-0.5,2.6s-0.7,1.6-1.1,2.4c-0.1,0.5-0.3,1.1-0.5,1.6
			c-0.2,0.3-0.4,0.6-0.7,0.8c0-0.3-0.1-0.5-0.1-0.8v1c-0.4,0.5-0.8,1-1.1,1.6c-0.2,0.7-0.4,1.3-0.5,2c-0.1,0.1-0.2,0.2-0.3,0.2
			c-0.7,0.1-1.4,0-1.9-0.5c-1.1-0.9-1.9-2.2-2.1-3.6c0-0.4,0-0.9,0-1.3c-0.1-0.8-0.8-1.1-1.2-1.7c-0.4-0.7-0.7-1.6-0.8-2.4
			c-0.3-1.4-0.3-2.8,0.1-4.2c0.4-0.8,0.7-1.6,1-2.5c0.2-1.3,0.5-2.5,0.9-3.7c0.3-0.9,0.8-1.7,1.2-2.6c0.1-0.4,0.3-0.8,0.5-1.2
			c0.2-0.2,0.4-0.3,0.7-0.4c0.2-0.1,0.3-0.2,0.5-0.3c0.5-0.4,0.8-0.9,1.1-1.5c0.4-0.5,0.7-1.1,1.1-1.6c0.5-0.9,1.1-1.7,1.8-2.4
			c2.4-1.8,5.3-2.8,7.6-4.8c0.9-0.8,1.6-1.7,2.5-2.4c0.4-0.4,1-0.5,1.4-1c1.3-1.5,2.2-3.5,3.8-4.7c1.2-0.7,2.5-1.4,3.8-2
			c1.9-1.3,3.6-2.9,5-4.7c0.8-1,1.4-2,1.9-3.2c0.3-1.3,0.5-2.7,0.6-4.1c0.4-2.2,0.9-4.3,1.5-6.5c0.3-1.2,0.6-2.4,1.1-3.6
			c1.9-4.5,5.5-7.9,7.8-12.2c0.5-0.8,0.9-1.7,1.2-2.6c0.7-1.7,1.4-3.4,2.2-5c0.1-0.3,0.8-1.3,1.1-0.6c0.2,0.3-0.1,1.1,0,1.5
			c0.1,1,0.2,2,0.1,3c-0.2,1-0.5,2-0.9,3c-0.9,2.3-1.9,4.5-2.9,6.7c-0.4,1.1-0.9,2.2-1.5,3.2s-1.5,1.9-2.1,2.9
			c-1,1.6-1.6,3.5-1.8,5.4c-0.2,1.7,0,3.8-0.6,5.5c-0.6,1.9-2,3.3-3,4.9c-1.4,2.1-2.5,4.4-4.1,6.4c-0.8,1-1.8,1.9-2.8,2.6
			c-1.4,0.8-2.6,1.8-3.7,3s-1.9,2.7-2.9,4c-0.9,1.2-1.9,2.2-3,3.2c-1,0.8-2,1.6-3.2,2.1c-0.9,0.4-2.3,0.7-2.8,1.7
			c-0.4,1-0.5,2.1-0.4,3.2v3.1c0,1.8,0,3.7-0.2,5.5c-0.1,2.2-0.4,4.3-0.7,6.5c-0.3,3.3-1.1,6.5-2.3,9.5c-0.5,1.2-1.1,2.3-1.8,3.3
			c-0.6,0.6-1,1.4-1.2,2.2c-0.1,0.5-0.1,1,0,1.5c0.2,0.9,0,0,0.2,6.5c0,0.1,0,0.1,0.1,0.1l0.2-0.1c0,0.1-0.1,0.2-0.1,0.3l0,0
			c0.2,0,0.3-0.1,0.4-0.2c0.4-4.4,0.7-3.1,0.4-4.4c-0.3-1.3-0.8-2.2-0.7-3.5c0.1-0.9,0.9-1.6,1.4-2.3c0.9-1.4,1.7-2.9,2.2-4.5
			c1.4-4.2,1.8-8.7,2.2-13c0.2-2.9,0.3-5.8,0.3-8.7c0-1.5-0.3-3.1,0.3-4.4c0.2-0.4,0.6-0.7,1-0.8c0.8-0.4,1.7-0.7,2.5-1.1
			c1.7-1,3.2-2.3,4.4-3.8c1.5-1.6,2.4-3.6,3.9-5.2c1.6-1.8,3.8-2.8,5.5-4.4c2-2,3.2-4.6,4.7-7c1-1.6,2.4-3,3.2-4.8
			c1-2.3,0.6-4.9,1-7.3c0.3-1.5,0.8-3,1.6-4.4c0.6-1,1.5-1.9,2.1-2.9c0.7-1.3,1.3-2.6,1.9-4c1-2.2,2-4.5,2.8-6.8
			c0.4-1.1,0.7-2.3,0.7-3.5c0-0.7-0.2-1.3-0.2-2s0.3-1.3-0.2-1.8C891.6,630,891.4,629.9,891.2,630z M850.4,731
			c-0.1,0-0.1-0.1-0.1-0.2c-0.3,0.2-2.2,1.1-2.4,0.7c0.1,0.4,0.1,0.9,0.4,1.2c0.8,0.9,1.6-0.6,1.9-1.2
			C850.3,731.4,850.4,731.2,850.4,731z M847.9,731.5c0-0.1-0.1-0.1-0.1-0.2C847.8,731.4,847.9,731.4,847.9,731.5z M847.8,731.3
			L847.8,731.3z M847.8,730.8c0-0.4,0-0.7-0.1-1.1c0-0.4-0.1-0.7-0.1-1.1C847.7,729.4,847.7,730.1,847.8,730.8L847.8,730.8z
			 M849.3,713c-0.2-0.9-0.5-1.8-0.7-2.8c-0.2-1.2-0.5-2.3-0.7-3.5c-0.5-2.4-1.1-5.1-0.3-7.5c-0.9,2.6-0.2,5.8,0.3,8.4
			c0.2,1,0.3,2.1,0.6,3.2C848.8,711.5,849.1,712.2,849.3,713L849.3,713z M847.6,699.3c0.3-0.8,0.8-1.6,1.3-2.3
			c0.4-0.6,0.9-1.2,1.3-1.8l0.6-0.9c0.1-0.2,0.2-0.3,0.2-0.5c0.1-0.5,0.6-2.2,1.4-1.8l0.3,0.3c0-0.1,0-0.2-0.1-0.3
			c-0.7-0.6-1.5,0.7-1.6,1.2c0,0.2-0.1,0.3-0.1,0.5s-0.1,0.4-0.2,0.5l-0.6,0.9c-0.2,0.3-0.5,0.6-0.7,0.9c-0.2,0.3-0.5,0.6-0.7,0.9
			c-0.4,0.5-0.7,1-1,1.6C847.7,698.8,847.7,699.1,847.6,699.3L847.6,699.3z M852.1,706.3c0.1-1.5,0.4-3,0.7-4.4
			c0.4-1.6,0.6-3.2,0.5-4.8c0-0.6-0.1-1.2-0.2-1.8c-0.1-0.3-0.2-0.7-0.2-1v-1.5c0,0.4-0.1,0.8-0.1,1v0.5c0,0.4,0.1,0.5,0.1,1
			l0.3,1.8c0.1,1.4,0,2.8-0.4,4.1c-0.2,0.8-0.4,1.6-0.5,2.4C852.3,704.5,852.3,705.4,852.1,706.3L852.1,706.3z M849.2,714.9
			c0,0.1-0.1,0.2-0.1,0.3C849.2,715.1,849.2,715,849.2,714.9L849.2,714.9z"/>
		<path class="st2" d="M844.6,693.3c-1.1,1.7-1.6,3.7-1.2,5.7c0,0.4-0.2,1,0.5,1.1c1.6,0.2,2.6-2.4,3-3.4c0.9-2,1.6-4.1,2-6.3
			c0.1-0.7,0.7-1.4,0.5-2.1c-0.4-0.8-1-1.6-1.7-2.2"/>
		<path class="st2" d="M847.7,686.1c0.5,0.7,1.4,1.4,1.6,2.3c0.2,0.7-0.3,1.2-0.5,1.9s-0.3,1.5-0.5,2.3c-0.3,1.1-0.8,2.1-1.2,3.2
			c-0.1,0.3-0.3,0.7-0.4,1c-0.4,1-1,2.7-2.1,3.1c-0.1,0-0.2,0.1-0.3,0.1c-0.8,0.1-0.6-0.3-0.7-0.8c0-0.2,0-0.5-0.1-0.7
			c-0.2-1.7,0.3-3.4,1.2-4.9c0.1-0.1,0-0.3-0.1-0.4s-0.3,0-0.4,0.1c-0.7,1.2-1.1,2.5-1.3,3.8c0,0.7,0,1.4,0.1,2.1
			c0.1,0.6-0.1,1.2,0.7,1.3h0.5c0.1,0,0.3-0.1,0.4-0.1c1.5-0.7,2.1-3.1,2.6-4.5c0.4-1.1,0.8-2.1,1.1-3.2c0.2-0.8,0.3-1.5,0.5-2.3
			s0.6-1.2,0.4-1.9C849,687.6,848.4,686.7,847.7,686.1z"/>
		<path class="st2" d="M852.6,689.9c-0.5,1.7-0.3,3.5-0.5,5.3c-0.1,1-0.7,2-0.7,3.1s0.6,2.2,0.7,3.2s-0.3,1.8-0.3,2.7
			c0,1.8,0.4,3.2-0.2,5c-0.9,2.7-2.5,6-2.5,8.9c0,0.3,0.5,3.1,1.3,2.6c0.3-0.7,0.6-1.4,0.8-2.1c0.6-1.6,1-3.2,1.2-4.9
			c1-4.2,2.2-8.2,2.4-12.5c0-1.9-0.6-3.3-0.9-5.1c-0.1-1.6-0.2-3.2-0.1-4.8"/>
		<path class="st2" d="M852.7,689.6c-0.2,0-0.3,0-0.4,0.2l0.5,0.5l0.1-0.3C853,689.8,852.9,689.6,852.7,689.6z M852.9,690.3
			L852.9,690.3L852.9,690.3c0.1,0.1,0.2,0.1,0.3,0.2C853.2,690.6,852.9,690.3,852.9,690.3L852.9,690.3z M852.8,690.4
			c-0.2-0.1-0.4-0.2-0.6-0.2s0,0.3-0.1,0.4c-0.1,0.5-0.1,0.9-0.1,1.4c-0.1,1.1,0,2.2-0.2,3.3c-0.1,0.8-0.5,1.5-0.6,2.3
			c0,1.1,0.2,2.2,0.6,3.3c0,1.1,0,2.1-0.2,3.2c0,1.1,0.2,2.2,0.1,3.3c-0.2,1.3-0.5,2.6-1.1,3.8c-0.7,1.7-1.3,3.5-1.6,5.4
			c-0.2,1.2-0.1,2.4,0.4,3.5c0.2,0.4,0.6,1.1,1.1,0.7c0.4-0.6,0.6-1.2,0.8-1.9c0.2-0.5,0.4-1,0.5-1.5c0.3-1,0.4-1.9,0.6-2.9l0.9-3.9
			c0.7-2.4,1.1-4.8,1.4-7.3c0.1-1.2,0.2-2.3,0.1-3.5c-0.2-1.4-0.7-2.7-0.9-4.1c-0.1-0.9-0.1-1.9-0.1-2.8c0-0.3,0.1-0.6,0-0.8v1.6
			c0,0.7,0,1.3,0.1,2c0.2,1.4,0.7,2.8,0.8,4.2c0.1,1.2,0.1,2.3-0.1,3.5c-0.4,2.8-1,5.6-1.8,8.3c-0.2,1-0.5,1.9-0.7,2.9
			s-0.3,1.9-0.6,2.9c-0.2,0.5-0.4,0.9-0.5,1.4c0,0.1-0.1,0.3-0.1,0.4s-0.1,0.3-0.2,0.5s-0.3,1.1-0.7,0.9s-0.5-0.8-0.6-1.2
			c-0.2-1.1-0.2-2.3,0-3.4c0.1-0.2,0.1-0.5,0.2-0.8c0.4-1.5,1-3,1.6-4.5c0.3-0.8,0.6-1.5,0.8-2.3c0.1-1.3,0.1-2.5,0-3.8
			c0-0.7,0.1-1.5,0.2-2.2s0.1-1.4-0.1-2.1c-0.3-0.7-0.4-1.4-0.5-2.1c0.1-0.9,0.3-1.7,0.6-2.5c0.2-0.8,0.2-1.5,0.2-2.3
			c0-0.9,0-1.7,0.2-2.6C852.8,690.6,852.7,690.5,852.8,690.4L852.8,690.4z M853.9,692c-0.1-0.3-0.1-0.5,0-0.8c0,0-0.6-0.8-0.5-0.6
			C853.7,691,853.8,691.5,853.9,692L853.9,692z"/>
		<path class="st2" d="M835.6,786.7c0.4,2.4,0.9,4.6,3.4,5.4c0.7,0.2,1,0.6,1.6-0.2c1.1-1.3-0.4-3.6-0.6-5c-1-4.5-4-8.4-3.5-13.2
			c0.2-3.2,0.6-6.4,1.2-9.6c0.3-1.2,1-2.3,1.3-3.5c0.9-4.2,2.6-8.3,4-12.5c0.7-2.2,2-4.2,2.9-6.3c1.1-2.6,2-5.2,2.9-7.8
			c0.3-0.9,0.9-1.7,1.2-2.5c0.8-2.3,1-4.7,0.7-7.1c-0.3-2.1-1.3-4.1-1.7-6.2s-1.6-2.9-3.1-4.2c-0.2-0.2-0.3-0.6-0.5-0.6
			c-0.6,0-1.1,3.2-1.1,3.8c0.1,2.4,1.3,4.7,1.5,7c-0.1,1.5-0.3,3-0.7,4.4c-0.3,1.5,0.1,3-0.5,4.4c-1,2.5-1.8,6.3-3.3,8.5
			c-0.5,0.7-1.3,1.2-1.9,1.9c-1,1.3-1.8,2.7-2.4,4.2c-1.8,4.4-2.3,9.1-3.2,13.6c-0.8,3.9-2,7.7-2.2,11.7c0,6,2,11.9,5.6,16.7"/>
		<path class="st2" d="M845.3,713.2c-0.4,0-0.6,0.7-0.7,1c-0.5,1.1-0.6,2.4-0.5,3.6c0.3,2.2,1.2,4.3,1.5,6.5
			c0.2,1.6-0.6,3.2-0.8,4.8c0,1.3-0.2,2.7-0.4,4c-0.3,1-0.6,1.9-0.9,2.8c-0.5,2-1.3,3.9-2.4,5.6c-0.6,0.7-1.2,1.3-1.9,1.9
			c-0.9,1-1.6,2.2-2.1,3.5c-2,4.5-2.5,9.6-3.5,14.4c-0.6,3.2-1.6,6.4-2,9.7c-0.4,4.2,0.2,8.4,1.9,12.3c-1.6-3.9-2.2-8.1-1.8-12.3
			c0.4-3.3,1.4-6.5,2-9.7c0.9-4.8,1.5-9.8,3.5-14.3c0.5-1.3,1.2-2.5,2.1-3.5c0.6-0.7,1.4-1.1,1.9-1.9c1.1-2,2-4.2,2.7-6.4
			c0.2-0.7,0.5-1.4,0.7-2.1c0.2-1.4,0.4-2.7,0.4-4.1c0.4-1.5,0.6-3,0.8-4.5c-0.1-1.3-0.4-2.6-0.8-3.9c-0.3-1.1-0.6-2.3-0.7-3.5
			c0.1-0.7,0.2-1.4,0.3-2.1c0.1-0.4,0.2-0.9,0.4-1.3l0.2-0.3c0.2,0,0.2,0.3,0.3,0.5s0.4,0.3,0.5,0.5c0.9,0.7,1.6,1.5,2.2,2.5
			c0.3,0.7,0.6,1.5,0.7,2.3c0.6,1.7,1.1,3.4,1.4,5.2c0.2,1.8,0.1,3.6-0.3,5.4c-0.2,0.7-0.4,1.4-0.6,2.1c-0.3,0.7-0.7,1.4-1,2.1
			c-1,2.6-1.8,5.3-2.9,7.8c-0.7,1.6-1.5,3.1-2.3,4.7c-0.7,1.5-1.2,3.1-1.7,4.7c-1.1,3.1-2.1,6.2-2.9,9.4c-0.3,1.1-0.9,2.1-1.2,3.2
			c-0.3,1.1-0.5,2.3-0.7,3.5c-0.2,1.6-0.3,3.2-0.5,4.8c-0.1,0.9-0.2,1.9-0.2,2.8c0,1.2,0.2,2.3,0.5,3.4c0.6,2,1.5,3.9,2.2,5.9
			c0.4,1,0.6,2.1,0.9,3.1s1,2.2,0.9,3.4c0,0.2,0,0.5-0.1,0.7c-0.4,0.9-0.8,0.6-1.5,0.4c-0.7-0.2-1.3-0.6-1.8-1.1
			c-0.2-0.2-0.4-0.5-0.5-0.8c-0.2-0.3-0.3-0.7-0.4-1c0-0.1,0-0.2-0.1-0.2l0,0c0-0.1-0.1-0.3-0.1-0.4s-0.2-0.2-0.3-0.2
			c-0.1-0.2-0.3-0.4-0.4-0.6c-0.8-1.3-1.4-2.7-2-4.1c0.1,0.2,0.2,0.5,0.3,0.7c0.5,1.2,1.1,2.3,1.7,3.4c0.1,0.2,0.2,0.3,0.3,0.5
			c-0.1-0.1-0.2-0.1-0.3,0l0,0c-0.2,0.4,0.2,0.8,0.3,1.1s0.3,0.7,0.4,1.1c0.2,0.4,0.4,0.7,0.6,1c0.6,0.6,1.4,1.1,2.2,1.3
			c0.3,0.1,0.6,0.3,0.9,0.2c0.6-0.2,1-0.6,1.2-1.2c0.1-0.2,0.1-0.5,0.1-0.7c-0.1-1.2-0.5-2.5-1-3.6c-0.3-1-0.5-2.1-0.9-3.1
			c-0.7-2-1.6-3.8-2.2-5.8c-0.3-1.1-0.5-2.2-0.5-3.3c0-1.2,0.2-2.4,0.2-3.6s0.2-2.7,0.4-4c0.1-1.2,0.4-2.3,0.7-3.4
			c0.3-1.1,0.9-2.1,1.2-3.2c0.8-3.1,1.8-6.3,2.9-9.3c0.6-1.6,1-3.2,1.7-4.7s1.5-3.1,2.2-4.7c1.1-2.6,1.9-5.2,2.9-7.9
			c0.3-0.7,0.7-1.4,1-2.1c0.3-0.7,0.5-1.4,0.6-2.1c0.4-1.8,0.5-3.7,0.3-5.5c-0.3-1.4-0.7-2.8-1.2-4.2c-0.2-1.3-0.6-2.6-1.2-3.8
			c-0.7-1-1.5-1.8-2.5-2.5C845.7,713.7,845.6,713.4,845.3,713.2z M836.2,788.3c0-0.2-0.1-0.3-0.1-0.5c0-0.4-0.1-0.8-0.2-1.2
			c0-0.2-0.2-0.2-0.3-0.2s-0.3,0.2-0.2,0.3C836.2,788.3,836.4,788.5,836.2,788.3L836.2,788.3z M836.5,788.2c0.1,0.3,0.3,0.7,0.2,1
			c-0.1-0.3,0.4,0.6,0.4,0.6S836.4,788,836.5,788.2z"/>
		<path class="st2" d="M838.7,748.6c-0.5,0.1-0.7-0.8-0.8-1.3c-0.1-0.8,1.6-3.5,2-4.3c1.5-3.4,2.5-7,4.2-10.3c0.8-1.4,1-3,2-4.3
			c0.2-0.2,0.3-0.7,0.5-0.6c1.2,0.2,0.4,4.7,0.2,5.4c-0.7,2-1.5,4-2.4,6c-0.7,1.4-1.7,2.7-2.4,4.2
			C841.1,745.1,840.7,748.1,838.7,748.6z"/>
		<path class="st2" d="M846.9,727.6c-0.5-0.3-0.7,0.3-0.9,0.6s-0.3,0.5-0.5,0.7c-0.5,1.1-1,2.2-1.4,3.3c-0.3,0.7-0.7,1.3-1,2
			c-0.5,1.1-1,2.3-1.4,3.4c-0.6,2-1.4,3.9-2.3,5.7c-0.1,0.3-0.3,0.6-0.5,0.8c-0.1,0.3-0.3,0.5-0.5,0.8c-0.4,0.7-0.7,1.4-0.8,2.2
			c0,0.5,0,0,1.1,1.7c0.1,0,0.3-0.1,0.3-0.2c0,0,0,0,0-0.1c-0.1,0-0.1,0-0.1-0.1c0.2,0,0.3-0.1,0.5-0.2c0.2-0.1,0.3-0.3,0.4-0.4
			c-0.3,0.2-0.6,0.4-0.9,0.6c-0.1-0.1-0.1-0.2-0.2-0.2c-0.5-1.1-0.5-0.6-0.5-1.1c0.1-0.4,0.2-0.9,0.4-1.3c0.4-0.8,0.8-1.5,1.2-2.3
			c0.7-1.3,1.2-2.6,1.7-4c0.6-1.7,1.3-3.5,2-5.2c0.4-0.9,0.9-1.8,1.3-2.8c0.2-0.6,0.4-1.2,0.7-1.8c0.2-0.5,0.5-1,0.8-1.4
			c0.1-0.1,0.2-0.5,0.3-0.5s0.3,0.1,0.3,0.2c0.1,0.3,0.2,0.7,0.3,1c0.1,1.3-0.1,2.6-0.4,3.8c-0.3,1.1-0.8,2.2-1.2,3.3
			c-0.5,1.3-1,2.5-1.7,3.7c-0.8,1.2-1.6,2.5-2.2,3.9c-0.3,0.7-0.5,1.4-0.8,2.1c0.4-1.1,0.9-2.2,1.4-3.2c0.7-1.2,1.5-2.2,2.1-3.4
			c1-2,1.7-4,2.5-6c0.2-0.5,0.3-1.1,0.3-1.7c0.1-0.8,0.2-1.7,0.1-2.5C847.5,728.5,847.3,727.9,846.9,727.6z M841,745.9
			c-0.2,0.7-0.6,1.3-1,1.9l0.3-0.3C840.6,747,840.8,746.5,841,745.9L841,745.9z M840,747.7l-0.2,0.2
			C839.8,747.9,839.9,747.9,840,747.7z"/>
		<path class="st2" d="M841.6,748.2c0.8-1.2,1.6-2.3,2.6-3.4c2.5-3.3,4.5-7,6-10.9c0.6-1.6,0.2-2.7-0.1-4.2
			c-0.1-0.3,0.2-1.5-0.5-1.6s-2.5,3.8-2.7,4.4c-1.5,4-2.5,8.1-4,12"/>
		<path class="st2" d="M849.7,727.9c-0.3-0.1-0.7,0.4-0.8,0.6c-0.6,0.8-1,1.6-1.4,2.5c-0.1,0.2-0.2,0.5-0.3,0.7
			c-0.9,2.2-1.7,4.5-2.2,6.8c-0.6,1.9-1,3.1-1.4,4.3c0.3-0.7,0.6-1.5,0.8-2.2c0.8-2.9,1.9-5.9,3-8.7c0.4-1,1-2,1.6-2.9
			c0.1-0.1,0.5-0.7,0.7-0.7c0.5,0.2,0.3,0.9,0.3,1.4s0.2,0.8,0.2,1.2c0.2,0.9,0.2,1.8,0,2.7c-0.5,1.4-1.1,2.8-1.8,4.1
			c-1.1,2.2-2.3,4.2-3.7,6.2c-0.7,1-1.5,1.8-2.2,2.8v-0.1c0.1-0.3-0.1,0.4-0.1,0.2c-0.1,0.5-0.2,0.9-0.3,1.4c0,0.1,0.1-0.2,0.2-0.3
			s0.3-0.4,0.4-0.6c0.3-0.4,0.6-0.7,0.9-1.1c0.8-0.9,1.5-1.8,2.1-2.8c1.6-2.3,2.9-4.8,4-7.4c0.5-1,0.8-2,1-3.1
			c0.1-0.7,0-1.4-0.2-2.1c-0.1-0.4-0.2-0.9-0.2-1.3C850.3,728.8,850.4,728.1,849.7,727.9z M842.4,746.6c-0.2,0.3-0.4,0.5-0.6,0.8
			c-0.1,0.1-0.3,0.4-0.2,0.3c0.2-0.5,0,0-0.2,0.3c-0.1,0.1,0,0.3,0.1,0.4s0.3,0,0.4-0.1C842.4,746.6,842.8,745.3,842.4,746.6z
			 M843.6,742.7c-0.5,1.2-0.9,2.4-1.4,3.6c-0.2,0.5,0.8-1.8,0.8-1.8C843.1,743.9,843.3,743.3,843.6,742.7L843.6,742.7z"/>
		<path class="st2" d="M840.2,839.3c0.8,1.8,0.9,3.8,1.5,5.6c0.3,1,0.8,1.6,0.7,2.6s-1.7,3.8-0.2,4.5c1.7,0.7,2.9-4.5,3.2-5.6
			c1-4.7,1.3-9.4,1-14.2c-0.1-1.4-0.4-2.7-0.5-4c-0.2-5.3,1.4-10.8,2.1-16.1c0.6-4.6-0.6-10.3-2.3-14.6c-0.6-1.5-1-3.4-1.9-4.7
			c-0.5-0.7-1.3-1.3-1.8-2c-0.7-1-0.1-0.5-0.7-1.5c-1-1.7-2-3.2-2.9-5c-0.1-0.2-0.9-2.1-1.2-2.1c-0.7-0.2-0.7,1.5-0.7,1.5
			c-0.2,1.8,0.6,2.8,0.9,4.5c0.2,1.2,0,2.5,0.2,3.7c0.3,1.8,2.4,4,3,5.7c0.9,2.6,1.7,5.2,2.3,7.8c0.3,1.9,0.3,3.9-0.1,5.8
			c-0.1,0.8,0,1.6-0.1,2.5c-0.3,3-1.5,6.2-2.3,9.1c-0.6,2.3-0.3,4.6-0.7,6.9C839.3,832.5,839.1,836.6,840.2,839.3z"/>
		<path class="st2" d="M837.3,782.1c-0.2-0.1-0.5-0.1-0.6,0.1c-0.3,0.6-0.4,1.2-0.3,1.8c0.1,1.1,0.3,2.2,0.7,3.3
			c0.2,0.6,0.3,1.3,0.3,2c0,1,0,2,0.2,3c0.6,1.9,2.2,3.4,2.9,5.2c0.7,1.7,1.2,3.4,1.6,5.2c0.4,1.3,0.7,2.6,0.9,4
			c0.1,1.4,0,2.9-0.3,4.3c-0.1,0.8,0,1.7-0.1,2.5c-0.3,3.3-1.7,6.4-2.4,9.7c-0.3,1.7-0.3,3.5-0.5,5.2l-0.3,2.7l0,0
			c0.1-0.9,0.2-1.8,0.3-2.7c0.1-1.7,0.2-3.5,0.5-5.2c0.5-2.2,1.3-4.4,1.9-6.6c0.3-1,0.5-2.1,0.6-3.1c0-0.7,0-1.4,0-2.1
			c0.1-1.4,0.4-2.8,0.4-4.3c-0.1-1.1-0.2-2.2-0.5-3.3c-0.4-1.5-0.8-3.1-1.3-4.6c-0.3-1-0.6-2-1.1-2.9c-0.8-1.5-2.1-2.8-2.5-4.5
			c-0.1-0.8-0.2-1.6-0.2-2.4c0-0.8-0.1-1.6-0.3-2.4c-0.4-1.1-0.6-2.2-0.7-3.3c0-0.5,0-1.1,0.2-1.6
			C836.8,781.9,837,781.7,837.3,782.1c0.5,0.8,0.9,1.7,1.3,2.7c0.7,1.4,1.6,2.8,2.4,4.1l0.3,0.6c0,0.2,0,0.3,0.1,0.5
			c0.7,1.2,1.9,1.9,2.5,3.1c0.5,1.2,1,2.4,1.3,3.6c1.3,3.4,2.1,7,2.5,10.7c0.3,5-1.3,10-1.9,14.9c-0.2,1.8-0.3,3.6-0.3,5.4
			c0.1,1.1,0.3,2.2,0.4,3.4c0,0.6,0.1,1.3,0.1,1.8c0.3,5.1-0.3,10.2-1.6,15.1c-0.1,0.2-0.1,0.5-0.2,0.7c-0.2,0.8-0.6,1.6-1.2,2.3
			c-0.2,0.2-0.5,0.5-0.8,0.4c-0.6-0.2-0.6-0.9-0.5-1.4c0.1-0.7,0.3-1.4,0.6-2c0.1-0.3,0.2-0.6,0.2-0.9c0-0.9-0.2-1.8-0.7-2.5
			c-0.1-0.4-0.2-0.8-0.3-1.1c-0.3-1.1-0.4-2.2-0.7-3.3c-0.1-0.3,0,0-0.5-1.4c0-0.1-0.2-0.1-0.3-0.1v0.2c0-0.1-0.1-0.2-0.1-0.3l0,0
			c-0.2,0.1-0.2,0.2-0.1,0.4c0.7,2.3,0.5,1.5,0.7,2.3c0.2,1.1,0.5,2.2,0.8,3.3c0.2,0.7,0.7,1.3,0.7,2c0,0.5-0.1,1-0.3,1.4
			c-0.3,0.7-0.5,1.5-0.6,2.3c0,0.5,0.2,1,0.6,1.4c1.1,0.7,2-0.6,2.4-1.5c1.1-2.4,1.7-5,2-7.7c0.1-0.8,0.2-1.6,0.2-2.4
			c0.1-0.8,0.1-1.7,0.2-2.4c0.1-2.2,0.1-4.4-0.1-6.6c-0.1-0.9-0.3-1.8-0.4-2.7c-0.1-1.3-0.1-2.7,0-4c0.2-3.2,0.9-6.3,1.4-9.4
			c0.3-1.5,0.5-3,0.6-4.5c0.1-3.8-0.4-7.6-1.7-11.2c-0.3-1-0.7-2-1.1-3c-0.3-1.1-0.7-2.2-1.2-3.2c-0.6-1.2-1.7-1.9-2.4-2.9
			c-0.2-0.4-0.4-0.8-0.5-1.3c-0.6-1.1-1.3-2.2-2-3.3s-1.1-2.3-1.7-3.3C837.6,782.4,837.5,782.2,837.3,782.1z M840.1,839L840.1,839
			c0-0.4-0.6-6-0.5-7.6c-0.1,1.3-0.2,2.6-0.2,4c0,1.1,0.1,2.2,0.5,3.2C840,838.7,840.1,838.9,840.1,839L840.1,839z"/>
		<path class="st2" d="M844.7,869c-0.7-1.1-0.3-3.2-0.2-4.4c0.3-1.7,0.4-3.5,0.3-5.2c-0.2-0.8-0.9-1.5-1.1-2.4
			c-0.2-0.5-1-2.8-1.8-2.7c-1.2,0.1-0.8,2.7-0.9,3.3c-0.2,1.2-0.8,2.2-1,3.4c-0.1,1.4,0.2,2.9,0.1,4.3c0,2-0.2,3.9-0.4,5.9
			c-0.2,1.4-0.6,2.9-0.2,4.2c0.6,1.8,1.8,3,2.6,4.7c0.5,1.2,0.8,2.5,1,3.8c0.4,1.5,1.1,2.9,1.4,4.4c0.5,2,0.1,7.6,2.1,8.6
			c0.2,0.1,0.5,0.4,0.8,0.3c0.5-0.3,1-3.9,1.1-4.6c0.2-4.3,0.2-8.4-1.2-12.5c-0.9-2.5-2.2-4.8-2.6-7.4
			C844.5,871.6,845.4,870,844.7,869z"/>
		<path class="st2" d="M841.5,854.1c-0.4,0.3-0.6,0.7-0.7,1.2c0,0.8,0,1.7-0.1,2.5c-0.4,1-0.7,2.1-0.9,3.2c-0.1,1.2,0,2.4,0.1,3.6
			c0,1.9,0,3.8-0.2,5.7c-0.4,1.5-0.5,3-0.5,4.5c0.3,2,1.9,3.7,2.9,5.4c0.7,1.3,0.7,2.8,1.1,4.1s1.1,2.8,1.4,4.3
			c0.4,2.4,0.1,5,1.1,7.2c0.3,0.6,0.7,1.1,1.3,1.4c0.2,0.1,0.4,0.2,0.6,0.1c0.4-0.2,0.6-1.6,0.7-2c0.4-1.9,0.5-3.9,0.5-5.9
			c0.1-2.8-0.3-5.6-1-8.3c-0.6-1.9-1.5-3.7-2.2-5.6c0.7,1.9,1.5,3.7,2.1,5.6c0.7,2.7,1.1,5.5,1,8.3c0,1.2,0,2.5-0.1,3.7
			c0,0.3-0.1,0.6-0.1,0.9c-0.1,0.8-0.3,1.6-0.5,2.4c0,0.2-0.1,0.6-0.3,0.7c-0.2,0.1-0.7-0.3-0.9-0.4c-0.8-0.6-1-1.9-1.2-2.9
			c-0.2-1.2-0.3-2.3-0.3-3.5c0-0.7-0.1-1.4-0.2-2.1c-0.4-1.5-1.1-2.9-1.4-4.4c-0.2-1.3-0.5-2.6-1-3.8c-0.9-1.7-2.5-3.3-2.8-5.3
			c0-1.2,0.1-2.4,0.3-3.5c0.2-1.6,0.3-3.3,0.3-4.9c0-0.8,0-1.6,0-2.4c-0.1-0.9-0.1-1.9-0.1-2.8c0.2-1.3,1-2.6,1-3.9v-1.5
			c0-0.3,0.2-1.4,0.7-1.2c0.3,0.1,0.5,0.5,0.6,0.7c0.3,0.6,0.5,1.2,0.8,1.8c0.5,0.7,0.8,1.5,1.1,2.3c0.2,1.9,0,3.9-0.4,5.8
			c-0.1,1,0,0,0.3,3.9c0,0.1,0.2,0,0.2,0.1v-0.2c0.1,0.1,0.1,0.1,0.1,0.2h0.1c0.1-0.1,0.2-0.3,0.1-0.4c-0.3-0.9-0.3-0.5-0.3-0.9
			c-0.1-0.5-0.1-1,0-1.5c0.2-2.3,0.8-4.7,0.5-7.1c-0.2-0.7-0.5-1.4-1-2c-0.3-0.9-0.7-1.8-1.2-2.6
			C842.6,854.2,842.1,853.8,841.5,854.1z M844.8,869.2L844.8,869.2c-0.1,1.1-0.1,2.1-0.1,3.2c0,0.2,0.1,0.4,0.1,0.6
			c-0.1-0.4-0.2-0.8-0.1-1.2c0.1-0.6,0.2-1.1,0.2-1.7v-0.6C844.9,869.4,844.9,869.3,844.8,869.2z M844.8,873.1v0.4
			c0,0.1,0.1,0.2,0.1,0.3C844.9,873.6,844.9,873.3,844.8,873.1z M844.9,873.7c0,0.1,0,0.2,0.1,0.3c0.2,0.5,0.4,1.1,0.6,1.6
			C845.4,875,845.1,874.4,844.9,873.7L844.9,873.7z"/>
	</g>
	<path class="st3" d="M712.7,222.5c1.4-0.2,2.4,1.7,2,3s-1.6,2.4-2.6,3.4c-3.9,3.7-6.7,8.3-9.4,12.9c-0.9,1.5-1.9,3.2-1.7,5
		c0.1,2,1.6,3.6,2.3,5.4s0.3,4.6-1.7,4.9c-0.6,0.1-1.2-0.1-1.7,0.2c-1,0.4-1.2,1.8-1.1,2.9c0.1,3.8-0.5,8.5-4,10.1
		c-1.5,0.7-3.3,0.6-4.9,0.8c-1.6,0.2-3.4,1-4,2.5c-0.1,0.5-0.3,1.1-0.5,1.6c-0.7,1.3-2.2,1.9-3.7,1.6c-1.4-0.4-2.7-1.1-3.8-2
		c0.2,2.1-0.2,5.5-1.7,7.1c-0.5,0.5-1.1,0.9-1.7,1.3c-2.1,1.3-4.5,2.4-6,4.4s-2,5.1-0.1,6.8c1.2,0.8,2.5,1.4,3.9,1.6
		c1.3,0.4,2.8,1.1,3.2,2.5c0.2,0.8,0.1,1.7,0.3,2.5c0.5,1.2,1.7,2.1,3,2.3c4,0.8,7.7-2,10.8-4.7l3.8-3.2l0.3-0.3
		c0.2-0.5-0.2-0.9-0.7-1.2c-1.3-0.9-2.4-2.1-3.1-3.6c-0.7-1.5-0.5-3.2,0.4-4.6c0.2-0.4,0.6-0.6,1.1-0.7c0.7,0,1.2,0.7,1.7,1.3
		c1.1,1.4,2.5,2.6,4.2,3.3c0.8,0.3,1.6,0.5,2.4,0.4c0.5-0.2,1-0.4,1.5-0.6c4.5-2.2,9.7-2.7,14.5-1.2c0.8,0.4,1.7,0.5,2.6,0.3
		c0.8-0.3,1.3-1.6,0.6-2.1c5.1-1,10.2-2,15.2-3.1c2.4-0.4,4.8-1.1,7-2.1c1.4-0.7,2.7-1.7,4.2-2.3c4.3-1.8,9.4-0.8,13.5-2.9
		c-0.3-2.4-0.5-4.9-0.4-7.3c0-0.5,0-1,0.4-1.3s0.8-0.4,1.3-0.3c1.7,0,3.4,0,5.1,0.1c0.6,0,1.1-0.1,1.6-0.3c1.4-1,0-3.2,0.3-4.8
		c5.1-0.1,10.1-0.7,15.1-1.7c0.9-0.1,1.7-0.5,2.3-1.2c0.8-1.3-0.4-2.9-1.7-3.6s-3-1-3.9-2.2c-0.4-0.4-0.5-1-0.3-1.5
		c0.2-0.2,0.4-0.4,0.6-0.5c5.1-3.5,10.9-6,16.9-7.4c-1.8-1.5-4.4-0.9-6.6-0.1s-4.5,1.9-6.7,1.2c0.1-0.7,0.7-1.3,1.4-1.3
		s1.4,0,2.1,0.1c2.4-0.1,4.2-2.2,4-4.5c0-0.1,0-0.2,0-0.3l7.6-1.2c-0.3,1.3,0.5,2.6,1.8,2.9c0.1,0,0.1,0,0.2,0c1.3,0,2.5-1,2.5-2.3
		c0-0.1,0-0.1,0-0.2c1,1.5,2.2,3.2,3.9,3.7c0.4-1,0.5-2,0.4-3c-0.2-1-0.9-1.9-1.9-2.2c-0.6-0.1-1.2,0.1-1.7-0.1
		c-1.6-0.5-1.1-2.9-2.1-4.2c-1.2-1.6-3.7-0.8-5.4,0.2s-3.9,2.2-5.5,1c-0.5-0.4-0.9-1-1.4-1.4c-1.7-1.3-4,0-6.1,0
		c-2.7,0.1-5-1.8-7.6-2.5s-5.4-0.1-8.1-0.2c-0.5,0-1-0.1-1.5-0.4c-0.5-0.5-0.9-1.1-1.1-1.8c-1.4-3.2-5.6-4-9.1-3.6
		s-6.9,1.8-10.4,1.2c-0.6-0.1-1.3-0.3-1.8-0.7c-0.4-0.4-0.7-0.8-1-1.3c-1.7-2.8-3.9-5.5-7-6.5c-2.4-0.7-4.9-0.2-7.3-0.6
		c-2.6-0.4-4.9-1.7-6.6-3.7c-1.3,1-1.6,2.8-2.3,4.2c-1,1.9-2.4,3.5-4.1,4.8C714.1,221.7,713.4,222.1,712.7,222.5z"/>
	<path class="st3" d="M754.3,282.9c-3-1.4-6.2-0.5-9.3,0.6c-1.8,0.7-3.6,1.4-5.5,2c-1.3,0.4-2.5,1-3.7,1.6c-0.8,0.6-1.6,1.1-2.5,1.5
		c-2.5,1.4-5.4,1.7-8.2,2.1c-8.8,1-17.9,2.2-25.3,7c-4.1,2.7-7.5,6.4-11.8,8.7c-0.5,0.2-0.9,0.5-1.3,0.9c-0.4,0.5-0.6,1-0.7,1.6
		c-0.7,2.6-1.4,5.1-2,7.7c-0.2,0.8-0.8,1.9-1.6,1.6c-0.7-1.7,1.2-3.6,0.7-5.4c-0.5-1.1-1.7-1.8-2.9-1.7c-1.2,0.2-2.4,0.6-3.4,1.2
		c-1.5,0.8-3.2,1.8-3.7,3.4c0.7,0.5,1.6,0.6,2.5,0.4c0.9-0.1,2,0.3,2.1,1.2c0,0.3-0.1,0.6-0.2,0.9c-0.5,1.6-1.1,3.3-1.6,4.9
		c2.2,1.7,4.8,2.9,7.5,3.5c0.2,3.8-0.5,7.7-2.1,11.2l4.2-0.6c0.3,0,0.7-0.1,1,0.2c0.2,0.3,0.3,0.6,0.3,0.9c0.1,1.6,0.1,3.2,0.2,4.9
		c0.3,1.6,0,3.2-0.8,4.6c-1.1,1.2-2.6,2-4.2,2.2c-1.6,0.1-3.2,0.4-4.7,0.9c-2.9,1.2-4.6,4.2-4.2,7.3c0,0.3,0.1,0.6,0.3,0.9
		c0.3,0.3,0.7,0.5,1.2,0.6c1.3,0.3,2.5,0.5,3.8,0.8c0.2,0,0.4,0.1,0.5,0c0.3-0.2,0.1-0.7,0.1-1.1c0-0.8,1-1.1,1.8-1.2
		c1.3-0.1,2.5-0.1,3.8-0.2c0.7,0,1.7,0.3,1.5,1c0.6,0,1.1-0.1,1.7-0.1c0.1,0.4,0.3,0.7,0.4,1.1c0.9-0.3,1.8-0.3,2.7-0.1
		c0.9,0.2,1.5,1.2,1.3,2.1c0.6,2.6-1.3,5.5,0.1,7.8c0.3,0.5,0.8,1,1.1,1.6c0.9,1.9-1.1,4.1-0.4,6.1c1.4,0.3,2.3,1.5,2.2,2.9
		c-0.1,0.5-0.1,0.9-0.1,1.4c0.2,1,1.6,1.3,2.3,2c0.6,0.8,0.6,1.8,0.2,2.6c-0.4,0.8-1,1.6-1.7,2.2c0.9,0.1,1.9,0.2,2.8,0.2
		c1.7,1.5,1.9,4.1,0.4,5.9c1,0.1,2.1,0.3,3.1,0.4c1.8,1.6,1,4.7,2.2,6.8c0.8,1.4,2.4,2.2,3.6,3.4c1.5,1.7,2.6,3.7,3.3,5.8
		c0.4,1,0.7,2,1.1,3c1.2,3.1,2.5,6.3,5.2,8.1c1.2,0.8,2.7,1.3,3.7,2.4c0.5,0.6,0.9,1.2,1.2,1.9c0.4,0.8,0.8,1.5,1.2,2.3
		c0.9,1.7,1.6,3.9,0.3,5.2c-0.7,0.7-2,1.1-2.1,2.1c1.7,1.3,3.8,1.3,5.9,1.7c3,0.6,5.5,2.5,7,5.1c1.7,3.1,1.6,6.7,1.6,10.2
		s-0.1,7.1-0.2,10.6c0,1.1-0.2,2.3-1.2,2.7c1.2,1.7,1.7,3.9,1.2,5.9c-0.2,1-0.7,1.9-0.5,2.9c0.2,1.4,1.5,2.2,2.9,2l0,0
		c0.7-0.1,1.4-0.6,2.1-0.5c1.4,0.1,1.8,2,1.9,3.4c0.1,2,0,4.5-1.7,5.6c-0.6,0.4-1.3,0.6-1.4,1.3c-0.1,0.9,1.1,1.2,1.8,1.8
		c1.1,1,0.6,2.7,0,4s-1.5,2.7-1,4.1c3.1,0.6,6.1,1.3,9.1,2.3c0.5,1.3-1.1,2.3-1.7,3.5c-0.3,0.9-0.4,1.9-0.4,2.8
		c-0.2,1.4-0.3,2.7-0.2,4.1c0.3,1.3,1.6,2.6,2.9,2.2c0.1,2.7,0.2,5.4,0.3,8c0,0.3,0,0.6,0.1,0.9c0.2,0.4,0.4,0.7,0.7,1.1
		c0.9,1.5,0.5,3.4,0.1,5c-2.2,0.5-4.5,0.3-6.5-0.8c-1-0.7-2.1-1.3-3.2-1.8c-1.4-0.5-2.9-0.7-4.4-0.6c-2.1,0-4.2,0.1-6.3,0.2
		c-0.7,2.8-1.4,5.5-2.1,8.3c0,0.2-0.1,0.4,0,0.5c0.1,0.2,0.4,0.4,0.6,0.4c3.9,1.7,6.9,5.1,8.2,9.2c0.3,1,0.5,2.1,1.4,2.7
		c0.9-1.2,2.5-1.6,3.8-1c0.6,0.3,1.1,0.7,1.6,1.2c1,0.9,2.3,1.5,3.6,1.8c-0.9,0.4-1.7,1-2.2,1.9c2.7,1.8,5.7,3.2,8.8,4l-0.2,1.4
		c-0.4,2-1.2,3.9-2.5,5.5c-1.5,1.5-3.7,2.2-4.8,4.1c-0.6,1-0.7,2.2-1.6,3c-0.6,0.5-1.4,0.9-2.2,1c-3.3,1.2-6,3.5-7.7,6.5
		c1.2-0.6,2.6,0.4,3,1.6c0.3,1.3,0.2,2.6-0.2,3.8c-0.3,1.4-0.7,2.8-1,4.3c-0.1,0.9-0.6,1.7-1.4,2.2c-0.6,0.2-1.2-0.1-1.7,0.3
		c-1,0.7,0.2,2.8-0.9,3.4c-1.3-0.2-2.5,0.6-2.8,1.9c0,0.1,0,0.3,0,0.4c0.1,0.8,0.5,1.5,0.2,2.2c-0.4,1.2-2.2,1-3.4,0.5
		c0.2,5.4,0.4,10.8,0.6,16.3c0,0.5,0,1-0.2,1.4c-0.4,0.5-0.9,0.9-1.5,1.2c-1.8,1.1-2.9,3-2.9,5.1c0.9,0.6,2-0.3,3.1-0.3
		c1.1,0.1,2,0.9,2.2,1.9s0.2,2.1-0.1,3.1c-0.1,0.5-0.3,1-0.6,1.4c-0.7,0.6-1.7,0.1-2.5-0.2c-3.6-1.3-7.5,0.6-8.8,4.2v0.1
		c0.9-0.3,1.9,0.1,2.3,1c0.4,0.9,0.5,1.8,0.3,2.7c0,1.2-0.2,2.5-0.7,3.6c-0.5,1.2-1.6,1.9-2.9,1.9c-0.3,3.2-0.1,6.5,0.6,9.7
		c-2-0.4-3.8,0.9-4.2,2.9c-0.1,0.4-0.1,0.8,0,1.2c1.4,0.4,1.9,2.1,1.7,3.6s-0.6,2.9-0.3,4.3c0.5,1.4,1.2,2.8,2.1,4
		c0.1,0.2,0.2,0.4,0.2,0.6c0,0.8-1.1,0.9-1.7,1.4c-0.7,0.7-0.2,1.8,0.4,2.5c0.8,0.6,1.4,1.3,1.9,2.1c0.5,1.4-0.6,2.7-1.7,3.7
		c-0.3,0.3-0.8,0.6-1.1,0.4s-0.2-0.3-0.3-0.5c-0.6-1-2.3-0.7-2.9,0.3c-0.5,1.1-0.6,2.3-0.3,3.4c-1.1-0.5-2.4-0.1-3,0.9
		c-0.5,1.1-0.7,2.2-0.5,3.4c0.4,3.5,1.9,6.8,2.9,10.2c1.3,4.7,2.1,9.5,2.6,14.3c0.2,1.7,0.4,3.3,0.6,5c0.2,1.4,0,3.2-1.3,3.5
		c-0.8,0.2-1.6-0.3-2.4-0.2c-1.3,0.1-2,1.8-1.9,3.1s0.8,2.6,1.1,3.9c0.4,2.2-0.6,4.5-2.5,5.7c0.8,0.1,1.8,0.4,2,1.2
		c-1.7,0.5-2.7,2.3-2.3,4c-0.9-0.1-1.5-0.9-1.4-1.8c0-0.2,0.1-0.3,0.1-0.5c-1.1-1.2-2.9-1.3-4.5-1s-3.1,1.1-4.7,1.2
		c-0.4,1.1-0.5,2.3-0.4,3.5c1.6,0.7,3.5,0.4,5.2,0.4s3.8,0.5,4.5,2.1s-0.2,3.9,0.7,5.6l13.5,0.9c0.3,0,0.7,0.1,1,0.2
		c0.4,0.3,0.6,0.8,0.7,1.3c0.4,1.7,0.6,3.4,0.6,5.2c0,0.5,0,1-0.2,1.5c-0.5,1.2-2,1.6-3.3,1.9c-4.6,0.9-9.2,1.6-13.8,2
		c-1.6,0.2-3.4,0.4-4.2,1.8c-0.5,1-0.5,2.2-0.2,3.3c0.7,4.6,1.2,9.2,1.4,13.8c0.1,1.2,0.1,2.4-0.2,3.6c-0.3,1.2-0.8,2.3-1.1,3.5
		c-1,4.3,2.2,8.7,1.5,13.1c-0.2,0.9-0.3,1.7-0.4,2.6c-0.1,0.9,0.3,1.7,1.1,2.2c1.7,0.9,3.8-1.5,5.6-0.7c0.5,1.7-1.7,2.9-2.3,4.6
		c-1.2,3.7,2.4,7.4,2.5,11.3c0,1.5-0.3,3.3,0.9,4.1c0.4,0.2,0.7,0.4,1,0.6c0.4,0.5,0.6,1.2,0.5,1.9v4.8c0,5.3,0,10.6,0.1,15.8
		c0,1,0,1.9-0.2,2.9c-0.2,0.8-0.4,1.6-0.6,2.4c-0.2,1-0.2,2.1-0.2,3.1c-0.2,5-2.2,10-1.6,14.9c0.9-0.7,2.3-0.6,3,0.4
		c0.1,0.1,0.2,0.2,0.2,0.3c0.9,2.3,0.5,4.9-1.2,6.8c-0.8,0.9-1.9,1.8-1.7,3c1.5-0.4,3.1,0.3,3.8,1.7c0.6,1.4,0.8,2.9,0.6,4.4
		c0,0.4-0.1,0.7-0.4,1c-0.3,0.2-0.7,0.4-1.1,0.4c-4.1,0.6-7.5,3.7-8.3,7.8c1,0.9,2.4,1.1,3.6,0.6c1.2-0.4,2.3-1.1,3.6-1.5
		c3.8-1.1,7.7,1.4,11.7,1.3c0.6,0,1.2-0.1,1.8-0.4c0.5-0.3,0.9-0.7,1.3-1.2c2.3-3,2.6-7.5,5.6-9.8c0.3-0.3,0.8-0.5,1.2-0.5
		c0.7,0,1.2,0.6,1.8,1c2,1.1,4.7-1.3,6.7-0.2c1.1,0.6,1.5,1.9,2.1,3s1.8,2.1,2.9,1.7c-1.4,2.4-1.7,5.2-0.8,7.8
		c0.3,0.8,0.9,1.7,1.8,1.6c0.4,0,0.7-0.2,1-0.4c2.7-1.7,5.7-2.7,8.9-3c0.9,2.7,0.8,5.6,1,8.4c0.2,2.8,0.9,5.8,3.1,7.7
		c2.9-3.8,9.3-3.1,12.4-6.8c-0.4-2.4-0.7-4.8-1.1-7.3c-0.3-2.3-0.6-4.8,1-6.5c1.3-1.4,3.4-1.7,5.3-2c5.8-1,11.1-3.7,16.3-6.4
		c-2.1-0.8-4.4-0.1-6.4,0.9s-3.9,2.3-6.1,2.7c-0.5-1.1-1.7-1.7-2.8-1.4s-2.2,0.8-3.1,1.5c-1.6,0.9-3.2,1.6-4.9,2.2
		c-2.7,1.1-5.3,2.1-8,3.2c-3.3,1.3-6.7,2.7-10.3,2.7c-1.5-1.9-0.8-5.5-3.1-6.2c-1.2-0.4-2.9,0.2-3.7-0.8c-0.3-0.6-0.4-1.3-0.3-1.9
		c0.1-1-0.1-1.9-0.6-2.8c-1.6-2.2-6.2-1.3-6.9-4c-0.5-1.9,1.6-3.4,3.4-4.1c3.1-1.1,6.5-1.5,9.8-1.3c3,0.2,6.7,0.8,8.6-1.7
		s0-6.5,0.6-9.7c0.1-0.5,0.3-0.9,0.6-1.2c0.5-0.3,1-0.5,1.6-0.4c5.9,0,11.7-0.1,17.6-0.1c-1-0.4-1.5-1.9-1.4-3s0.8-2.1,1.9-2.5
		c1.2-0.4,2.7,0.1,3.8-0.7c0.6-0.4,0.9-1.2,1.5-1.5c1.4-0.8,3.6,0.6,4.5-0.7c0.3-0.4,0.4-0.9,0.3-1.4c0-3.2,0-6.5-0.1-9.7
		c-0.1-0.9,0.1-1.8,0.7-2.5c0.7-0.4,1.4-0.6,2.2-0.5c1.4,0,2.8,0.1,4.2,0.1c0.5,0.1,1.1-0.1,1.5-0.4c0.3-0.4,0.5-0.9,0.4-1.4
		c-0.1-5.4-3.5-10.3-8.6-12.2c-1.5-0.5-3.4-1-3.9-2.6c0.9,0,1.8,0.1,2.8,0.1c-2.4-2-2.7-5.5-3.3-8.6s-2.2-6.6-5.3-7
		c-0.9,0-1.9,0-2.8-0.2c-0.9-0.3-1.6-1.4-1.1-2.1c1.1,0.2,2.1-0.5,2.4-1.6c0-0.1,0-0.2,0-0.3c-0.1-1.6-2.2-2.7-2.1-4.3
		s2.5-2.1,4.2-1.9c0.2-4.8,0.1-9.6-0.3-14.4c-1.2,0.5-2.6-1.2-1.9-2.3c0.3-0.4,0.6-0.8,0.9-1.1c0.4-0.9,0.6-1.8,0.6-2.8
		c0.2-1,0.9-2,1.8-1.8c-0.9-3.6-1.2-7.3-0.9-11c0.9,0.8,2.6,0,2.9-1.2c0.2-1.3-0.1-2.5-0.8-3.6s-0.9-2.3-0.8-3.6
		c1.4,0,2.9-0.2,4.2-0.7c1.4-0.4,2.5-1.4,3.1-2.7c0.8-2.1-0.5-4.3-1.7-6.1c-2.9,1.7-6.2,2.6-9.5,2.5c-0.3,0-0.6,0-0.9-0.2
		c-0.2-0.2-0.4-0.4-0.5-0.7c-1.7-3.6-3.5-7.2-4-11.1c5.1-0.9,10.2-1.3,15.4-1.2c0.7-1.5,1-3.2,0.8-4.8c-0.3-1.6-1.7-3.2-3.3-3
		c-0.5,0.1-0.9,0.2-1.4,0.3c-0.5,0-1.1-0.1-1.2-0.6s0.4-1.1,0.8-0.8c-0.4-1.4-1.5-2.5-2.9-2.8c1-0.5,2.2-0.7,3.3-0.8
		c1.2,0,2.2,0.7,2.7,1.7c0.2,0.5,0.1,1.1,0.3,1.6c0.7,1.9,3.7,1.3,5.2,2.7c0.8,0.7,1.6,1.9,2.5,1.3c0.7-0.5,0.2-1.6-0.5-2.1
		c-1-0.6-1.8-1.3-2.6-2.1c-0.7-0.9-0.8-2.4,0.2-3c0.4-0.3,1-0.2,1.5-0.5s0.7-0.9,0.3-1.2c-1.2,0-2.3-0.8-2.7-1.9
		c-0.4-1.1-0.7-2.2-0.6-3.4c-0.1-2.2-0.2-4.3-0.3-6.5c0.4,0.5,1.7,0,2.1-0.6c0.3-0.6,0.4-1.3,0.3-2c-0.4-5.7-0.7-11.4-1.1-17.1
		c1.3-0.8,2.6-1.7,3.9-2.5c0.5-0.3,1-0.7,1.3-1.2c0.3-0.6,0.4-1.2,0.3-1.8c-0.1-3.1-0.7-6.2-1.9-9.1c-0.9-2-1.8-4-2.5-6
		c-0.8-2.1-0.8-4.4,0.1-6.4c0.4-0.8,0.9-1.5,1.2-2.2c1.7-4.3-3.4-9.3-1.6-13.6c2.1,0,4.3-0.1,6.4-0.1c1.2,0,2.8-0.2,3.2-1.4
		c0.2-0.7,0.2-1.3,0.1-2c-0.3-2.8,1-5.6,1.8-8.3c0.6-2.5,1-5.1,1-7.7c0.3-5.7,0.2-11.4-0.4-17c-0.2-1.5-0.7-3.9,0.5-4.8
		c0.9-0.5,1.9-0.6,2.9-0.4c1.5,0.2,3,0.3,4.4,0.5c0.2-1.6,0.4-3.2,0.6-4.9c0-0.8,0.3-1.6,0.8-2.3c1-1.1,2.9-0.8,4.4-0.3
		c1.1-3.6-0.5-7.4-1.2-11.1c-0.8-4.3-0.2-8.6,1.5-12.6c0.5-0.9,0.8-1.8,1.1-2.8c0.3-1.1,0.4-2.2,0.5-3.3c0.2-3.1,0.3-6.4,1.9-9.1
		c0.6-1.1,1.5-2,2.1-3c2.3-3.4,2.9-7.9,5.7-10.9c0.7-0.6,1.3-1.3,1.9-2c0.5-1.1,0.9-2.2,1.3-3.3c1-2.2,3.2-4.1,2.6-6.4H830
		c-0.5,0-1.1-0.3-0.9-0.7c1.5-2.5,1.8-5.7,2.2-8.7c0.2-1,0.1-2.4-0.9-2.7c-1.6-0.5-2.9,2.4-4.4,1.7c-1.1-0.5-0.7-2.1,0.1-2.9
		c0.8-0.8,2-1.4,2.4-2.5c0.2-1,0.1-2-0.2-2.9c-0.4-2.5,0.4-5.1-0.3-7.4c-0.8-2.6-3.3-4.8-2.9-7.5c0.3-1.1,0.7-2.1,1.2-3
		c0.7-2.1,1-4.3,0.9-6.5c0-1.9-0.1-4.1-1.6-5.2c-1-0.7-2.5-1-2.8-2.1c-0.1-0.7,0-1.4,0.1-2.1c0-1.8-1.8-3-3.6-3.2s-3.5,0.1-5.3-0.2
		c-1.1-0.2-2.4-1.3-1.8-2.3c3.1-5.8,2.8-12.9,4.1-19.3c0.7-3.6,1.5-7.2,1.3-10.8c-0.1-1.5-0.3-3-0.3-4.5c0.1-5.2,3.8-10.1,3-15.2
		c0-0.4-0.1-0.7-0.3-1c-0.8-1.1-2.5,0-3.8-0.2c-0.8-1.4-1.2-3-1.2-4.6c-4.9,0.3-9.8,0.7-14.7,1c-0.5,0.1-1,0-1.4-0.2
		c-0.5-0.5-0.8-1.2-0.7-1.9c-0.2-2.7-0.3-5.3-0.5-8c-0.1-2.1-0.7-4.8-2.8-5.2c-0.4-0.1-0.8-0.1-1.1-0.2c-2.9-0.8-1-6.5-3.8-7.5
		c-0.5-0.2-1.2-0.1-1.7-0.3c-1.5-0.5-2.5-1.9-2.6-3.4c-0.3-1.5-0.1-3-0.4-4.5c0-0.5-0.2-0.9-0.6-1.2c-0.3-0.3-0.7-0.3-1.1-0.5
		c-1.5-0.8-1.8-2.8-1.9-4.4s-0.7-3.7-2.3-4.1c-1-0.2-2.4-0.9-2.5-1.9s0.9-1.9,0.7-2.8c-0.1-0.3-0.3-0.7-0.6-0.9
		c-1.2-1.4-2.5-2.8-3.7-4.2c0.3-0.6,0.9-0.9,1.5-0.7c0.6,0.1,1.2,0.4,1.7,0.7c1.5,0.6,3.3,0.6,4.8,0c-2.3-1.5-4.6-3-7-4.5
		c-1.9-1.2-4-2.7-4.3-5c-0.2-1.5,0.4-3,0.1-4.5c-0.3-1.7-1.7-3.6-0.7-4.9c0.7-0.9,2.3-1.2,2.4-2.3c0.1-1.1-1.3-1.7-1.5-2.7
		c-0.1-0.4,0-0.9,0.1-1.3c0.5-2,1.3-4.4,3.3-4.9c-0.9-1.4-2.6-2.1-4.3-2.7s-3.3-1.2-4.4-2.6s-1-3.7,0.6-4.5c0.2-2-1.2-3.9-2.7-5.3
		s-3.1-2.8-3.7-4.8c-0.1-0.5-0.2-0.9-0.5-1.3c-0.3-0.5-0.8-0.7-1.2-1.1c-1.1-0.9-1.7-2.4-1.5-3.8s1.2-2.6,2.5-3.2
		c0.9-0.1,1.8-0.4,2.6-0.9c0.9-0.9,0.5-2.5-0.1-3.7c-3.2-1-6.7-0.8-9.8,0.7c-1-3.3,1.8-6.3,3-9.5
		C755.4,287.9,755.4,285.2,754.3,282.9"/>
	<path class="st4" d="M731.8,522.6c1.5-3.6,2.4-7.4,2.8-11.3c0-0.3,0-0.5,0.2-0.7c0.4-0.4,1.1-0.1,1.6-0.1c0.9,0,1.4-1.1,1.7-2
		c0.6-2.1,1-4.2,1.3-6.3c0.1-1.1,0.3-2.2,0.8-3.2s1.6-1.7,2.7-1.6c-0.2-0.9,0.4-1.7,1.3-1.9c0.3-0.1,0.6,0,0.9,0.1
		c-0.9,1-0.7,2.5,0.3,3.4l0,0c-0.6-0.1-1.2,0.3-1.3,0.8c0,0.1,0,0.2,0,0.4c0.2,0.7,0.7,1.3,1.4,1.5c0.7,0.1,1.4,0.1,2.1,0
		c0.4,2.5,0.5,5.1,0.4,7.7c0.8-0.6,1.9,0.2,2.2,1.2c0,1-0.1,2-0.3,2.9c-0.6,4.4,3.5,8.5,2.7,12.9c-3.9-0.9-7.7-1.7-11.6-2.5
		c-1.4-0.3-2.8-0.5-4.1-0.8c-1-0.3-2.1-0.4-3.2-0.5c-0.7-0.1-1.4,0.2-1.9,0.6c-0.3,0.2-0.5,0.6-0.6,0.9c-0.1,0.2-0.2,0.5-0.2,0.7
		c-0.4,1.5-0.7,3.1-1,4.6c-0.2,1-0.5,2-0.7,3c-0.6,2.5-1.1,5-1.7,7.5s-1,5.2-1.6,7.8c1.5-1,3.1-2.1,5-2.1c1.3,0.1,2.6,0.4,3.8,1
		c0.7,0.3,1.5,0.7,1.7,1.4c0.1,0.7-0.1,1.4-0.6,1.9c-0.8,1.1-1.8,2-2.9,2.7c2.5,0.1,4.8,1.2,6.3,3.2c0.2,0.4,0.5,0.8,0.9,1.1
		c0.8,0.6,2,0.4,2.6-0.4c0.1-0.3,0.3-0.6,0.6-0.8c0.5-0.3,1.2,0.1,1.7,0.5c1.9,1.1,4.7,0.6,5.9,2.4c1,1.6-1.8,4.1-3.7,4.3
		c-0.4,0-0.9,0-1.3,0.2c-0.6,0.5-1,1.3-1.1,2.1c-0.5,1.7-1.9,3-3.7,3.3c-0.9,0.1-1.7,0.2-2.6,0.4c-2.2,0.8-2.7,3.6-2.8,5.9
		l-0.9,13.5c-0.9,0-1.9,0-2.8,0.1c0.2,2.6-0.4,5.2-1.7,7.4c-0.8-0.3-1.7-0.5-2.5-0.8c-0.6,0.8-0.7,1.8-0.3,2.7s0.8,1.8,1.1,2.7
		c0.3,1.9-1,4-0.1,5.7c0.2,0.4,0.6,0.9,0.5,1.3c-0.2,0.8-1.2,0.8-2,0.9c-1.2,0.2-2.2,1-2.7,2.1c0.3,0.7,1.2,0.9,1.8,1.4
		c1.1,1,0.3,2.7,0.4,4.2c0.1,2.7,3,4.2,4.5,6.5c-4.1,0.9-8.2,1.2-12.4,0.9c-0.3,0-0.6,0-0.9,0.2c-0.2,0.2-0.2,0.5-0.1,0.8
		c0.6,4.1,1.9,8.1,3.7,11.9c-1.9-0.1-4.2,0.2-6.2,0.2c0.9,3.4,1.8,6.8,2.6,10.3c-1.6,0-3.2,0.3-4.6,1.1c0.7,2.4,1.5,4.9,2.2,7.3
		c-0.5,0.1-0.9,0.1-1.4,0.2c-0.3,3.2,2.5,5.9,3.2,9.1c-1,0-2,0-3-0.2c1.7,2.6,3.1,5.4,4.1,8.4l-2.3,0.6c-0.3,0.1-0.6,0.1-0.9,0
		c-0.3-0.2-0.4-0.6-0.5-0.9c-0.4-1.6-1.2-3.1-2.3-4.3v2.4h-1.2c0.6,0.3,1.3,1,1,1.6c-0.2,0.4-0.8,0.6-0.9,1c-0.3,0.9,1.6,1.7,1,2.5
		c-0.3,0.3-0.6,0.5-1,0.5c-0.9,0.3-1.5,1-1.6,1.9c0.5-0.2,0.9-0.2,1.4,0c0.4,0.2,0.8,0.7,0.6,1.1c-0.4,1-2.3,0.3-2.6,1.3
		c2,6.9,3.2,14,3.8,21.2c0.1,0.5,0,1-0.2,1.4c-0.3,0.5-0.9,0.6-1.3,1s-0.7,1.1-0.3,1.4c1-0.1,2,0.5,2.4,1.5c0.4,0.9,0.6,2,0.5,3
		c0.1,0.8-0.1,1.5-0.4,2.2c-0.4,0.6-1.5,0.9-1.9,0.3c-0.1,0.6-0.1,1.2-0.2,1.8c-1.4-0.1-2.2,1.6-2.4,3c-0.6,3.6-0.4,7.3,0.4,10.8
		c-0.6,0.1-1.1,0.3-1.7,0.4c0,0.7-0.1,1.4-0.1,2.2l-2.7,0.3c0.3-1.4-0.4-2.9-1.6-3.6c-0.9,1.8-3.6,1.1-5.4,1.9
		c-1.5,0.8-2.1,2.7-1.3,4.3l0,0l6.2-0.3c0.7-0.1,1.4,0,2.1,0.2c1,0.4,1.7,1.4,1.7,2.5c0,2.3-2.8,3.7-5,3.3s-4.1-2-6-3.2
		c-3.6-2.2-7.7-3.3-11.8-4.4c0.9,5.6,1.4,11.3,1.4,17c2.3-0.3,4.6-0.6,6.8-0.8c0.4-0.1,0.9-0.1,1.2,0.2c0.3,0.2,0.4,0.7,0.5,1
		c0.3,1.7,0.6,3.5,0.8,5.2c2.7-0.4,5.3-0.9,8-1.3c-0.1,0.7-0.5,1.4-1.2,1.7c0.4,0.8,0.6,1.6,0.6,2.5c-0.1,0.8-0.9,1.7-1.7,1.5
		c-0.3-0.1-0.7-0.2-1-0.3c-0.4,0-0.8,0.3-0.7,0.6c0.7,0,1.3,0.1,2,0.1c0.2,2.2,0.4,4.5,0.6,6.7c-1.4,1.3-0.7,3.6,0,5.4
		c-0.4,0.1-0.8,0.2-1.2,0.2c-0.1,1.2-0.1,2.4-0.2,3.6c0.8-0.2,1.1,1.1,0.9,1.9c-0.4,2-0.8,4.1-1.2,6.1c-0.9,4.4,1.7,8.9,2.7,13.2
		c0.2,1.1,0.5,2.2,0.9,3.2c0.7,1.3,1.2,2.7,1.5,4.2c0.1,1.1-0.2,2.2,0.3,3.1c0.7-0.1,1.3-0.4,1.9-0.7c0.8,4.1,1.5,8.2,2.3,12.2
		c0.2-0.4,0.7-0.5,1.1-0.4c0.6,3,0.9,6.1,1,9.2c0.1,1.4-0.1,2.8-0.5,4.1c-0.5,1.2-1.4,2.2-1.7,3.4c-0.4,1.5,0.2,3.1,0.6,4.6
		c0.7,2.4,1.3,4.8,1.7,7.2c-0.8-0.1-1.3,0.8-1.2,1.6c0.2,0.7,0.4,1.5,0.7,2.2c0.3,0.8-0.1,1.6-0.9,1.9c-0.2,0-0.4,0-0.6,0.1
		c-0.2,0.1-0.3,0.4-0.1,0.5c0.6,3.3,0.8,6.7,0.5,10c-0.6-0.1-1.2-0.4-1.7-0.8c0,0.7,0.8,1.1,1.5,1.2c0.7,0,1.4,0.2,2,0.6
		c0.3,0.3,0.5,0.8,0.5,1.2c0.5,2.1,0.7,4.2,0.6,6.3c-0.8-0.6-1.9,0-2.4,0.8c-0.4,0.9-0.5,1.9-0.3,2.8c0.4,0.2,0.7,0.5,1.1,0.7
		c0.3-0.5,1-0.6,1.5-0.3c0.4,0.3,0.5,1,0.2,1.4l-0.1,0.1c0.7,0.3,1.3,0.9,1.5,1.6c-0.6-0.4-1.4-0.3-1.9,0.3l0,0
		c-0.4,0.6-0.7,1.3-0.9,2c-0.7,1.4-2.3,2.2-3.8,2.9c-3.9,1.7-7.8,3.3-11.7,4.8c-4.1,1.6-8.2,2.9-12.4,4c-1.6,0.5-3.3,0.6-5,0.4
		c-0.2,0.4,0.4,0.7,0.8,0.8s1,0,1.2,0.4c0.1,0.2,0,0.5,0,0.8c-0.2,1.1,0.5,2.2,1.5,2.6c-1.7,2.1-4.4,3.1-7,4
		c-4.9,1.7-9.7,3.5-14.6,5.2c-0.6,0.2-1.1,0.4-1.7,0.6c-1.4,0.5-3.1,0.9-4.2,0c-0.7-0.6-0.9-1.5-1.5-2.2c-0.4-0.5-1-0.9-1.5-1.4
		c-1.3-1.4-1.5-3.4-1.7-5.4l-0.9-13.2h-2c-3.8,2.5-9.2,2.3-13.7,2.1c-0.6-0.1-1.1,0-1.6,0.3c-0.5,0.6-0.7,1.4-0.5,2.2
		c0.6,6,1.1,12,1.7,18.1c-4.1,0.7-8,1.9-11.8,3.6c-1.8,0.8-3.7,1.7-5.5,1c-1.4-0.5-2.3-1.9-3.5-2.9c-1.7-1.3-3.6-2.2-5.7-2.6
		c-0.7-0.3-1.5-0.3-2.3-0.2c-0.6,0.3-1.1,0.6-1.6,1.1c-1,0.8-2.3,1.3-3.6,1.3c0.3-3.8,0.7-7.6,1-11.4c0.1-1.1,0.2-2.1,0.4-3.2
		c0.2-1,0.4-2.1,0.7-3.1c0.9-3.7,1.8-7.4,2.7-11.2c0.4-2.3,1.2-4.5,2.4-6.5l-36.8-1.4l2.2-17.2l-4.7-0.4l9.4-48.8l-40.7-3.2v-4
		l11.5,0.6l1.7-13.4l13.7,0.9l0.8-6l-11.5-0.4l0.6-4.1l11.9,0.1v-5.6c-1.9,0.1-3.7-0.2-5.5-0.7c0.4-1.1,0.7-2.1,1-3.2
		c1.2-0.1,2.4-0.1,3.6-0.2c0-0.6-0.1-1.2-0.3-1.8c0-0.1-0.1-0.2-0.2-0.2c-0.1-0.1-0.2,0-0.4,0s-0.4-0.1-0.6-0.2
		c-1.3-0.4-2.6,1.4-3.8,0.8c-0.5-0.2-0.8-0.7-0.8-1.2c-0.1-0.5,0-1,0.1-1.5c0-0.2,0.1-0.3,0.2-0.4c0.1-0.1,0.2-0.1,0.3-0.1
		c2.8-0.4,5.7-0.7,8.5-1l0.4-11.3h-2.5v1H562v-1l-27.9-3.1l-5.7-6.8l7.3-21.6l34,4c0.2-1.3,0.2-2.7,0.4-4c0.9-0.1,1.5-0.8,1.7-1.6
		s0.2-1.7,0-2.5l-1.7-0.3c-0.2,0-0.4-0.1-0.5-0.2c-0.1-0.2-0.1-0.3,0-0.5c0.4-1.5,0.7-3,1.1-4.5c0.2-1.2,0.6-2.3,1.2-3.3
		c0.6-1,1.8-1.6,3-1.4c0.4,0.1,0.7,0.2,1.1,0.2c0.8-0.2,0.8-1.4,0.6-2.2c-0.7-0.2-1.3-0.4-1.9-0.8c-0.3-3.8,2.3-7.2,2.6-11
		c0-0.3,0-0.7-0.2-1s-0.6-0.4-0.9-0.2l0,0c0.1,1.3-0.7,2.4-1.9,2.8c0.1-2.6,0.4-5.1,0.9-7.6c0-0.2,0.1-0.4,0.3-0.5s0.5,0,0.8,0
		c0.5-0.1,1-0.5,1.1-1s0-1.1-0.3-1.5c-0.3-0.5-0.5-1-0.6-1.6c0-0.6,0.6-1.2,1.1-0.9c0.4-2.5,0.4-5.3,0.9-7.8c0.5-1.8,0.5-3.8,0-5.6
		c-0.4-1.1-1.1-2.1-1.4-3.2c-0.2-1.4,0-2.7,0.5-4c1.7-5.4,3.5-10.7,5.1-16.1c-1-0.6-1.7-1.6-2.1-2.7c-0.8-2.3,0-4.8,0.8-7.1
		c0.4-1,0.7-2,1.1-3.1c0.4-1.1,1.1-2.3,2.2-2c-0.2,1.4,0.8,2.6,2.2,2.7c0.3,0,0.5,0,0.8,0c-0.2-2.8-0.3-5.8-0.5-8.6
		c0-0.6,0-1.3,0.5-1.4s1.1,0.5,1.8,0.5s1.1-1,1.1-1.7c-0.2-0.5-0.9-0.6-1.4-0.5c-0.5,0.2-1.1,0.2-1.6,0.2c-1.1-0.2-1.5-1.5-1.7-2.6
		c-0.7-3.1-1.1-6.2-1.2-9.4c0.5,0,0.9,0.3,1,0.8c1.6,0,2.6-1.9,2.4-3.4c-0.1-1.2-0.5-2.7,0.6-3.2c0.7-0.3,1.6,0.1,2.3-0.2
		c1-0.5,0.7-1.9,0.2-2.9c-0.7-1.4-1.3-2.9-2-4.3c1.3,0.2,2.6-0.1,3.8-0.7c-1.5-0.7-3.3-0.8-4.9-0.5c-0.7-1.7-1.2-3.4-1.4-5.2
		c3,0.1,5.9-0.2,8.8-1c0-1.5,0-3-0.2-4.5c0.5,0.1,0.9,0.1,1.4,0v-3.1c0.5,0,0.9-0.1,1.4-0.1c0-1.4,0.2-2.9,0.7-4.2
		c0.8,0.1,1.4-0.8,1.5-1.6s0.2-1.7,0.9-2.2c0.2-0.2,0.6-0.3,0.7-0.6c0.2-0.3,0.2-0.6,0.2-0.9c0.1-2.7,0.1-5.3,0.2-8
		c0.9-0.2,1.9-0.2,2.8,0c0.8,0.2,1.3-0.8,1.2-1.6c-0.2-0.8-0.5-1.5-1-2.2c-0.8-1.5-1.1-3.1-0.9-4.8c0.7,0.1,1.4-0.1,2-0.4
		c0.6-0.4,0.9-1.1,0.6-1.8c3.7-0.8,7.4-1.1,11.2-0.8c0.4-2.4,0-4.9-1.1-7.1c-0.7-1-1.3-2.1-1.6-3.3c-0.3-1.5,0.2-3.2-0.7-4.4
		c-0.3-0.4-0.8-0.8-0.8-1.3s0.4-0.9,0.6-1.3c1.1-1.8,1.2-4,0.5-5.9c-0.6-1.9-1.4-3.9-1.3-6c0-1.9,0.8-3.8,0.5-5.7
		c-0.3-1.6-1.5-3-1.8-4.6c-0.1-0.8-0.1-1.6-0.1-2.4c0-1.8-0.5-3.7-1.3-5.3c-1,0.2-2,0-2.9-0.5c-0.8-0.6-1.1-2-0.2-2.5
		c0.3-0.2,0.8-0.2,1-0.5s0.1-0.8,0-1.2l-6-19.5c-0.1-0.5-0.4-1-0.7-1.4c-0.9-0.9-2.5-0.4-3.6,0.2c-1.5-4.5-3.8-8.7-5.7-13.1
		c-0.5-0.3-1,0.3-1.6,0.4c-0.8,0.1-1.3-0.9-1.5-1.6c-0.4-1.5-0.7-3-0.9-4.6c-1.2,0.1-2.3,0.2-3.5,0.2c-0.3-1-0.4-2.1-0.3-3.1
		c0.8,0.1,1.5-0.2,2.1-0.7c-0.5-3.2-1.5-6.4-2.9-9.3c-0.7,0.4-1.6,0.6-2.4,0.7V444c-0.4,0-0.7-0.2-0.9-0.5c0.2-0.2,0.5-0.3,0.7-0.5
		c-0.6-0.4-1.3-0.5-2-0.5v-2.7c-0.9,0.1-1.7,0.4-2.4,0.9c-1.8-4.1-3.3-8.3-4.5-12.6c0.7,0.6,1.8-0.2,1.9-1.1c0-0.9-0.4-1.7-1-2.4
		c-0.2-0.2-0.4-0.5-0.6-0.5c-0.6,0-1,1.1-1.6,0.8c-0.3-0.5-0.7-1.1-1-1.6c-1.1-1.8-2.3-4-1.4-5.9c0.8-1.6-0.2-3.5-0.3-5.3
		c0-0.3,0-0.6-0.2-0.9c-0.4-0.6-1.4-0.3-2.2-0.4c-1.2-0.2-2.1-1.2-2.2-2.4c-0.1-1.1,0-2.3,0.4-3.4c0.6-2.1,1.2-4.1,1.7-6.2
		c-0.6,0.1-1.2,0.1-1.7,0.2c0.2-1.3,0.2-2.7,0.1-4c-1.1,0.2-2.1,0.2-3.2,0.1c0.3-0.9,0.3-1.8,0.1-2.7c-0.2-0.9-1.1-1.4-1.9-1.2
		c-0.1,0-0.1,0-0.2,0c-0.4-0.9-0.4-2-0.1-2.9c0.4-1.6,0.8-3.2,1.3-4.8c-2-0.6-4.1-0.8-6.2-0.8c-0.7-3.7,0.8-7.4,3.7-9.7
		c0.9-0.7,1.9-1.3,3-1.7c2.1-1.1,4.5-1.8,6.9-1.9c0.1-2.7,0.3-5.4,0.4-8.1c-1.3-0.1-2.6-0.1-3.8-0.2c-0.4-3-0.5-5.9-0.4-8.9
		l-20.9-3.6c0.2-3.4,0.6-6.8,1.4-10.1c-0.6,0-1.1,0-1.7-0.1c0.1-2.9,0.4-5.9,0.7-8.8c-1.3,0-2.6,0-3.8-0.1c-0.2-2.5-0.1-5.1,0.3-7.6
		c-1.5-0.9-2.9-2.2-3.9-3.6c-0.1-0.2-0.2-0.4-0.2-0.6c0-0.5,0.6-0.8,1.1-0.9s1.1,0,1.5-0.3c0.6-0.6,0.8-1.5,0.5-2.3
		c-0.3-1.6-0.5-3.2-0.8-4.8c-1.5,0.4-3.1,0.5-4.6,0.4c-0.3-3.4-0.2-6.8,0.4-10.2c1.8-0.4,3.9,0.8,5.4-0.2c1.3-0.8,1.5-2.8,2.8-3.7
		c-2,0.1-3.9,0.6-5.7,1.5c0.5-1.7,0.6-3.5,0.5-5.2c-0.8,0.3-1.4-0.7-1.4-1.5c-0.1-1.5,0.2-3.1,0.7-4.5c0.6-2.1,1-4.2,1.4-6.3
		c0.2-0.5,0.1-1.1-0.2-1.6c-0.5-0.4-1.1-0.7-1.7-0.7c-0.6-0.1-1.3-0.5-1.3-1.1c0.1-0.5,0.5-0.9,1-1c0.5,0,1,0.1,1.5,0.3
		c2.1,0.8,4.1,1.7,6.2,2.5c0.6,0.3,1.4,0.4,2.1,0.3c0.5-0.3,0.8-0.6,1.1-1.1c0.5-0.8,1-1.5,1.5-2.3c0.5-0.7,0.9-1.5,1.2-2.4
		c0.2-0.8,0.1-1.7,0.3-2.4c0.3-0.7,0.6-1.3,1.1-1.8c0.5-0.8,0.8-1.8,0.8-2.8c0-0.2,0-0.3-0.1-0.5c-0.1-0.1-0.2-0.1-0.3-0.2
		c-1-0.4-1.9-0.7-2.9-1.1c0.3-1.4,0.8-2.8,1.2-4.1c0.2-0.7,0.6-1.3,1.1-1.7c0.9-0.6,2-0.2,2.9,0.1c2,0.8,4.3,1.8,4.7,3.9
		c0.3,1.7-0.9,3.4-1,5.2c-0.3,0-0.4,0.5-0.7,0.5c1.8,2,4.4,3,7.1,2.8c1.2-3.5,1.1-7.2-0.1-10.7c2.7-2.2,4.4-5.3,4.8-8.7l6.8,0.9
		c1.5-3.3,3-6.7,4.5-10c0.7-1.5,1.4-3.1,2.9-3.9s3.2-0.5,4.7-1.1c2-0.7,3.3-2.6,5-3.7c3.1-1.7,7-1,9.2,1.8c0.3,0.6,0.8,1.2,1.3,1.7
		c1,0.8,2.4,0.9,3.6,1.2c2.5,0.6,4.7,2.3,5.9,4.6c0.6,1.1,0.9,2.6,0,3.5c-0.5,0.6-1.4,0.7-2.1,1c-2.9,1.3-4.2,4.6-2.9,7.5
		c0.4,0.6,0.7,1.2,0.9,1.9c0.5,2.4-2.9,4.7-1.9,7c0.4,0.8,1,1.4,1.8,1.7c6.7,4,13.8,8.2,21.7,8.3c-0.1-1.9,0.2-3.8,0.9-5.6
		c0.1-0.4,0.4-0.7,0.7-1c1.6-0.9,3.2,2.4,4.8,1.6c0.4-2.4,3.4-3.3,5.9-3.3s5.2,0.4,7-1.2c1.4-1.3,2.1-3.7,4-4s3.3,1.7,4.9,2.9
		c2.3,1.8,5.5,2,7.7,3.9c1.2,1.2,2.2,2.5,2.9,4c1.1,1.7,1.8,3.7,2.1,5.7c0.2,3-1.5,5.8-2.9,8.5c-1,1.6-1.5,3.5-1.5,5.4
		s1.3,3.6,3.2,4.1c1.3,0.2,2.9-0.4,4,0.3c1.4,0.9,1.2,3,0.2,4.4s-2.4,2.3-3.2,3.7c-0.6,1.4-1,2.8-1.4,4.3c-1.5,3.8-5.6,5.6-9.1,7.6
		c-3.7,2.1-7.1,4.8-10.1,7.9c-2.3,2.4-4.6,5.2-7.9,5.4s-5.9-2.3-8.7-4c-3.2-1.9-6.8-2.7-10.5-2.4c0.6,4.2,3.3,7.8,7.1,9.7
		c1.5,0.7,3.2,1.1,4.4,2.2s1.8,3.2,0.6,4.4c-0.9,0.6-1.9,0.9-3,1.1c-1,0.3-2.1,1.3-1.7,2.3c0.5,1.4,2.6,0.7,4,0.9
		c2.1,0.4,3,3.3,2.1,5.2c-0.9,1.9-3,3.1-4.9,4.1c-1.1-4-5-6.6-9.1-6.2c-1.5,1.9-3,3.9-4.5,5.8c4.1,1.6,4.4,8.1,8.4,9.8
		c6-1.3,10.8-3.7,16.3-6.6c1.3-0.7,2.6-1.3,4-1.8c1.5-0.3,3.1-0.5,4.7-0.4h7.5c1.7,0,4.1,0.6,3.9,2.3c-2.4,0.7-4.3,2.7-4.8,5.2
		c-0.5,2.7,0.7,5.3,1.8,7.8c4.2,0.4,7.7-3.3,9.4-7.1s2.5-8.1,5-11.6c1.1-1.5,2.6-3,2.6-4.9c0.1-3.1-3.5-5.3-3.3-8.4
		c0.2-0.8,0.4-1.6,0.6-2.4c0.4-1.9,0.8-3.9,1-5.8c0.4-1.9,1.6-3.9,3.5-4.5c1.2,0.9,1.6,2.5,1,3.9c1.9,0.5,3.1,2.6,3.3,4.6
		c0.1,2-0.3,4-1,5.9c-1.3,0.1-2.3,1-2.6,2.3c0.9,0.6,0.8,1.9,0.4,2.9s-1,2-0.7,3.1c0.8,0.4,1.7,0.2,2.2-0.6c0.4-0.8,0.6-1.6,0.6-2.5
		c0.1-1.3,0.6-2.6,1.5-3.6s2.4-1.3,3.6-0.6c1.1,0.7,1.3,2.7,0.1,3.3c0.9,0.7,1.8,1.5,2.7,2.2c-0.5,0.7-1.5,1-2.3,0.7
		c0,1.5-0.1,2.9-0.1,4.4c-2.3,0.7-4.6,1.3-6.8,2c-1.8,0.4-3.4,1.2-4.8,2.4c-1.3,1.4-1.7,3.3-2.1,5.2c2,0.1,4,0.6,5.9,1.4
		c-0.6-0.7-0.8-1.5-0.6-2.4c1.8,0.3,3.6,0.6,5.4,0.7c0.7,0.1,1.8-0.3,1.5-1c1.5,0.9,3,1.6,4.6,2.2c-0.8,0.7-1.9,1-2.9,0.8
		c0.2,0.6,0.9,0.9,1.5,0.7l0,0c0.6-0.2,1.1-0.6,1.8-0.8c1.3-0.3,2.6,1,2.9,2.3c0.1,1.4,0.2,2.7,0.1,4.1c0.1,1.4,0.6,2.9,1.9,3.4
		c-0.6,0-1.2,0-1.8-0.1c0.4,3.8,1.8,7.4,3.9,10.6c1.4,2,3.1,4.4,2.3,6.7c-1,0.2-1.9,0.7-2.7,1.3c1.8,0,3.5,0,5.3,0.1v3
		c-1,0-2.7,0.1-3.7,0.2c2.9,1.7,5.5,4.1,7.5,6.8c-0.7,0.2-1.4,0.3-2,0.5c1.2,0.1,1.8,1.5,2.1,2.6s0.4,2.5,1.4,3.2
		c0.4,0.3,1,0.4,1.4,0.7c1.6,1,1.7,3.5,3.4,4.3c0.6,0.2,1.2,0.2,1.8,0.4s1.1,0.8,1,1.3c-1.5,0.4-2.5,1.9-2.1,3.4
		c0.1,0.4,0.2,0.7,0.4,1c1.1,0.1,2,0.9,2.2,2c1,0,1.9,0.3,2.7,0.8c0.2,0.1,0.3,0.3,0.4,0.5c0,0.2,0,0.3-0.1,0.5
		c-0.5,1.1-1,2.1-1.4,3.2c2,0.4,4,1,5.9,1.8c-0.7,0.6-1.3,1.2-1.9,1.9c1.3-0.1,2.6,0.1,3.8,0.7c-0.5,3-0.2,6,0.8,8.9
		c1.7-0.1,3.3-0.3,5-0.4v3l4-0.3c1.6,7.3,2.8,14.6,3.6,22c-0.7,0-1.3-0.1-2-0.1c0.8,2,0.9,4.2,0.2,6.3c1.4,0.5,2.7,1.1,3.9,1.8
		c-0.8-0.4-1.7,1.1-1.9,2.1s-0.3,2.1-1.2,2.3c0.4,0,0.7,0.1,1.1,0.1c0,1.1,0.3,2.2,0.9,3.2c1.1-0.7,2.4-0.9,3.7-0.8
		c0.4,1.5,0.5,3.2,0.1,4.7c-0.4,1.3-0.9,2.6-1.5,3.8c-0.4,0.8-0.8,1.7-1.2,2.5c1-0.2,2-0.2,3-0.1c0.2,3.5-0.8,6.9-2.8,9.8
		c-1.2,0.2-2.3,0.2-3.5,0c-0.9,3.9-1.2,8-2,11.9c-0.5,2.5-1.2,4.9-1.8,7.3s-1.2,4.5-1.7,6.8"/>
	<path class="st5" d="M741.1,544.6c1.1,0.3,2.3,0.5,3.4,0.8c1.3,0.3,2.7,0.8,3.1,2c0.1,0.5,0.1,1,0,1.5c0,0.4-0.1,0.8-0.4,1
		c-0.2,0.1-0.5,0.1-0.7,0.1c-2.9,0-5.8-0.4-8.6-1.4c-0.2-0.1-0.5-0.2-0.6-0.4s-0.1-0.5-0.1-0.7v-3.2c0-0.6,0-1.1,0.2-1.7
		c0.2-0.5,0.6-0.9,1.1-1c0.6-0.1,1.1,0.3,1.7,0.4c0.4,0.1,0.7,0.1,0.8,0.5C741.1,542.9,741,544.6,741.1,544.6z"/>
	
		<linearGradient id="SVGID_00000083071148517364077190000007810568131655621775_" gradientUnits="userSpaceOnUse" x1="-48.8442" y1="491.8794" x2="1158.2557" y2="491.8794" gradientTransform="matrix(2.764400e-03 0.8254 1.2102 -4.053123e-03 1.6398 46.1262)">
		<stop  offset="3.214890e-02" style="stop-color:#000000"/>
		<stop  offset="6.224116e-02" style="stop-color:#090908;stop-opacity:0.9354"/>
		<stop  offset="0.1275" style="stop-color:#141413;stop-opacity:0.7952"/>
		<stop  offset="0.2193" style="stop-color:#1B1B19;stop-opacity:0.5979"/>
		<stop  offset="0.4744" style="stop-color:#1D1D1B;stop-opacity:5.000000e-02"/>
		<stop  offset="0.75" style="stop-color:#1B1B19;stop-opacity:0.5664"/>
		<stop  offset="0.8637" style="stop-color:#141413;stop-opacity:0.7795"/>
		<stop  offset="0.9473" style="stop-color:#080807;stop-opacity:0.9361"/>
		<stop  offset="0.9814" style="stop-color:#000000"/>
	</linearGradient>
	<polygon style="display:none;fill:url(#SVGID_00000083071148517364077190000007810568131655621775_);" points="1201.9,1.8 
		1205.2,998.2 -5,1002.2 -8.3,5.8 	"/>
</g>
<g id="Layer_2">
</g>
</svg>
